<?xml version="1.0" standalone="no"?>
<!DOCTYPE svg PUBLIC "-//W3C//DTD SVG 20010904//EN"
 "http://www.w3.org/TR/2001/REC-SVG-20010904/DTD/svg10.dtd">
<svg version="1.0" xmlns="http://www.w3.org/2000/svg"
 width="500.000000pt" height="500.000000pt" viewBox="0 0 500.000000 500.000000"
 preserveAspectRatio="xMidYMid meet">

<g transform="translate(0.000000,500.000000) scale(0.100000,-0.100000)"
fill="#000000" stroke="none">
<path d="M2448 4008 c-100 -117 -135 -163 -168 -223 -37 -67 -103 -184 -131
-231 l-19 -31 -66 15 -66 16 -66 -69 c-37 -39 -105 -113 -152 -165 -160 -177
-157 -175 -240 -195 -88 -21 -126 -38 -139 -64 -12 -21 -33 -85 -121 -361 -66
-209 -79 -249 -165 -493 l-55 -159 0 -147 c0 -170 -1 -168 102 -308 37 -50 93
-144 126 -209 33 -65 68 -126 78 -135 18 -15 125 -51 699 -234 116 -37 250
-80 299 -96 100 -33 124 -35 181 -15 22 8 105 38 185 66 80 29 156 56 170 60
26 8 407 141 515 179 33 12 71 29 83 39 13 9 51 69 84 132 33 63 114 193 180
287 65 95 121 186 124 202 4 17 -4 64 -19 117 -56 192 -87 315 -116 459 -17
83 -36 167 -42 188 -11 40 -297 482 -327 505 -9 7 -48 12 -96 12 l-81 1 -135
272 -136 272 -88 5 -88 5 -107 180 c-78 132 -112 181 -127 183 -16 2 -36 -14
-76 -60z m103 -155 c18 -32 40 -70 49 -84 8 -15 55 -97 103 -183 49 -85 92
-158 96 -161 5 -2 11 33 15 78 7 86 13 101 37 92 8 -3 77 -129 154 -280 l140
-275 90 -1 90 0 135 -206 134 -205 22 -106 c11 -59 31 -161 43 -227 12 -66 26
-140 31 -165 50 -266 57 -216 -60 -449 -99 -199 -101 -202 -123 -188 -12 7
-168 96 -347 197 -179 100 -370 209 -425 240 -55 32 -131 74 -168 95 -38 20
-114 63 -169 95 l-101 58 -113 -74 c-166 -109 -145 -105 -259 -40 -53 31 -98
56 -100 56 -1 0 -70 38 -151 85 -82 47 -152 85 -156 85 -4 0 -22 -28 -40 -62
-29 -57 -32 -73 -36 -170 -2 -59 1 -137 7 -173 14 -78 1 -171 -31 -225 -26
-44 -29 -160 -4 -208 21 -41 21 -44 -11 -40 -25 3 -37 20 -115 173 -49 96 -87
183 -88 199 0 17 -5 66 -11 110 l-11 81 67 230 c37 127 69 242 72 258 3 15 7
27 9 27 4 0 73 -38 164 -90 36 -20 85 -48 110 -62 107 -59 329 -184 373 -210
26 -15 52 -28 56 -28 5 0 63 36 131 80 68 44 129 80 136 80 14 0 33 -10 254
-135 382 -216 453 -255 456 -252 2 2 -3 29 -11 61 -8 31 -18 82 -22 113 l-6
56 34 -7 c19 -4 65 -12 102 -17 122 -16 185 -38 266 -92 24 -16 54 -29 67 -29
48 0 134 81 134 127 0 10 -22 44 -50 76 -32 37 -50 67 -50 83 0 17 -19 47 -57
89 -32 35 -64 81 -72 103 -21 60 -38 74 -90 74 -65 1 -225 66 -303 125 -98 73
-133 88 -223 93 -60 3 -101 -1 -162 -17 -109 -28 -190 -27 -293 4 -138 41
-277 30 -408 -33 -72 -35 -108 -59 -184 -125 l-58 -50 -112 63 c-62 35 -118
67 -125 72 -13 10 -8 29 58 234 l39 120 92 28 c104 32 90 20 317 264 62 67
116 122 120 122 3 0 71 -48 151 -106 100 -73 146 -101 148 -91 2 8 -4 42 -12
75 -30 115 -28 126 100 386 64 130 117 236 119 236 2 0 18 -26 36 -57z m-177
-2261 c24 -46 40 -92 43 -128 l6 -55 -64 3 -64 3 3 32 c3 27 -2 34 -27 48 -17
8 -40 25 -51 37 -41 45 -15 165 57 263 l37 50 12 -90 c8 -70 19 -106 48 -163z
m634 -18 c141 -80 261 -149 266 -155 6 -5 -74 -9 -217 -9 l-226 0 -74 65
c-105 90 -126 148 -87 233 l19 43 31 -16 c17 -9 147 -81 288 -161z m-1129 129
c6 -21 11 -50 11 -64 0 -24 15 -48 82 -131 14 -18 28 -46 30 -63 l3 -30 -140
-3 -140 -3 -50 51 -49 50 114 114 c63 62 118 114 122 115 4 0 12 -16 17 -36z"/>
</g>
</svg>
