<?xml version="1.0" encoding="UTF-8"?>
<svg version="1.1" xmlns="http://www.w3.org/2000/svg" width="500" height="500">
<path d="M0 0 C0.83226772 -0.00226556 1.66453543 -0.00453111 2.52202338 -0.00686532 C5.2852605 -0.01314897 8.04844785 -0.01237961 10.81169128 -0.0115509 C12.80337588 -0.0145459 14.7950599 -0.01794921 16.78674316 -0.02172852 C22.17940906 -0.03053763 27.57205906 -0.03290532 32.96473145 -0.0335443 C36.33835339 -0.03425651 39.71197133 -0.03639405 43.08559227 -0.03904152 C54.86766693 -0.04828441 66.6497303 -0.05237769 78.43180847 -0.05158997 C89.39432859 -0.05098932 100.35679948 -0.06154137 111.31930715 -0.07733363 C120.74889984 -0.09043097 130.17847647 -0.09577295 139.60807818 -0.09513456 C145.23213254 -0.09488023 150.85614311 -0.09769514 156.48018837 -0.10831261 C161.77191423 -0.11803066 167.06355477 -0.11804743 172.35528374 -0.11079597 C174.29015859 -0.10975477 176.22503887 -0.11208528 178.15990448 -0.11815643 C198.265318 -0.17712443 214.20989992 3.35233348 232.25382996 12.13371277 C232.25382996 12.79371277 232.25382996 13.45371277 232.25382996 14.13371277 C233.01695496 14.42246277 233.78007996 14.71121277 234.56632996 15.00871277 C237.25382996 16.13371277 237.25382996 16.13371277 240.25382996 18.13371277 C240.25382996 18.79371277 240.25382996 19.45371277 240.25382996 20.13371277 C240.83648621 20.39152527 241.41914246 20.64933777 242.01945496 20.91496277 C244.43412026 22.23205293 246.07123173 23.68459661 248.00382996 25.63371277 C248.61742371 26.24215027 249.23101746 26.85058777 249.86320496 27.47746277 C251.25382996 29.13371277 251.25382996 29.13371277 251.25382996 31.13371277 C251.91382996 31.13371277 252.57382996 31.13371277 253.25382996 31.13371277 C271.15607814 51.98890911 273.40753024 77.56447098 273.39909363 103.69352722 C273.40209048 105.55418464 273.40549421 107.41484144 273.40927124 109.27549744 C273.41806115 114.3024886 273.42044721 119.32946271 273.42108703 124.35646081 C273.42180029 127.50397113 273.4239398 130.65147718 273.42658424 133.79898643 C273.43582054 144.79882963 273.43992121 155.79866075 273.43913269 166.79850769 C273.43853211 177.02144676 273.44908452 187.24433303 273.46487635 197.46725875 C273.47798712 206.27102603 273.48331512 215.07477613 273.48267728 223.87855309 C273.48242337 229.12481719 273.48521547 234.37103429 273.49585533 239.61728859 C273.50559625 244.55447396 273.50557474 249.49156797 273.4983387 254.42875671 C273.49730033 256.23056358 273.49961079 258.03237632 273.50569916 259.8341732 C273.54763481 273.11495617 272.91606223 286.01364946 269.00382996 298.82121277 C268.78839539 299.53543396 268.57296082 300.24965515 268.35099792 300.98551941 C265.23348535 310.86061375 259.9314983 320.19967898 253.25382996 328.13371277 C252.59382996 328.13371277 251.93382996 328.13371277 251.25382996 328.13371277 C251.25382996 328.79371277 251.25382996 329.45371277 251.25382996 330.13371277 C250.59382996 330.13371277 249.93382996 330.13371277 249.25382996 330.13371277 C248.59382996 331.45371277 247.93382996 332.77371277 247.25382996 334.13371277 C246.59382996 334.13371277 245.93382996 334.13371277 245.25382996 334.13371277 C245.06820496 334.69058777 244.88257996 335.24746277 244.69132996 335.82121277 C242.6127217 339.16506084 239.64569393 341.18179105 236.25382996 343.13371277 C235.59382996 343.13371277 234.93382996 343.13371277 234.25382996 343.13371277 C234.25382996 343.79371277 234.25382996 344.45371277 234.25382996 345.13371277 C214.58447655 355.40765543 197.4510207 358.4406794 175.32121277 358.40837097 C173.33704946 358.41272624 171.35288782 358.41791209 169.36872864 358.42385864 C164.01313674 358.43717343 158.65761574 358.43783564 153.30201054 358.43529534 C148.81445213 358.43422033 144.32690775 358.4391226 139.83935237 358.44390076 C129.2424747 358.45497035 118.64563248 358.45544799 108.04875183 358.4493866 C97.15551839 358.44335099 86.26241425 358.45565326 75.36920285 358.47695667 C65.98190788 358.49463277 56.59465384 358.50056451 47.20734286 358.49731892 C41.61614635 358.4955152 36.02504206 358.49805041 30.43386078 358.51203346 C25.17075333 358.5247051 19.90784581 358.52258034 14.64474106 358.50962257 C12.72647659 358.50727728 10.80819762 358.50991683 8.8899498 358.5182457 C-11.86151761 358.60176473 -29.5555586 355.6891933 -47.74617004 345.13371277 C-47.74617004 344.47371277 -47.74617004 343.81371277 -47.74617004 343.13371277 C-48.40617004 342.94808777 -49.06617004 342.76246277 -49.74617004 342.57121277 C-54.08215431 340.49355364 -57.25874727 337.4035965 -60.74617004 334.13371277 C-61.35589661 333.56523621 -61.96562317 332.99675964 -62.59382629 332.41105652 C-64.02574895 331.03329643 -65.3927383 329.5886519 -66.74617004 328.13371277 C-66.74617004 327.47371277 -66.74617004 326.81371277 -66.74617004 326.13371277 C-67.40617004 326.13371277 -68.06617004 326.13371277 -68.74617004 326.13371277 C-70.27733136 323.97477531 -71.65126507 321.84375375 -72.99617004 319.57121277 C-73.59570496 318.56368958 -73.59570496 318.56368958 -74.20735168 317.53581238 C-82.74404557 302.79435767 -86.91554706 287.60819809 -86.87988281 270.58409119 C-86.88328115 269.3673746 -86.88328115 269.3673746 -86.88674814 268.12607789 C-86.89302931 265.43427203 -86.89226259 262.74251729 -86.89143372 260.05070496 C-86.89442889 258.10990332 -86.89783224 256.16910227 -86.90161133 254.228302 C-86.91041921 248.97399422 -86.91278809 243.71970275 -86.91342711 238.4653883 C-86.91413946 235.17752349 -86.91627727 231.88966279 -86.91892433 228.60179901 C-86.92816724 217.1168288 -86.93226055 205.63187017 -86.93147278 194.14689636 C-86.93087232 183.46500598 -86.9414206 172.78316615 -86.95721644 162.10128856 C-86.97032011 152.91031939 -86.97565549 143.71936669 -86.97501737 134.52838826 C-86.97476321 129.04794234 -86.9775691 123.56754136 -86.98819542 118.0871048 C-86.99792403 112.92916158 -86.9979231 107.77130587 -86.99067879 102.61335945 C-86.98963884 100.72889388 -86.99196048 98.84442272 -86.99803925 96.95996666 C-87.07361617 71.89121237 -82.46613979 49.7518106 -65.74617004 30.13371277 C-65.14546692 29.41183777 -64.54476379 28.68996277 -63.92585754 27.94621277 C-60.80640737 24.27309395 -57.74893519 20.87846601 -53.74617004 18.13371277 C-53.08617004 18.13371277 -52.42617004 18.13371277 -51.74617004 18.13371277 C-51.74617004 17.47371277 -51.74617004 16.81371277 -51.74617004 16.13371277 C-35.00970885 6.15620706 -19.69754304 -0.04017061 0 0 Z " fill="#CFFEFE" transform="translate(157.7461700439453,61.86628723144531)"/>
<path d="M0 0 C2.96064754 1.01015804 3.61550233 1.7769899 5.234375 4.41015625 C5.73453125 5.21582031 6.2346875 6.02148438 6.75 6.8515625 C9.26240866 11.19169188 11.71992727 15.56166855 14.1472168 19.94995117 C16.70457063 24.55188025 19.43090526 28.95416756 22.48828125 33.24609375 C23.484375 34.84765625 23.484375 34.84765625 23.484375 36.84765625 C24.65355469 36.75484375 25.82273437 36.66203125 27.02734375 36.56640625 C30.15770416 36.38726629 33.2633457 36.29840606 36.3984375 36.375 C37.10693848 36.39038818 37.81543945 36.40577637 38.54541016 36.42163086 C41.03929127 36.96958132 41.95444776 37.95156995 43.546875 39.91015625 C44.22150768 41.54439577 44.86203461 43.19279659 45.484375 44.84765625 C46.43899515 46.69248081 47.44661092 48.50293124 48.45678711 50.31787109 C51.35283709 55.5443819 54.01537263 60.83333005 56.35546875 66.33203125 C58.89017947 71.98031397 61.72438484 77.50841433 64.58203125 82.99975586 C65.484375 84.84765625 65.484375 84.84765625 66.73828125 88.30078125 C67.31449219 89.14125 67.89070312 89.98171875 68.484375 90.84765625 C71.34507028 91.34503415 73.51370267 91.51013933 76.359375 91.41015625 C83.5768582 91.19323736 83.5768582 91.19323736 87.01953125 93.67578125 C90.78161568 98.12438318 93.8674453 103.16639312 97.046875 108.03515625 C98.4672358 110.19154598 99.88781089 112.34779458 101.30859375 114.50390625 C102.01032715 115.57253906 102.71206055 116.64117187 103.43505859 117.7421875 C105.31549662 120.59174334 107.21548464 123.42642973 109.12890625 126.25390625 C109.95249634 127.47364136 109.95249634 127.47364136 110.79272461 128.71801758 C111.80996774 130.22256091 112.83014713 131.72512469 113.85375977 133.2253418 C117.97088906 139.34429067 119.76651812 144.65999361 120.921875 151.97265625 C121.89622965 157.81691993 123.08700081 163.4630232 124.75 169.15625 C125.55809594 172.11783567 126.1454758 175.08493411 126.734375 178.09765625 C128.34128774 185.86440117 130.68790654 193.37694287 133.05957031 200.94042969 C133.35702148 201.89079102 133.65447266 202.84115234 133.9609375 203.8203125 C134.22986816 204.66859619 134.49879883 205.51687988 134.77587891 206.39086914 C136.48751309 212.32614645 138.12919043 218.45374716 135.32910156 224.23144531 C133.67754091 226.88451732 131.92588595 229.42972719 130.109375 231.97265625 C129.47177246 232.89771973 128.83416992 233.8227832 128.17724609 234.77587891 C124.96278303 239.41863318 121.66030151 243.99468226 118.32836914 248.5534668 C117.72496704 249.37971558 117.72496704 249.37971558 117.109375 250.22265625 C116.71161865 250.76639893 116.3138623 251.3101416 115.90405273 251.87036133 C111.40436956 258.1485754 107.97539115 264.97520742 104.484375 271.84765625 C98.59324306 283.40457629 98.59324306 283.40457629 92.2265625 285.640625 C90.58508436 286.13507637 88.93544016 286.60357551 87.27734375 287.0390625 C84.34551986 287.88785627 81.51923194 288.93694247 78.66870117 290.0246582 C74.82015843 291.47469035 70.93121599 292.80964413 67.046875 294.16015625 C59.69228848 296.72055649 59.69228848 296.72055649 52.3515625 299.3203125 C42.23102638 302.93452058 32.04880407 306.34474249 21.83569336 309.68896484 C16.26396211 311.52663593 10.82762779 313.4228649 5.484375 315.84765625 C-5.47178786 320.37302787 -14.97965226 316.45572755 -25.515625 312.84765625 C-27.86928694 312.05449026 -30.22344648 311.26279921 -32.578125 310.47265625 C-33.81175781 310.05757813 -35.04539062 309.6425 -36.31640625 309.21484375 C-41.27013616 307.5792122 -46.26940569 306.09720076 -51.265625 304.59765625 C-62.1615657 301.31728454 -72.95420255 297.76211 -83.734375 294.12109375 C-88.28461587 292.58551881 -92.84596725 291.09398937 -97.421875 289.63671875 C-98.52088135 289.28279053 -99.6198877 288.9288623 -100.75219727 288.56420898 C-102.83295925 287.8952736 -104.91666818 287.23541297 -107.00366211 286.58618164 C-115.38511062 283.86926615 -118.44290813 280.56433431 -122.453125 272.72265625 C-122.80592529 272.05105469 -123.15872559 271.37945312 -123.5222168 270.6875 C-125.38981145 267.11433749 -127.13925765 263.50892343 -128.828125 259.84765625 C-131.41919122 254.55016812 -134.94246953 249.95953242 -138.50708008 245.28710938 C-139.19386841 244.3831543 -139.19386841 244.3831543 -139.89453125 243.4609375 C-140.50663452 242.66876831 -140.50663452 242.66876831 -141.13110352 241.8605957 C-145.08115978 236.11765549 -147.02021395 232.48534677 -147.15234375 225.39453125 C-147.17290329 224.35402367 -147.17290329 224.35402367 -147.19387817 223.29249573 C-147.22451705 221.06004975 -147.21836352 218.83023423 -147.203125 216.59765625 C-147.20275238 215.83576996 -147.20237976 215.07388367 -147.20199585 214.28890991 C-147.15151118 202.40969443 -145.63336438 192.63741007 -140.42626953 181.83984375 C-138.91907099 178.54259439 -137.85530648 175.11318972 -136.765625 171.66015625 C-135.62775938 168.15440831 -134.45791197 164.69783061 -133.1328125 161.2578125 C-130.92317348 155.42612315 -129.20344998 149.43649017 -127.390625 143.47265625 C-124.29226534 133.38640665 -121.09634991 123.33921435 -117.703125 113.34765625 C-117.3426709 112.26307129 -116.9822168 111.17848633 -116.61083984 110.06103516 C-113.25630297 100.31497698 -113.25630297 100.31497698 -109.515625 96.84765625 C-107.25390625 95.80859375 -107.25390625 95.80859375 -104.828125 95.22265625 C-103.95671875 94.99578125 -103.0853125 94.76890625 -102.1875 94.53515625 C-101.30578125 94.30828125 -100.4240625 94.08140625 -99.515625 93.84765625 C-97.86491175 93.32104834 -96.21864186 92.78021753 -94.578125 92.22265625 C-93.86785156 91.98289062 -93.15757812 91.743125 -92.42578125 91.49609375 C-91.79542969 91.28210938 -91.16507813 91.068125 -90.515625 90.84765625 C-89.525625 90.51765625 -88.535625 90.18765625 -87.515625 89.84765625 C-86.81425058 88.53224903 -86.15212033 87.19565325 -85.515625 85.84765625 C-84.41340047 84.53515337 -83.26158462 83.26335549 -82.07421875 82.02734375 C-81.40841797 81.32738281 -80.74261719 80.62742187 -80.05664062 79.90625 C-79.01540039 78.82537109 -79.01540039 78.82537109 -77.953125 77.72265625 C-76.57478669 76.28450086 -75.19838543 74.84448569 -73.82421875 73.40234375 C-73.21376709 72.76796387 -72.60331543 72.13358398 -71.97436523 71.47998047 C-70.43046179 69.8961125 -70.43046179 69.8961125 -69.515625 67.84765625 C-68.855625 67.84765625 -68.195625 67.84765625 -67.515625 67.84765625 C-67.26941406 67.27273437 -67.02320313 66.6978125 -66.76953125 66.10546875 C-65.31769447 63.49125798 -63.61274951 61.78429417 -61.453125 59.72265625 C-58.59990567 57.06860625 -58.59990567 57.06860625 -56.515625 53.84765625 C-55.855625 53.84765625 -55.195625 53.84765625 -54.515625 53.84765625 C-54.515625 53.18765625 -54.515625 52.52765625 -54.515625 51.84765625 C-48.72664081 51.64090681 -44.08629777 52.25603546 -38.515625 53.84765625 C-38.24322998 53.13448242 -37.97083496 52.42130859 -37.69018555 51.68652344 C-35.60236944 46.64035306 -32.91413965 41.90233735 -30.328125 37.09765625 C-29.77576172 36.0509375 -29.22339844 35.00421875 -28.65429688 33.92578125 C-25.12673038 27.37048926 -21.24028127 21.58753359 -16.515625 15.84765625 C-15.51623964 14.5608462 -14.52121576 13.27063321 -13.53125 11.9765625 C-12.60953924 10.78763307 -11.68766709 9.59882874 -10.765625 8.41015625 C-10.06373047 7.49459961 -10.06373047 7.49459961 -9.34765625 6.56054688 C-4.05007555 -0.24526855 -4.05007555 -0.24526855 0 0 Z " fill="#1C5068" transform="translate(252.515625,93.15234375)"/>
<path d="M0 0 C2.98193633 2.76247093 4.93819463 5.35621779 6.80859375 8.95703125 C7.32147949 9.92721191 7.83436523 10.89739258 8.36279297 11.89697266 C8.90307129 12.92097168 9.44334961 13.9449707 10 15 C11.1515608 17.09055103 12.30923159 19.17774683 13.47265625 21.26171875 C14.06240234 22.31810547 14.65214844 23.37449219 15.25976562 24.46289062 C16.15211914 26.05907227 16.15211914 26.05907227 17.0625 27.6875 C17.66126953 28.76322266 18.26003906 29.83894531 18.87695312 30.94726562 C22.11062065 36.73103241 25.42923972 42.41773393 29 48 C29.66 42.72 30.32 37.44 31 32 C32.65 32 34.3 32 36 32 C37.28689779 34.57379558 38.57378076 37.14759855 39.8605957 39.72143555 C40.96043337 41.92094708 42.06053428 44.120327 43.16088867 46.31958008 C45.5572515 51.10984359 47.95326914 55.90018594 50.33203125 60.69921875 C50.9919141 62.02878156 51.65205346 63.35821711 52.3125 64.6875 C52.62316406 65.31285645 52.93382812 65.93821289 53.25390625 66.58251953 C55.94945827 71.97219585 58.82254018 77.25662362 61.75 82.5234375 C63 85 63 85 63 87 C64.27875 86.84917969 65.5575 86.69835937 66.875 86.54296875 C71.95955815 86.11971527 77.01220669 85.72851521 82 87 C86.09107887 90.66287543 87.80653145 95.036677 90 100 C91.24659625 101.98732735 92.53816107 103.94722048 93.875 105.875 C94.52726563 106.85726562 95.17953125 107.83953125 95.8515625 108.8515625 C97.39471296 111.11297935 98.9629319 113.32155592 100.5859375 115.5234375 C101.02824707 116.14234863 101.47055664 116.76125977 101.92626953 117.39892578 C102.76415872 118.57061073 103.61997379 119.72985267 104.49951172 120.87060547 C111.93818731 131.42356634 112.89920166 147.14993097 115.0625 159.625 C115.55000687 162.40945785 116.04099937 165.19327722 116.53515625 167.9765625 C116.65463623 168.64999695 116.77411621 169.3234314 116.8972168 170.01727295 C118.30821325 177.86683151 120.03274891 185.64690554 121.76245117 193.43139648 C124.02370977 204.75931971 117.87312166 213.66935869 112.52197266 223.26123047 C110.62414894 226.67633898 108.81426246 230.13367052 107.00537109 233.59643555 C105.35830926 236.7425731 103.68039494 239.87156103 102 243 C94.32415804 238.96762435 86.72513821 234.90358812 79.33203125 230.3671875 C76.09402807 228.46886068 72.73438826 226.85717016 69.36328125 225.2109375 C66.53390416 223.76117403 63.89606448 222.10072358 61.22753906 220.37768555 C58.8418168 218.90216705 56.41068836 217.5613437 53.94140625 216.23046875 C48.21974304 213.12729839 42.54066568 209.95408867 36.875 206.75 C35.88016602 206.18788818 34.88533203 205.62577637 33.86035156 205.04663086 C27.08248342 201.20645581 20.35411954 197.29025196 13.65209961 193.31958008 C9.11742796 190.63892352 4.54454279 188.05565461 -0.109375 185.5859375 C-2.44733584 184.30321844 -4.730549 182.97409883 -7.015625 181.6015625 C-7.72517334 181.18269775 -8.43472168 180.76383301 -9.16577148 180.33227539 C-10.56653571 179.50373283 -11.95976877 178.66228394 -13.34399414 177.80639648 C-16.4322789 175.99735132 -18.3871423 175.011114 -22.015625 174.9453125 C-25.95375068 176.33705849 -29.04890239 178.40290719 -32.4375 180.8125 C-34.94574416 182.56082577 -37.46248417 184.29439132 -40 186 C-40.61246582 186.4129834 -41.22493164 186.8259668 -41.85595703 187.25146484 C-44.44663756 188.88159535 -46.39206237 189.99714136 -49.4921875 190.01171875 C-52.927029 188.62601166 -56.00252201 186.77993605 -59.125 184.8125 C-60.47687219 183.98145642 -61.82974178 183.15203317 -63.18359375 182.32421875 C-63.84085449 181.92122559 -64.49811523 181.51823242 -65.17529297 181.10302734 C-68.31072259 179.20767398 -71.52808819 177.47775526 -74.7578125 175.75 C-77.53626258 174.25030646 -80.29718136 172.72516533 -83.0546875 171.1875 C-83.95936768 170.68460449 -84.86404785 170.18170898 -85.79614258 169.66357422 C-87.62319816 168.64741463 -89.44859369 167.62826382 -91.2722168 166.60595703 C-92.11179932 166.14044434 -92.95138184 165.67493164 -93.81640625 165.1953125 C-94.57381104 164.77266113 -95.33121582 164.35000977 -96.11157227 163.91455078 C-97.95029879 162.85471064 -97.95029879 162.85471064 -100 163 C-100.62762455 164.22782862 -101.25196065 165.45733836 -101.875 166.6875 C-102.22304687 167.37199219 -102.57109375 168.05648437 -102.9296875 168.76171875 C-103.28289062 169.50035156 -103.63609375 170.23898437 -104 171 C-104.34949707 171.68118896 -104.69899414 172.36237793 -105.05908203 173.06420898 C-106.37112528 177.15796096 -106.20845546 180.94149188 -106.125 185.2109375 C-106.11742676 186.09729889 -106.10985352 186.98366028 -106.10205078 187.8968811 C-106.06947914 191.6746511 -106.01326266 195.4519817 -105.95898438 199.22949219 C-105.92267056 201.99412001 -105.89857177 204.75867628 -105.875 207.5234375 C-105.85840332 208.36844818 -105.84180664 209.21345886 -105.82470703 210.08407593 C-105.77223461 216.4713928 -106.37000387 221.55500581 -110 227 C-110.19653731 229.81221769 -110.2786442 232.50298115 -110.25 235.3125 C-110.25773437 236.05951172 -110.26546875 236.80652344 -110.2734375 237.57617188 C-110.25754136 242.10259648 -109.70711751 245.73898051 -108 250 C-109.98 250 -111.96 250 -114 250 C-114.70962891 248.45505859 -114.70962891 248.45505859 -115.43359375 246.87890625 C-116.10085358 245.43977526 -116.76888516 244.00100196 -117.4375 242.5625 C-117.79150879 241.79623291 -118.14551758 241.02996582 -118.51025391 240.24047852 C-120.36104081 236.28806694 -122.27976456 232.42761361 -124.46484375 228.6484375 C-130.02237788 218.99910477 -132.64053471 211.22459354 -133 200 C-133.04962891 199.3390332 -133.09925781 198.67806641 -133.15039062 197.99707031 C-133.49609582 190.85793199 -131.4348139 184.5251176 -129.375 177.75 C-128.64310962 175.27086862 -127.91134009 172.79170157 -127.1796875 170.3125 C-126.81327148 169.08660156 -126.44685547 167.86070312 -126.06933594 166.59765625 C-124.50283787 161.32735591 -123.00053904 156.03937698 -121.5 150.75 C-121.0107845 149.03635328 -120.52124148 147.3228 -120.03125 145.609375 C-119.52078125 143.82273438 -119.52078125 143.82273438 -119 142 C-115.12195034 143.19023714 -111.80937936 144.53363665 -108.375 146.6875 C-107.51519531 147.21730469 -106.65539062 147.74710938 -105.76953125 148.29296875 C-104.85558594 148.85628906 -103.94164062 149.41960937 -103 150 C-94.28887427 155.17550193 -85.47473677 160.12499857 -76.50390625 164.8359375 C-75.25244834 165.49449563 -74.00114955 166.15335623 -72.75 166.8125 C-72.12327393 167.1410498 -71.49654785 167.46959961 -70.85083008 167.80810547 C-67.45233105 169.61251886 -64.14253458 171.50125669 -60.8828125 173.546875 C-60.2115332 173.96606201 -59.54025391 174.38524902 -58.84863281 174.81713867 C-57.56094267 175.62967051 -56.28112936 176.45486215 -55.01074219 177.29418945 C-51.5625282 179.49478173 -51.5625282 179.49478173 -47.59033203 179.78100586 C-44.74344248 178.92264585 -42.76433075 177.7695054 -40.3125 176.09375 C-39.01699219 175.22556641 -39.01699219 175.22556641 -37.6953125 174.33984375 C-36.80585938 173.73269531 -35.91640625 173.12554687 -35 172.5 C-33.23421242 171.29465804 -31.46352691 170.09645311 -29.6875 168.90625 C-28.51767578 168.10670898 -28.51767578 168.10670898 -27.32421875 167.29101562 C-24.79453395 165.88587138 -22.87884844 165.26297451 -20 165 C-17.16766582 166.21034671 -14.66038865 167.47961762 -12 169 C-11.13020508 169.48049805 -10.26041016 169.96099609 -9.36425781 170.45605469 C-6.44082431 172.07793881 -3.53190607 173.72369472 -0.625 175.375 C0.35210937 175.92671875 1.32921875 176.4784375 2.3359375 177.046875 C7.85049004 180.17081035 13.3171284 183.3595072 18.73291016 186.65185547 C22.00736653 188.5990392 25.3548997 190.40185063 28.70703125 192.2109375 C33.04983167 194.57037118 37.36849065 196.9723611 41.6875 199.375 C42.91049805 200.0551416 42.91049805 200.0551416 44.15820312 200.74902344 C46.105665 201.83233024 48.05293756 202.91597548 50 204 C49.68712036 203.15707397 49.68712036 203.15707397 49.36791992 202.29711914 C47.58724171 197.27970651 46.5727163 192.79795579 46.3125 187.4375 C46.24675781 186.21933594 46.18101562 185.00117188 46.11328125 183.74609375 C46.05720703 182.38677734 46.05720703 182.38677734 46 181 C61.42500803 182.43488447 75.28527315 184.33956379 88.1953125 193.48828125 C90.87185593 195.26164119 90.87185593 195.26164119 93.72265625 194.765625 C94.47417969 194.51296875 95.22570312 194.2603125 96 194 C96.763125 193.814375 97.52625 193.62875 98.3125 193.4375 C99.1478125 193.2209375 99.1478125 193.2209375 100 193 C100 192.34 100 191.68 100 191 C100.66 191 101.32 191 102 191 C104.21772428 187.30379286 105.20967269 184.33323562 105 180 C102.86244386 177.28106357 100.51198461 174.88524591 98.0859375 172.421875 C95.42914122 169.33720516 95.30700674 166.99108758 95 163 C92.74128685 159.8628984 90.40554853 157.35485496 87.5 154.8125 C83.87404823 150.73330426 82.06246171 146.01134314 80 141 C79.27296875 140.98582031 78.5459375 140.97164062 77.796875 140.95703125 C69.61505305 140.56891918 63.3436584 138.52734745 56 135 C55.12214844 134.60554687 54.24429688 134.21109375 53.33984375 133.8046875 C48.95544144 131.75818132 45.28603599 129.53384465 41.5625 126.4375 C32.04787056 118.84568766 21.75092339 117.96104641 10 119 C7.12722645 119.63796506 7.12722645 119.63796506 4.5 120.5 C-4.56186491 123.34373839 -14.38932653 123.19415509 -23.3125 120 C-38.15318431 114.83802285 -53.3478575 117.88302521 -67.25 124.3125 C-73.03787117 127.37059725 -78.21287191 131.2928305 -82.90625 135.8515625 C-84.54604199 137.42662586 -86.06218017 138.81077561 -88 140 C-90.75 139.75 -90.75 139.75 -94 138 C-94.83789062 137.56558594 -95.67578125 137.13117188 -96.5390625 136.68359375 C-102.18786879 133.70357611 -107.62617854 130.44735716 -113 127 C-112.39991506 119.28109919 -110.68967068 112.12214958 -108.5625 104.6875 C-108.26923828 103.52154297 -107.97597656 102.35558594 -107.67382812 101.15429688 C-105.28292749 92.89784679 -105.28292749 92.89784679 -101.67944336 90.37597656 C-99.129576 89.3359523 -96.68399075 88.60389113 -94 88 C-92.98808594 87.69835937 -91.97617188 87.39671875 -90.93359375 87.0859375 C-90.10988281 86.85132813 -89.28617188 86.61671875 -88.4375 86.375 C-82.63860186 84.34868048 -79.55136834 80.76952422 -75.77734375 76.046875 C-75.19082031 75.37140625 -74.60429687 74.6959375 -74 74 C-73.34 74 -72.68 74 -72 74 C-71.7421875 73.42765625 -71.484375 72.8553125 -71.21875 72.265625 C-69.88634058 69.78871005 -68.34943882 67.8658834 -66.5 65.75 C-65.8915625 65.04359375 -65.283125 64.3371875 -64.65625 63.609375 C-63 62 -63 62 -61 62 C-60.63261719 61.14148438 -60.63261719 61.14148438 -60.2578125 60.265625 C-58.78889901 57.61975598 -57.04651756 55.85146861 -54.875 53.75 C-54.15054688 53.04359375 -53.42609375 52.3371875 -52.6796875 51.609375 C-52.12539062 51.07828125 -51.57109375 50.5471875 -51 50 C-47.28164503 51.32980549 -44.43979457 52.96973213 -41.3125 55.37109375 C-40.44882813 56.02787109 -39.58515625 56.68464844 -38.6953125 57.36132812 C-37.80585938 58.04646484 -36.91640625 58.73160156 -36 59.4375 C-34.23085058 60.7925659 -32.46006799 62.14550277 -30.6875 63.49609375 C-29.90761719 64.09607178 -29.12773437 64.6960498 -28.32421875 65.31420898 C-25.95772863 67.03066007 -23.52730846 68.53309873 -21 70 C-21.144375 68.741875 -21.28875 67.48375 -21.4375 66.1875 C-21.51871094 65.47980469 -21.59992188 64.77210938 -21.68359375 64.04296875 C-21.97170735 61.80603607 -21.97170735 61.80603607 -23 59 C-24.59469033 48.16596979 -21.17419581 40.99480131 -16.03417969 31.85449219 C-14.60782984 29.29676002 -13.30091016 26.68588237 -12 24.0625 C-11.29810547 22.66257813 -11.29810547 22.66257813 -10.58203125 21.234375 C-8.19830717 16.36098355 -5.90615539 11.44478442 -3.62695312 6.52172852 C-1.10575729 1.10575729 -1.10575729 1.10575729 0 0 Z " fill="#27E6DE" transform="translate(251,109)"/>
<path d="M0 0 C2.96064754 1.01015804 3.61550233 1.7769899 5.234375 4.41015625 C5.73453125 5.21582031 6.2346875 6.02148438 6.75 6.8515625 C9.26240866 11.19169188 11.71992727 15.56166855 14.1472168 19.94995117 C16.70457063 24.55188025 19.43090526 28.95416756 22.48828125 33.24609375 C23.484375 34.84765625 23.484375 34.84765625 23.484375 36.84765625 C24.65355469 36.75484375 25.82273437 36.66203125 27.02734375 36.56640625 C30.15770416 36.38726629 33.2633457 36.29840606 36.3984375 36.375 C37.10693848 36.39038818 37.81543945 36.40577637 38.54541016 36.42163086 C41.03929127 36.96958132 41.95444776 37.95156995 43.546875 39.91015625 C44.22150768 41.54439577 44.86203461 43.19279659 45.484375 44.84765625 C46.43899515 46.69248081 47.44661092 48.50293124 48.45678711 50.31787109 C51.35283709 55.5443819 54.01537263 60.83333005 56.35546875 66.33203125 C58.89017947 71.98031397 61.72438484 77.50841433 64.58203125 82.99975586 C65.484375 84.84765625 65.484375 84.84765625 66.73828125 88.30078125 C67.31449219 89.14125 67.89070312 89.98171875 68.484375 90.84765625 C71.34507028 91.34503415 73.51370267 91.51013933 76.359375 91.41015625 C83.5768582 91.19323736 83.5768582 91.19323736 87.01953125 93.67578125 C90.78161568 98.12438318 93.8674453 103.16639312 97.046875 108.03515625 C98.4672358 110.19154598 99.88781089 112.34779458 101.30859375 114.50390625 C102.01032715 115.57253906 102.71206055 116.64117187 103.43505859 117.7421875 C105.31549662 120.59174334 107.21548464 123.42642973 109.12890625 126.25390625 C109.95249634 127.47364136 109.95249634 127.47364136 110.79272461 128.71801758 C111.80996774 130.22256091 112.83014713 131.72512469 113.85375977 133.2253418 C117.97088906 139.34429067 119.76651812 144.65999361 120.921875 151.97265625 C121.89622965 157.81691993 123.08700081 163.4630232 124.75 169.15625 C125.55809594 172.11783567 126.1454758 175.08493411 126.734375 178.09765625 C128.34128774 185.86440117 130.68790654 193.37694287 133.05957031 200.94042969 C133.35702148 201.89079102 133.65447266 202.84115234 133.9609375 203.8203125 C134.22986816 204.66859619 134.49879883 205.51687988 134.77587891 206.39086914 C136.52288942 212.44881773 138.13708678 218.50935894 135.23242188 224.37646484 C133.48711973 227.16741731 131.64418793 229.85421845 129.734375 232.53515625 C128.78304687 233.92057617 128.78304687 233.92057617 127.8125 235.33398438 C124.84623295 239.62580201 121.82738473 243.83773296 118.484375 247.84765625 C116.875625 247.25984375 116.875625 247.25984375 115.234375 246.66015625 C111.62384352 245.46794978 111.62384352 245.46794978 109.109375 247.03515625 C107.26084638 248.85518332 107.26084638 248.85518332 106.484375 251.84765625 C105.824375 251.84765625 105.164375 251.84765625 104.484375 251.84765625 C104.54625 252.61078125 104.608125 253.37390625 104.671875 254.16015625 C104.484375 256.84765625 104.484375 256.84765625 103.296875 258.72265625 C101.484375 259.84765625 101.484375 259.84765625 98.796875 259.53515625 C97.6521875 259.19484375 97.6521875 259.19484375 96.484375 258.84765625 C96.484375 257.85765625 96.484375 256.86765625 96.484375 255.84765625 C97.804375 256.50765625 99.124375 257.16765625 100.484375 257.84765625 C100.93425781 256.94789063 101.38414062 256.048125 101.84765625 255.12109375 C102.1526001 254.51249512 102.45754395 253.90389648 102.77172852 253.27685547 C103.46777515 251.88210997 104.15952761 250.48521485 104.84741211 249.08642578 C106.96883754 244.7918441 109.17586982 240.56764278 111.5 236.37890625 C117.31656902 225.72490453 121.38648886 218.11063097 118.484375 205.84765625 C118.14012779 204.0872934 117.80357092 202.32541774 117.47265625 200.5625 C116.67300812 196.37071835 115.82593619 192.19194306 114.94921875 188.015625 C113.86933038 182.82145723 112.8732952 177.61789415 111.92578125 172.3984375 C111.72989159 171.32508148 111.72989159 171.32508148 111.53004456 170.2300415 C111.01180696 167.38746107 110.49398133 164.54489763 109.98989868 161.69976807 C108.06338137 150.83956104 105.91839616 142.28042688 99.421875 133.28515625 C98.44042171 131.89262046 97.45997765 130.4993729 96.48046875 129.10546875 C95.98401855 128.40325195 95.48756836 127.70103516 94.97607422 126.97753906 C92.59224681 123.57385488 90.28541903 120.12012971 87.984375 116.66015625 C87.57566162 116.04906006 87.16694824 115.43796387 86.74584961 114.80834961 C80.484375 105.40501026 80.484375 105.40501026 80.484375 102.84765625 C74.214375 102.84765625 67.944375 102.84765625 61.484375 102.84765625 C56.75884761 94.07167682 52.1384243 85.26733671 47.71484375 76.3359375 C46.00638317 72.88654213 44.2741806 69.44971116 42.53515625 66.015625 C41.77779175 64.5152771 41.77779175 64.5152771 41.00512695 62.98461914 C40.00270222 60.99924205 38.99739667 59.01531649 37.98901367 57.03295898 C37.53373291 56.12876221 37.07845215 55.22456543 36.609375 54.29296875 C36.19945312 53.48359863 35.78953125 52.67422852 35.3671875 51.84033203 C34.484375 49.84765625 34.484375 49.84765625 34.484375 47.84765625 C32.834375 47.84765625 31.184375 47.84765625 29.484375 47.84765625 C29.154375 53.45765625 28.824375 59.06765625 28.484375 64.84765625 C26.17303134 62.53631259 24.87968674 61.07239439 23.3203125 58.36328125 C22.92489258 57.68281738 22.52947266 57.00235352 22.12207031 56.30126953 C21.70538086 55.57407715 21.28869141 54.84688477 20.859375 54.09765625 C19.96681568 52.55820519 19.07357283 51.01915024 18.1796875 49.48046875 C17.73012695 48.70477539 17.28056641 47.92908203 16.81738281 47.12988281 C14.82669718 43.72165401 12.78013238 40.34800224 10.734375 36.97265625 C7.5485154 31.70595178 4.53652836 26.3744101 1.67578125 20.921875 C0.53148556 18.72078868 0.53148556 18.72078868 -1.515625 16.84765625 C-2.02351562 17.935625 -2.53140625 19.02359375 -3.0546875 20.14453125 C-9.28036783 33.44857909 -9.28036783 33.44857909 -12.515625 39.91015625 C-12.98226562 40.85117188 -13.44890625 41.7921875 -13.9296875 42.76171875 C-15.13252552 45.10221638 -16.37505883 47.39140404 -17.6640625 49.68359375 C-22.30518687 58.12080568 -25.16026796 64.95283715 -23.515625 74.84765625 C-22.86087469 76.851589 -22.19543485 78.8520854 -21.515625 80.84765625 C-21.390625 84.22265625 -21.390625 84.22265625 -21.515625 86.84765625 C-27.95601588 83.51860647 -33.60708381 79.67778 -39.265625 75.16015625 C-45.37700945 70.12332677 -45.37700945 70.12332677 -52.515625 66.84765625 C-53.99782467 68.30290684 -55.47629639 69.76195525 -56.953125 71.22265625 C-57.77683594 72.03476563 -58.60054688 72.846875 -59.44921875 73.68359375 C-61.54997172 75.6711414 -61.54997172 75.6711414 -62.515625 77.84765625 C-63.175625 77.84765625 -63.835625 77.84765625 -64.515625 77.84765625 C-64.77730469 78.42644531 -65.03898437 79.00523437 -65.30859375 79.6015625 C-68.43029469 85.41055292 -73.77551016 90.33876652 -78.515625 94.84765625 C-78.99515625 95.39164062 -79.4746875 95.935625 -79.96875 96.49609375 C-83.32596011 99.95916183 -85.91868871 101.89610865 -90.71875 102.609375 C-95.90468434 103.48228727 -100.47564635 104.27886508 -104.515625 107.84765625 C-109.97973091 117.495733 -114.31149614 131.82173369 -113.515625 142.84765625 C-111.77137974 144.66856989 -111.77137974 144.66856989 -109.265625 145.84765625 C-107.90824219 146.5746875 -107.90824219 146.5746875 -106.5234375 147.31640625 C-105.03457031 148.074375 -105.03457031 148.074375 -103.515625 148.84765625 C-102.46117187 149.43546875 -101.40671875 150.02328125 -100.3203125 150.62890625 C-95.17736132 153.95071894 -95.17736132 153.95071894 -89.484375 154.26953125 C-87.01523419 152.48626288 -84.70355166 150.58016481 -82.390625 148.59765625 C-67.08294155 135.94953053 -51.20701475 131.11005929 -31.515625 132.84765625 C-28.15883731 133.68777033 -25.01618656 134.7803374 -21.76171875 135.9453125 C-12.62530071 138.48503881 -3.32632827 137.33400713 5.578125 134.53125 C15.46772548 132.20506709 26.55324234 132.88169313 35.484375 137.84765625 C38.33666509 139.8667319 41.13614306 141.93202672 43.91333008 144.05200195 C49.62536148 148.26774564 55.68870106 150.55427232 62.37890625 152.7890625 C65.484375 153.84765625 65.484375 153.84765625 66.484375 154.84765625 C68.42160483 154.90040986 70.35920465 154.93985409 72.296875 154.97265625 C77.97422133 155.40316592 77.97422133 155.40316592 80.0625 157.22265625 C81.10038961 159.06779333 81.82236307 160.83769232 82.484375 162.84765625 C84.93593399 169.02984849 87.64641147 172.48268664 92.734375 176.72265625 C94.484375 178.84765625 94.484375 178.84765625 94.671875 181.97265625 C95.61679978 186.47922057 96.93319418 187.62742978 100.109375 190.84765625 C104.45459022 195.38599215 104.45459022 195.38599215 104.734375 199.72265625 C103.58729449 202.59035752 102.664963 204.66706825 100.484375 206.84765625 C99.824375 206.84765625 99.164375 206.84765625 98.484375 206.84765625 C98.484375 207.50765625 98.484375 208.16765625 98.484375 208.84765625 C93.21772348 211.90966295 93.21772348 211.90966295 90.08203125 211.64453125 C87.0855805 210.72531929 85.14076095 209.37652266 82.609375 207.53515625 C73.18814353 201.35563884 62.19428404 199.72307797 51.19140625 198.2421875 C48.8941815 197.90738274 46.7202422 197.46131908 44.484375 196.84765625 C45.52113313 204.60128357 46.64814912 212.24043473 48.484375 219.84765625 C45.07013665 218.55267848 41.94716629 217.06833194 38.7890625 215.23828125 C37.91443359 214.73425781 37.03980469 214.23023438 36.13867188 213.7109375 C34.76291992 212.91236328 34.76291992 212.91236328 33.359375 212.09765625 C31.45097894 210.99790259 29.54213032 209.89893384 27.6328125 208.80078125 C26.77864746 208.30739258 25.92448242 207.81400391 25.04443359 207.30566406 C21.57262406 205.3283947 18.06190367 203.42693566 14.54296875 201.53515625 C10.95320973 199.55459955 7.40374366 197.50868419 3.8515625 195.46166992 C-6.26491484 189.62757532 -6.26491484 189.62757532 -16.515625 184.03515625 C-17.381875 183.57496094 -18.248125 183.11476563 -19.140625 182.640625 C-22.11010019 181.64917194 -23.51424586 182.00165767 -26.515625 182.84765625 C-28.9924106 184.24859411 -28.9924106 184.24859411 -31.421875 186.04296875 C-32.33066406 186.67589844 -33.23945313 187.30882812 -34.17578125 187.9609375 C-36.07270262 189.30469886 -37.96593157 190.6536875 -39.85546875 192.0078125 C-40.76425781 192.63816406 -41.67304688 193.26851562 -42.609375 193.91796875 C-43.43115234 194.50336426 -44.25292969 195.08875977 -45.09960938 195.69189453 C-48.1020336 197.12817952 -49.39586724 196.87265147 -52.515625 195.84765625 C-54.92924877 194.61357989 -57.24535446 193.34343249 -59.578125 191.97265625 C-61.0097693 191.14861387 -62.44209297 190.32575094 -63.875 189.50390625 C-64.62974609 189.06949219 -65.38449219 188.63507813 -66.16210938 188.1875 C-70.1879922 185.89558662 -74.26103037 183.69031562 -78.328125 181.47265625 C-85.94058373 177.3073902 -93.46892766 173.0129093 -100.96582031 168.64355469 C-107.39916392 164.89828331 -113.85492353 161.17800698 -120.515625 157.84765625 C-120.61359375 158.75773438 -120.7115625 159.6678125 -120.8125 160.60546875 C-121.60194328 166.10672907 -123.23789361 171.38989496 -124.765625 176.72265625 C-125.23270874 178.38071289 -125.23270874 178.38071289 -125.70922852 180.07226562 C-127.11696096 185.04830165 -128.54993567 190.01236688 -130.08984375 194.94921875 C-133.35476256 205.19692756 -133.35476256 205.19692756 -133.515625 215.84765625 C-133.38542969 217.1521875 -133.25523437 218.45671875 -133.12109375 219.80078125 C-132.96424745 221.25426724 -132.80405848 222.70739619 -132.640625 224.16015625 C-132.56255615 224.8550415 -132.4844873 225.54992676 -132.40405273 226.26586914 C-131.94384638 229.88026918 -131.23249232 232.65725714 -129.515625 235.84765625 C-128.93863361 238.45613817 -128.51036869 241.06721038 -128.078125 243.703125 C-127.8925 244.41082031 -127.706875 245.11851562 -127.515625 245.84765625 C-126.855625 246.17765625 -126.195625 246.50765625 -125.515625 246.84765625 C-124.890625 249.41015625 -124.890625 249.41015625 -124.515625 251.84765625 C-126.165625 252.17765625 -127.815625 252.50765625 -129.515625 252.84765625 C-129.515625 253.50765625 -129.515625 254.16765625 -129.515625 254.84765625 C-132.92132684 253.7124223 -133.37880587 253.02335746 -135.36328125 250.171875 C-135.88599609 249.42615234 -136.40871094 248.68042969 -136.94726562 247.91210938 C-137.75454102 246.73551758 -137.75454102 246.73551758 -138.578125 245.53515625 C-139.12017578 244.76236328 -139.66222656 243.98957031 -140.22070312 243.19335938 C-146.44203645 234.24971209 -147.02994312 227.56496308 -147.078125 216.78515625 C-147.0827475 216.01577728 -147.08737 215.24639832 -147.09213257 214.45370483 C-147.10417232 202.47602621 -145.67945893 192.73299292 -140.42626953 181.83984375 C-138.91907099 178.54259439 -137.85530648 175.11318972 -136.765625 171.66015625 C-135.62775938 168.15440831 -134.45791197 164.69783061 -133.1328125 161.2578125 C-130.92317348 155.42612315 -129.20344998 149.43649017 -127.390625 143.47265625 C-124.29226534 133.38640665 -121.09634991 123.33921435 -117.703125 113.34765625 C-117.3426709 112.26307129 -116.9822168 111.17848633 -116.61083984 110.06103516 C-113.25630297 100.31497698 -113.25630297 100.31497698 -109.515625 96.84765625 C-107.25390625 95.80859375 -107.25390625 95.80859375 -104.828125 95.22265625 C-103.95671875 94.99578125 -103.0853125 94.76890625 -102.1875 94.53515625 C-101.30578125 94.30828125 -100.4240625 94.08140625 -99.515625 93.84765625 C-97.86491175 93.32104834 -96.21864186 92.78021753 -94.578125 92.22265625 C-93.86785156 91.98289062 -93.15757812 91.743125 -92.42578125 91.49609375 C-91.79542969 91.28210938 -91.16507813 91.068125 -90.515625 90.84765625 C-89.525625 90.51765625 -88.535625 90.18765625 -87.515625 89.84765625 C-86.81425058 88.53224903 -86.15212033 87.19565325 -85.515625 85.84765625 C-84.41340047 84.53515337 -83.26158462 83.26335549 -82.07421875 82.02734375 C-81.40841797 81.32738281 -80.74261719 80.62742187 -80.05664062 79.90625 C-79.01540039 78.82537109 -79.01540039 78.82537109 -77.953125 77.72265625 C-76.57478669 76.28450086 -75.19838543 74.84448569 -73.82421875 73.40234375 C-73.21376709 72.76796387 -72.60331543 72.13358398 -71.97436523 71.47998047 C-70.43046179 69.8961125 -70.43046179 69.8961125 -69.515625 67.84765625 C-68.855625 67.84765625 -68.195625 67.84765625 -67.515625 67.84765625 C-67.26941406 67.27273437 -67.02320313 66.6978125 -66.76953125 66.10546875 C-65.31769447 63.49125798 -63.61274951 61.78429417 -61.453125 59.72265625 C-58.59990567 57.06860625 -58.59990567 57.06860625 -56.515625 53.84765625 C-55.855625 53.84765625 -55.195625 53.84765625 -54.515625 53.84765625 C-54.515625 53.18765625 -54.515625 52.52765625 -54.515625 51.84765625 C-48.72664081 51.64090681 -44.08629777 52.25603546 -38.515625 53.84765625 C-38.24322998 53.13448242 -37.97083496 52.42130859 -37.69018555 51.68652344 C-35.60236944 46.64035306 -32.91413965 41.90233735 -30.328125 37.09765625 C-29.77576172 36.0509375 -29.22339844 35.00421875 -28.65429688 33.92578125 C-25.12673038 27.37048926 -21.24028127 21.58753359 -16.515625 15.84765625 C-15.51623964 14.5608462 -14.52121576 13.27063321 -13.53125 11.9765625 C-12.60953924 10.78763307 -11.68766709 9.59882874 -10.765625 8.41015625 C-10.06373047 7.49459961 -10.06373047 7.49459961 -9.34765625 6.56054688 C-4.05007555 -0.24526855 -4.05007555 -0.24526855 0 0 Z " fill="#1C5169" transform="translate(252.515625,93.15234375)"/>
<path d="M0 0 C4.33215135 0.53671971 7.46610437 1.53592642 11.24609375 3.703125 C12.23762451 4.26531738 13.22915527 4.82750977 14.25073242 5.40673828 C15.30236572 6.01501465 16.35399902 6.62329102 17.4375 7.25 C19.07585815 8.18368408 19.07585815 8.18368408 20.74731445 9.13623047 C23.02680501 10.43546956 25.30436902 11.73809406 27.58007812 13.04394531 C30.89335564 14.93900381 34.21728451 16.81346512 37.546875 18.6796875 C38.58013916 19.25944336 39.61340332 19.83919922 40.67797852 20.43652344 C42.6390466 21.53677061 44.6004557 22.63641026 46.56225586 23.73535156 C51.16180231 26.3294342 55.71088303 28.91297386 60 32 C60 32.33 60 32.66 60 33 C53.68821835 33.30724324 47.37839462 33.51558691 41.06079102 33.65917969 C38.91780587 33.7190963 36.77530227 33.80066885 34.6340332 33.90527344 C14.92966112 34.84292025 14.92966112 34.84292025 7.86515808 28.85809326 C2.7722072 23.85795591 -2.86296185 18.14749548 -3.0625 10.65234375 C-2.74777756 6.61996243 -1.94212777 3.56324268 0 0 Z " fill="#27E6DD" transform="translate(268,326)"/>
<path d="M0 0 C0.66 0 1.32 0 2 0 C3.91281718 5.32856213 3.91281718 5.32856213 4.26171875 8.015625 C5.18797198 14.70389511 8.4438108 18.36732479 13.00390625 23.2265625 C15.38030734 26.52841137 15.71763878 28.98749845 16 33 C11.99860987 33.17423988 7.99871354 33.30060848 3.99438477 33.38452148 C2.6352692 33.41952778 1.27641353 33.46715338 -0.08178711 33.52807617 C-11.40383433 34.02287001 -11.40383433 34.02287001 -15.42529297 31.44580078 C-17.13104669 29.71528113 -18.55209405 27.94456623 -20 26 C-20.66 25.67 -21.32 25.34 -22 25 C-20.7041647 21.21720806 -19.25321057 18.88854082 -16.375 16.125 C-15.66601562 15.44050781 -14.95703125 14.75601562 -14.2265625 14.05078125 C-11.4599164 11.50255457 -8.61651416 9.05328465 -5.7578125 6.609375 C-3.57064428 4.60690098 -1.83152381 2.32462637 0 0 Z " fill="#26E8DF" transform="translate(185,326)"/>
<path d="M0 0 C0.33 0 0.66 0 1 0 C1.22042969 1.84851563 1.22042969 1.84851563 1.4453125 3.734375 C2.64153629 12.83876235 4.09125588 20.12844779 8.703125 28.19921875 C10.94213786 33.03467725 10.87434885 37.72265163 11 43 C6.71 43 2.42 43 -2 43 C-2 40.69 -2 38.38 -2 36 C-3.11375 35.401875 -4.2275 34.80375 -5.375 34.1875 C-8.28812528 32.62304383 -9.06604999 31.90092502 -11 29 C-12.32495116 20.60350719 -9.91535718 13.28392005 -5.2109375 6.37109375 C-3.53875419 4.17248236 -1.87055638 2.03257308 0 0 Z " fill="#27E8DF" transform="translate(231,316)"/>
<path d="M0 0 C0.33 0 0.66 0 1 0 C1.04898438 0.60328125 1.09796875 1.2065625 1.1484375 1.828125 C1.22320312 2.62734375 1.29796875 3.4265625 1.375 4.25 C1.44460937 5.03890625 1.51421875 5.8278125 1.5859375 6.640625 C2.03300583 9.18807093 2.50925494 10.87909773 4 13 C6.07316041 13.81162671 6.07316041 13.81162671 8.4375 13.9375 C9.21996094 14.02902344 10.00242188 14.12054688 10.80859375 14.21484375 C13.0780593 14.19273496 13.0780593 14.19273496 14.72265625 12.62890625 C16.0756794 11.01531587 16.0756794 11.01531587 17 9 C16.505 8.21625 16.01 7.4325 15.5 6.625 C14 4 14 4 14.40625 1.8359375 C14.6021875 1.23007812 14.798125 0.62421875 15 0 C19.74268727 8.18004777 21.77441322 14.52535538 22 24 C17.71 24 13.42 24 9 24 C9 21.69 9 19.38 9 17 C7.329375 16.1028125 7.329375 16.1028125 5.625 15.1875 C2.71187472 13.62304383 1.93395001 12.90092502 0 10 C-0.1953125 7.51953125 -0.1953125 7.51953125 -0.125 4.8125 C-0.10695312 3.91144531 -0.08890625 3.01039063 -0.0703125 2.08203125 C-0.04710937 1.39496094 -0.02390625 0.70789063 0 0 Z " fill="#2EDFD8" transform="translate(220,335)"/>
<path d="M0 0 C0 0.66 0 1.32 0 2 C0.845625 1.9175 1.69125 1.835 2.5625 1.75 C7.18735462 2.08635306 9.21524537 3.30700152 13 6 C14.4375 8.75 14.4375 8.75 15 11 C15.33 10.67 15.66 10.34 16 10 C17.66617115 9.95936168 19.33388095 9.957279 21 10 C20.01 11.485 20.01 11.485 19 13 C19 13.99 19 14.98 19 16 C13.34486552 16.55172044 10.57705493 15.08071005 6 12 C5.34 11.01 4.68 10.02 4 9 C3.01 8.67 2.02 8.34 1 8 C1 7.34 1 6.68 1 6 C-0.65 5.67 -2.3 5.34 -4 5 C-4.33 3.68 -4.66 2.36 -5 1 C-3 0 -3 0 0 0 Z " fill="#29E2DB" transform="translate(185,281)"/>
<path d="M0 0 C2.475 0.495 2.475 0.495 5 1 C5.33 2.32 5.66 3.64 6 5 C19.2 5 32.4 5 46 5 C46 4.34 46 3.68 46 3 C50.875 4.75 50.875 4.75 52 7 C45.5591776 7.17783956 39.11899037 7.3002179 32.67626953 7.38452148 C30.4859247 7.41967197 28.29574351 7.46740322 26.10595703 7.52807617 C22.95303978 7.61323213 19.80229688 7.65274245 16.6484375 7.68359375 C15.1855983 7.73778725 15.1855983 7.73778725 13.69320679 7.79307556 C6.9897816 7.79692587 6.9897816 7.79692587 4.00665283 5.39505005 C2.51084234 3.66165809 1.20877481 1.94201798 0 0 Z " fill="#33C6C8" transform="translate(276,352)"/>
<path d="M0 0 C1.33332095 2.6666419 0.67102033 4.16680303 0 7 C2.83691798 10.21073569 4.65039868 11.76697693 8.93261719 12.50634766 C12.41960418 12.71581151 15.8818173 12.79546932 19.375 12.8125 C21.19451172 12.85020508 21.19451172 12.85020508 23.05078125 12.88867188 C26.0341804 12.9474002 29.01611693 12.9837867 32 13 C31.505 10.03 31.505 10.03 31 7 C32.5 8.1875 32.5 8.1875 34 10 C34.09375 12.61328125 34.09375 12.61328125 34 15 C29.99860987 15.17423988 25.99871354 15.30060848 21.99438477 15.38452148 C20.6352692 15.41952778 19.27641353 15.46715338 17.91821289 15.52807617 C6.59616567 16.02287001 6.59616567 16.02287001 2.57470703 13.44580078 C0.86895331 11.71528113 -0.55209405 9.94456623 -2 8 C-2.66 7.67 -3.32 7.34 -4 7 C-2.92598892 4.08482708 -2.22189824 2.22189824 0 0 Z " fill="#34C7C8" transform="translate(167,344)"/>
<path d="M0 0 C0.99 0 1.98 0 3 0 C4.25664978 2.90600261 5 4.79604584 5 8 C11.27 7.67 17.54 7.34 24 7 C24.33 6.34 24.66 5.68 25 5 C25.99 4.67 26.98 4.34 28 4 C28.66 3.01 29.32 2.02 30 1 C30 9 30 9 29 12 C29 11.34 29 10.68 29 10 C28.01 10.495 28.01 10.495 27 11 C27.7734375 12.36125 27.7734375 12.36125 28.5625 13.75 C30.07262544 17.16419665 30.08784335 17.68604014 29 21 C27.99466333 19.37829621 26.99588093 17.75252763 26 16.125 C25.443125 15.22007812 24.88625 14.31515625 24.3125 13.3828125 C23 11 23 11 23 9 C16.73 9 10.46 9 4 9 C2.68 6.03 1.36 3.06 0 0 Z " fill="#115D70" transform="translate(310,187)"/>
<path d="M0 0 C1.65088226 2.9723601 2.42324048 5.58015738 2.96484375 8.9296875 C3.12364014 9.88302979 3.28243652 10.83637207 3.44604492 11.81860352 C3.6082251 12.82721436 3.77040527 13.8358252 3.9375 14.875 C5.03328759 21.48311801 6.16978376 28.03780811 7.6875 34.5625 C9.17261799 41.26185094 10.20399607 48.12241817 10 55 C9.34 55.66 8.68 56.32 8 57 C7.91435791 56.21761963 7.82871582 55.43523926 7.74047852 54.62915039 C7.35232556 51.10641985 6.9575043 47.58446859 6.5625 44.0625 C6.36043945 42.21495117 6.36043945 42.21495117 6.15429688 40.33007812 C6.02216797 39.16025391 5.89003906 37.99042969 5.75390625 36.78515625 C5.63345947 35.70113525 5.5130127 34.61711426 5.38891602 33.50024414 C5.26197197 31.06529863 5.26197197 31.06529863 4 30 C3.68076508 27.9427083 3.48838648 25.88386479 3.28125 23.8125 C3.18001957 21.9832467 3.18001957 21.9832467 2 21 C1.67762788 18.42102306 1.48732696 15.84068179 1.28125 13.25 C1.23799335 11.03334648 1.23799335 11.03334648 0 10 C-0.07205511 8.31391034 -0.08386068 6.62499341 -0.0625 4.9375 C-0.05347656 4.01839844 -0.04445313 3.09929687 -0.03515625 2.15234375 C-0.02355469 1.44207031 -0.01195312 0.73179687 0 0 Z " fill="#35CFCE" transform="translate(363,258)"/>
<path d="M0 0 C0.86474932 2.84137325 1.08243645 3.76208215 0.07421875 6.671875 C-1.3085752 10.95602208 -1.25594102 14.78332311 -1.1875 19.25 C-1.18685547 20.0646875 -1.18621094 20.879375 -1.18554688 21.71875 C-1.26347623 25.99490388 -1.26347623 25.99490388 0 30 C0.09892058 32.94725146 0.13891102 35.86568198 0.125 38.8125 C0.12886719 39.62009766 0.13273438 40.42769531 0.13671875 41.25976562 C0.13009448 45.30387952 0.0084017 49.05442826 -1 53 C-1.66 53 -2.32 53 -3 53 C-3.07640543 46.73787296 -3.12874837 40.47586729 -3.16479492 34.21337891 C-3.17983076 32.08540352 -3.20026483 29.95745886 -3.22631836 27.82958984 C-3.26293089 24.76131583 -3.27977881 21.69345351 -3.29296875 18.625 C-3.30845261 17.68197021 -3.32393646 16.73894043 -3.33988953 15.76733398 C-3.34138846 9.81158356 -2.42172935 5.45238257 0 0 Z " fill="#116B7B" transform="translate(147,277)"/>
<path d="M0 0 C0 0.66 0 1.32 0 2 C0.66 2.33 1.32 2.66 2 3 C1.67 3.99 1.34 4.98 1 6 C-1.375 6.125 -1.375 6.125 -4 6 C-4.66 5.34 -5.32 4.68 -6 4 C-7.98821313 3.60235737 -9.98944339 3.26224651 -12 3 C-12 2.34 -12 1.68 -12 1 C-12.66 1 -13.32 1 -14 1 C-14 0.01 -14 -0.98 -14 -2 C-8.99069255 -3.66976915 -4.85579187 -1.69388089 0 0 Z " fill="#25E7DD" transform="translate(239,279)"/>
<path d="M0 0 C0.66 0.33 1.32 0.66 2 1 C1.67 1.33 1.34 1.66 1 2 C1.66 2.66 2.32 3.32 3 4 C0.93445094 8.02238501 -0.81064829 10.19096176 -5 12 C-8.8125 12.1875 -8.8125 12.1875 -12 12 C-12 11.01 -12 10.02 -12 9 C-10.68 9 -9.36 9 -8 9 C-7.938125 8.38125 -7.87625 7.7625 -7.8125 7.125 C-7.544375 6.42375 -7.27625 5.7225 -7 5 C-5.35448038 4.28272222 -3.68577711 3.61674772 -2 3 C-1.34 2.01 -0.68 1.02 0 0 Z " fill="#26E3DA" transform="translate(219,281)"/>
<path d="M0 0 C3.35594194 1.2632842 5.63290296 2.25915079 8 5 C6 6 6 6 2.875 5 C-0.96807129 4.57628648 -0.96807129 4.57628648 -3.0625 6.79296875 C-5.09663128 9.15456435 -7.04557941 11.5724039 -9 14 C-13.3902439 18 -13.3902439 18 -17 18 C-15.38405168 15.95880212 -13.7143618 13.95927063 -12 12 C-11.34 12 -10.68 12 -10 12 C-9.75507813 11.42765625 -9.51015625 10.8553125 -9.2578125 10.265625 C-7.78889901 7.61975598 -6.04651756 5.85146861 -3.875 3.75 C-3.15054688 3.04359375 -2.42609375 2.3371875 -1.6796875 1.609375 C-1.12539062 1.07828125 -0.57109375 0.5471875 0 0 Z " fill="#34D5D2" transform="translate(200,159)"/>
<path d="M0 0 C4.49324849 1.65770333 8.61186146 3.84982162 12.8125 6.125 C13.50537109 6.49753906 14.19824219 6.87007813 14.91210938 7.25390625 C16.60934836 8.16690377 18.30485138 9.08312716 20 10 C16.86650268 11.04449911 16.01031744 10.93423645 13 10 C13 9.34 13 8.68 13 8 C11.68 8.33 10.36 8.66 9 9 C8.67 8.01 8.34 7.02 8 6 C7.34 6 6.68 6 6 6 C6.33 7.65 6.66 9.3 7 11 C6.01 11.495 6.01 11.495 5 12 C3.0546875 11.00390625 3.0546875 11.00390625 0.875 9.5625 C0.15054687 9.08941406 -0.57390625 8.61632812 -1.3203125 8.12890625 C-1.87460937 7.75636719 -2.42890625 7.38382812 -3 7 C0.75 5 0.75 5 3 5 C3 4.01 3 3.02 3 2 C2.01 2 1.02 2 0 2 C0 1.34 0 0.68 0 0 Z " fill="#2DDFD9" transform="translate(278,301)"/>
<path d="M0 0 C0.66 0 1.32 0 2 0 C2.96460701 2.68711952 3.8894244 5.29361707 4.33203125 8.12109375 C5.37458226 14.73155455 8.27504545 18.36348043 13 23 C12.34 23.66 11.68 24.32 11 25 C10.40251953 24.29423828 10.40251953 24.29423828 9.79296875 23.57421875 C8.99826172 22.64029297 8.99826172 22.64029297 8.1875 21.6875 C7.66542969 21.07261719 7.14335937 20.45773437 6.60546875 19.82421875 C5.06439324 17.99109229 5.06439324 17.99109229 3.34375 16.5625 C1.56535438 14.49459812 1.50759244 13.00477565 1.3125 10.3125 C1.24675781 9.50425781 1.18101562 8.69601562 1.11328125 7.86328125 C1.05720703 6.94095703 1.05720703 6.94095703 1 6 C-1.15634036 6 -2.92446352 6.4465236 -5 7 C-4.21654285 5.82780457 -3.42297164 4.66236332 -2.625 3.5 C-2.18414062 2.8503125 -1.74328125 2.200625 -1.2890625 1.53125 C-0.65097656 0.77328125 -0.65097656 0.77328125 0 0 Z " fill="#36D3D1" transform="translate(185,326)"/>
<path d="M0 0 C6.27679627 2.51071851 12.10304635 5.70495718 18 9 C16.18359375 9.62109375 16.18359375 9.62109375 14 10 C11.9934562 8.67653494 9.99371825 7.34270821 8 6 C5.24741188 5.66290938 5.24741188 5.66290938 3 6 C2.67 6.66 2.34 7.32 2 8 C3.65 7.67 5.3 7.34 7 7 C6.67 8.65 6.34 10.3 6 12 C2.7 10.35 -0.6 8.7 -4 7 C-4 6.67 -4 6.34 -4 6 C-2.35 5.67 -0.7 5.34 1 5 C0.67 3.35 0.34 1.7 0 0 Z " fill="#30D7D3" transform="translate(239,279)"/>
<path d="M0 0 C1.12148437 0.30744141 1.12148437 0.30744141 2.265625 0.62109375 C3.25046875 0.89050781 4.2353125 1.15992188 5.25 1.4375 C6.71179688 1.83775391 6.71179688 1.83775391 8.203125 2.24609375 C9.58757812 2.61927734 9.58757812 2.61927734 11 3 C11.62841797 3.17853516 12.25683594 3.35707031 12.90429688 3.54101562 C15.11476602 4.02513515 17.06759288 4.11380291 19.328125 4.09765625 C20.12734375 4.09443359 20.9265625 4.09121094 21.75 4.08789062 C22.575 4.07951172 23.4 4.07113281 24.25 4.0625 C25.09046875 4.05798828 25.9309375 4.05347656 26.796875 4.04882812 C28.86461401 4.03707961 30.93231624 4.01914522 33 4 C33 4.66 33 5.32 33 6 C29.82606311 7.58696844 26.41825795 7.1431447 22.9375 7.125 C22.19177734 7.12886719 21.44605469 7.13273438 20.67773438 7.13671875 C15.12663501 7.12663501 15.12663501 7.12663501 14 6 C12.65252916 5.76924918 11.29622435 5.58846937 9.9375 5.4375 C8.638125 5.293125 7.33875 5.14875 6 5 C6 4.34 6 3.68 6 3 C3.69 2.67 1.38 2.34 -1 2 C-0.67 1.34 -0.34 0.68 0 0 Z " fill="#0E6578" transform="translate(219,226)"/>
<path d="M0 0 C5.66104589 0.49658297 9.87674471 1.54510684 15 4 C15 5.32 15 6.64 15 8 C10.69235185 6.43358249 6.93828536 4.31663844 3 2 C2.87625 3.010625 2.7525 4.02125 2.625 5.0625 C2.01914665 8.87937612 1.12806088 12.31500112 0 16 C-1.17571451 12.32589215 -1.07366746 8.83070817 -1 5 C-0.34 5 0.32 5 1 5 C0.67 3.35 0.34 1.7 0 0 Z " fill="#135F74" transform="translate(129,249)"/>
<path d="M0 0 C3.1278933 3.80942969 5.96886725 7.74950964 8.75 11.8125 C9.36681641 12.7087207 9.36681641 12.7087207 9.99609375 13.62304688 C10.99907918 15.08087454 11.9997783 16.54027474 13 18 C12.67 18.66 12.34 19.32 12 20 C11.01 19.34 10.02 18.68 9 18 C8.34 18.33 7.68 18.66 7 19 C6.82984375 18.37351563 6.6596875 17.74703125 6.484375 17.1015625 C6.24203125 16.28429687 5.9996875 15.46703125 5.75 14.625 C5.51796875 13.81289062 5.2859375 13.00078125 5.046875 12.1640625 C3.75149013 9.4862893 2.70840778 9.0894723 0 8 C-0.99 7.34 -1.98 6.68 -3 6 C-2.34 5.67 -1.68 5.34 -1 5 C-0.34444881 2.47266765 -0.34444881 2.47266765 0 0 Z " fill="#2B5A6F" transform="translate(340,188)"/>
<path d="M0 0 C0.33 0 0.66 0 1 0 C1.04898438 1.08539063 1.09796875 2.17078125 1.1484375 3.2890625 C1.22351986 4.73439784 1.29906528 6.17970919 1.375 7.625 C1.4059375 8.33785156 1.436875 9.05070312 1.46875 9.78515625 C1.71020155 14.17152608 2.39342731 17.8594834 4 22 C2.02 22 0.04 22 -2 22 C-3.32 18.7 -4.64 15.4 -6 12 C-5.34 12 -4.68 12 -4 12 C-4 12.99 -4 13.98 -4 15 C-2.68 15 -1.36 15 0 15 C0 10.05 0 5.1 0 0 Z " fill="#2DC7C6" transform="translate(139,337)"/>
<path d="M0 0 C3.3 0.99 6.6 1.98 10 3 C10.33 5.31 10.66 7.62 11 10 C4.25 8.25 4.25 8.25 2 6 C2 5.01 2 4.02 2 3 C1.01 3 0.02 3 -1 3 C-0.67 2.01 -0.34 1.02 0 0 Z " fill="#26E7DE" transform="translate(254,290)"/>
<path d="M0 0 C-0.33 4.95 -0.66 9.9 -1 15 C-3.62196431 12.37803569 -4.97572835 10.5047228 -6.6875 7.3125 C-7.12449219 6.50425781 -7.56148438 5.69601563 -8.01171875 4.86328125 C-8.50091797 3.94095703 -8.50091797 3.94095703 -9 3 C-8.34 3 -7.68 3 -7 3 C-7 3.66 -7 4.32 -7 5 C-5.824375 3.7625 -5.824375 3.7625 -4.625 2.5 C-2 0 -2 0 0 0 Z " fill="#0F6173" transform="translate(282,143)"/>
<path d="M0 0 C0.33 0.66 0.66 1.32 1 2 C1.66 2 2.32 2 3 2 C3.33 2.99 3.66 3.98 4 5 C4.66 5.33 5.32 5.66 6 6 C6.4140625 8.06640625 6.4140625 8.06640625 6.625 10.5625 C6.69976562 11.38878906 6.77453125 12.21507812 6.8515625 13.06640625 C6.90054688 13.70449219 6.94953125 14.34257812 7 15 C7.66 15 8.32 15 9 15 C9 15.99 9 16.98 9 18 C9.66 18 10.32 18 11 18 C11 19.98 11 21.96 11 24 C7.96344634 20.32165109 5.93633265 16.23998417 3.8125 12 C3.44447266 11.2884375 3.07644531 10.576875 2.69726562 9.84375 C2.34986328 9.1528125 2.00246094 8.461875 1.64453125 7.75 C1.32846924 7.12609375 1.01240723 6.5021875 0.68676758 5.859375 C0 4 0 4 0 0 Z " fill="#33D2D0" transform="translate(120,321)"/>
<path d="M0 0 C0.33 0 0.66 0 1 0 C1.66 6.27 2.32 12.54 3 19 C0.54023511 15.31035266 -0.12465307 13.72571521 -0.0625 9.375 C-0.04896484 8.14910156 -0.04896484 8.14910156 -0.03515625 6.8984375 C-0.02355469 6.27195312 -0.01195312 5.64546875 0 5 C-4.55519783 8.93963055 -6.15451681 12.26928904 -8 18 C-8.66 18 -9.32 18 -10 18 C-8.20808831 10.78115576 -5.04516751 5.4720663 0 0 Z " fill="#37CDCD" transform="translate(231,316)"/>
<path d="M0 0 C7.57142857 3 7.57142857 3 10 6 C8.68 6 7.36 6 6 6 C6 5.34 6 4.68 6 4 C4.35 4.33 2.7 4.66 1 5 C1.71563266 7.0162233 1.71563266 7.0162233 3 9 C5.05000871 9.80528889 5.05000871 9.80528889 7 10 C7 10.66 7 11.32 7 12 C7.639375 12.12375 8.27875 12.2475 8.9375 12.375 C9.618125 12.58125 10.29875 12.7875 11 13 C11.33 13.66 11.66 14.32 12 15 C6.68972746 13.53967505 2.53669968 11.01679014 -2 8 C-1.33333333 5.33333333 -0.66666667 2.66666667 0 0 Z " fill="#31D5D3" transform="translate(179,277)"/>
<path d="M0 0 C1 3 1 3 0.9375 6.6875 C0.876722 11.29143323 1.36063106 15.75374035 1.9375 20.3125 C2.02443115 21.00625732 2.1113623 21.70001465 2.20092773 22.41479492 C2.62752984 25.66541611 3.09946314 28.84406452 4 32 C3.01 32 2.02 32 1 32 C-0.51185335 24.35974109 -1.19370547 17.0238968 -1.1875 9.25 C-1.18814453 8.45158691 -1.18878906 7.65317383 -1.18945312 6.83056641 C-1.13512855 1.13512855 -1.13512855 1.13512855 0 0 Z " fill="#0F6175" transform="translate(118,297)"/>
<path d="M0 0 C0.66 0 1.32 0 2 0 C2 2.64 2 5.28 2 8 C1.195625 8.268125 0.39125 8.53625 -0.4375 8.8125 C-1.283125 9.204375 -2.12875 9.59625 -3 10 C-3.33 10.99 -3.66 11.98 -4 13 C-5.5234375 14.16796875 -5.5234375 14.16796875 -7.375 15.1875 C-7.98085938 15.53167969 -8.58671875 15.87585938 -9.2109375 16.23046875 C-11 17 -11 17 -14 17 C-14 16.34 -14 15.68 -14 15 C-8.25 12 -8.25 12 -6 12 C-6 11.34 -6 10.68 -6 10 C-5.34 10 -4.68 10 -4 10 C-2.26337666 6.77484237 -1.1094072 3.48670834 0 0 Z " fill="#32D9D5" transform="translate(357,290)"/>
<path d="M0 0 C1.58458008 0.02030273 1.58458008 0.02030273 3.20117188 0.04101562 C5.78049809 0.0760291 8.35871494 0.12513325 10.9375 0.1875 C10.9375 0.5175 10.9375 0.8475 10.9375 1.1875 C9.23207031 1.22617188 9.23207031 1.22617188 7.4921875 1.265625 C-2.64519747 1.60162831 -11.41513653 2.85280041 -21.0625 6.1875 C-21.0625 5.1975 -21.0625 4.2075 -21.0625 3.1875 C-13.95805394 0.19952292 -7.64363832 -0.18807691 0 0 Z " fill="#33D3D2" transform="translate(209.0625,224.8125)"/>
<path d="M0 0 C0.66 0.33 1.32 0.66 2 1 C2 2.98 2 4.96 2 7 C1.34 7 0.68 7 0 7 C0.33 7.99 0.66 8.98 1 10 C0.525625 10.391875 0.05125 10.78375 -0.4375 11.1875 C-2.35179633 13.40808374 -2.61266988 15.13375709 -3 18 C-3.99 18.33 -4.98 18.66 -6 19 C-4.3186083 12.51292846 -2.46937673 6.2322365 0 0 Z " fill="#34D3D2" transform="translate(148,200)"/>
<path d="M0 0 C1.125 3.75 1.125 3.75 0 6 C-0.66 6 -1.32 6 -2 6 C-2.144375 6.763125 -2.28875 7.52625 -2.4375 8.3125 C-3 11 -3 11 -4 14 C-4.66 14 -5.32 14 -6 14 C-5.938125 14.763125 -5.87625 15.52625 -5.8125 16.3125 C-6 19 -6 19 -7.1875 20.875 C-9 22 -9 22 -11.6875 21.6875 C-12.450625 21.460625 -13.21375 21.23375 -14 21 C-14 20.01 -14 19.02 -14 18 C-12.68 18.66 -11.36 19.32 -10 20 C-9.16855469 18.33710938 -9.16855469 18.33710938 -8.3203125 16.640625 C-5.546875 11.09375 -2.7734375 5.546875 0 0 Z " fill="#0F6577" transform="translate(363,331)"/>
<path d="M0 0 C0.33 0 0.66 0 1 0 C1.12117188 0.90621094 1.24234375 1.81242187 1.3671875 2.74609375 C2.30799951 9.58507339 3.38006945 16.28885916 5 23 C2.08482708 21.92598892 0.22189824 21.22189824 -2 19 C-1.484375 18.484375 -0.96875 17.96875 -0.4375 17.4375 C1.59792561 13.98612613 0.71297017 11.88892821 0 8 C-0.09367664 5.32553179 -0.04696841 2.67719947 0 0 Z " fill="#116579" transform="translate(296,290)"/>
<path d="M0 0 C0.66 0 1.32 0 2 0 C3.4606285 2.64738916 4 3.89448334 4 7 C4.99 7 5.98 7 7 7 C6.98839844 7.66644531 6.97679687 8.33289063 6.96484375 9.01953125 C6.89902634 15.74230945 7.27616361 22.317439 8 29 C6.43817866 26.14601554 5.5874646 23.60482283 5 20.41015625 C4.7525 19.10981445 4.7525 19.10981445 4.5 17.78320312 C4.335 16.88537109 4.17 15.98753906 4 15.0625 C2.64857934 7.34489798 2.64857934 7.34489798 0 0 Z " fill="#0F6578" transform="translate(357,233)"/>
<path d="M0 0 C1.89453125 0.1953125 1.89453125 0.1953125 4 1 C5.01171875 3.1796875 5.01171875 3.1796875 5.6875 5.875 C5.91824219 6.75929687 6.14898437 7.64359375 6.38671875 8.5546875 C6.69029297 9.76511719 6.69029297 9.76511719 7 11 C7.33 11.99 7.66 12.98 8 14 C8.66 14.33 9.32 14.66 10 15 C10.66 15.33 11.32 15.66 12 16 C12.33 16.99 12.66 17.98 13 19 C13.66 19.33 14.32 19.66 15 20 C12 20 12 20 9.5 17.75 C5.83013594 13.71314953 3.60368936 10.43827263 1.8125 5.25 C1.46832031 4.26515625 1.12414062 3.2803125 0.76953125 2.265625 C0.51558594 1.51796875 0.26164062 0.7703125 0 0 Z " fill="#35D3D2" transform="translate(331,249)"/>
<path d="M0 0 C1.32 0.33 2.64 0.66 4 1 C4 1.99 4 2.98 4 4 C4.99 4 5.98 4 7 4 C7.33 4.99 7.66 5.98 8 7 C8.99 7.66 9.98 8.32 11 9 C11.70052461 11.663063 11.77744818 14.24035737 12 17 C9.15117747 13.48388571 6.41751228 9.9054798 3.75 6.25 C3.04359375 5.28578125 2.3371875 4.3215625 1.609375 3.328125 C0 1 0 1 0 0 Z " fill="#126173" transform="translate(343,213)"/>
<path d="M0 0 C1.04449911 3.13349732 0.93423645 3.98968256 0 7 C-1.32 6.67 -2.64 6.34 -4 6 C-4.226875 6.721875 -4.45375 7.44375 -4.6875 8.1875 C-6.29553323 11.6332855 -8.0546167 13.60259499 -11 16 C-13.8125 16.3125 -13.8125 16.3125 -16 16 C-15.34 15.525625 -14.68 15.05125 -14 14.5625 C-10.53091695 11.5993249 -7.70632681 8.30960348 -4.76953125 4.828125 C-4.18558594 4.22484375 -3.60164062 3.6215625 -3 3 C-2.34 3 -1.68 3 -1 3 C-0.67 2.01 -0.34 1.02 0 0 Z " fill="#33D2D1" transform="translate(180,180)"/>
<path d="M0 0 C2.5221286 1.24743936 5.04270078 2.49787069 7.5625 3.75 C8.26697266 4.09804688 8.97144531 4.44609375 9.69726562 4.8046875 C14.22551026 7.05837608 18.6309758 9.45092412 23 12 C23 12.33 23 12.66 23 13 C19.28400809 13.20086443 18.22791555 13.1519437 15 11 C15 10.34 15 9.68 15 9 C13.68 9 12.36 9 11 9 C11 8.34 11 7.68 11 7 C9.948125 6.5978125 9.948125 6.5978125 8.875 6.1875 C5.8350176 4.9318551 2.9272226 3.49764877 0 2 C0 1.34 0 0.68 0 0 Z " fill="#36D2D1" transform="translate(299,342)"/>
<path d="M0 0 C0.66 0 1.32 0 2 0 C1.95359375 0.89203125 1.9071875 1.7840625 1.859375 2.703125 C1.82328125 3.87359375 1.7871875 5.0440625 1.75 6.25 C1.70359375 7.41015625 1.6571875 8.5703125 1.609375 9.765625 C1.72060583 13.06481299 1.72060583 13.06481299 3.84375 15.3125 C6.12968859 17.10149542 8.46365615 18.59092008 11 20 C10.67 21.32 10.34 22.64 10 24 C10 23.01 10 22.02 10 21 C7.36 20.34 4.72 19.68 2 19 C2 18.01 2 17.02 2 16 C1.34 16 0.68 16 0 16 C0 10.72 0 5.44 0 0 Z " fill="#0E5F72" transform="translate(219,332)"/>
<path d="M0 0 C5.61 0.66 11.22 1.32 17 2 C17 2.33 17 2.66 17 3 C12.05 3 7.1 3 2 3 C2 6.63 2 10.26 2 14 C1.67 14 1.34 14 1 14 C0.67 9.38 0.34 4.76 0 0 Z " fill="#35CFCD" transform="translate(297,290)"/>
<path d="M0 0 C4.27343092 -0.36629408 6.48812804 0.59185923 10 3 C9.34 4.32 8.68 5.64 8 7 C6.35 7 4.7 7 3 7 C3.33 5.35 3.66 3.7 4 2 C3.34 2 2.68 2 2 2 C1.67 2.66 1.34 3.32 1 4 C0.34 3.67 -0.32 3.34 -1 3 C-0.67 2.01 -0.34 1.02 0 0 Z " fill="#25E7DD" transform="translate(242,284)"/>
<path d="M0 0 C0.66 1.32 1.32 2.64 2 4 C1.01 4.66 0.02 5.32 -1 6 C-0.67 6.66 -0.34 7.32 0 8 C-0.5775 8.185625 -1.155 8.37125 -1.75 8.5625 C-4.17737174 10.11332083 -4.77640513 11.0883861 -6.125 13.5625 C-8 17 -8 17 -10 18 C-8.5216233 13.98832453 -6.60821705 10.42979591 -4.4375 6.75 C-3.81746094 5.69296875 -3.19742188 4.6359375 -2.55859375 3.546875 C-1 1 -1 1 0 0 Z " fill="#316073" transform="translate(234,111)"/>
<path d="M0 0 C8.26747851 -0.23658921 15.92046224 0.18655665 24 2 C24.33 2.99 24.66 3.98 25 5 C21.54180645 4.46797022 18.15150121 3.80959354 14.75 3 C9.86876147 1.88571386 4.98483685 1.39545679 0 1 C0 0.67 0 0.34 0 0 Z " fill="#126679" transform="translate(304,291)"/>
<path d="M0 0 C3.60296594 -0.41176754 4.78402067 -0.1535853 7.8125 2 C8.534375 2.66 9.25625 3.32 10 4 C7 6 7 6 3 6 C3 5.34 3 4.68 3 4 C1.68 4 0.36 4 -1 4 C-0.67 2.68 -0.34 1.36 0 0 Z " fill="#24E9DE" transform="translate(165,273)"/>
<path d="M0 0 C1 3 1 3 -0.109375 5.70703125 C-0.65078125 6.73183594 -1.1921875 7.75664062 -1.75 8.8125 C-2.54664063 10.33810547 -2.54664063 10.33810547 -3.359375 11.89453125 C-3.90078125 12.91933594 -4.4421875 13.94414062 -5 15 C-6.00460563 16.99769055 -7.00599248 18.99701497 -8 21 C-8.33 21 -8.66 21 -9 21 C-9 19.02 -9 17.04 -9 15 C-8.34 15 -7.68 15 -7 15 C-6.89816406 14.45859375 -6.79632813 13.9171875 -6.69140625 13.359375 C-5.82242393 10.39403419 -4.44527709 7.94475054 -2.9375 5.25 C-2.11572266 3.77273437 -2.11572266 3.77273437 -1.27734375 2.265625 C-0.85582031 1.51796875 -0.43429688 0.7703125 0 0 Z " fill="#0E6274" transform="translate(242,124)"/>
<path d="M0 0 C4.60428934 1.31551124 8.18320388 3.09196486 12 6 C12 6.66 12 7.32 12 8 C8.625 8.125 8.625 8.125 5 8 C4.34 7.34 3.68 6.68 3 6 C3 5.01 3 4.02 3 3 C2.01 2.67 1.02 2.34 0 2 C0 1.34 0 0.68 0 0 Z " fill="#15586F" transform="translate(336,343)"/>
<path d="M0 0 C3 3.75 3 3.75 3 6 C9.27 6 15.54 6 22 6 C22.33 6.99 22.66 7.98 23 9 C22.01 9.495 22.01 9.495 21 10 C20.01 9.34 19.02 8.68 18 8 C15.24582682 7.69933846 12.57354853 7.49074701 9.8125 7.375 C9.06291016 7.33632812 8.31332031 7.29765625 7.54101562 7.2578125 C5.69440801 7.16371784 3.8472381 7.08077681 2 7 C2 6.34 2 5.68 2 5 C1.34 5 0.68 5 0 5 C0 3.35 0 1.7 0 0 Z " fill="#3AD8D5" transform="translate(311,190)"/>
<path d="M0 0 C0.83707887 2.77139985 1.09922027 3.7195949 0.1015625 6.5390625 C-1.46252388 11.45317787 -1.46617855 16.24639052 -1.625 21.375 C-1.66367188 22.39722656 -1.70234375 23.41945313 -1.7421875 24.47265625 C-1.83597964 26.98159597 -1.92167879 29.49053764 -2 32 C-2.33 32 -2.66 32 -3 32 C-3.08789644 28.16681381 -3.14069087 24.33389072 -3.1875 20.5 C-3.21263672 19.42234375 -3.23777344 18.3446875 -3.26367188 17.234375 C-3.32314008 10.73251759 -2.73652596 5.91836586 0 0 Z " fill="#0A5F71" transform="translate(147,277)"/>
<path d="M0 0 C0.33 0 0.66 0 1 0 C1 1.98 1 3.96 1 6 C4.3 6 7.6 6 11 6 C11.33 4.68 11.66 3.36 12 2 C12 3.98 12 5.96 12 8 C7.71 8 3.42 8 -1 8 C-0.67 5.36 -0.34 2.72 0 0 Z " fill="#34C6C6" transform="translate(230,351)"/>
<path d="M0 0 C0.66 0.33 1.32 0.66 2 1 C2 2.65 2 4.3 2 6 C-0.8125 7.125 -0.8125 7.125 -4 8 C-4.99 7.34 -5.98 6.68 -7 6 C-4.69 4.02 -2.38 2.04 0 0 Z " fill="#165B71" transform="translate(173,239)"/>
<path d="M0 0 C0.33 0 0.66 0 1 0 C0.67 7.26 0.34 14.52 0 22 C-0.33 22 -0.66 22 -1 22 C-2.95959774 14.40655875 -2.16040997 7.42640926 0 0 Z " fill="#34CBCA" transform="translate(120,292)"/>
<path d="M0 0 C4.49451253 3.65260096 8.70487085 7.20708487 12 12 C12.3125 15.375 12.3125 15.375 12 18 C10 15 10 15 8.5625 12.375 C7.15982726 9.70953007 7.15982726 9.70953007 4 9 C2.00603743 6.33916031 0 3.38757675 0 0 Z " fill="#0F6A7B" transform="translate(335,260)"/>
<path d="M0 0 C0.66 0.33 1.32 0.66 2 1 C2 1.99 2 2.98 2 4 C2.66 4.33 3.32 4.66 4 5 C0.04 6.98 0.04 6.98 -4 9 C-4.33 7.68 -4.66 6.36 -5 5 C-2.5625 2.25 -2.5625 2.25 0 0 Z " fill="#2A596C" transform="translate(170,176)"/>
<path d="M0 0 C2 1 2 1 2.6875 2.875 C3 5 3 5 2 8 C2.66 8 3.32 8 4 8 C4 9.65 4 11.3 4 13 C1.18515955 11.59257978 0.72516601 9.74442408 -0.625 6.9375 C-1.07101563 6.01839844 -1.51703125 5.09929687 -1.9765625 4.15234375 C-2.31429687 3.44207031 -2.65203125 2.73179688 -3 2 C-2.01 1.34 -1.02 0.68 0 0 Z " fill="#135C70" transform="translate(257,111)"/>
<path d="M0 0 C0.66 0 1.32 0 2 0 C2.12117187 0.81984375 2.24234375 1.6396875 2.3671875 2.484375 C2.53476563 3.56203125 2.70234375 4.6396875 2.875 5.75 C3.03742188 6.81734375 3.19984375 7.8846875 3.3671875 8.984375 C4.28457272 13.35611195 5.70653149 16.00593772 9 19 C8.01 19 7.02 19 6 19 C0.97848075 13.67414625 0.79263182 7.02939276 0 0 Z " fill="#0B6676" transform="translate(187,326)"/>
<path d="M0 0 C-1.33333333 3.33333333 -2.66666667 6.66666667 -4 10 C-4.33 9.01 -4.66 8.02 -5 7 C-5.99 6.67 -6.98 6.34 -8 6 C-6.98565881 3.46414701 -6.34981128 2.21863205 -4 0.75 C-2 0 -2 0 0 0 Z " fill="#145A70" transform="translate(226,322)"/>
<path d="M0 0 C0.99 0 1.98 0 3 0 C3 0.66 3 1.32 3 2 C3.99 2 4.98 2 6 2 C6 2.99 6 3.98 6 5 C3.69 5.33 1.38 5.66 -1 6 C-0.67 4.02 -0.34 2.04 0 0 Z " fill="#25E7DD" transform="translate(275,301)"/>
<path d="M0 0 C0.33 0.99 0.66 1.98 1 3 C2.98 2.67 4.96 2.34 7 2 C7 2.66 7 3.32 7 4 C7.66 4.33 8.32 4.66 9 5 C9 5.99 9 6.98 9 8 C5.2089881 6.55049545 1.6125362 4.84827434 -2 3 C-1.34 2.01 -0.68 1.02 0 0 Z " fill="#135F73" transform="translate(281,328)"/>
<path d="M0 0 C4.62 2.31 9.24 4.62 14 7 C9.17808219 8.20547945 9.17808219 8.20547945 6 7 C5.67 6.34 5.34 5.68 5 5 C4.01 4.67 3.02 4.34 2 4 C2 3.34 2 2.68 2 2 C1.34 2 0.68 2 0 2 C0 1.34 0 0.68 0 0 Z " fill="#35D9D7" transform="translate(264,293)"/>
<path d="M0 0 C0.66 1.32 1.32 2.64 2 4 C-0.78999451 7.48749314 -3.25235831 10.50157221 -7 13 C-5.35821735 8.22390502 -2.73453298 4.20617096 0 0 Z " fill="#B7E5EB" transform="translate(370,341)"/>
<path d="M0 0 C0 4.09494154 -1.69697409 5.50742326 -4.33203125 8.48046875 C-6.448839 10.40889548 -8.15301606 10.91626518 -11 11 C-7.6381774 6.74828319 -4.25171681 3.3618226 0 0 Z " fill="#38D8D5" transform="translate(179,333)"/>
<path d="M0 0 C4.62 2.31 9.24 4.62 14 7 C10.86650268 8.04449911 10.01031744 7.93423645 7 7 C7 6.34 7 5.68 7 5 C5.68 5.33 4.36 5.66 3 6 C2.67 5.01 2.34 4.02 2 3 C1.34 2.67 0.68 2.34 0 2 C0 1.34 0 0.68 0 0 Z " fill="#33D2D0" transform="translate(284,304)"/>
<path d="M0 0 C1.2065625 0.0309375 1.2065625 0.0309375 2.4375 0.0625 C1.4475 1.5475 1.4475 1.5475 0.4375 3.0625 C0.4375 4.0525 0.4375 5.0425 0.4375 6.0625 C-1.9375 6.25 -1.9375 6.25 -4.5625 6.0625 C-5.2225 5.0725 -5.8825 4.0825 -6.5625 3.0625 C-5.9025 3.0625 -5.2425 3.0625 -4.5625 3.0625 C-4.2325 2.4025 -3.9025 1.7425 -3.5625 1.0625 C-2.5625 0.0625 -2.5625 0.0625 0 0 Z " fill="#25E8E0" transform="translate(203.5625,290.9375)"/>
<path d="M0 0 C0.66 0.33 1.32 0.66 2 1 C0.54735962 1.8638129 -0.9123163 2.71580454 -2.375 3.5625 C-3.59316406 4.27599609 -3.59316406 4.27599609 -4.8359375 5.00390625 C-5.55007812 5.33261719 -6.26421875 5.66132813 -7 6 C-7.66 5.67 -8.32 5.34 -9 5 C-9 5.66 -9 6.32 -9 7 C-10.32 6.67 -11.64 6.34 -13 6 C-11.3970947 5.18501438 -9.79262722 4.37310073 -8.1875 3.5625 C-7.29417969 3.11003906 -6.40085938 2.65757812 -5.48046875 2.19140625 C-3 1 -3 1 0 0 Z " fill="#0F697B" transform="translate(194,228)"/>
<path d="M0 0 C0.66 0.99 1.32 1.98 2 3 C1.01 4.485 1.01 4.485 0 6 C-0.763125 5.814375 -1.52625 5.62875 -2.3125 5.4375 C-5.08967375 4.77180827 -5.08967375 4.77180827 -8 6 C-8.66 5.34 -9.32 4.68 -10 4 C-9.36191406 3.79503906 -8.72382813 3.59007812 -8.06640625 3.37890625 C-7.24011719 3.10949219 -6.41382813 2.84007812 -5.5625 2.5625 C-4.73878906 2.29566406 -3.91507813 2.02882812 -3.06640625 1.75390625 C-1.03780412 1.17844506 -1.03780412 1.17844506 0 0 Z " fill="#316073" transform="translate(163,183)"/>
<path d="M0 0 C3.10551666 0 4.35261084 0.5393715 7 2 C3.375 6.875 3.375 6.875 0 8 C0 5.33333333 0 2.66666667 0 0 Z " fill="#145B71" transform="translate(176,176)"/>
<path d="M0 0 C0.66 0 1.32 0 2 0 C2 1.32 2 2.64 2 4 C0.36209288 5.04644066 -1.31008021 6.0398183 -3 7 C-5.27537692 9.57183314 -5.27537692 9.57183314 -7 12 C-7.66 11.34 -8.32 10.68 -9 10 C-8.43410156 9.44570312 -7.86820313 8.89140625 -7.28515625 8.3203125 C-6.55167969 7.59585938 -5.81820312 6.87140625 -5.0625 6.125 C-4.33160156 5.40570313 -3.60070312 4.68640625 -2.84765625 3.9453125 C-0.94332001 2.12972808 -0.94332001 2.12972808 0 0 Z " fill="#366376" transform="translate(183,161)"/>
<path d="M0 0 C0.58203125 1.84765625 0.58203125 1.84765625 1 4 C-0.3125 6.4375 -0.3125 6.4375 -2 9 C-2.33 9.886875 -2.66 10.77375 -3 11.6875 C-4 14 -4 14 -7 16 C-5.60668753 10.04675579 -3.11464243 5.24258516 0 0 Z " fill="#37CCCD" transform="translate(240,131)"/>
<path d="M0 0 C0.33 0 0.66 0 1 0 C1 1.65 1 3.3 1 5 C1.99 5.33 2.98 5.66 4 6 C3.67 6.66 3.34 7.32 3 8 C1.72881136 7.20890398 0.45806377 6.41709922 -0.8125 5.625 C-1.52019531 5.18414062 -2.22789062 4.74328125 -2.95703125 4.2890625 C-4.65432039 3.21811524 -6.33014358 2.11323761 -8 1 C-6.865625 1.020625 -5.73125 1.04125 -4.5625 1.0625 C-1.18424326 1.41577477 -1.18424326 1.41577477 0 0 Z " fill="#32D2CF" transform="translate(291,228)"/>
<path d="M0 0 C3.48331435 3.01887244 4.79157144 5.56909529 6 10 C5.34 10 4.68 10 4 10 C3.731875 9.195625 3.46375 8.39125 3.1875 7.5625 C2.795625 6.716875 2.40375 5.87125 2 5 C1.01 4.67 0.02 4.34 -1 4 C-1 4.99 -1 5.98 -1 7 C-1.66 7 -2.32 7 -3 7 C-1.125 1.125 -1.125 1.125 0 0 Z " fill="#3ACACB" transform="translate(251,109)"/>
<path d="M0 0 C3.7910119 1.44950455 7.3874638 3.15172566 11 5 C8 6 8 6 6.0625 5.0625 C5.381875 4.711875 4.70125 4.36125 4 4 C2.68 4 1.36 4 0 4 C-0.33 3.34 -0.66 2.68 -1 2 C-0.67 1.34 -0.34 0.68 0 0 Z " fill="#105E72" transform="translate(285,314)"/>
<path d="M0 0 C0.99 0.33 1.98 0.66 3 1 C3 1.66 3 2.32 3 3 C3.99 3 4.98 3 6 3 C6 3.99 6 4.98 6 6 C5.34 6 4.68 6 4 6 C3.67 6.99 3.34 7.98 3 9 C1.35173889 6.03312999 0.55728913 3.34373475 0 0 Z " fill="#185873" transform="translate(184,165)"/>
<path d="M0 0 C2.71329897 0.86031431 4.40863329 1.97772465 6.5625 3.8125 C4.9125 3.8125 3.2625 3.8125 1.5625 3.8125 C1.5625 3.1525 1.5625 2.4925 1.5625 1.8125 C-0.4175 2.8025 -0.4175 2.8025 -2.4375 3.8125 C-3.4275 3.1525 -4.4175 2.4925 -5.4375 1.8125 C-2.4375 -0.1875 -2.4375 -0.1875 0 0 Z " fill="#105E73" transform="translate(230.4375,283.1875)"/>
<path d="M0 0 C1.98 0.66 3.96 1.32 6 2 C5.34 2.66 4.68 3.32 4 4 C3.34 4 2.68 4 2 4 C1.01 6.64 0.02 9.28 -1 12 C-1.33 12 -1.66 12 -2 12 C-1.44687265 7.97007218 -0.8441938 3.97977076 0 0 Z " fill="#3ACDCD" transform="translate(132,251)"/>
<path d="M0 0 C-4.03923713 2.69282475 -6.95536152 3.13300939 -11.75 3.0625 C-12.54921875 3.05347656 -13.3484375 3.04445312 -14.171875 3.03515625 C-14.77515625 3.02355469 -15.3784375 3.01195312 -16 3 C-16 2.67 -16 2.34 -16 2 C-10.42932723 0.40837921 -5.78898419 -0.20674944 0 0 Z " fill="#0B6A79" transform="translate(269,227)"/>
<path d="M0 0 C3 1 3 1 4.16796875 2.84765625 C4.50441406 3.57855469 4.84085937 4.30945313 5.1875 5.0625 C5.53167969 5.79597656 5.87585938 6.52945313 6.23046875 7.28515625 C6.48441406 7.85105469 6.73835938 8.41695312 7 9 C3.21875 8.296875 3.21875 8.296875 1.25 5.625 C0 3 0 3 0 0 Z " fill="#2D5C6E" transform="translate(358,217)"/>
<path d="M0 0 C1.32 0.33 2.64 0.66 4 1 C6.27678571 7.96428571 6.27678571 7.96428571 5 12 C4.16180842 10.37750059 3.3295884 8.75191503 2.5 7.125 C2.0359375 6.22007812 1.571875 5.31515625 1.09375 4.3828125 C0 2 0 2 0 0 Z " fill="#135E72" transform="translate(291,149)"/>
<path d="M0 0 C0 3.3 0 6.6 0 10 C-0.66 10 -1.32 10 -2 10 C-2.99 8.02 -3.98 6.04 -5 4 C-1.125 0 -1.125 0 0 0 Z " fill="#125B72" transform="translate(274,135)"/>
<path d="M0 0 C3.7952131 1.49097658 5.61042731 3.75700849 8 7 C5.69 6.34 3.38 5.68 1 5 C0.67 3.35 0.34 1.7 0 0 Z M-1 5 C1 6 1 6 1 6 Z " fill="#0E5F74" transform="translate(274,352)"/>
<path d="M0 0 C0.721875 0.144375 1.44375 0.28875 2.1875 0.4375 C3.5796875 0.7159375 3.5796875 0.7159375 5 1 C6.66666667 1.33333333 8.33333333 1.66666667 10 2 C10.33 1.34 10.66 0.68 11 0 C11.66 0.33 12.32 0.66 13 1 C11.515 3.475 11.515 3.475 10 6 C6.7 4.35 3.4 2.7 0 1 C0 0.67 0 0.34 0 0 Z " fill="#3ACACC" transform="translate(343,346)"/>
<path d="M0 0 C4.21912747 0.4794463 6.79663178 1.16625119 10 4 C6.37471432 4.20140476 4.13498292 3.85776765 1 2 C0.67 2.99 0.34 3.98 0 5 C-0.33 4.01 -0.66 3.02 -1 2 C-0.67 1.34 -0.34 0.68 0 0 Z " fill="#34D1CE" transform="translate(268,326)"/>
<path d="M0 0 C3.3 1.65 6.6 3.3 10 5 C9.01 5.33 8.02 5.66 7 6 C6.67 6.66 6.34 7.32 6 8 C5.34 7.34 4.68 6.68 4 6 C4.33 5.34 4.66 4.68 5 4 C2.525 3.01 2.525 3.01 0 2 C0 1.34 0 0.68 0 0 Z " fill="#116274" transform="translate(268,304)"/>
<path d="M0 0 C0.33 0.99 0.66 1.98 1 3 C-0.32 3.99 -1.64 4.98 -3 6 C-3.99 5.01 -4.98 4.02 -6 3 C-3.375 0 -3.375 0 0 0 Z " fill="#29E4DE" transform="translate(179,277)"/>
<path d="M0 0 C2.86453858 3.41016497 4.34703566 6.90694544 6 11 C5.01 11.495 5.01 11.495 4 12 C4 11.01 4 10.02 4 9 C3.01 8.67 2.02 8.34 1 8 C0.67 5.36 0.34 2.72 0 0 Z " fill="#0E5F71" transform="translate(123,331)"/>
<path d="M0 0 C0.33 0 0.66 0 1 0 C1 1.65 1 3.3 1 5 C0.34 5 -0.32 5 -1 5 C-0.67 5.99 -0.34 6.98 0 8 C-0.99 8.33 -1.98 8.66 -3 9 C-3 9.99 -3 10.98 -3 12 C-3.66 12 -4.32 12 -5 12 C-3.68938409 7.76570244 -2.05643741 3.92592596 0 0 Z " fill="#106679" transform="translate(372,313)"/>
<path d="M0 0 C6.52307692 0.61538462 6.52307692 0.61538462 8.9375 2.5625 C9.288125 3.036875 9.63875 3.51125 10 4 C8.375 4.75 8.375 4.75 6 5 C2.75 3.125 2.75 3.125 0 1 C0 0.67 0 0.34 0 0 Z " fill="#0E6274" transform="translate(336,300)"/>
<path d="M0 0 C3.3 1.65 6.6 3.3 10 5 C9.34 5.66 8.68 6.32 8 7 C5.125 6.3125 5.125 6.3125 2 5 C1.34 3.35 0.68 1.7 0 0 Z " fill="#125F75" transform="translate(252,295)"/>
<path d="M0 0 C3.7910119 1.44950455 7.3874638 3.15172566 11 5 C9.68 5.33 8.36 5.66 7 6 C6.67 5.34 6.34 4.68 6 4 C4.35 4.33 2.7 4.66 1 5 C0.67 3.35 0.34 1.7 0 0 Z " fill="#116175" transform="translate(187,291)"/>
<path d="M0 0 C1.98 0 3.96 0 6 0 C2.6269381 2.96829447 -0.62968884 4.06350475 -5 5 C-6.32 4.67 -7.64 4.34 -9 4 C-6.03 3.34 -3.06 2.68 0 2 C0 1.34 0 0.68 0 0 Z " fill="#0E5D71" transform="translate(162,193)"/>
<path d="M0 0 C0.66 0 1.32 0 2 0 C0.66666667 3.33333333 -0.66666667 6.66666667 -2 10 C-2.66 10 -3.32 10 -4 10 C-4 8.68 -4 7.36 -4 6 C-3.34 6 -2.68 6 -2 6 C-1.34 4.02 -0.68 2.04 0 0 Z " fill="#35D5D5" transform="translate(361,331)"/>
<path d="M0 0 C0.99 0 1.98 0 3 0 C1.68775452 3.93673644 0.08089673 6.22719294 -3 9 C-3 7.35 -3 5.7 -3 4 C-2.01 4 -1.02 4 0 4 C-0.33 3.01 -0.66 2.02 -1 1 C-0.67 0.67 -0.34 0.34 0 0 Z " fill="#326274" transform="translate(377,327)"/>
<path d="M0 0 C3.99500618 1.3697164 6.80009492 3.25722422 10 6 C6.28111761 5.49287967 3.26545761 4.88391785 0 3 C0 2.01 0 1.02 0 0 Z " fill="#0E6376" transform="translate(310,328)"/>
<path d="M0 0 C0.33 0 0.66 0 1 0 C1.28571429 8.57142857 1.28571429 8.57142857 -1 12 C-1.66 12 -2.32 12 -3 12 C-2.01 8.04 -1.02 4.08 0 0 Z " fill="#34D2D2" transform="translate(124,280)"/>
<path d="M0 0 C1.64936913 0.78427352 3.29441127 1.57765259 4.9375 2.375 C5.85402344 2.81585938 6.77054688 3.25671875 7.71484375 3.7109375 C10 5 10 5 11 7 C9.35 6.67 7.7 6.34 6 6 C6 5.34 6 4.68 6 4 C4.68 4 3.36 4 2 4 C2 3.34 2 2.68 2 2 C1.34 2 0.68 2 0 2 C0 1.34 0 0.68 0 0 Z " fill="#0D6074" transform="translate(138,236)"/>
<path d="M0 0 C0.33 0 0.66 0 1 0 C1.25 5.625 1.25 5.625 -1 9 C-1.99 8.67 -2.98 8.34 -4 8 C-2.68 5.36 -1.36 2.72 0 0 Z " fill="#32CCCE" transform="translate(246,119)"/>
<path d="M0 0 C2.64 0 5.28 0 8 0 C8 0.66 8 1.32 8 2 C8.66 2.33 9.32 2.66 10 3 C9.34 3 8.68 3 8 3 C7.67 3.66 7.34 4.32 7 5 C3.535 3.02 3.535 3.02 0 1 C0 0.67 0 0.34 0 0 Z " fill="#145C71" transform="translate(320,353)"/>
<path d="M0 0 C0.99 0.33 1.98 0.66 3 1 C3 1.66 3 2.32 3 3 C4.32 3 5.64 3 7 3 C7 4.65 7 6.3 7 8 C1.125 3.375 1.125 3.375 0 0 Z " fill="#37D1D2" transform="translate(268,344)"/>
<path d="M0 0 C2.31 0.66 4.62 1.32 7 2 C6.67 3.65 6.34 5.3 6 7 C1.125 2.25 1.125 2.25 0 0 Z " fill="#275A6E" transform="translate(112,335)"/>
<path d="M0 0 C6.57142857 5.14285714 6.57142857 5.14285714 8 9 C6.25 8.875 6.25 8.875 4 8 C0 2.77777778 0 2.77777778 0 0 Z " fill="#0E6376" transform="translate(347,279)"/>
<path d="M0 0 C1.98 0.66 3.96 1.32 6 2 C5.01 2.99 4.02 3.98 3 5 C1.68 4.34 0.36 3.68 -1 3 C-0.67 2.01 -0.34 1.02 0 0 Z " fill="#14586F" transform="translate(158,275)"/>
<path d="M0 0 C0.144375 0.598125 0.28875 1.19625 0.4375 1.8125 C0.8872439 3.56150404 1.42892341 5.28677023 2 7 C-0.02045442 6.39816251 -2.02111039 5.72693904 -4 5 C-4.33 4.34 -4.66 3.68 -5 3 C-3.68 3 -2.36 3 -1 3 C-0.67 2.01 -0.34 1.02 0 0 Z " fill="#145B71" transform="translate(157,258)"/>
<path d="M0 0 C1.093125 0.37125 2.18625 0.7425 3.3125 1.125 C4.529375 1.41375 5.74625 1.7025 7 2 C7.99 1.34 8.98 0.68 10 0 C9.67 1.32 9.34 2.64 9 4 C6.03 3.67 3.06 3.34 0 3 C0 2.01 0 1.02 0 0 Z " fill="#0D6676" transform="translate(156,246)"/>
<path d="M0 0 C0.66 0.66 1.32 1.32 2 2 C1.67 2.66 1.34 3.32 1 4 C0.34 4 -0.32 4 -1 4 C-1.33 4.99 -1.66 5.98 -2 7 C-3.32 7.33 -4.64 7.66 -6 8 C-4.02 5.36 -2.04 2.72 0 0 Z " fill="#2F5E71" transform="translate(245,98)"/>
<path d="M0 0 C1.98 0 3.96 0 6 0 C6.33 0.99 6.66 1.98 7 3 C7.99 3.66 8.98 4.32 10 5 C9.01 5.495 9.01 5.495 8 6 C6.0546875 5.0390625 6.0546875 5.0390625 3.875 3.625 C3.15054687 3.16351563 2.42609375 2.70203125 1.6796875 2.2265625 C1.12539063 1.82179688 0.57109375 1.41703125 0 1 C0 0.67 0 0.34 0 0 Z " fill="#32D4D2" transform="translate(275,307)"/>
<path d="M0 0 C5.35048061 0.37328935 7.50912907 1.9957657 11 6 C6.49197399 4.74194623 3.5087188 3.09592835 0 0 Z " fill="#0E687A" transform="translate(267,294)"/>
<path d="M0 0 C2.31 0 4.62 0 7 0 C7.66 1.65 8.32 3.3 9 5 C5.54074837 3.7508258 2.85306797 2.32472205 0 0 Z " fill="#2FCFCF" transform="translate(249,293)"/>
<path d="M0 0 C1.98 1.65 3.96 3.3 6 5 C5.01 5.495 5.01 5.495 4 6 C1.375 5.0625 1.375 5.0625 -1 4 C-0.67 2.68 -0.34 1.36 0 0 Z " fill="#105F73" transform="translate(164,351)"/>
<path d="M0 0 C1.65 0 3.3 0 5 0 C5 0.99 5 1.98 5 3 C6.32 3 7.64 3 9 3 C9 3.66 9 4.32 9 5 C5.22454612 3.90931332 2.52956528 3.0916909 0 0 Z " fill="#33CECD" transform="translate(303,323)"/>
<path d="M0 0 C0 0.99 0 1.98 0 3 C-0.804375 3.12375 -1.60875 3.2475 -2.4375 3.375 C-3.7059375 3.684375 -3.7059375 3.684375 -5 4 C-5.33 4.66 -5.66 5.32 -6 6 C-6.33 5.01 -6.66 4.02 -7 3 C-4.69 2.01 -2.38 1.02 0 0 Z " fill="#185F73" transform="translate(206,297)"/>
<path d="M0 0 C0 0.99 0 1.98 0 3 C-1.75 4.75 -1.75 4.75 -4 6 C-5.32 5.67 -6.64 5.34 -8 5 C-4.04 2.525 -4.04 2.525 0 0 Z " fill="#115E74" transform="translate(219,289)"/>
<path d="M0 0 C0.33 0 0.66 0 1 0 C1 1.65 1 3.3 1 5 C-1.64 4.67 -4.28 4.34 -7 4 C-6.01 3.01 -5.02 2.02 -4 1 C-3.01 1.66 -2.02 2.32 -1 3 C-0.67 2.01 -0.34 1.02 0 0 Z " fill="#30CDCC" transform="translate(231,176)"/>
<path d="M0 0 C1.98 0.99 1.98 0.99 4 2 C3.67 2.66 3.34 3.32 3 4 C3.66 4 4.32 4 5 4 C5 4.66 5 5.32 5 6 C4.01 6 3.02 6 2 6 C0 3 0 3 0 0 Z " fill="#28586A" transform="translate(130,363)"/>
<path d="M0 0 C0.33 0 0.66 0 1 0 C1.103125 0.94875 1.20625 1.8975 1.3125 2.875 C1.68539295 6.29107501 1.68539295 6.29107501 5 8 C4.67 8.99 4.34 9.98 4 11 C2 9.4375 2 9.4375 0 7 C-0.25 3.25 -0.25 3.25 0 0 Z " fill="#3AD4D1" transform="translate(347,272)"/>
<path d="M0 0 C2.02045442 0.60183749 4.02111039 1.27306096 6 2 C6.33 2.66 6.66 3.32 7 4 C4.36 3.67 1.72 3.34 -1 3 C-0.67 2.01 -0.34 1.02 0 0 Z " fill="#0A6273" transform="translate(151,271)"/>
<path d="M0 0 C2.31 0.33 4.62 0.66 7 1 C6.01 2.485 6.01 2.485 5 4 C3.02 3.34 1.04 2.68 -1 2 C-0.67 1.34 -0.34 0.68 0 0 Z " fill="#34D6D1" transform="translate(158,245)"/>
<path d="M0 0 C0.66 0.33 1.32 0.66 2 1 C1.25 3.375 1.25 3.375 0 6 C-1.98 6.99 -1.98 6.99 -4 8 C-2.68 5.36 -1.36 2.72 0 0 Z " fill="#326074" transform="translate(221,133)"/>
</svg>
