<?xml version="1.0" encoding="UTF-8"?>
<svg version="1.1" xmlns="http://www.w3.org/2000/svg" width="499" height="500">
<path d="M0 0 C2.47865399 -0.00271927 4.95730717 -0.00628539 7.43595886 -0.01062012 C13.40065355 -0.01870448 19.36530167 -0.0176447 25.32999493 -0.01179484 C30.18713718 -0.00723297 35.04426537 -0.00668469 39.90140915 -0.00884247 C40.59909839 -0.00914893 41.29678763 -0.0094554 42.01561897 -0.00977115 C43.4340038 -0.01041076 44.85238863 -0.01105919 46.27077346 -0.01171634 C59.49345022 -0.01738564 72.716099 -0.01091518 85.93877117 -0.0001156 C97.22888876 0.00882075 108.51896519 0.00726051 119.80908203 -0.00195312 C132.99538547 -0.01270953 146.18166456 -0.01684076 159.36797178 -0.0107286 C160.77982354 -0.01009165 162.1916753 -0.00946291 163.60352707 -0.00884247 C164.64488264 -0.00837964 164.64488264 -0.00837964 165.7072757 -0.00790747 C170.54686728 -0.00619684 175.38644312 -0.00905981 180.22603226 -0.01380157 C186.76475736 -0.02006883 193.30342374 -0.01546818 199.84214211 -0.00401306 C202.222311 -0.00139897 204.60248651 -0.00207483 206.98265266 -0.00653839 C218.54679165 -0.02620317 230.03747804 0.16185386 241.56771851 1.10699463 C242.93442403 1.21456105 242.93442403 1.21456105 244.32873976 1.32430053 C265.24709346 3.25465146 285.05853388 12.3814914 302.11865234 24.25878906 C302.99263672 24.86464844 303.86662109 25.47050781 304.76708984 26.09472656 C308.73785507 28.95089102 308.73785507 28.95089102 310.11865234 30.25878906 C310.11865234 30.91878906 310.11865234 31.57878906 310.11865234 32.25878906 C310.77865234 32.25878906 311.43865234 32.25878906 312.11865234 32.25878906 C312.11865234 32.91878906 312.11865234 33.57878906 312.11865234 34.25878906 C312.77865234 34.25878906 313.43865234 34.25878906 314.11865234 34.25878906 C314.11865234 34.91878906 314.11865234 35.57878906 314.11865234 36.25878906 C314.77865234 36.25878906 315.43865234 36.25878906 316.11865234 36.25878906 C317.92035406 38.28191203 319.59173425 40.30516196 321.24365234 42.44628906 C321.73575195 43.0834082 322.22785156 43.72052734 322.73486328 44.37695312 C334.72469823 60.12677535 342.13987646 76.71343653 345.11865234 96.25878906 C345.28269121 97.28755315 345.44673008 98.31631723 345.61573982 99.37625599 C346.19195545 103.82469607 346.46938409 108.23272772 346.67306519 112.71134949 C346.71519256 113.62612759 346.75731994 114.54090569 346.80072391 115.48340434 C347.25912417 126.32696584 347.25899349 137.16647835 347.24804688 148.01782227 C347.24940597 150.31692533 347.25118874 152.61602817 347.25335693 154.91513062 C347.25787161 161.09505899 347.25616632 167.27497045 347.25297785 173.45489907 C347.25042221 179.96587938 347.25280071 186.47685837 347.25436401 192.98783875 C347.25649124 204.61680324 347.25321005 216.24576071 347.24810468 227.87472399 C347.24364145 238.36464723 347.24441205 248.85455939 347.24902344 259.34448242 C347.25440614 271.5943009 347.25635027 283.84411235 347.25341117 296.09393185 C347.25186447 302.55319209 347.2516099 309.01244475 347.25494766 315.47170448 C347.25787058 321.55155178 347.2557709 327.63137849 347.25005341 333.7112236 C347.24874904 335.9216515 347.24907947 338.13208117 347.25131607 340.34250832 C347.30097019 394.47365967 347.30097019 394.47365967 339.11865234 417.25878906 C338.89161621 417.9076709 338.66458008 418.55655273 338.43066406 419.22509766 C335.17419155 428.42376948 330.94436901 436.37891796 325.11865234 444.25878906 C324.45994141 445.16371094 323.80123047 446.06863281 323.12255859 447.00097656 C319.71063348 451.55493899 319.71063348 451.55493899 318.11865234 453.25878906 C317.45865234 453.25878906 316.79865234 453.25878906 316.11865234 453.25878906 C315.80927734 454.09410156 315.80927734 454.09410156 315.49365234 454.94628906 C313.9469316 457.54759213 312.05161101 459.10786406 309.69287109 460.96972656 C307.89381962 462.39407917 307.89381962 462.39407917 305.61865234 464.82128906 C299.01608824 471.25878906 299.01608824 471.25878906 295.11865234 471.25878906 C295.11865234 471.91878906 295.11865234 472.57878906 295.11865234 473.25878906 C268.25386624 488.21754093 243.72011358 492.88303221 213.07080078 492.77636719 C210.41862612 492.78180069 207.76649557 492.78878843 205.11433411 492.79760742 C198.7098853 492.81522965 192.30562586 492.81162573 185.90117016 492.79995686 C180.68543303 492.79085457 175.46974827 492.78972757 170.25400543 492.79405212 C169.50639517 492.79466506 168.75878492 492.79527799 167.9885198 492.79590949 C166.46883429 492.79718865 164.94914878 492.79848551 163.4294633 492.79979986 C149.23671375 492.81115876 135.04406816 492.79816775 120.85133567 492.77659839 C108.73059098 492.75874645 96.60999971 492.76182495 84.48925781 492.78027344 C70.34707444 492.80178922 56.2049819 492.81004519 42.06278443 492.79782438 C40.54804374 492.79655046 39.03330304 492.79529297 37.51856232 492.79405212 C36.77367276 492.79343502 36.0287832 492.79281792 35.26132123 492.79218212 C30.06703164 492.78876003 24.8728007 492.79448912 19.6785202 492.80397034 C13.32629268 492.81531235 6.97426222 492.81189978 0.62205663 492.79084736 C-2.60553741 492.78049539 -5.83274632 492.77817212 -9.0603466 492.78944397 C-37.0018675 492.87792313 -65.59677805 490.21099952 -89.88134766 475.25878906 C-90.68701172 474.76507813 -91.49267578 474.27136719 -92.32275391 473.76269531 C-119.9922673 456.00608585 -136.17469628 430.68768122 -143.11962891 398.90332031 C-143.37099609 397.700625 -143.62236328 396.49792969 -143.88134766 395.25878906 C-144.05062334 394.50782707 -144.21989902 393.75686508 -144.39430428 392.98314667 C-147.00760756 378.36520307 -146.02428404 362.78960633 -146.01074219 348.00683594 C-146.01209984 345.49992345 -146.01388182 342.99301116 -146.01605225 340.48609924 C-146.02011446 334.42340384 -146.01955353 328.36072567 -146.01663961 322.29803097 C-146.01436786 317.3643713 -146.01408067 312.4307151 -146.01516342 307.49705505 C-146.01531665 306.79099883 -146.01546989 306.08494261 -146.01562776 305.35749075 C-146.01594754 303.92250526 -146.01627175 302.48751977 -146.01660036 301.05253428 C-146.01944206 287.64218702 -146.01618874 274.23184662 -146.01079999 260.82150048 C-146.00633315 249.35088621 -146.00710945 237.88028206 -146.01171875 226.40966797 C-146.01708772 213.04256604 -146.01916749 199.67547011 -146.01610649 186.30836725 C-146.01578799 184.87908586 -146.01547361 183.44980447 -146.01516342 182.02052307 C-146.01500915 181.31755363 -146.01485487 180.61458419 -146.01469592 179.89031264 C-146.01383772 174.97085453 -146.01527853 170.05140027 -146.01764297 165.13194275 C-146.02076406 158.49322395 -146.01849637 151.85452114 -146.01274872 145.21580315 C-146.01143563 142.79119333 -146.0117903 140.36658189 -146.01401138 137.94197273 C-146.04397289 101.88856377 -146.04397289 101.88856377 -143.25634766 90.32128906 C-143.08449951 89.5880542 -142.91265137 88.85481934 -142.7355957 88.09936523 C-137.97463735 68.91051764 -129.11219983 51.95722723 -115.88134766 37.25878906 C-115.14658203 36.42992187 -114.41181641 35.60105469 -113.65478516 34.74707031 C-94.52786377 14.37274101 -66.96738282 3.24632625 -39.43643188 1.14996338 C-38.34664303 1.06570862 -37.25685418 0.98145386 -36.13404143 0.89464593 C-24.08897351 0.03312444 -12.07014077 -0.02267783 0 0 Z " fill="#CCFDFD" transform="translate(149.88134765625,2.7412109375)"/>
<path d="M0 0 C7.18705342 6.46226472 14.1222157 13.16473122 20.70263672 20.24511719 C21.39305054 20.98725464 21.39305054 20.98725464 22.09741211 21.74438477 C34.28055453 35.1514249 43.3497921 51.03175576 51.07763672 67.30761719 C51.58294922 68.2628125 52.08826172 69.21800781 52.60888672 70.20214844 C54.12674831 73.41145686 55.24495979 76.59872581 56.32763672 79.97363281 C57.04237787 82.19789239 57.80328131 84.40040244 58.57763672 86.60449219 C71.54697989 124.4550998 70.42009814 171.68154478 56.01513672 208.81933594 C55.10949931 211.22304856 54.30026807 213.6396039 53.51513672 216.08496094 C52.32658243 219.71366538 50.85105774 223.0427968 49.07763672 226.43261719 C47.46248899 229.56418724 45.95973743 232.59980239 44.64013672 235.87011719 C40.93861517 244.0134646 35.54744066 251.26895476 30.07763672 258.30761719 C29.56845703 258.99082031 29.05927734 259.67402344 28.53466797 260.37792969 C21.59454337 269.57647962 13.59198529 277.86074873 5.51513672 286.05761719 C4.74617065 286.84616089 4.74617065 286.84616089 3.96166992 287.65063477 C2.7057451 288.90951919 1.39591426 290.11418455 0.07763672 291.30761719 C-0.58236328 291.30761719 -1.24236328 291.30761719 -1.92236328 291.30761719 C-1.92236328 291.96761719 -1.92236328 292.62761719 -1.92236328 293.30761719 C-3.33780868 294.28494854 -4.75997475 295.25405743 -6.21533203 296.17089844 C-8.19716184 297.44240882 -8.19716184 297.44240882 -10.85986328 299.80761719 C-13.4939713 301.95790945 -16.06115938 303.60745555 -19.03955078 305.22558594 C-21.0722423 306.39375098 -22.94421815 307.70646825 -24.85986328 309.05761719 C-60.9852315 333.22214921 -112.04109998 342.45260498 -154.53564453 334.22167969 C-155.99822354 333.91862572 -157.46046131 333.61392046 -158.92236328 333.30761719 C-160.4783243 333.00278387 -162.03431429 332.69809836 -163.59033203 332.39355469 C-173.02355223 330.48106891 -181.95313984 327.84723765 -190.92236328 324.30761719 C-192.3396875 323.77394531 -192.3396875 323.77394531 -193.78564453 323.22949219 C-207.19170852 317.96348642 -220.49152783 311.09413053 -231.92236328 302.30761719 C-233.32152921 301.25867448 -234.72133155 300.21058042 -236.12158203 299.16308594 C-237.6602338 298.0041121 -239.1979877 296.84394534 -240.73486328 295.68261719 C-241.46527832 295.13178467 -242.19569336 294.58095215 -242.94824219 294.01342773 C-246.89066236 290.99914359 -250.48728012 287.90773103 -253.92236328 284.30761719 C-254.51662109 283.7365625 -255.11087891 283.16550781 -255.72314453 282.57714844 C-257.16040912 281.19187792 -258.54329212 279.75083119 -259.92236328 278.30761719 C-259.92236328 277.64761719 -259.92236328 276.98761719 -259.92236328 276.30761719 C-260.52145508 276.04513184 -261.12054688 275.78264648 -261.73779297 275.51220703 C-264.04743225 274.23865314 -265.2255737 273.07042396 -266.87548828 271.03417969 C-267.40795166 270.3811084 -267.94041504 269.72803711 -268.48901367 269.05517578 C-269.32227173 268.00450928 -269.32227173 268.00450928 -270.17236328 266.93261719 C-270.75300537 266.20510254 -271.33364746 265.47758789 -271.93188477 264.72802734 C-290.1563137 241.66626567 -303.98966373 214.5174819 -309.48486328 185.55761719 C-309.81647461 183.86378906 -309.81647461 183.86378906 -310.15478516 182.13574219 C-312.47679552 170.01358538 -313.16243451 158.24749565 -313.17236328 145.93261719 C-313.1733754 144.80045273 -313.1733754 144.80045273 -313.17440796 143.64541626 C-313.15736746 131.6149823 -312.45004326 120.10016907 -309.92236328 108.30761719 C-309.75075684 107.45458008 -309.57915039 106.60154297 -309.40234375 105.72265625 C-307.0131389 93.96665812 -303.6344787 83.129397 -298.72729492 72.1887207 C-297.90777096 70.27351533 -297.20161911 68.34063982 -296.50439453 66.37792969 C-294.83119066 61.84651934 -292.59878661 57.69940731 -290.23486328 53.49511719 C-289.79207031 52.70468018 -289.34927734 51.91424316 -288.89306641 51.09985352 C-285.32111769 44.82131847 -281.37068445 39.00180275 -276.92236328 33.30761719 C-276.06179198 32.1822289 -275.20248609 31.05587218 -274.34423828 29.92871094 C-271.8865124 26.70875066 -269.41340131 23.50190745 -266.92236328 20.30761719 C-266.20564453 19.35628906 -265.48892578 18.40496094 -264.75048828 17.42480469 C-263.84556641 16.37679687 -263.84556641 16.37679687 -262.92236328 15.30761719 C-262.26236328 15.30761719 -261.60236328 15.30761719 -260.92236328 15.30761719 C-260.72384766 14.77523437 -260.52533203 14.24285156 -260.32080078 13.69433594 C-258.29018657 10.22867872 -255.49893084 7.81269935 -252.54736328 5.12011719 C-251.92321533 4.54640381 -251.29906738 3.97269043 -250.65600586 3.3815918 C-245.02555952 -1.72472675 -239.14433467 -6.31922578 -232.92236328 -10.69238281 C-232.14376953 -11.24410156 -231.36517578 -11.79582031 -230.56298828 -12.36425781 C-224.91339927 -16.25085451 -218.98964369 -19.50916995 -212.92236328 -22.69238281 C-211.83052734 -23.29953125 -210.73869141 -23.90667969 -209.61376953 -24.53222656 C-144.81854613 -59.682116 -55.03475078 -48.45071024 0 0 Z " fill="#224E63" transform="translate(375.92236328125,109.6923828125)"/>
<path d="M0 0 C0.68736237 0.00093658 1.37472473 0.00187317 2.08291626 0.00283813 C19.40492957 0.05398755 35.14558533 2.57210411 51.8125 7.1875 C52.86824219 7.47238281 53.92398438 7.75726563 55.01171875 8.05078125 C74.85157881 14.02255082 92.8879935 25.14616731 108.8125 38.1875 C109.37324219 38.63738281 109.93398438 39.08726563 110.51171875 39.55078125 C113.82068385 42.24296192 116.83635337 45.13504192 119.8125 48.1875 C120.575625 48.93 121.33875 49.6725 122.125 50.4375 C149.629019 78.58114735 168.50567571 116.46796179 169.8125 156.1875 C169.83973145 156.92790527 169.86696289 157.66831055 169.89501953 158.43115234 C170.62758616 181.01171225 167.94828476 202.74002887 160.8125 224.1875 C160.48378906 225.22519531 160.15507812 226.26289063 159.81640625 227.33203125 C155.64845718 239.6876847 149.88453539 251.92087999 141.8125 262.1875 C136.23040742 259.89533638 131.0748791 257.25117741 125.94140625 254.0859375 C121.79323888 251.5690719 117.58247113 249.16599765 113.375 246.75 C108.09133201 243.71080347 102.86000239 240.639097 97.75 237.3125 C93.86081016 234.78897988 89.91845642 232.70862861 85.74609375 230.69921875 C80.28936876 227.88729789 75.06110689 224.66936118 69.78515625 221.53515625 C66.9444715 219.84893211 64.08897531 218.20512033 61.1875 216.625 C57.20098949 214.44632565 53.3239061 212.10070317 49.4375 209.75 C42.41044402 205.50517705 35.25981225 201.54742474 28.0078125 197.69921875 C23.61431909 195.3442576 19.36039568 192.94954255 15.25 190.125 C11.43910045 187.51433038 7.51388325 185.47894828 3.359375 183.47265625 C0.70322615 182.13236028 -1.82926134 180.66401474 -4.375 179.125 C-5.19742188 178.62871094 -6.01984375 178.13242187 -6.8671875 177.62109375 C-8.3248975 176.72045474 -9.77002427 175.79877271 -11.1953125 174.84765625 C-13.17034748 173.52225551 -13.17034748 173.52225551 -16.1875 172.1875 C-20.15582147 173.3166441 -23.10282356 175.41482599 -26.375 177.875 C-30.83292523 181.18694445 -35.32655993 184.42310144 -39.90234375 187.5703125 C-41.3639844 188.60470434 -42.79794106 189.68013664 -44.19140625 190.8046875 C-46 192.25 -46 192.25 -49.1875 194.1875 C-53.82266174 192.8879993 -58.1345655 190.19554081 -62.375 187.9375 C-63.07947266 187.56753906 -63.78394531 187.19757813 -64.50976562 186.81640625 C-69.28385188 184.28462838 -73.9163368 181.56671189 -78.5378418 178.76757812 C-83.29946226 175.92806761 -88.15462382 173.25568701 -93 170.5625 C-104.44062441 164.18154168 -115.82828564 157.7121197 -127.1875 151.1875 C-127.3014209 151.75525146 -127.4153418 152.32300293 -127.53271484 152.90795898 C-128.57847138 157.8906507 -129.94670829 162.49823222 -131.8125 167.25 C-134.25225391 173.96293235 -135.75185838 178.65068974 -132.75 185.4375 C-132.47671875 186.01886719 -132.2034375 186.60023438 -131.921875 187.19921875 C-130.26592358 191.68261912 -130.36765316 196.45969687 -130.1875 201.1875 C-130.13899902 201.94981934 -130.09049805 202.71213867 -130.04052734 203.49755859 C-128.9180004 221.84641969 -132.51848027 238.79202382 -141.13012695 255.10253906 C-143.96713233 260.69663417 -144.37943714 267.44974059 -142.46875 273.44140625 C-140.23761724 278.03861931 -137.20460518 282.08088462 -134.1875 286.1875 C-134.1875 286.5175 -134.1875 286.8475 -134.1875 287.1875 C-136.8275 287.1875 -139.4675 287.1875 -142.1875 287.1875 C-143.13998463 285.52065189 -144.09164755 283.85332861 -145.0390625 282.18359375 C-145.76804474 280.91655318 -146.5113021 279.65753612 -147.2734375 278.41015625 C-152.62259159 269.54182184 -153.30176383 261.58186033 -150.875 251.75 C-149.84304014 246.39117986 -150.85790691 243.86065143 -153.55078125 239.2421875 C-159.10826536 228.86998566 -162.94633789 216.70340847 -165.1875 205.1875 C-165.60322266 203.25197266 -165.60322266 203.25197266 -166.02734375 201.27734375 C-171.16643588 174.81233103 -169.82620967 145.95954299 -162.1875 120.1875 C-157.12905446 121.4314841 -153.40750265 123.05502678 -149 125.9375 C-144.99174326 128.49884027 -140.97882862 130.87471543 -136.6875 132.9375 C-129.84975954 136.24667386 -123.31520503 140.0610656 -116.74804688 143.87402344 C-112.32124923 146.43559736 -107.88454401 148.87019871 -103.29199219 151.11914062 C-98.83874625 153.37986037 -94.52566869 155.90286188 -90.1875 158.375 C-88.14195841 159.53521148 -86.09638535 160.69536748 -84.05078125 161.85546875 C-81.27489628 163.43252317 -78.49934409 165.01015992 -75.72412109 166.58837891 C-71.22471269 169.14506124 -66.71205925 171.67558952 -62.1875 174.1875 C-61.18976563 174.75855469 -60.19203125 175.32960938 -59.1640625 175.91796875 C-58.28492188 176.39878906 -57.40578125 176.87960937 -56.5 177.375 C-55.77425781 177.78105469 -55.04851562 178.18710937 -54.30078125 178.60546875 C-51.37911833 179.41014116 -49.88318511 178.42864743 -47.1875 177.1875 C-46.1975 177.1875 -45.2075 177.1875 -44.1875 177.1875 C-44.1875 176.5275 -44.1875 175.8675 -44.1875 175.1875 C-41.92628204 173.53831837 -39.66690097 172.00570523 -37.3125 170.5 C-35.93271131 169.60552642 -34.55380714 168.70968696 -33.17578125 167.8125 C-32.49596191 167.37035156 -31.81614258 166.92820313 -31.11572266 166.47265625 C-27.7226114 164.2111549 -24.47596135 161.74672 -21.23828125 159.26953125 C-19.1875 158.1875 -19.1875 158.1875 -17.328125 158.28125 C-14.28330224 159.57029905 -11.46497183 161.19479305 -8.625 162.875 C-7.37687853 163.60255231 -6.1281729 164.32910333 -4.87890625 165.0546875 C-4.25902832 165.41530273 -3.63915039 165.77591797 -3.00048828 166.14746094 C0.45902524 168.13204586 3.98474382 169.99466275 7.5078125 171.86328125 C9.8125 173.1875 9.8125 173.1875 11.75390625 174.671875 C14.24745277 176.50773088 16.83870883 177.77656384 19.625 179.125 C26.0326465 182.28239103 32.01585799 185.6668406 38 189.5625 C42.85723192 192.68500624 47.84993937 195.267869 53.0390625 197.7890625 C56.07760149 199.32117089 58.89549979 201.05154057 61.74609375 202.90234375 C64.25485364 204.46261219 66.83483421 205.85233694 69.4375 207.25 C73.39200324 209.37850174 77.13957449 211.60652532 80.8125 214.1875 C80.28849609 213.05828125 80.28849609 213.05828125 79.75390625 211.90625 C75.87382995 202.84907472 74.95033883 194.94899564 74.8125 185.1875 C91.86209846 185.39542193 107.4566869 187.35751552 121.8125 197.1875 C125.83328339 199.52462839 128.24288376 199.22969318 132.8125 198.1875 C135.55822728 196.70762037 135.55822728 196.70762037 137.8125 195.1875 C138.4725 195.1875 139.1325 195.1875 139.8125 195.1875 C140.06 194.630625 140.3075 194.07375 140.5625 193.5 C141.8125 191.1875 141.8125 191.1875 144 188.8125 C146.0619215 186.32397926 146.0619215 186.32397926 145.9375 183.3125 C144.40776497 179.06323603 141.84124077 176.47257072 138.8125 173.1875 C134.68945309 168.59374583 131.72437981 164.87347509 130.4375 158.75 C129.13598411 152.99634745 126.37699558 150.27138323 122.3046875 146.15234375 C118.12890067 141.18459735 115.45546837 135.42913792 112.5625 129.65234375 C111.16370117 126.43457362 111.16370117 126.43457362 109.8125 125.1875 C108.17432202 125.28775308 106.53626825 125.39076165 104.89916992 125.50732422 C94.68571202 126.08330254 87.52357494 123.06689964 78.69140625 118.20410156 C77.06467737 117.32394316 75.39447872 116.52504056 73.71875 115.7421875 C67.346781 112.68437479 62.8137552 108.62046177 58.0456543 103.50097656 C53.23532129 98.34972756 48.65930876 94.49001245 41.48510742 94.04223633 C38.65649996 94.01721869 35.82874224 93.99773102 33 94 C31.96915283 94.00080566 30.93830566 94.00161133 29.8762207 94.00244141 C19.11445184 94.08816577 8.73626543 95.31072375 -1.74609375 97.8203125 C-9.89072654 99.04526527 -15.98449067 97.21420933 -23.6875 94.6875 C-40.37694821 89.56387993 -56.86021394 89.12222789 -72.65625 97.43359375 C-79.61411351 101.32939261 -86.26990452 105.60543447 -92.328125 110.8125 C-94.49409835 112.41422819 -96.66090006 113.28140899 -99.1875 114.1875 C-99.1875 114.8475 -99.1875 115.5075 -99.1875 116.1875 C-102.77669898 119.42350653 -106.11436283 121.11595752 -110.9375 121.4375 C-115.93080765 120.43292923 -120.09893011 117.52239828 -124.37890625 114.8828125 C-127.22828061 113.07491429 -127.22828061 113.07491429 -130.6875 111.6875 C-135.10328631 109.79502015 -139.10577866 107.37313066 -143.22265625 104.90625 C-146.18741833 103.11665905 -146.18741833 103.11665905 -149.49609375 101.71875 C-152.1875 100.1875 -152.1875 100.1875 -152.98022461 98.36328125 C-153.2475903 95.55672874 -152.5519728 94.30146019 -151.1953125 91.84375 C-150.7422876 91.01568848 -150.2892627 90.18762695 -149.82250977 89.33447266 C-149.07505493 88.02422119 -149.07505493 88.02422119 -148.3125 86.6875 C-147.80581787 85.78692871 -147.29913574 84.88635742 -146.77709961 83.95849609 C-142.73818454 76.90070293 -138.38257002 70.45770868 -133.1875 64.1875 C-132.74857422 63.64464355 -132.30964844 63.10178711 -131.85742188 62.54248047 C-119.28516049 47.0194971 -105.12438885 34.72752626 -88.1875 24.1875 C-87.58993896 23.80158691 -86.99237793 23.41567383 -86.37670898 23.01806641 C-73.31590424 14.65540448 -59.2158132 8.86921658 -44.1875 5.1875 C-43.4248584 4.99816895 -42.6622168 4.80883789 -41.87646484 4.61376953 C-39.52535579 4.038493 -37.17077976 3.48259633 -34.8125 2.9375 C-34.11181396 2.77403076 -33.41112793 2.61056152 -32.68920898 2.44213867 C-21.90251973 0.07691328 -11.00161595 -0.0194073 0 0 Z " fill="#0EE1D8" transform="translate(252.1875,86.8125)"/>
<path d="M0 0 C4.26060442 1.38943899 7.93712728 3.38541759 11.80859375 5.62109375 C12.60289795 6.07145996 13.39720215 6.52182617 14.21557617 6.98583984 C20.99234059 10.85222414 27.64080384 14.90621885 34.24609375 19.05859375 C41.07819731 23.32764781 47.91532382 27.48195862 55.015625 31.2890625 C59.40013607 33.69073543 63.72989369 36.18303401 68.05859375 38.68359375 C68.87150879 39.15128174 69.68442383 39.61896973 70.52197266 40.10083008 C74.86826791 42.61802581 79.10409989 45.21722598 83.24609375 48.05859375 C82.04227927 50.55220946 80.79180653 52.74002458 79.24609375 55.05859375 C76.70133972 55.48664856 76.70133972 55.48664856 73.44213867 55.55786133 C71.61334419 55.60593681 71.61334419 55.60593681 69.74760437 55.65498352 C68.40728028 55.67286362 67.06692996 55.6888613 65.7265625 55.703125 C65.04957117 55.71285528 64.37257984 55.72258556 63.67507362 55.7326107 C60.08097393 55.78352307 56.4872319 55.8162261 52.89282227 55.83422852 C49.93831719 55.85177059 46.98697476 55.90010638 44.03344727 55.9777832 C15.62110174 56.71014087 15.62110174 56.71014087 8.23828125 50.4609375 C5.51733398 47.71166992 5.51733398 47.71166992 3.24609375 45.05859375 C1.79222355 43.76414526 0.323584 42.48595405 -1.1640625 41.23046875 C-2.38698701 40.09571748 -3.60467618 38.95529121 -4.81640625 37.80859375 C-5.43966797 37.23625 -6.06292969 36.66390625 -6.70507812 36.07421875 C-15.21306783 28.10080987 -15.21306783 28.10080987 -16.25390625 22.24609375 C-15.03646326 14.4848947 -8.95684375 0.19057114 0 0 Z " fill="#11E0D8" transform="translate(295.75390625,318.94140625)"/>
<path d="M0 0 C0.33 0 0.66 0 1 0 C1.17015625 1.29035156 1.3403125 2.58070313 1.515625 3.91015625 C1.7596495 5.62771334 2.00448427 7.34515544 2.25 9.0625 C2.35957031 9.91005859 2.46914062 10.75761719 2.58203125 11.63085938 C3.82306844 20.08950757 6.83561964 24.99368067 13 31 C16.13824863 35.11218785 16.4133612 37.87432116 16 43 C15.67779238 44.91711014 15.33683923 46.83113305 14.98046875 48.7421875 C14.79766357 49.72815918 14.6148584 50.71413086 14.42651367 51.72998047 C14.28576416 52.47908691 14.14501465 53.22819336 14 54 C9.50207353 54.2500344 5.0079712 54.42990291 0.50512695 54.54931641 C-1.02098115 54.59915244 -2.54662306 54.66705872 -4.07104492 54.75439453 C-18.06907935 55.53538103 -18.06907935 55.53538103 -24.03788757 50.58554077 C-27.44431815 47.38519139 -30.49190121 44.44752717 -31.4375 39.75 C-30.60005506 32.57190051 -25.73824782 28.53423246 -20.4375 24.1875 C-19.86064453 23.69830078 -19.28378906 23.20910156 -18.68945312 22.70507812 C-16.14777197 20.58554471 -14.16682019 19.05560673 -11 18 C-10.01155565 16.2876661 -10.01155565 16.2876661 -9 14 C-7.53284373 11.54914064 -5.98278803 9.15215391 -4.4375 6.75 C-4.02564453 6.1003125 -3.61378906 5.450625 -3.18945312 4.78125 C-2.1546628 3.16894166 -1.08068976 1.58190987 0 0 Z " fill="#0EDCD2" transform="translate(173,320)"/>
<path d="M0 0 C0.66 0 1.32 0 2 0 C2.02916504 0.62229492 2.05833008 1.24458984 2.08837891 1.88574219 C2.86713542 16.88299659 4.16425221 32.32850441 11 46 C10.93577976 47.98206999 10.79882322 49.96202254 10.625 51.9375 C10.52574219 53.09507812 10.42648438 54.25265625 10.32421875 55.4453125 C10.21722656 56.61835938 10.11023438 57.79140625 10 59 C9.90332031 60.09054687 9.80664062 61.18109375 9.70703125 62.3046875 C9.47712435 64.87031528 9.23937774 67.43523853 9 70 C5.04 70 1.08 70 -3 70 C-3 66.04 -3 62.08 -3 58 C-4.65 57.67 -6.3 57.34 -8 57 C-10.38671875 55.94921875 -10.38671875 55.94921875 -12.6875 54.6875 C-13.45449219 54.27886719 -14.22148437 53.87023437 -15.01171875 53.44921875 C-17.31372245 51.77133393 -18.05592602 50.67163203 -19 48 C-21.4071277 32.59438269 -10.67014654 16.85876382 -2.1640625 4.8046875 C-0.82750315 2.89665288 -0.82750315 2.89665288 0 0 Z " fill="#0FDCD3" transform="translate(236,304)"/>
<path d="M0 0 C0.66 0 1.32 0 2 0 C4.59227518 4.86051596 4.18689553 9.65271133 4 15 C5.32 15.33 6.64 15.66 8 16 C7.95359375 16.845625 7.9071875 17.69125 7.859375 18.5625 C7.50134996 29.81471549 10.53448537 35.19971619 17 44 C17 44.33 17 44.66 17 45 C14.36 45 11.72 45 9 45 C8.04751537 43.33315189 7.09585245 41.66582861 6.1484375 39.99609375 C5.41945526 38.72905318 4.6761979 37.47003612 3.9140625 36.22265625 C-2.10045503 26.25121929 -1.7633106 17.45734802 0.66015625 6.48046875 C1.00509158 3.96283735 0.7962683 2.3888049 0 0 Z " fill="#16D7CF" transform="translate(101,329)"/>
<path d="M0 0 C0.33 0 0.66 0 1 0 C3.62626712 27.90408814 1.91735526 55.30943321 -7 82 C-7.36351562 83.11890625 -7.72703125 84.2378125 -8.1015625 85.390625 C-10.21055709 91.52899951 -12.96613364 97.267982 -16 103 C-16.66 101.68 -17.32 100.36 -18 99 C-17.54625 98.649375 -17.0925 98.29875 -16.625 97.9375 C-14.34450291 95.21844578 -13.8820683 92.41066409 -13 89 C-12.62875 88.195625 -12.2575 87.39125 -11.875 86.5625 C-10.64062616 82.94754803 -10.87083826 79.81027129 -11 76 C-10.34 76 -9.68 76 -9 76 C-8.67 74.02 -8.34 72.04 -8 70 C-7.01 70 -6.02 70 -5 70 C-2.4939314 55.50633172 -2.4939314 55.50633172 -1.96850586 40.84399414 C-1.99787992 38.19144776 -1.82616818 35.6818832 -1.54296875 33.046875 C-0.89119094 26.31051289 -0.6598666 19.57463176 -0.4375 12.8125 C-0.39431641 11.57435547 -0.35113281 10.33621094 -0.30664062 9.06054688 C-0.20169508 6.04044738 -0.09953456 3.02028184 0 0 Z " fill="#2BE0DC" transform="translate(420,229)"/>
<path d="M0 0 C2.64 0 5.28 0 8 0 C8 0.66 8 1.32 8 2 C12.54164989 2.86507617 17.00222916 3.14681315 21.625 3.25 C23.25308594 3.28867188 23.25308594 3.28867188 24.9140625 3.328125 C28.38870459 3.20641335 31.51012349 2.38879257 34.8671875 1.5078125 C42.36304251 -0.30505837 49.56551972 -0.4560588 57.23242188 -0.39111328 C59.52532615 -0.37482003 61.81651906 -0.39116275 64.109375 -0.41015625 C65.58333718 -0.40817695 67.05729831 -0.40433977 68.53125 -0.3984375 C69.84673828 -0.39505371 71.16222656 -0.39166992 72.51757812 -0.38818359 C76.17317193 0.01930338 78.12501262 0.73743189 81 3 C81 3.66 81 4.32 81 5 C83.97 5.495 83.97 5.495 87 6 C87.12375 6.639375 87.2475 7.27875 87.375 7.9375 C87.684375 8.9584375 87.684375 8.9584375 88 10 C88.99 10.495 88.99 10.495 90 11 C89.67 11.99 89.34 12.98 89 14 C88.56429687 13.54109375 88.12859375 13.0821875 87.6796875 12.609375 C82.4198094 7.19010665 77.52945152 2.34511944 69.67260742 1.85473633 C66.84399996 1.82971869 64.01624224 1.81023102 61.1875 1.8125 C60.15665283 1.81330566 59.12580566 1.81411133 58.0637207 1.81494141 C47.30195184 1.90066577 36.92376543 3.12322375 26.44140625 5.6328125 C19.48789851 6.67862006 14.04906001 5.74365945 7.5 3.5 C6.77296875 3.26152344 6.0459375 3.02304688 5.296875 2.77734375 C3.52776065 2.19539824 1.76334654 1.59919543 0 1 C0 0.67 0 0.34 0 0 Z " fill="#22C3C1" transform="translate(224,179)"/>
<path d="M0 0 C0.72558105 0.18626953 1.45116211 0.37253906 2.19873047 0.56445312 C4.0078125 1.21875 4.0078125 1.21875 6.0078125 3.21875 C-0.38424606 2.49512073 -6.67245826 1.41531638 -12.9921875 0.21875 C-12.9921875 -0.44125 -12.9921875 -1.10125 -12.9921875 -1.78125 C-13.66765625 -1.76964844 -14.343125 -1.75804688 -15.0390625 -1.74609375 C-15.93109375 -1.73707031 -16.823125 -1.72804688 -17.7421875 -1.71875 C-19.06476563 -1.70134766 -19.06476563 -1.70134766 -20.4140625 -1.68359375 C-22.9921875 -1.78125 -22.9921875 -1.78125 -24.88121033 -2.27926636 C-27.11221934 -2.80979319 -29.0551481 -2.90820131 -31.34594727 -2.91064453 C-32.62230797 -2.91537277 -32.62230797 -2.91537277 -33.92445374 -2.92019653 C-34.83496994 -2.9181723 -35.74548615 -2.91614807 -36.68359375 -2.9140625 C-38.09607643 -2.91549759 -38.09607643 -2.91549759 -39.53709412 -2.91696167 C-41.52497423 -2.91764138 -43.51285659 -2.91580169 -45.50073242 -2.91162109 C-48.54676277 -2.90626394 -51.59264607 -2.91157625 -54.63867188 -2.91796875 C-56.57031283 -2.91730805 -58.50195369 -2.91602705 -60.43359375 -2.9140625 C-61.34613419 -2.91608673 -62.25867462 -2.91811096 -63.1988678 -2.92019653 C-64.47050026 -2.91546829 -64.47050026 -2.91546829 -65.76782227 -2.91064453 C-66.88556786 -2.90945114 -66.88556786 -2.90945114 -68.02589417 -2.90823364 C-70.20659224 -2.85113263 -70.20659224 -2.85113263 -72.9921875 -1.78125 C-75.332794 -2.05894908 -77.66843058 -2.38664977 -79.9921875 -2.78125 C-79.9921875 -3.11125 -79.9921875 -3.44125 -79.9921875 -3.78125 C-53.38585352 -8.20905001 -26.02190912 -6.70093188 0 0 Z " fill="#21C6C3" transform="translate(299.9921875,92.78125)"/>
<path d="M0 0 C2.8024729 2.63628852 3.73789536 4.06843037 4 8 C3.5124725 9.95011001 3.02192409 11.89971113 2.49609375 13.83984375 C0.6346495 21.94518763 2.74069413 28.54099837 6 36 C6.36222656 36.87914062 6.72445312 37.75828125 7.09765625 38.6640625 C9.10756509 43.20434391 9.10756509 43.20434391 13.09765625 45.77734375 C15.55000564 46.14729712 15.55000564 46.14729712 19 46 C19 46.33 19 46.66 19 47 C17.56342755 47.33730842 16.12569907 47.66969591 14.6875 48 C13.88699219 48.185625 13.08648437 48.37125 12.26171875 48.5625 C10 49 10 49 7 49 C5.17578125 47.03125 5.17578125 47.03125 3.3125 44.5 C2.68988281 43.6646875 2.06726563 42.829375 1.42578125 41.96875 C0.95527344 41.3190625 0.48476562 40.669375 0 40 C1.98 39.505 1.98 39.505 4 39 C3.67 37.68 3.34 36.36 3 35 C2.34 35 1.68 35 1 35 C0.02314635 30.9269597 -0.11545444 27.131793 -0.09765625 22.94921875 C-0.0962413 22.29041214 -0.09482635 21.63160553 -0.09336853 20.95283508 C-0.087805 18.86434238 -0.07525947 16.77595989 -0.0625 14.6875 C-0.05748028 13.26497551 -0.0529182 11.84244934 -0.04882812 10.41992188 C-0.03784757 6.94657923 -0.02060835 3.47330039 0 0 Z " fill="#245366" transform="translate(99,328)"/>
<path d="M0 0 C0.66 0 1.32 0 2 0 C2 0.99 2 1.98 2 3 C1.34 3.33 0.68 3.66 0 4 C0 4.99 0 5.98 0 7 C-0.99 7.33 -1.98 7.66 -3 8 C-3.66 8.66 -4.32 9.32 -5 10 C-6.42887609 10.27791499 -7.8688859 10.50067935 -9.3125 10.6875 C-12.14484035 11.23671984 -13.58149017 11.54905566 -15.5625 13.68359375 C-16.82724993 15.5892418 -16.82724993 15.5892418 -17.83203125 17.5390625 C-18.21746094 18.02117187 -18.60289062 18.50328125 -19 19 C-20.32 19 -21.64 19 -23 19 C-24.4606285 21.64738916 -25 22.89448334 -25 26 C-28.10551666 26 -29.35261084 25.4606285 -32 24 C-22.73414064 16.18579194 -13.532528 8.84213918 -3.22265625 2.41796875 C-1.11199889 1.18393923 -1.11199889 1.18393923 0 0 Z " fill="#16CFC6" transform="translate(168,108)"/>
<path d="M0 0 C2.0625 0.4375 2.0625 0.4375 4 1 C4 1.99 4 2.98 4 4 C5.32 4.33 6.64 4.66 8 5 C8.59732819 7.76264289 9 10.16032769 9 13 C5.14094141 14.28635286 3.53283535 13.4211258 -0.125 11.96875 C-2.49390051 10.74481807 -3.71840314 9.32289432 -5 7 C-1.125 1.125 -1.125 1.125 0 0 Z " fill="#0CDCD1" transform="translate(233,245)"/>
<path d="M0 0 C0.33 0 0.66 0 1 0 C1.02698189 1.62490954 1.04638757 3.24994633 1.0625 4.875 C1.07410156 5.77992188 1.08570312 6.68484375 1.09765625 7.6171875 C1 10 1 10 0 12 C-1.90823924 21.91727254 -2.18680766 31.80003011 -2.1875 41.875 C-2.1882251 43.03451172 -2.1889502 44.19402344 -2.18969727 45.38867188 C-2.41567622 50.86611975 -2.41567622 50.86611975 -1 56 C-0.84777027 57.66565749 -0.75082785 59.33656496 -0.68359375 61.0078125 C-0.64169922 61.99394531 -0.59980469 62.98007812 -0.55664062 63.99609375 C-0.51732422 65.02863281 -0.47800781 66.06117188 -0.4375 67.125 C-0.37272461 68.68541016 -0.37272461 68.68541016 -0.30664062 70.27734375 C-0.2003712 72.85142528 -0.09833417 75.42560508 0 78 C-0.33 78 -0.66 78 -1 78 C-6.33221097 52.73547659 -6.18229822 25.06038744 0 0 Z " fill="#27CDCA" transform="translate(88,214)"/>
<path d="M0 0 C0.33 0 0.66 0 1 0 C1.05898369 3.45825936 1.09392131 6.9163862 1.125 10.375 C1.14175781 11.34050781 1.15851563 12.30601562 1.17578125 13.30078125 C1.23277898 21.79344246 -0.07968016 29.52625506 -2.625 37.625 C-2.88539063 38.46289062 -3.14578125 39.30078125 -3.4140625 40.1640625 C-3.60742188 40.76992188 -3.80078125 41.37578125 -4 42 C-4.66 42 -5.32 42 -6 42 C-5.938125 42.845625 -5.87625 43.69125 -5.8125 44.5625 C-6.03424084 48.62774872 -7.26776512 51.33565699 -9 55 C-9.67276716 56.6642135 -10.34206835 58.32986582 -11 60 C-11.66 60 -12.32 60 -13 60 C-11.41420596 53.7986428 -9.59460031 47.73716131 -7.5 41.6875 C-2.85944146 27.99025614 -1.22528808 14.32866291 0 0 Z " fill="#116979" transform="translate(421,264)"/>
<path d="M0 0 C3.625 -0.1875 3.625 -0.1875 7 0 C7 0.66 7 1.32 7 2 C7.94875 2.185625 8.8975 2.37125 9.875 2.5625 C13 4 13 4 14.375 7.5 C15 11 15 11 15 13 C13.35 13 11.7 13 10 13 C9.67 12.34 9.34 11.68 9 11 C7.35636866 10.27840576 5.68949614 9.60648579 4 9 C4 8.01 4 7.02 4 6 C2.02 5.01 0.04 4.02 -2 3 C-1.34 2.01 -0.68 1.02 0 0 Z " fill="#0BDDD3" transform="translate(155,246)"/>
<path d="M0 0 C0 0.33 0 0.66 0 1 C-4.88594056 1.30537128 -8.31112834 0.77240644 -12.8125 -1.1484375 C-19.55421393 -3.77289042 -25.36185915 -4.33783653 -32.5625 -4.3125 C-33.48224609 -4.32861328 -34.40199219 -4.34472656 -35.34960938 -4.36132812 C-40.78585962 -4.36523628 -44.17904073 -3.71951549 -49 -1 C-52.875 -1.3125 -52.875 -1.3125 -56 -2 C-56 -2.33 -56 -2.66 -56 -3 C-35.44011245 -9.12422182 -20.16226244 -6.6466777 0 0 Z " fill="#0B606F" transform="translate(240,184)"/>
<path d="M0 0 C1.00611328 -0.01224609 2.01222656 -0.02449219 3.04882812 -0.03710938 C8.20364749 -0.04730348 12.49301215 0.11027611 17.3125 2.1875 C17.3125 2.5175 17.3125 2.8475 17.3125 3.1875 C16.24813721 3.17702637 15.18377441 3.16655273 14.0871582 3.15576172 C10.12690614 3.11947924 6.1666687 3.09656955 2.20629883 3.07763672 C0.49435961 3.06759792 -1.21756255 3.05396405 -2.92944336 3.03662109 C-5.39441142 3.01227927 -7.85915215 3.00099562 -10.32421875 2.9921875 C-11.08586838 2.98186493 -11.84751801 2.97154236 -12.63224792 2.96090698 C-16.81438658 2.96002998 -19.89603557 3.4527102 -23.6875 5.1875 C-27.01953125 5.3828125 -27.01953125 5.3828125 -30.5 5.3125 C-31.66144531 5.29445312 -32.82289063 5.27640625 -34.01953125 5.2578125 C-34.89996094 5.23460937 -35.78039062 5.21140625 -36.6875 5.1875 C-36.6875 4.8575 -36.6875 4.5275 -36.6875 4.1875 C-34.20911318 3.7039865 -31.72990222 3.22562799 -29.25 2.75 C-28.56228516 2.61529297 -27.87457031 2.48058594 -27.16601562 2.34179688 C-18.08673398 0.61039898 -9.24129761 0.00598918 0 0 Z " fill="#0E6775" transform="translate(284.6875,179.8125)"/>
<path d="M0 0 C-0.95712891 0.41572266 -0.95712891 0.41572266 -1.93359375 0.83984375 C-2.75988281 1.20207031 -3.58617187 1.56429687 -4.4375 1.9375 C-5.26121094 2.29714844 -6.08492187 2.65679687 -6.93359375 3.02734375 C-8.94410117 3.83122323 -8.94410117 3.83122323 -10 5 C-11.99958364 5.04080783 -14.00045254 5.04254356 -16 5 C-16.103125 5.639375 -16.20625 6.27875 -16.3125 6.9375 C-16.539375 7.618125 -16.76625 8.29875 -17 9 C-17.99 9.33 -18.98 9.66 -20 10 C-20 9.34 -20 8.68 -20 8 C-20.845625 8.61875 -21.69125 9.2375 -22.5625 9.875 C-27.31377431 13.03504565 -32.29713443 14.34562822 -38 14 C-31.19482209 7.19482209 -9.46464839 -3.35625829 0 0 Z " fill="#17CDC7" transform="translate(208,94)"/>
<path d="M0 0 C1.94113934 0.92994117 3.8777951 1.8692453 5.8125 2.8125 C6.89144531 3.33457031 7.97039062 3.85664063 9.08203125 4.39453125 C11.56579702 5.76110117 13.1799378 6.87340101 15 9 C14.01 9 13.02 9 12 9 C10.58622659 11.63904371 9.62759865 14.07120629 9 17 C4.60616294 15.40376856 0.71004193 13.21975667 -3.3125 10.875 C-3.95767578 10.50246094 -4.60285156 10.12992187 -5.26757812 9.74609375 C-6.84675945 8.83367787 -8.42361864 7.91724491 -10 7 C-9.34 6.67 -8.68 6.34 -8 6 C-5.3984375 6.99609375 -5.3984375 6.99609375 -2.375 8.4375 C-1.37210938 8.91058594 -0.36921875 9.38367188 0.6640625 9.87109375 C1.43492187 10.24363281 2.20578125 10.61617188 3 11 C3 11.66 3 12.32 3 13 C4.65 13 6.3 13 8 13 C7.33363451 8.88551359 7.33363451 8.88551359 6 5 C3.03174102 2.92967119 3.03174102 2.92967119 0 2 C0 1.34 0 0.68 0 0 Z " fill="#1DCFCB" transform="translate(162,246)"/>
<path d="M0 0 C0.68707031 0.22816406 1.37414062 0.45632813 2.08203125 0.69140625 C3.43361328 1.12259766 3.43361328 1.12259766 4.8125 1.5625 C5.70582031 1.85253906 6.59914062 2.14257812 7.51953125 2.44140625 C10.11215139 3.24979556 10.11215139 3.24979556 13 2 C13 2.99 13 3.98 13 5 C10.69 5.66 8.38 6.32 6 7 C6.185625 7.94875 6.37125 8.8975 6.5625 9.875 C7 13 7 13 6 15 C1.49197399 13.74194623 -1.4912812 12.09592835 -5 9 C-2.03 7.68 0.94 6.36 4 5 C2.68 4.67 1.36 4.34 0 4 C0 2.68 0 1.36 0 0 Z " fill="#11D7CD" transform="translate(192,263)"/>
<path d="M0 0 C0.33 0.66 0.66 1.32 1 2 C0.67 2.99 0.34 3.98 0 5 C0.99 4.67 1.98 4.34 3 4 C3 4.99 3 5.98 3 7 C1.02 7 -0.96 7 -3 7 C-3.2475 7.61875 -3.495 8.2375 -3.75 8.875 C-5.22770762 11.38710296 -6.43955177 11.76107344 -9 13 C-9.33 13.99 -9.66 14.98 -10 16 C-11.32 16 -12.64 16 -14 16 C-14.66 16.99 -15.32 17.98 -16 19 C-18.125 19.6875 -18.125 19.6875 -20 20 C-18.39928215 15.59541036 -15.065218 13.20272086 -11.5625 10.3125 C-10.97662109 9.81427734 -10.39074219 9.31605469 -9.78710938 8.80273438 C-7.21633475 6.65215446 -5.20728456 5.06909485 -2 4 C-0.79117904 1.99983534 -0.79117904 1.99983534 0 0 Z " fill="#16D5CD" transform="translate(164,334)"/>
<path d="M0 0 C0.33 0.99 0.66 1.98 1 3 C0.67 3.66 0.34 4.32 0 5 C0.99 5.66 1.98 6.32 3 7 C3 7.33 3 7.66 3 8 C4.03125 8.2475 5.0625 8.495 6.125 8.75 C10.00600143 9.84079063 12.76009641 11.62933884 16 14 C15.01 14.495 15.01 14.495 14 15 C12.29508466 13.93844894 10.59194964 12.87029267 8.94921875 11.71484375 C6.93814603 10.76144272 6.93814603 10.76144272 4.5703125 11.68359375 C1.97030033 13.01521093 -0.4048631 14.47199556 -2.8125 16.125 C-3.60269531 16.66382813 -4.39289063 17.20265625 -5.20703125 17.7578125 C-5.79871094 18.16773438 -6.39039063 18.57765625 -7 19 C-6.1875 17.0625 -6.1875 17.0625 -5 15 C-4.01 14.67 -3.02 14.34 -2 14 C-2.165 12.7625 -2.33 11.525 -2.5 10.25 C-2.87709444 7.42179168 -3 4.88435938 -3 2 C-2.01 1.34 -1.02 0.68 0 0 Z " fill="#19D0CB" transform="translate(229,248)"/>
<path d="M0 0 C0.99 0 1.98 0 3 0 C3 0.66 3 1.32 3 2 C4.65 2 6.3 2 8 2 C8.33 2.99 8.66 3.98 9 5 C11.01508358 5.73323796 11.01508358 5.73323796 13 6 C10.75112431 9.37331354 9.7612037 9.8358179 6 11 C4.68 11 3.36 11 2 11 C2 10.01 2 9.02 2 8 C0.35 7.67 -1.3 7.34 -3 7 C-3 6.34 -3 5.68 -3 5 C-1.68 5 -0.36 5 1 5 C0.67 3.35 0.34 1.7 0 0 Z " fill="#0BDDD3" transform="translate(184,261)"/>
<path d="M0 0 C2.56029243 4.3450606 2.75179989 8.88158551 3.33984375 13.80859375 C4.02417347 17.11686227 5.24149595 19.15933961 7 22 C6.67 22.66 6.34 23.32 6 24 C4.87278564 22.73113036 3.74831342 21.45982438 2.625 20.1875 C1.99851562 19.47980469 1.37203125 18.77210938 0.7265625 18.04296875 C-1.48134966 15.4304392 -2.92014514 13.70272275 -3.3125 10.25 C-2.92929678 6.26468653 -1.72694213 3.59779611 0 0 Z " fill="#0DDFD5" transform="translate(283,331)"/>
<path d="M0 0 C0.33 0 0.66 0 1 0 C4.10759494 33.0181962 4.10759494 33.0181962 -1 46 C-1.33 46 -1.66 46 -2 46 C-1.93941406 44.94167969 -1.87882812 43.88335937 -1.81640625 42.79296875 C-1.02299133 28.53544623 -0.49771655 14.27054159 0 0 Z " fill="#26D2CF" transform="translate(420,229)"/>
<path d="M0 0 C0.66 0 1.32 0 2 0 C2.33 7.59 2.66 15.18 3 23 C2.34 22.67 1.68 22.34 1 22 C0.5859375 18.83984375 0.5859375 18.83984375 0.375 14.9375 C0.30023438 13.64714844 0.22546875 12.35679687 0.1484375 11.02734375 C0.09945312 10.02832031 0.05046875 9.02929688 0 8 C-0.45375 8.825 -0.9075 9.65 -1.375 10.5 C-1.91125 11.325 -2.4475 12.15 -3 13 C-3.66 13 -4.32 13 -5 13 C-5 13.66 -5 14.32 -5 15 C-5.66 15 -6.32 15 -7 15 C-7.268125 16.134375 -7.53625 17.26875 -7.8125 18.4375 C-8.204375 19.613125 -8.59625 20.78875 -9 22 C-9.99 22.33 -10.98 22.66 -12 23 C-9.80228894 16.80645066 -6.44941613 11.039109 -2.75 5.625 C-0.87392291 3.06029774 -0.87392291 3.06029774 0 0 Z " fill="#23CBC7" transform="translate(236,304)"/>
<path d="M0 0 C1.65 0 3.3 0 5 0 C5 1.32 5 2.64 5 4 C6.65 4 8.3 4 10 4 C10.33 4.99 10.66 5.98 11 7 C12.65 7.33 14.3 7.66 16 8 C16 8.66 16 9.32 16 10 C16.71027344 9.98839844 17.42054688 9.97679687 18.15234375 9.96484375 C19.07144531 9.95582031 19.99054688 9.94679687 20.9375 9.9375 C21.85402344 9.92589844 22.77054687 9.91429687 23.71484375 9.90234375 C26 10 26 10 27 11 C27.04063832 12.66617115 27.042721 14.33388095 27 16 C21.78994282 14.45352271 17.16520138 12.20318736 12.375 9.6875 C11.62476563 9.30916016 10.87453125 8.93082031 10.1015625 8.54101562 C5.73783736 6.25470219 2.80559456 4.19354742 0 0 Z " fill="#24CDCA" transform="translate(314,193)"/>
<path d="M0 0 C0 0.66 0 1.32 0 2 C0.66 2.33 1.32 2.66 2 3 C-1.63363581 7.07407652 -4.76017386 9.37384706 -10 11 C-16.16795114 11 -19.34622152 8.70402777 -24 5 C-23.34 4.67 -22.68 4.34 -22 4 C-21.195625 4.66 -20.39125 5.32 -19.5625 6 C-15.56561966 8.72209596 -11.66728396 8.37338272 -7 8 C-6.896875 7.236875 -6.79375 6.47375 -6.6875 5.6875 C-5.61838415 1.50822895 -4.37506113 0 0 0 Z " fill="#135D6E" transform="translate(392,276)"/>
<path d="M0 0 C0.33 1.32 0.66 2.64 1 4 C0.34 4 -0.32 4 -1 4 C-1 5.32 -1 6.64 -1 8 C-1.7425 8.5775 -2.485 9.155 -3.25 9.75 C-6.00660061 12.0054005 -6.635501 13.05027075 -8 16.1875 C-8.953125 18.29296875 -8.953125 18.29296875 -10 20 C-12.75 21 -12.75 21 -15 21 C-13.44819028 16.15059464 -10.65241596 12.71025461 -7.5 8.8125 C-7.00113281 8.18408203 -6.50226563 7.55566406 -5.98828125 6.90820312 C-4.07298513 4.50766443 -2.17313341 2.17313341 0 0 Z " fill="#1BCAC2" transform="translate(125,144)"/>
<path d="M0 0 C20.53191489 0.61702128 20.53191489 0.61702128 30 4 C26.22177915 5.18959504 23.67718262 4.49492119 19.859375 3.546875 C13.99083174 2.42447602 7.95788384 2.29828667 2 2 C2 5.96 2 9.92 2 14 C2.66 14 3.32 14 4 14 C4 16.31 4 18.62 4 21 C1.56507237 18.56507237 1.46333068 17.22755102 0.875 13.875 C0.70742188 12.96492188 0.53984375 12.05484375 0.3671875 11.1171875 C-0.07403397 7.37149881 -0.05676076 3.77053622 0 0 Z " fill="#27C1C2" transform="translate(327,272)"/>
<path d="M0 0 C4.75053511 -0.07435222 9.50072887 -0.12869691 14.25170898 -0.16479492 C15.86667789 -0.17984876 17.48160613 -0.20029648 19.09643555 -0.22631836 C21.42246555 -0.26285286 23.74795341 -0.27976015 26.07421875 -0.29296875 C27.15107185 -0.31619453 27.15107185 -0.31619453 28.24967957 -0.33988953 C32.65830599 -0.34135788 35.52627779 0.21586094 39 3 C39 3.66 39 4.32 39 5 C40.98 5.33 42.96 5.66 45 6 C45.12375 6.639375 45.2475 7.27875 45.375 7.9375 C45.58125 8.618125 45.7875 9.29875 46 10 C46.66 10.33 47.32 10.66 48 11 C47.67 11.99 47.34 12.98 47 14 C46.56429687 13.54109375 46.12859375 13.0821875 45.6796875 12.609375 C38.50611917 5.21842581 33.37084108 1.98981308 23.046875 1.68359375 C22.05654266 1.6524221 22.05654266 1.6524221 21.04620361 1.62062073 C18.94756985 1.55549853 16.84881628 1.49641498 14.75 1.4375 C13.32290453 1.39427921 11.89582095 1.3506638 10.46875 1.30664062 C6.97929278 1.19985589 3.48970247 1.09848434 0 1 C0 0.67 0 0.34 0 0 Z " fill="#22D1CB" transform="translate(266,179)"/>
<path d="M0 0 C2.47417002 3.71125503 2.24471623 5.61228795 2.23046875 10.0390625 C2.23001053 10.72052338 2.22955231 11.40198425 2.2290802 12.10409546 C2.22606368 13.54141994 2.2181953 14.97874133 2.20581055 16.41601562 C2.18750983 18.62381471 2.18530123 20.83119535 2.18554688 23.0390625 C2.1474806 33.8525194 2.1474806 33.8525194 1 35 C0.50722937 37.24882595 0.10127459 39.5074309 -0.3046875 41.7734375 C-1.08222809 44.26331468 -2.03232355 45.3333888 -4 47 C-3.53886219 42.84975975 -2.74814256 39.16374162 -1.46875 35.1875 C0.50143449 28.07409706 0.33023735 21.14334399 0.1875 13.8125 C0.17240904 12.46550994 0.15872852 11.11850332 0.14648438 9.77148438 C0.11145646 6.51388848 0.06233662 3.25716827 0 0 Z " fill="#0C6473" transform="translate(121,281)"/>
<path d="M0 0 C0.33 0 0.66 0 1 0 C1.01458252 0.62229492 1.02916504 1.24458984 1.04418945 1.88574219 C1.35822952 13.98127818 1.94355046 25.82505702 4.0715332 37.75292969 C4.72657869 41.5134199 5.11016108 44.34287908 4 48 C-1.29657801 38.2757052 -0.24805574 26.55201516 -0.125 15.8125 C-0.11494397 14.27279232 -0.10582279 12.73307824 -0.09765625 11.19335938 C-0.07586468 7.46210413 -0.04148142 3.73109446 0 0 Z " fill="#106A79" transform="translate(83,248)"/>
<path d="M0 0 C8.06110247 0.05884016 16.07137102 1.21254744 24.0625 2.1875 C24.0625 2.8475 24.0625 3.5075 24.0625 4.1875 C20.49959646 3.87949513 16.93726442 3.56530401 13.375 3.25 C12.36759766 3.16298828 11.36019531 3.07597656 10.32226562 2.98632812 C9.34580078 2.89931641 8.36933594 2.81230469 7.36328125 2.72265625 C6.46778564 2.644104 5.57229004 2.56555176 4.6496582 2.48461914 C2.10066628 2.19188316 -0.42157874 1.69068425 -2.9375 1.1875 C-2.2775 7.1275 -1.6175 13.0675 -0.9375 19.1875 C-1.5975 18.8575 -2.2575 18.5275 -2.9375 18.1875 C-2.9375 15.8775 -2.9375 13.5675 -2.9375 11.1875 C-3.5975 11.1875 -4.2575 11.1875 -4.9375 11.1875 C-4.96438151 9.54175434 -4.98384123 7.89588587 -5 6.25 C-5.01160156 5.33347656 -5.02320313 4.41695313 -5.03515625 3.47265625 C-4.86734343 -0.45416366 -4.14867987 0.19755618 0 0 Z " fill="#0A6473" transform="translate(329.9375,270.8125)"/>
<path d="M0 0 C3.37503669 1.1858237 5.64722731 2.27573689 8 5 C4.535 6.485 4.535 6.485 1 8 C1.33 9.65 1.66 11.3 2 13 C-1.79049707 11.57250019 -5.27122456 9.83763458 -8.8125 7.875 C-10.27623047 7.06675781 -10.27623047 7.06675781 -11.76953125 6.2421875 C-12.50558594 5.83226562 -13.24164063 5.42234375 -14 5 C-12.125 4.375 -12.125 4.375 -10 4 C-9.34 4.66 -8.68 5.32 -8 6 C-6.0068433 6.02375926 -6.0068433 6.02375926 -3.875 5.625 C-2.59625 5.41875 -1.3175 5.2125 0 5 C0 3.68 0 2.36 0 1 C0 0.67 0 0.34 0 0 Z " fill="#1ACEC8" transform="translate(144,236)"/>
<path d="M0 0 C0.33 0.66 0.66 1.32 1 2 C0.67 2.99 0.34 3.98 0 5 C0.66 5 1.32 5 2 5 C2 5.66 2 6.32 2 7 C4.64 6.01 7.28 5.02 10 4 C9.67 5.65 9.34 7.3 9 9 C9.55429688 9.24234375 10.10859375 9.4846875 10.6796875 9.734375 C11.40414062 10.06953125 12.12859375 10.4046875 12.875 10.75 C13.59429687 11.07484375 14.31359375 11.3996875 15.0546875 11.734375 C17.3370674 13.21929686 18.00375898 14.50415408 19 17 C14.58493882 15.3400739 10.43140046 13.29223839 6.25 11.125 C5.56550781 10.78597656 4.88101563 10.44695312 4.17578125 10.09765625 C-0.78054099 7.51644288 -0.78054099 7.51644288 -1.82519531 5.05810547 C-2 3 -2 3 0 0 Z " fill="#0DDBD0" transform="translate(101,180)"/>
<path d="M0 0 C0.66 0 1.32 0 2 0 C1.95359375 0.845625 1.9071875 1.69125 1.859375 2.5625 C1.50134996 13.81471549 4.53448537 19.19971619 11 28 C11 28.33 11 28.66 11 29 C8.36 29 5.72 29 3 29 C2.34 27.68 1.68 26.36 1 25 C1.66 25 2.32 25 3 25 C3 25.66 3 26.32 3 27 C3.66 26.67 4.32 26.34 5 26 C5 25.01 5 24.02 5 23 C4.01 22.34 3.02 21.68 2 21 C-0.06361032 16.39445908 -0.25006823 12.0892468 -0.125 7.125 C-0.11146484 6.09246094 -0.11146484 6.09246094 -0.09765625 5.0390625 C-0.07432513 3.35922162 -0.03846326 1.67956254 0 0 Z " fill="#22C8C3" transform="translate(107,345)"/>
<path d="M0 0 C2.97 0.33 5.94 0.66 9 1 C7 3 7 3 3.1875 4.125 C-5.67513592 6.92146279 -13.34424853 12.86938395 -21 18 C-21 17.01 -21 16.02 -21 15 C-20.34 15 -19.68 15 -19 15 C-18.67 14.01 -18.34 13.02 -18 12 C-16.35 11.67 -14.7 11.34 -13 11 C-13 10.34 -13 9.68 -13 9 C-12.01 9 -11.02 9 -10 9 C-9.67 8.01 -9.34 7.02 -9 6 C-6.1798062 4.28773948 -3.07044129 3.1940605 0 2 C0 1.34 0 0.68 0 0 Z " fill="#1DCAC4" transform="translate(182,178)"/>
<path d="M0 0 C10.6027472 0.72093709 18.99454675 1.81482909 28 8 C24.72079119 9.95881942 24.23826396 10.05559492 20.25 9.125 C19.1775 8.75375 18.105 8.3825 17 8 C17 6.68 17 5.36 17 4 C11.39 3.34 5.78 2.68 0 2 C0 1.34 0 0.68 0 0 Z " fill="#1EDCD7" transform="translate(345,275)"/>
<path d="M0 0 C0.33 0.66 0.66 1.32 1 2 C0.5359375 3.0828125 0.5359375 3.0828125 0.0625 4.1875 C-1.22171408 7.5868902 -1.14135045 10.39556356 -1 14 C-1.99 14 -2.98 14 -4 14 C-3.91245449 15.75091019 -3.80426627 17.50079551 -3.6875 19.25 C-3.62949219 20.22453125 -3.57148438 21.1990625 -3.51171875 22.203125 C-2.95363476 25.25341611 -2.03630224 26.70711276 0 29 C-1.875 28.75 -1.875 28.75 -4 28 C-6.97365068 23.33462579 -6.68455728 18.32880866 -6 13 C-2.64482759 2.64482759 -2.64482759 2.64482759 0 0 Z " fill="#25C2C1" transform="translate(223,328)"/>
<path d="M0 0 C2.8024729 2.63628852 3.73789536 4.06843037 4 8 C3.51292602 9.94829591 3.02221875 11.89605378 2.48828125 13.83203125 C0.94104509 20.70175979 2.22714305 27.3042992 4 34 C1.07668162 31.68359893 0.07760969 30.54827491 -0.45410156 26.79199219 C-0.4331543 25.55610352 -0.41220703 24.32021484 -0.390625 23.046875 C-0.38496521 22.38665344 -0.37930542 21.72643188 -0.37347412 21.04620361 C-0.3511623 18.94671737 -0.30098314 16.8489663 -0.25 14.75 C-0.22992794 13.3229414 -0.21167839 11.89585592 -0.1953125 10.46875 C-0.15131693 6.97860707 -0.08232876 3.48947301 0 0 Z " fill="#0E5B6C" transform="translate(99,328)"/>
<path d="M0 0 C1.32 0.33 2.64 0.66 4 1 C4 1.66 4 2.32 4 3 C5.32 3.33 6.64 3.66 8 4 C7.67 4.66 7.34 5.32 7 6 C6.01 6 5.02 6 4 6 C4.33 7.32 4.66 8.64 5 10 C2.36 9.34 -0.28 8.68 -3 8 C-2.45276317 4.62537285 -1.9451 2.91765 0 0 Z " fill="#0BDED3" transform="translate(174,255)"/>
<path d="M0 0 C0.33 0 0.66 0 1 0 C1.99 6.93 2.98 13.86 4 21 C3.34 21 2.68 21 2 21 C1.01 17.04 0.02 13.08 -1 9 C-2.32 9.99 -3.64 10.98 -5 12 C-5.66 11.67 -6.32 11.34 -7 11 C-5.85845641 9.16399255 -4.71165684 7.33125195 -3.5625 5.5 C-2.92441406 4.4790625 -2.28632813 3.458125 -1.62890625 2.40625 C-0.82259766 1.21515625 -0.82259766 1.21515625 0 0 Z " fill="#21D0CD" transform="translate(173,320)"/>
<path d="M0 0 C3 1 3 1 4.25 3.3125 C5.04617876 6.16547388 4.99859801 7.27655089 4 10 C3.67 10.99 3.34 11.98 3 13 C1.71340837 14.37849103 0.37086915 15.70529025 -1 17 C-1.825 17.886875 -2.65 18.77375 -3.5 19.6875 C-5.84846838 21.85983325 -6.89614805 22.65512756 -10 23 C-10.33 22.34 -10.66 21.68 -11 21 C-6.25 18 -6.25 18 -4 18 C-3.7525 17.443125 -3.505 16.88625 -3.25 16.3125 C-2 14 -2 14 0.1875 11.625 C2.3283071 9.10134102 2.3283071 9.10134102 1.8125 5.875 C1.25514823 3.9028322 0.64808077 1.9442423 0 0 Z " fill="#2BD9D6" transform="translate(396,264)"/>
<path d="M0 0 C0.66 0 1.32 0 2 0 C1.35728188 12.33471793 0.69247933 24.66797452 0 37 C-0.33 37 -0.66 37 -1 37 C-2.03624948 24.36895909 -1.81376023 12.54642404 0 0 Z " fill="#0E5668" transform="translate(83,229)"/>
<path d="M0 0 C0 0.66 0 1.32 0 2 C-0.99 2.495 -0.99 2.495 -2 3 C-2 3.66 -2 4.32 -2 5 C-3.093125 5.433125 -4.18625 5.86625 -5.3125 6.3125 C-8.14431427 7.51473906 -9.91710484 8.70881532 -12 11 C-12.99 11.33 -13.98 11.66 -15 12 C-15.639375 12.66 -16.27875 13.32 -16.9375 14 C-19.05674715 16.05502754 -20.13747914 16.59106845 -23 17 C-22.01 15.515 -22.01 15.515 -21 14 C-20.34 14 -19.68 14 -19 14 C-19 13.34 -19 12.68 -19 12 C-17.3125 10.703125 -17.3125 10.703125 -15 9.25 C-11.04578189 6.71380323 -7.31773922 4.00791575 -3.62890625 1.1015625 C-2 0 -2 0 0 0 Z " fill="#105E6F" transform="translate(172,189)"/>
<path d="M0 0 C3.94974498 3.41838915 5.89643268 7.25686621 8.125 11.875 C8.47175781 12.56980469 8.81851562 13.26460937 9.17578125 13.98046875 C11.10869404 17.91294649 12.72161108 21.79581377 14 26 C11 25 11 25 9.3125 22.75 C7.93488797 19.8635748 7.73014849 18.14826764 8 15 C7.34 15 6.68 15 6 15 C6 14.01 6 13.02 6 12 C5.34 12 4.68 12 4 12 C3.51801537 10.75108386 3.03954323 9.50081192 2.5625 8.25 C2.29566406 7.55390625 2.02882813 6.8578125 1.75390625 6.140625 C1.03853307 4.10940997 0.48634348 2.0964709 0 0 Z " fill="#2DD5D3" transform="translate(397,168)"/>
<path d="M0 0 C0.33 0 0.66 0 1 0 C1.02698189 1.62490954 1.04638757 3.24994633 1.0625 4.875 C1.07410156 5.77992188 1.08570312 6.68484375 1.09765625 7.6171875 C1 10 1 10 0 12 C-0.43705812 15.40831877 -0.8184437 18.81564859 -1.16210938 22.234375 C-1.78503983 27.78503983 -1.78503983 27.78503983 -4 30 C-4.25645895 23.26795268 -3.28162548 17.0986393 -2 10.5 C-1.80921875 9.48679688 -1.6184375 8.47359375 -1.421875 7.4296875 C-0.95435389 4.95182561 -0.48026672 2.47541732 0 0 Z " fill="#20C4C0" transform="translate(88,214)"/>
<path d="M0 0 C1.65 0.66 3.3 1.32 5 2 C3.84826645 4.46800047 2.95216435 6.04783565 1 8 C-1.33837891 8.22705078 -1.33837891 8.22705078 -4.2265625 8.1953125 C-5.7734375 8.18564453 -5.7734375 8.18564453 -7.3515625 8.17578125 C-8.43179687 8.15902344 -9.51203125 8.14226562 -10.625 8.125 C-11.71296875 8.11597656 -12.8009375 8.10695313 -13.921875 8.09765625 C-16.61480152 8.07403409 -19.30729255 8.04109556 -22 8 C-22 7.67 -22 7.34 -22 7 C-20.86820312 6.93941406 -19.73640625 6.87882812 -18.5703125 6.81640625 C-17.08852855 6.73200083 -15.6067584 6.64735283 -14.125 6.5625 C-13.37863281 6.52318359 -12.63226563 6.48386719 -11.86328125 6.44335938 C-7.80013136 6.28426376 -7.80013136 6.28426376 -4 5 C-2.00039988 4.960008 0.00047242 4.95653201 2 5 C2 4.01 2 3.02 2 2 C1.34 2 0.68 2 0 2 C0 1.34 0 0.68 0 0 Z " fill="#20E1DA" transform="translate(374,365)"/>
<path d="M0 0 C0 3 0 3 -1.6875 5.6875 C-4 8 -4 8 -6.75 8.3125 C-7.86375 8.1578125 -7.86375 8.1578125 -9 8 C-9.33 8.99 -9.66 9.98 -10 11 C-13 13 -13 13 -15.6875 12.625 C-16.450625 12.41875 -17.21375 12.2125 -18 12 C-18 11.01 -18 10.02 -18 9 C-17.1646875 9.34804688 -17.1646875 9.34804688 -16.3125 9.703125 C-12.94860294 10.13497665 -11.66681967 8.75011475 -9 6.75 C-7.7315625 5.81414062 -7.7315625 5.81414062 -6.4375 4.859375 C-5.633125 4.24578125 -4.82875 3.6321875 -4 3 C-2.66666667 2 -1.33333333 1 0 0 Z " fill="#115E6F" transform="translate(217,270)"/>
<path d="M0 0 C0.99 0.33 1.98 0.66 3 1 C3.33 1.99 3.66 2.98 4 4 C4.66 4.33 5.32 4.66 6 5 C6 3.35 6 1.7 6 0 C8.95183101 2.95183101 9.08663988 5.95511947 10 10 C5.22390502 8.35821735 1.20617096 5.73453298 -3 3 C-2.01 2.01 -1.02 1.02 0 0 Z " fill="#0C6777" transform="translate(323,291)"/>
<path d="M0 0 C2.625 -0.1875 2.625 -0.1875 5 0 C3.625 1.5 3.625 1.5 2 3 C1.34 3 0.68 3 0 3 C0 3.66 0 4.32 0 5 C-2.97484405 7.68210674 -6.22643648 9.86614615 -10.27734375 10.171875 C-12.4375 9.9375 -12.4375 9.9375 -16 9 C-16.33 8.34 -16.66 7.68 -17 7 C-13.04 7 -9.08 7 -5 7 C-5.33 6.01 -5.66 5.02 -6 4 C-5.38125 3.896875 -4.7625 3.79375 -4.125 3.6875 C-1.63473516 3.12474627 -1.63473516 3.12474627 0 0 Z " fill="#1EC7C3" transform="translate(153,198)"/>
<path d="M0 0 C3.63 0.33 7.26 0.66 11 1 C8.03830076 2.97446616 5.6152628 3.90671665 2.25 5 C1.1878125 5.34546875 0.125625 5.6909375 -0.96875 6.046875 C-4.29860811 7.09389224 -7.63262141 8.08162402 -11 9 C-9.4040819 5.8081638 -6.24609547 5.35409111 -3.03125 4.09765625 C-0.65801122 3.11449899 -0.65801122 3.11449899 0 0 Z " fill="#10596A" transform="translate(193,92)"/>
<path d="M0 0 C0.66 0 1.32 0 2 0 C5.35359275 6.7071855 3.04743364 18.79642334 2 26 C0.9609375 28.37890625 0.9609375 28.37890625 0 30 C-0.1271235 22.95170795 0.17300507 16.05840643 0.87890625 9.04296875 C1.00491765 5.8764243 0.62539005 3.09915515 0 0 Z " fill="#0B6171" transform="translate(245,344)"/>
<path d="M0 0 C0.33 0.99 0.66 1.98 1 3 C0.01 3 -0.98 3 -2 3 C-2 3.66 -2 4.32 -2 5 C-2.66 5 -3.32 5 -4 5 C-4.33 5.99 -4.66 6.98 -5 8 C-6.96466413 9.06775224 -8.96855359 10.06553465 -11 11 C-11.99 11.66 -12.98 12.32 -14 13 C-16.1875 12.625 -16.1875 12.625 -18 12 C-17.01 12 -16.02 12 -15 12 C-15 11.34 -15 10.68 -15 10 C-13.62304688 8.85498047 -13.62304688 8.85498047 -11.71875 7.6171875 C-10.70361328 6.95009766 -10.70361328 6.95009766 -9.66796875 6.26953125 C-8.59482422 5.57923828 -8.59482422 5.57923828 -7.5 4.875 C-6.78457031 4.40707031 -6.06914062 3.93914062 -5.33203125 3.45703125 C-3.55873085 2.29847499 -1.7798691 1.14843934 0 0 Z " fill="#1DCAC5" transform="translate(223,252)"/>
<path d="M0 0 C0.33 0 0.66 0 1 0 C2.3213258 8.7419859 3.33165588 17.137418 3 26 C-1.017951 21.982049 -0.04787055 15.12744843 -0.06591797 9.71923828 C-0.06092779 6.47918953 -0.03538685 3.23986234 0 0 Z " fill="#0D6573" transform="translate(238,304)"/>
<path d="M0 0 C0.50305664 0.32145996 1.00611328 0.64291992 1.52441406 0.97412109 C4.86069708 2.35667151 8.05231593 2.35546447 11.609375 2.4140625 C12.33618469 2.43342865 13.06299438 2.4527948 13.81182861 2.4727478 C16.12443448 2.53234271 18.43709067 2.57884758 20.75 2.625 C22.32163582 2.66319836 23.89325113 2.70225117 25.46484375 2.7421875 C29.30972842 2.83802743 33.15471107 2.92213195 37 3 C37 3.33 37 3.66 37 4 C25.12 4 13.24 4 1 4 C0.67 2.68 0.34 1.36 0 0 Z " fill="#0B5D6B" transform="translate(150,371)"/>
<path d="M0 0 C1.98 0.99 1.98 0.99 4 2 C4 4.64 4 7.28 4 10 C4.66 10 5.32 10 6 10 C7.42258812 13.82320557 8.24042276 16.91281305 8 21 C5.17678135 18.17678135 4.22705463 14.74021797 2.875 11.0625 C2.59785156 10.33353516 2.32070312 9.60457031 2.03515625 8.85351562 C0.89178807 5.78106567 0 3.30460627 0 0 Z " fill="#23CAC6" transform="translate(91,304)"/>
<path d="M0 0 C1 2 1 2 0.3125 5.5 C-1 9 -1 9 -2.875 10.5 C-5 11 -5 11 -9 10 C-6.03 6.7 -3.06 3.4 0 0 Z " fill="#16CAC3" transform="translate(135,133)"/>
<path d="M0 0 C1.40836805 3.7861323 0.58954744 6.35155872 -0.625 10.125 C-0.94726562 11.17945313 -1.26953125 12.23390625 -1.6015625 13.3203125 C-3 16 -3 16 -5.6484375 17.3671875 C-6.42445313 17.57601563 -7.20046875 17.78484375 -8 18 C-6.65150163 13.64029169 -4.95092154 9.68658562 -2.875 5.625 C-2.33617187 4.56539063 -1.79734375 3.50578125 -1.2421875 2.4140625 C-0.83226562 1.61742187 -0.42234375 0.82078125 0 0 Z " fill="#116373" transform="translate(407,324)"/>
<path d="M0 0 C4.72225422 0.45406291 7.35818644 1.02033436 11 4 C13.0449209 5.02860751 15.11016822 5.99328372 17.1953125 6.9375 C19 8 19 8 21 11 C14.038994 9.6077988 8.82328355 5.93164367 3 2 C2.01 1.34 1.02 0.68 0 0 Z " fill="#0D6574" transform="translate(177,254)"/>
<path d="M0 0 C0.99 0.33 1.98 0.66 3 1 C1.515 2.2684375 1.515 2.2684375 0 3.5625 C-4.02595309 7.01214078 -8.01585482 10.50223098 -12 14 C-12.33 12.68 -12.66 11.36 -13 10 C-12.34 10 -11.68 10 -11 10 C-10.67 9.01 -10.34 8.02 -10 7 C-7.07920195 4.92469613 -5.62453269 4 -2 4 C-2 3.34 -2 2.68 -2 2 C-1.34 2 -0.68 2 0 2 C0 1.34 0 0.68 0 0 Z " fill="#0D606E" transform="translate(151,117)"/>
<path d="M0 0 C8.21107745 1.05363383 14.77276143 4.05109645 22 8 C20.3125 8.6875 20.3125 8.6875 18 9 C16.30028037 8.05727471 14.63668549 7.04835032 13 6 C9.87410472 4.88530892 6.72199095 3.92899481 3.546875 2.96484375 C1 2 1 2 0 0 Z " fill="#23CAC8" transform="translate(306,96)"/>
<path d="M0 0 C2.29900732 1.9705777 3.08274905 3.21776066 4.1875 6.125 C5.64206732 9.12307425 5.64206732 9.12307425 7.96875 9.609375 C9.9690949 9.84885291 11.98645313 9.93398207 14 10 C14 10.33 14 10.66 14 11 C12.56342755 11.33730842 11.12569907 11.66969591 9.6875 12 C8.48673828 12.2784375 8.48673828 12.2784375 7.26171875 12.5625 C5 13 5 13 2 13 C2.04125 12.154375 2.0825 11.30875 2.125 10.4375 C1.98464972 6.57786731 1.17219836 3.66311987 0 0 Z " fill="#145E6F" transform="translate(104,364)"/>
<path d="M0 0 C2.56695636 0.39491636 4.67123994 0.83561997 7 2 C7 2.66 7 3.32 7 4 C5.02 4.99 5.02 4.99 3 6 C3.33 6.99 3.66 7.98 4 9 C2.0625 8.375 2.0625 8.375 0 7 C-0.8125 3.9375 -0.8125 3.9375 -1 1 C-0.67 0.67 -0.34 0.34 0 0 Z " fill="#0FE2DA" transform="translate(321,297)"/>
<path d="M0 0 C-1.39176632 0.96423026 -2.7886223 1.92111602 -4.1875 2.875 C-4.96480469 3.40867187 -5.74210938 3.94234375 -6.54296875 4.4921875 C-8.9676609 5.98015439 -11.3333499 7.02428078 -14 8 C-14.99 7.01 -15.98 6.02 -17 5 C-15.35 5 -13.7 5 -12 5 C-12 4.34 -12 3.68 -12 3 C-11.34 3 -10.68 3 -10 3 C-9.67 2.34 -9.34 1.68 -9 1 C-5.50639525 -0.79401325 -3.71425351 -1.11665191 0 0 Z " fill="#1DCCC6" transform="translate(215,273)"/>
<path d="M0 0 C4.6573692 -0.13306769 8.58574544 0.52858181 13 2 C13.5625 3.875 13.5625 3.875 14 6 C14.99 7.485 14.99 7.485 16 9 C11.8753089 7.54422667 8.62672799 5.41781866 5 3 C3.35380887 2.28426473 1.69271945 1.5974304 0 1 C0 0.67 0 0.34 0 0 Z " fill="#125E71" transform="translate(330,105)"/>
<path d="M0 0 C5.02265357 1.18180084 8.0949151 2.44992282 12 6 C10.96939453 5.85691406 10.96939453 5.85691406 9.91796875 5.7109375 C9.01691406 5.60007813 8.11585937 5.48921875 7.1875 5.375 C5.84751953 5.20097656 5.84751953 5.20097656 4.48046875 5.0234375 C1.74309609 4.76499257 1.74309609 4.76499257 -1 7 C-0.67 4.69 -0.34 2.38 0 0 Z " fill="#20CDC9" transform="translate(90,207)"/>
<path d="M0 0 C4.43379675 2.21689838 6.46636932 4.77728219 9 9 C7.02 9.99 7.02 9.99 5 11 C2.36620292 7.34666857 0.53115106 4.51478398 0 0 Z " fill="#1FDAD3" transform="translate(369,133)"/>
<path d="M0 0 C0.99 0.33 1.98 0.66 3 1 C3 1.66 3 2.32 3 3 C2.34 3 1.68 3 1 3 C1 3.66 1 4.32 1 5 C0.34 5 -0.32 5 -1 5 C-0.67 5.99 -0.34 6.98 0 8 C-3.59391114 6.66511872 -6.75490696 5.03977277 -10 3 C-9.34 2.67 -8.68 2.34 -8 2 C-5.375 2.9375 -5.375 2.9375 -3 4 C-2.67 3.01 -2.34 2.02 -2 1 C-1.34 0.67 -0.68 0.34 0 0 Z " fill="#165A6A" transform="translate(125,217)"/>
<path d="M0 0 C5.69208829 -0.09908858 11.37763361 -0.07334557 17.0625 0.25 C18.41021484 0.31960937 18.41021484 0.31960937 19.78515625 0.390625 C22 1 22 1 23.30859375 3.046875 C23.65083984 4.01367188 23.65083984 4.01367188 24 5 C23.01 4.34 22.02 3.68 21 3 C17.6373164 2.88379495 14.33946618 2.95575715 10.98046875 3.078125 C6.82718842 3.17093573 3.73217612 2.87340605 0 1 C0 0.67 0 0.34 0 0 Z " fill="#27CCC9" transform="translate(341,209)"/>
<path d="M0 0 C0.66 0.33 1.32 0.66 2 1 C2.99444068 4.34493684 3.10348268 6.68955197 2 10 C0.68 9.67 -0.64 9.34 -2 9 C-2 6.69 -2 4.38 -2 2 C-1.34 2 -0.68 2 0 2 C0 1.34 0 0.68 0 0 Z " fill="#1BE9E3" transform="translate(394,336)"/>
<path d="M0 0 C1.48206495 0.254496 2.96068615 0.52911762 4.4375 0.8125 C5.67306641 1.03873047 5.67306641 1.03873047 6.93359375 1.26953125 C7.95646484 1.63111328 7.95646484 1.63111328 9 2 C9.33 2.99 9.66 3.98 10 5 C10.99 5 11.98 5 13 5 C13 5.66 13 6.32 13 7 C13.66 7 14.32 7 15 7 C15 7.66 15 8.32 15 9 C9.26800429 7.53025751 4.66416601 4.55513098 0 1 C0 0.67 0 0.34 0 0 Z " fill="#29D0CE" transform="translate(362,330)"/>
<path d="M0 0 C0 1.32 0 2.64 0 4 C1.65 4 3.3 4 5 4 C5.33 4.99 5.66 5.98 6 7 C8.01508358 7.73323796 8.01508358 7.73323796 10 8 C10 8.66 10 9.32 10 10 C6.20950293 8.57250019 2.72877544 6.83763458 -0.8125 4.875 C-1.78832031 4.33617187 -2.76414063 3.79734375 -3.76953125 3.2421875 C-4.50558594 2.83226562 -5.24164063 2.42234375 -6 2 C-3 0 -3 0 0 0 Z " fill="#106070" transform="translate(144,231)"/>
<path d="M0 0 C3.70807732 -0.28329963 7.29897471 -0.42094379 11 0 C14.66208795 3.44667101 14.59249779 8.19147392 15 13 C12.13546142 9.58983503 10.65296434 6.09305456 9 2 C6.03 1.67 3.06 1.34 0 1 C0 0.67 0 0.34 0 0 Z " fill="#22DED9" transform="translate(354,209)"/>
<path d="M0 0 C0.99 0.495 0.99 0.495 2 1 C2.88671875 3.80078125 2.88671875 3.80078125 3.6875 7.3125 C3.95949219 8.46363281 4.23148437 9.61476562 4.51171875 10.80078125 C4.95579704 13.7103822 4.99842122 15.28617052 4 18 C4 17.01 4 16.02 4 15 C3.34 15 2.68 15 2 15 C0.73694665 9.92523206 -0.27036084 5.27203646 0 0 Z " fill="#2CD1D1" transform="translate(415,210)"/>
<path d="M0 0 C0.33 0 0.66 0 1 0 C0.67 3.63 0.34 7.26 0 11 C-0.99 11.33 -1.98 11.66 -3 12 C-3.33 12.99 -3.66 13.98 -4 15 C-4.66 14.67 -5.32 14.34 -6 14 C-5.65066406 13.24074219 -5.30132812 12.48148437 -4.94140625 11.69921875 C-4.25884766 10.20841797 -4.25884766 10.20841797 -3.5625 8.6875 C-3.11003906 7.70136719 -2.65757813 6.71523438 -2.19140625 5.69921875 C-0.94268008 2.98434301 -0.94268008 2.98434301 0 0 Z " fill="#10606F" transform="translate(116,328)"/>
<path d="M0 0 C6.04083144 2.50302969 11.55371798 5.37903866 17 9 C16.34 9.66 15.68 10.32 15 11 C12.525 10.01 12.525 10.01 10 9 C10 8.01 10 7.02 10 6 C8.906875 5.71125 7.81375 5.4225 6.6875 5.125 C3 4 3 4 0 2 C0 1.34 0 0.68 0 0 Z " fill="#0D6172" transform="translate(306,299)"/>
<path d="M0 0 C4.62 2.31 9.24 4.62 14 7 C14 7.33 14 7.66 14 8 C12.35 8 10.7 8 9 8 C9 7.34 9 6.68 9 6 C6.69 6.33 4.38 6.66 2 7 C1.855625 6.401875 1.71125 5.80375 1.5625 5.1875 C1.1127561 3.43849596 0.57107659 1.71322977 0 0 Z " fill="#125C6E" transform="translate(254,269)"/>
<path d="M0 0 C0.33 0 0.66 0 1 0 C0.98839844 0.845625 0.97679688 1.69125 0.96484375 2.5625 C0.91510313 8.81560618 1.03059754 14.82005931 2 21 C-1.43236709 15.85144937 -2.62760762 12.30021494 -2 6 C-1 2.5 -1 2.5 0 0 Z " fill="#0C6C7B" transform="translate(119,255)"/>
<path d="M0 0 C2 2 2 2 2.4375 4 C2.87458708 6.38640738 2.87458708 6.38640738 6 8 C5.67 9.32 5.34 10.64 5 12 C4.34 12 3.68 12 3 12 C3 11.34 3 10.68 3 10 C2.34 9.67 1.68 9.34 1 9 C-0.37891032 6.3147536 -1.11387536 4.70223141 -0.625 1.6875 C-0.41875 1.130625 -0.2125 0.57375 0 0 Z " fill="#0CDDCF" transform="translate(107,360)"/>
<path d="M0 0 C7.75 1.875 7.75 1.875 10 3 C6.48812804 5.40814077 4.27343092 6.36629408 0 6 C0.33 5.34 0.66 4.68 1 4 C0.60061233 1.90178785 0.60061233 1.90178785 0 0 Z " fill="#0ADDD3" transform="translate(136,237)"/>
<path d="M0 0 C7.92 3.96 7.92 3.96 16 8 C12.32121784 9.22626072 11.04611195 8.63392987 7.4375 7.375 C6.46683594 7.05273438 5.49617187 6.73046875 4.49609375 6.3984375 C2 5 2 5 0 0 Z " fill="#20CDC7" transform="translate(124,225)"/>
<path d="M0 0 C-0.66 1.98 -1.32 3.96 -2 6 C-5.3 6.33 -8.6 6.66 -12 7 C-8.85595666 3.85595666 -4.70527539 0 0 0 Z " fill="#105B6B" transform="translate(184,182)"/>
<path d="M0 0 C-0.63808594 0.27714844 -1.27617187 0.55429688 -1.93359375 0.83984375 C-2.75988281 1.20207031 -3.58617187 1.56429687 -4.4375 1.9375 C-5.26121094 2.29714844 -6.08492187 2.65679687 -6.93359375 3.02734375 C-8.94410117 3.83122323 -8.94410117 3.83122323 -10 5 C-11.51928038 5.07179964 -13.04167482 5.08392007 -14.5625 5.0625 C-15.38878906 5.05347656 -16.21507812 5.04445313 -17.06640625 5.03515625 C-17.70449219 5.02355469 -18.34257812 5.01195313 -19 5 C-16.4156782 2.4156782 -14.10624423 1.89598837 -10.625 0.8125 C-9.48289063 0.44769531 -8.34078125 0.08289063 -7.1640625 -0.29296875 C-4.18525347 -0.95860385 -2.79128097 -1.07938697 0 0 Z " fill="#1FC1BF" transform="translate(208,94)"/>
<path d="M0 0 C3.81433013 1.52573205 5.96552304 2.52746322 9 5 C6.23723823 4.47731534 3.6739124 3.89130413 1 3 C0.67 5.31 0.34 7.62 0 10 C-0.99 10.33 -1.98 10.66 -3 11 C-2.01 7.37 -1.02 3.74 0 0 Z " fill="#0B6370" transform="translate(125,238)"/>
<path d="M0 0 C2.25621163 1.08632412 4.37353544 2.23345965 6.5 3.5625 C8.7421556 4.85173947 10.48078813 5.53347928 13 6 C13 6.99 13 7.98 13 9 C8.0276578 7.50829734 3.58154261 5.39542583 -1 3 C-0.67 2.01 -0.34 1.02 0 0 Z " fill="#135C6C" transform="translate(91,204)"/>
<path d="M0 0 C0.66 0.33 1.32 0.66 2 1 C1.67 2.65 1.34 4.3 1 6 C4.465 7.98 4.465 7.98 8 10 C6.375 10.6875 6.375 10.6875 4 11 C0.75 9.5625 0.75 9.5625 -2 8 C-1.125 1.125 -1.125 1.125 0 0 Z " fill="#105E6E" transform="translate(99,180)"/>
<path d="M0 0 C1.2380014 3.57644848 0.74926071 6.33694766 0 10 C-0.99 10.33 -1.98 10.66 -3 11 C-3.33 11.66 -3.66 12.32 -4 13 C-4.66 13 -5.32 13 -6 13 C-4.58707905 8.1725201 -2.57025846 4.2837641 0 0 Z " fill="#1ACCC8" transform="translate(109,165)"/>
<path d="M0 0 C-0.99 0.33 -1.98 0.66 -3 1 C-3 1.66 -3 2.32 -3 3 C-2.01 3.33 -1.02 3.66 0 4 C-1.6875 5.125 -1.6875 5.125 -4 6 C-6.625 5.125 -6.625 5.125 -9 4 C-9.66 4 -10.32 4 -11 4 C-11 3.34 -11 2.68 -11 2 C-7.17679443 0.57741188 -4.08718695 -0.24042276 0 0 Z " fill="#08DCD0" transform="translate(181,106)"/>
<path d="M0 0 C2 3.75 2 3.75 2 6 C2.99 5.67 3.98 5.34 5 5 C6 6 6 6 6.0625 9.5625 C6.041875 10.696875 6.02125 11.83125 6 13 C2.67148787 10.01581671 0.6794271 7.15437231 -1 3 C-0.67 2.01 -0.34 1.02 0 0 Z " fill="#105B6C" transform="translate(110,357)"/>
<path d="M0 0 C1.32 0 2.64 0 4 0 C4.4125 0.45375 4.825 0.9075 5.25 1.375 C8.05101613 3.97594355 11.3017403 4.21184629 15 5 C14.01 5.99 13.02 6.98 12 8 C7.32760855 5.86793788 3.40712181 3.97497544 0 0 Z " fill="#2DD0CF" transform="translate(381,341)"/>
<path d="M0 0 C3.14473357 0.8805254 5.431407 2.05286356 8.125 3.875 C5.63435112 4.56207555 3.74613708 4.875 1.125 4.875 C1.125 3.885 1.125 2.895 1.125 1.875 C-0.195 1.875 -1.515 1.875 -2.875 1.875 C-2.875 2.535 -2.875 3.195 -2.875 3.875 C-3.865 3.545 -4.855 3.215 -5.875 2.875 C-3.9801056 0.24320223 -3.31857133 -0.14428571 0 0 Z " fill="#22CDC9" transform="translate(295.875,319.125)"/>
<path d="M0 0 C2.00406482 3.00609722 3.03076258 5.59242695 4.1875 9 C4.55230469 10.051875 4.91710937 11.10375 5.29296875 12.1875 C6 15 6 15 5 18 C4.34 17.34 3.68 16.68 3 16 C3 14.68 3 13.36 3 12 C2.34 12 1.68 12 1 12 C0.67 8.04 0.34 4.08 0 0 Z " fill="#0F6272" transform="translate(88,297)"/>
<path d="M0 0 C2.41103827 0.96441531 3.77404758 1.68797047 5.3125 3.8125 C6.2131106 6.67807917 5.9910892 8.16831657 5 11 C2.9375 13.3125 2.9375 13.3125 1 15 C0.67 14.01 0.34 13.02 0 12 C0.99 12 1.98 12 3 12 C3.49544197 7.24595988 3.49544197 7.24595988 1.5 3.1875 C1.005 2.795625 0.51 2.40375 0 2 C0 1.34 0 0.68 0 0 Z " fill="#106779" transform="translate(393,263)"/>
<path d="M0 0 C0.68707031 0.22816406 1.37414062 0.45632813 2.08203125 0.69140625 C3.43361328 1.12259766 3.43361328 1.12259766 4.8125 1.5625 C5.70582031 1.85253906 6.59914062 2.14257812 7.51953125 2.44140625 C10.11215139 3.24979556 10.11215139 3.24979556 13 2 C13 2.99 13 3.98 13 5 C10.1875 5.625 10.1875 5.625 7 6 C6.01 5.34 5.02 4.68 4 4 C2.68 4 1.36 4 0 4 C0 2.68 0 1.36 0 0 Z " fill="#20C9C7" transform="translate(192,263)"/>
<path d="M0 0 C0.66 0.33 1.32 0.66 2 1 C0.47005208 2.23697917 -1.05989583 3.47395833 -2.58984375 4.7109375 C-4.13266437 5.9666391 -4.13266437 5.9666391 -5 8 C-6.9375 7.625 -6.9375 7.625 -9 7 C-9.33 6.34 -9.66 5.68 -10 5 C-8.38007835 4.13624104 -6.75388139 3.28424146 -5.125 2.4375 C-4.22007812 1.96183594 -3.31515625 1.48617187 -2.3828125 0.99609375 C-1.20332031 0.50302734 -1.20332031 0.50302734 0 0 Z " fill="#2D5968" transform="translate(165,86)"/>
<path d="M0 0 C0.33 0 0.66 0 1 0 C1.08126087 2.08268593 1.13930839 4.16628658 1.1875 6.25 C1.23970703 7.99023438 1.23970703 7.99023438 1.29296875 9.765625 C0.97982934 13.22268407 0.34290892 14.51565563 -2 17 C-2.25287193 10.93107371 -1.69832609 5.83799592 0 0 Z " fill="#1DBDBA" transform="translate(102,336)"/>
<path d="M0 0 C3.4248442 2.25318697 4.85465613 3.63003379 6.375 7.5 C6.95453156 10.74537673 6.91000842 11.99301567 6 15 C5.73445313 14.31292969 5.46890625 13.62585938 5.1953125 12.91796875 C4.84210938 12.01691406 4.48890625 11.11585938 4.125 10.1875 C3.77695312 9.29417969 3.42890625 8.40085938 3.0703125 7.48046875 C2.01167845 4.82288409 2.01167845 4.82288409 0 2 C0 1.34 0 0.68 0 0 Z " fill="#126071" transform="translate(377,236)"/>
<path d="M0 0 C0.66 0 1.32 0 2 0 C1.58578031 4.83256305 -0.46413986 6.82679218 -4 10 C-4.6875 8.25 -4.6875 8.25 -5 6 C-3.6875 3.75 -3.6875 3.75 -2 2 C-1.34 2 -0.68 2 0 2 C0 1.34 0 0.68 0 0 Z " fill="#19576B" transform="translate(119,146)"/>
<path d="M0 0 C-1 1 -2 2 -3 3 C-3.495 3.556875 -3.99 4.11375 -4.5 4.6875 C-6 6 -6 6 -9 6 C-9.99 5.34 -10.98 4.68 -12 4 C-10.56988027 3.13353333 -9.13059381 2.28218171 -7.6875 1.4375 C-6.48673828 0.72400391 -6.48673828 0.72400391 -5.26171875 -0.00390625 C-3 -1 -3 -1 0 0 Z " fill="#BCEAEE" transform="translate(344,424)"/>
<path d="M0 0 C1.125 3.75 1.125 3.75 0 6 C-0.04022391 8.3329866 -0.04320247 10.66706666 0 13 C-0.66 13 -1.32 13 -2 13 C-2 12.01 -2 11.02 -2 10 C-2.66 10 -3.32 10 -4 10 C-4.33 8.68 -4.66 7.36 -5 6 C-4.01 6 -3.02 6 -2 6 C-1.7834375 5.071875 -1.7834375 5.071875 -1.5625 4.125 C-1 2 -1 2 0 0 Z " fill="#125F6E" transform="translate(281,332)"/>
<path d="M0 0 C1.125 1.6875 1.125 1.6875 2 4 C1.125 6.75 1.125 6.75 0 9 C-0.66 9 -1.32 9 -2 9 C-1.67 10.65 -1.34 12.3 -1 14 C-1.66 13.67 -2.32 13.34 -3 13 C-3.38281159 7.76824163 -2.21854707 4.62197306 0 0 Z " fill="#22CFCB" transform="translate(283,331)"/>
<path d="M0 0 C0.33 1.32 0.66 2.64 1 4 C2.65 4.33 4.3 4.66 6 5 C6 5.66 6 6.32 6 7 C4.22739369 6.54857225 2.4569632 6.08859477 0.6875 5.625 C-0.79169922 5.24214844 -0.79169922 5.24214844 -2.30078125 4.8515625 C-5 4 -5 4 -8 2 C-5.36 1.34 -2.72 0.68 0 0 Z " fill="#115C6F" transform="translate(362,273)"/>
<path d="M0 0 C2.31 0.33 4.62 0.66 7 1 C7 1.66 7 2.32 7 3 C8.32 2.67 9.64 2.34 11 2 C11 2.66 11 3.32 11 4 C11.66 4 12.32 4 13 4 C13 4.66 13 5.32 13 6 C13.99 6.33 14.98 6.66 16 7 C15.01 7.495 15.01 7.495 14 8 C12.01171875 7.07421875 12.01171875 7.07421875 9.6875 5.6875 C6.51946252 3.84799437 3.46462763 2.229384 0 1 C0 0.67 0 0.34 0 0 Z " fill="#21C5C3" transform="translate(120,197)"/>
<path d="M0 0 C2.38564077 0.57584432 4.66682784 1.22227595 7 2 C7.33 2.99 7.66 3.98 8 5 C6.5625 7.1875 6.5625 7.1875 5 9 C4.16396622 7.68921847 3.3312426 6.37632511 2.5 5.0625 C2.0359375 4.33160156 1.571875 3.60070312 1.09375 2.84765625 C0 1 0 1 0 0 Z " fill="#175B6E" transform="translate(391,157)"/>
<path d="M0 0 C2.97 0 5.94 0 9 0 C9 1.32 9 2.64 9 4 C9.639375 4.12375 10.27875 4.2475 10.9375 4.375 C11.618125 4.58125 12.29875 4.7875 13 5 C13.33 5.66 13.66 6.32 14 7 C9.0276578 5.50829734 4.58154261 3.39542583 0 1 C0 0.67 0 0.34 0 0 Z " fill="#0E6170" transform="translate(316,98)"/>
<path d="M0 0 C2.64 0.33 5.28 0.66 8 1 C8.33 1.99 8.66 2.98 9 4 C10.29355827 5.37195574 11.62298702 6.71182656 13 8 C8.27626146 6.37621488 4.05818166 3.89006982 0 1 C0 0.67 0 0.34 0 0 Z " fill="#105D70" transform="translate(315,329)"/>
<path d="M0 0 C1.98 0 3.96 0 6 0 C5.67 2.97 5.34 5.94 5 9 C3 6 3 6 3 4 C2.01 3.67 1.02 3.34 0 3 C0 2.01 0 1.02 0 0 Z " fill="#1AE9E0" transform="translate(378,232)"/>
<path d="M0 0 C0.66 0 1.32 0 2 0 C0.375 5.75 0.375 5.75 -3 8 C-3.99 8 -4.98 8 -6 8 C-5.34 6.35 -4.68 4.7 -4 3 C-2.68 3 -1.36 3 0 3 C0 2.01 0 1.02 0 0 Z " fill="#12CFC5" transform="translate(116,157)"/>
<path d="M0 0 C4.12751449 0.60698743 7.3321148 2.03810791 11 4 C11 4.66 11 5.32 11 6 C6.14922412 4.88059018 3.222107 3.8665284 0 0 Z M11 3 C14 4 14 4 14 4 Z " fill="#1FCBC8" transform="translate(287,287)"/>
<path d="M0 0 C7.45851528 -0.36681223 7.45851528 -0.36681223 9.9375 1.3125 C11 3 11 3 12 6 C7.96479403 4.41037341 3.98188718 2.71767682 0 1 C0 0.67 0 0.34 0 0 Z " fill="#1DC9C4" transform="translate(275,281)"/>
<path d="M0 0 C0.33 0 0.66 0 1 0 C1.52890546 2.62361013 2.04842088 5.24848225 2.5625 7.875 C2.71396484 8.62136719 2.86542969 9.36773437 3.02148438 10.13671875 C4.11328125 15.7734375 4.11328125 15.7734375 3 18 C2 17 2 17 1.9375 13.4375 C1.958125 12.303125 1.97875 11.16875 2 10 C1.34 10 0.68 10 0 10 C0 6.7 0 3.4 0 0 Z " fill="#11596C" transform="translate(325,272)"/>
<path d="M0 0 C0.33 0.66 0.66 1.32 1 2 C0.67 2.99 0.34 3.98 0 5 C0.66 5 1.32 5 2 5 C2.33 5.66 2.66 6.32 3 7 C4.64142963 8.0409066 6.30712215 9.04504326 8 10 C4.2205439 10 2.20883825 8.95320589 -1 7 C-2 5 -2 5 -2 3 C-1.34 2.01 -0.68 1.02 0 0 Z " fill="#21C3C0" transform="translate(101,180)"/>
<path d="M0 0 C0.66 0.99 1.32 1.98 2 3 C1.00269864 5.4932534 0.34925469 6.77467439 -1.9375 8.25 C-4 9 -4 9 -7 9 C-6.57847656 8.51789063 -6.15695312 8.03578125 -5.72265625 7.5390625 C-5.17480469 6.90742188 -4.62695312 6.27578125 -4.0625 5.625 C-3.51722656 4.99851562 -2.97195313 4.37203125 -2.41015625 3.7265625 C-0.93041376 2.04367666 -0.93041376 2.04367666 0 0 Z " fill="#BCECEF" transform="translate(411,360)"/>
<path d="M0 0 C1.32 0 2.64 0 4 0 C2.54955729 4.10958767 0.48889248 7.43258745 -2 11 C-3 9 -3 9 -2.44140625 6.8359375 C-2.15136719 6.02382813 -1.86132812 5.21171875 -1.5625 4.375 C-1.27503906 3.55773437 -0.98757812 2.74046875 -0.69140625 1.8984375 C-0.46324219 1.27195312 -0.23507813 0.64546875 0 0 Z " fill="#0F5F71" transform="translate(232,305)"/>
<path d="M0 0 C2.91517292 1.07401108 4.77810176 1.77810176 7 4 C4.36 3.67 1.72 3.34 -1 3 C-1 3.66 -1 4.32 -1 5 C-2.32 4.67 -3.64 4.34 -5 4 C-3.35 2.68 -1.7 1.36 0 0 Z " fill="#0C6374" transform="translate(234,258)"/>
<path d="M0 0 C-1.6209213 1.17232685 -3.24686833 2.3377077 -4.875 3.5 C-5.77992188 4.1496875 -6.68484375 4.799375 -7.6171875 5.46875 C-10 7 -10 7 -12 7 C-11.67 6.01 -11.34 5.02 -11 4 C-8.4375 2.8125 -8.4375 2.8125 -6 2 C-6 1.34 -6 0.68 -6 0 C-2.25 -1.125 -2.25 -1.125 0 0 Z " fill="#0E6273" transform="translate(232,247)"/>
<path d="M0 0 C3.12290635 0.48578543 5.99580359 0.9986012 9 2 C9 2.66 9 3.32 9 4 C9.99 4.33 10.98 4.66 12 5 C11.67 5.66 11.34 6.32 11 7 C7.37 5.02 3.74 3.04 0 1 C0 0.67 0 0.34 0 0 Z " fill="#126070" transform="translate(158,243)"/>
<path d="M0 0 C3.37705625 0.53725895 6.696686 1.11064623 10 2 C10 2.99 10 3.98 10 5 C10.99 5.33 11.98 5.66 13 6 C12.01 6.495 12.01 6.495 11 7 C8.3984375 5.78515625 8.3984375 5.78515625 5.375 4.0625 C4.37210938 3.49660156 3.36921875 2.93070313 2.3359375 2.34765625 C1.56507812 1.90292969 0.79421875 1.45820313 0 1 C0 0.67 0 0.34 0 0 Z " fill="#0D6775" transform="translate(125,225)"/>
<path d="M0 0 C2.475 0.495 2.475 0.495 5 1 C5.125 3.875 5.125 3.875 5 7 C4.34 7.66 3.68 8.32 3 9 C2.01 9 1.02 9 0 9 C0.309375 8.401875 0.61875 7.80375 0.9375 7.1875 C2.10209704 4.91043228 2.10209704 4.91043228 3 2 C2.01 1.34 1.02 0.68 0 0 Z " fill="#156A7C" transform="translate(375,365)"/>
<path d="M0 0 C0 4.35251187 -2.06165511 5.92809398 -5 9 C-7.3125 9.875 -7.3125 9.875 -9 10 C-7.61811547 6.78956118 -6.07578097 4.95063635 -3.375 2.75 C-2.74335938 2.22921875 -2.11171875 1.7084375 -1.4609375 1.171875 C-0.73777344 0.59179688 -0.73777344 0.59179688 0 0 Z " fill="#22C2BF" transform="translate(153,344)"/>
<path d="M0 0 C5.31027254 1.46032495 9.46330032 3.98320986 14 7 C13.67 7.66 13.34 8.32 13 9 C10.83061859 7.69181533 8.6644848 6.37874076 6.5 5.0625 C5.87996094 4.68931641 5.25992187 4.31613281 4.62109375 3.93164062 C3.06370003 2.9818016 1.5296725 1.99386689 0 1 C0 0.67 0 0.34 0 0 Z " fill="#28C2C2" transform="translate(327,310)"/>
<path d="M0 0 C0.99 0.33 1.98 0.66 3 1 C2.67 1.66 2.34 2.32 2 3 C1.34 3 0.68 3 0 3 C-0.4640625 3.928125 -0.4640625 3.928125 -0.9375 4.875 C-1.625 6.25 -2.3125 7.625 -3 9 C-3.99 8.67 -4.98 8.34 -6 8 C-4.02 5.36 -2.04 2.72 0 0 Z " fill="#17EAE1" transform="translate(397,277)"/>
<path d="M0 0 C3.63 0.33 7.26 0.66 11 1 C11 1.33 11 1.66 11 2 C8.03 2 5.06 2 2 2 C2 3.65 2 5.3 2 7 C1.34 6.34 0.68 5.68 0 5 C0 3.35 0 1.7 0 0 Z " fill="#28D0CF" transform="translate(327,272)"/>
<path d="M0 0 C4.61513112 1.31860889 8.09897612 3.21355437 12 6 C10.02 6.99 10.02 6.99 8 8 C8 7.34 8 6.68 8 6 C7.34 6 6.68 6 6 6 C6 5.34 6 4.68 6 4 C4.02 3.34 2.04 2.68 0 2 C0 1.34 0 0.68 0 0 Z " fill="#1FC9C5" transform="translate(237,247)"/>
<path d="M0 0 C3.91211733 1.15585285 6.8745041 2.35534962 10 5 C5.66831683 5.26252625 2.1196377 4.29243536 -2 3 C-1.34 2.01 -0.68 1.02 0 0 Z " fill="#1CCBC4" transform="translate(152,241)"/>
<path d="M0 0 C1.32 0.33 2.64 0.66 4 1 C4 1.99 4 2.98 4 4 C4.99 4.33 5.98 4.66 7 5 C6.34 5.66 5.68 6.32 5 7 C5 6.34 5 5.68 5 5 C4.34 5 3.68 5 3 5 C2.67 5.66 2.34 6.32 2 7 C0.5393715 4.35261084 0 3.10551666 0 0 Z " fill="#14EADF" transform="translate(377,145)"/>
<path d="M0 0 C1.46184058 0.22860058 2.91955419 0.48370392 4.375 0.75 C5.59316406 0.95882812 5.59316406 0.95882812 6.8359375 1.171875 C9 2 9 2 10.3515625 3.953125 C11 6 11 6 10 8 C8.33055479 6.85821872 6.6645052 5.71147095 5 4.5625 C4.071875 3.92441406 3.14375 3.28632812 2.1875 2.62890625 C1.465625 2.09136719 0.74375 1.55382812 0 1 C0 0.67 0 0.34 0 0 Z " fill="#0E6474" transform="translate(346,114)"/>
<path d="M0 0 C0.66 0 1.32 0 2 0 C2 0.66 2 1.32 2 2 C3.65 2 5.3 2 7 2 C7.33 4.31 7.66 6.62 8 9 C6.84775972 8.07038578 5.70340824 7.1309875 4.5625 6.1875 C3.60537109 5.40439453 3.60537109 5.40439453 2.62890625 4.60546875 C1 3 1 3 0 0 Z " fill="#105D6E" transform="translate(179,343)"/>
<path d="M0 0 C0.33 0.66 0.66 1.32 1 2 C0.5359375 3.0828125 0.5359375 3.0828125 0.0625 4.1875 C-1.22171408 7.5868902 -1.14135045 10.39556356 -1 14 C-1.99 14 -2.98 14 -4 14 C-3.66009167 8.62007164 -3.31442207 4.46726453 0 0 Z " fill="#1ED0CB" transform="translate(223,328)"/>
<path d="M0 0 C4.31392226 0.4793247 6.16569547 1.7457985 9 5 C6.36 4.67 3.72 4.34 1 4 C0.67 2.68 0.34 1.36 0 0 Z " fill="#1ECCC6" transform="translate(282,273)"/>
<path d="M0 0 C5.445 1.485 5.445 1.485 11 3 C10.01 3.495 10.01 3.495 9 4 C9 4.66 9 5.32 9 6 C4.69127714 4.56375905 3.45397435 3.45397435 0 0 Z " fill="#1BC8C3" transform="translate(177,266)"/>
<path d="M0 0 C0.66 0.33 1.32 0.66 2 1 C-1.49087093 5.0042343 -3.64951939 6.62671065 -9 7 C-6.03716687 4.61327331 -3.05729491 2.2646629 0 0 Z " fill="#105F6E" transform="translate(227,263)"/>
<path d="M0 0 C1.32 0 2.64 0 4 0 C4 0.66 4 1.32 4 2 C4.99 2 5.98 2 7 2 C7 2.66 7 3.32 7 4 C8.32 4 9.64 4 11 4 C11 4.66 11 5.32 11 6 C6.48986609 5.46939601 3.61621781 3.69113883 0 1 C0 0.67 0 0.34 0 0 Z " fill="#0C606F" transform="translate(243,249)"/>
<path d="M0 0 C0.76570313 0.23009766 0.76570313 0.23009766 1.546875 0.46484375 C4.7749338 1.16905403 7.95418001 1.34888204 11.25 1.5625 C12.51328125 1.64628906 13.7765625 1.73007813 15.078125 1.81640625 C16.04234375 1.87699219 17.0065625 1.93757812 18 2 C18 2.33 18 2.66 18 3 C12.39 3 6.78 3 1 3 C0.67 2.01 0.34 1.02 0 0 Z " fill="#0F586C" transform="translate(342,210)"/>
<path d="M0 0 C2.64 0.33 5.28 0.66 8 1 C8.33 2.98 8.66 4.96 9 7 C7.4972763 6.02501855 5.99788037 5.04490611 4.5 4.0625 C3.6646875 3.51722656 2.829375 2.97195312 1.96875 2.41015625 C1.3190625 1.94480469 0.669375 1.47945313 0 1 C0 0.67 0 0.34 0 0 Z " fill="#106172" transform="translate(357,122)"/>
<path d="M0 0 C0.66 0.33 1.32 0.66 2 1 C0.625 3 0.625 3 -1 5 C-1.66 5 -2.32 5 -3 5 C-3.33 5.99 -3.66 6.98 -4 8 C-5.32 7.67 -6.64 7.34 -8 7 C-5.36 4.69 -2.72 2.38 0 0 Z " fill="#315C6A" transform="translate(136,104)"/>
<path d="M0 0 C2.21399303 3.79541663 3.00980198 7.75629421 4 12 C3.34 12 2.68 12 2 12 C2 10.68 2 9.36 2 8 C1.34 8 0.68 8 0 8 C-0.79953138 4.71303767 -1.09658936 3.28976808 0 0 Z " fill="#26D0CD" transform="translate(411,195)"/>
<path d="M0 0 C1.32 0.33 2.64 0.66 4 1 C4 1.66 4 2.32 4 3 C4.99 3 5.98 3 7 3 C7.66 4.65 8.32 6.3 9 8 C5.01824456 5.89851796 2.64960955 3.63094642 0 0 Z " fill="#23C6C2" transform="translate(144,364)"/>
<path d="M0 0 C3.3 1.98 6.6 3.96 10 6 C7.3333581 7.33332095 5.83319697 6.67102033 3 6 C3 5.34 3 4.68 3 4 C2.01 3.67 1.02 3.34 0 3 C0 2.01 0 1.02 0 0 Z " fill="#29D0CE" transform="translate(364,358)"/>
<path d="M0 0 C1.875 0.25 1.875 0.25 4 1 C5.25 3.0625 5.25 3.0625 6 5 C3.69 4.67 1.38 4.34 -1 4 C-0.67 2.68 -0.34 1.36 0 0 Z " fill="#20E0DA" transform="translate(378,336)"/>
<path d="M0 0 C1.66611905 -0.042721 3.33382885 -0.04063832 5 0 C6 1 6 1 6.0625 3.5625 C6.041875 4.366875 6.02125 5.17125 6 6 C4.125 5.8125 4.125 5.8125 2 5 C0.75 2.4375 0.75 2.4375 0 0 Z " fill="#1ED7D4" transform="translate(335,203)"/>
<path d="M0 0 C3.12290635 0.48578543 5.99580359 0.9986012 9 2 C10.1875 4.0625 10.1875 4.0625 11 6 C7.2089881 4.55049545 3.6125362 2.84827434 0 1 C0 0.67 0 0.34 0 0 Z " fill="#1FC6C2" transform="translate(109,191)"/>
<path d="M0 0 C0.99 0 1.98 0 3 0 C3.53229326 1.26607607 4.05044544 2.53810412 4.5625 3.8125 C4.85253906 4.52019531 5.14257812 5.22789062 5.44140625 5.95703125 C6 8 6 8 5 11 C4.16151196 9.54462432 3.32936066 8.08559627 2.5 6.625 C1.80390625 5.40683594 1.80390625 5.40683594 1.09375 4.1640625 C0 2 0 2 0 0 Z " fill="#0D6776" transform="translate(399,169)"/>
<path d="M0 0 C0.66 0.33 1.32 0.66 2 1 C0.35 4.3 -1.3 7.6 -3 11 C-4.25541557 7.23375329 -3.37061958 5.62811066 -2 2 C-1.34 2 -0.68 2 0 2 C0 1.34 0 0.68 0 0 Z " fill="#0F6172" transform="translate(105,169)"/>
<path d="M0 0 C3.45925163 1.2491742 6.14693203 2.67527795 9 5 C7 6 7 6 3.9375 5.3125 C1 4 1 4 0.125 1.875 C0.08375 1.25625 0.0425 0.6375 0 0 Z " fill="#27D3CF" transform="translate(354,353)"/>
<path d="M0 0 C0.33 0 0.66 0 1 0 C1.33 3.3 1.66 6.6 2 10 C1.34 8.68 0.68 7.36 0 6 C-0.99 6.33 -1.98 6.66 -3 7 C-1.125 2.25 -1.125 2.25 0 0 Z " fill="#2AC0BC" transform="translate(173,320)"/>
<path d="M0 0 C0.99 0.33 1.98 0.66 3 1 C3.6875 3.0625 3.6875 3.0625 4 5 C1.0625 4.625 1.0625 4.625 -2 4 C-2.33 3.34 -2.66 2.68 -3 2 C-2.01 1.34 -1.02 0.68 0 0 Z " fill="#145C6A" transform="translate(323,291)"/>
<path d="M0 0 C1.31602523 0.61754259 2.62773556 1.24428742 3.9375 1.875 C4.66839844 2.22304688 5.39929688 2.57109375 6.15234375 2.9296875 C8 4 8 4 9 6 C6.75 6.25 6.75 6.25 4 6 C1.6875 4.125 1.6875 4.125 0 2 C0 1.34 0 0.68 0 0 Z " fill="#20C9C6" transform="translate(273,267)"/>
<path d="M0 0 C0.99 0 1.98 0 3 0 C1.60667426 3.36720387 0.0210714 4.9859524 -3 7 C-3 5.68 -3 4.36 -3 3 C-2.34 3 -1.68 3 -1 3 C-0.67 2.01 -0.34 1.02 0 0 Z " fill="#0F6070" transform="translate(125,140)"/>
<path d="M0 0 C3.99500618 1.3697164 6.80009492 3.25722422 10 6 C8.35 6 6.7 6 5 6 C4.67 5.01 4.34 4.02 4 3 C1.98491642 2.26676204 1.98491642 2.26676204 0 2 C0 1.34 0 0.68 0 0 Z " fill="#26D1CE" transform="translate(332,340)"/>
<path d="M0 0 C3.91211733 1.15585285 6.8745041 2.35534962 10 5 C4.5388601 4.64766839 4.5388601 4.64766839 2 4 C0.5 1.9375 0.5 1.9375 0 0 Z " fill="#0D6070" transform="translate(288,289)"/>
<path d="M0 0 C5.75 1.75 5.75 1.75 8 4 C5.6875 4.6875 5.6875 4.6875 3 5 C1.1875 3.6875 1.1875 3.6875 0 2 C0 1.34 0 0.68 0 0 Z " fill="#135C6E" transform="translate(144,249)"/>
<path d="M0 0 C1.66666667 0 3.33333333 0 5 0 C5 1.65 5 3.3 5 5 C4.01 5.495 4.01 5.495 3 6 C2.67 5.34 2.34 4.68 2 4 C1.01 3.67 0.02 3.34 -1 3 C-0.67 2.01 -0.34 1.02 0 0 Z " fill="#18EBE1" transform="translate(386,248)"/>
<path d="M0 0 C0.99 0.33 1.98 0.66 3 1 C2.690625 1.598125 2.38125 2.19625 2.0625 2.8125 C0.89790296 5.08956772 0.89790296 5.08956772 0 8 C-1.125 6.25 -1.125 6.25 -2 4 C-1.125 1.75 -1.125 1.75 0 0 Z " fill="#0DDAD0" transform="translate(136,133)"/>
<path d="M0 0 C1.43655854 -0.08131463 2.8744483 -0.13933559 4.3125 -0.1875 C5.51326172 -0.23970703 5.51326172 -0.23970703 6.73828125 -0.29296875 C9.47851584 0.06198392 10.29171079 0.89366282 12 3 C3.96428571 2.19642857 3.96428571 2.19642857 0 0 Z " fill="#0F6978" transform="translate(284,89)"/>
<path d="M0 0 C-5.16816686 2.67318976 -8.20158873 2.98463588 -14 2 C-14 1.67 -14 1.34 -14 1 C-9.23692563 0.04738513 -4.8333472 -0.08333357 0 0 Z " fill="#1CC0BE" transform="translate(234,88)"/>
<path d="M0 0 C2.475 0.99 2.475 0.99 5 2 C3.25 5.875 3.25 5.875 1 7 C0.34 6.34 -0.32 5.68 -1 5 C-0.01 5 0.98 5 2 5 C2 4.01 2 3.02 2 2 C1.34 2 0.68 2 0 2 C0 1.34 0 0.68 0 0 Z " fill="#2BD9D6" transform="translate(374,365)"/>
<path d="M0 0 C3.93673644 1.31224548 6.22719294 2.91910327 9 6 C5.51669784 5.35494404 2.90567134 4.01782732 0 2 C0 1.34 0 0.68 0 0 Z " fill="#0C6373" transform="translate(379,341)"/>
<path d="M0 0 C2.97 0 5.94 0 9 0 C9.33 0.99 9.66 1.98 10 3 C7.98177083 2.70703125 5.96354167 2.4140625 3.9453125 2.12109375 C1.91859333 1.8315703 1.91859333 1.8315703 0 3 C0 2.01 0 1.02 0 0 Z " fill="#0D6873" transform="translate(291,318)"/>
<path d="M0 0 C3.45925163 1.2491742 6.14693203 2.67527795 9 5 C8.01 5.66 7.02 6.32 6 7 C5.566875 6.360625 5.13375 5.72125 4.6875 5.0625 C3.08760823 2.73253997 3.08760823 2.73253997 0 2 C0 1.34 0 0.68 0 0 Z " fill="#125D71" transform="translate(323,309)"/>
<path d="M0 0 C1.98 0.99 1.98 0.99 4 2 C4 3.32 4 4.64 4 6 C3.01 6 2.02 6 1 6 C0.67 4.02 0.34 2.04 0 0 Z " fill="#1DD2CC" transform="translate(91,304)"/>
<path d="M0 0 C3.7910119 1.44950455 7.3874638 3.15172566 11 5 C8 6 8 6 5.95703125 5.22265625 C5.24933594 4.83980469 4.54164063 4.45695312 3.8125 4.0625 C3.09707031 3.68222656 2.38164062 3.30195313 1.64453125 2.91015625 C1.10183594 2.60980469 0.55914062 2.30945313 0 2 C0 1.34 0 0.68 0 0 Z " fill="#0C5E70" transform="translate(187,273)"/>
<path d="M0 0 C0.99 0.33 1.98 0.66 3 1 C2.67 2.32 2.34 3.64 2 5 C0.02 4.34 -1.96 3.68 -4 3 C-2.68 2.67 -1.36 2.34 0 2 C0 1.34 0 0.68 0 0 Z " fill="#1BD1CB" transform="translate(196,273)"/>
<path d="M0 0 C-0.33 1.32 -0.66 2.64 -1 4 C-3.475 3.01 -3.475 3.01 -6 2 C-6 1.34 -6 0.68 -6 0 C-2.25 -1.125 -2.25 -1.125 0 0 Z " fill="#14D2C9" transform="translate(172,259)"/>
<path d="M0 0 C2.31 0.66 4.62 1.32 7 2 C6.360625 2.12375 5.72125 2.2475 5.0625 2.375 C4.381875 2.58125 3.70125 2.7875 3 3 C2.67 3.66 2.34 4.32 2 5 C1.01 4.01 0.02 3.02 -1 2 C-0.67 1.34 -0.34 0.68 0 0 Z " fill="#1D546B" transform="translate(130,242)"/>
<path d="M0 0 C1.9375 0.6875 1.9375 0.6875 4 2 C4.75 4.625 4.75 4.625 5 7 C4.01 7.495 4.01 7.495 3 8 C0 2.25 0 2.25 0 0 Z " fill="#2AD7D4" transform="translate(369,222)"/>
<path d="M0 0 C3.72114571 2.31537955 6.61229661 4.28579473 9 8 C5.56247993 6.4722133 2.81046312 4.49818944 0 2 C0 1.34 0 0.68 0 0 Z " fill="#096270" transform="translate(302,183)"/>
<path d="M0 0 C1.65 0 3.3 0 5 0 C5 1.32 5 2.64 5 4 C3.35 3.67 1.7 3.34 0 3 C0 2.01 0 1.02 0 0 Z " fill="#04DFCF" transform="translate(192,99)"/>
<path d="M0 0 C1.8125 0.1875 1.8125 0.1875 4 1 C5.8125 3.4375 5.8125 3.4375 7 6 C6.67 6.66 6.34 7.32 6 8 C4.9970458 6.85675161 3.99770973 5.71032809 3 4.5625 C2.443125 3.92441406 1.88625 3.28632813 1.3125 2.62890625 C0 1 0 1 0 0 Z " fill="#23C7C3" transform="translate(283,347)"/>
<path d="M0 0 C3.04095366 3.04095366 3.68440793 3.89730308 4 8 C3.34 8.66 2.68 9.32 2 10 C1.34 6.7 0.68 3.4 0 0 Z " fill="#0D6978" transform="translate(99,328)"/>
<path d="M0 0 C-1.13304992 3.39914975 -2.12518475 4.05254451 -5 6 C-5.66 5.67 -6.32 5.34 -7 5 C-2.25 0 -2.25 0 0 0 Z " fill="#18CBC4" transform="translate(173,326)"/>
<path d="M0 0 C3.45925163 1.2491742 6.14693203 2.67527795 9 5 C5.65626525 4.44271087 2.96687001 3.64826111 0 2 C0 1.34 0 0.68 0 0 Z " fill="#25CFCC" transform="translate(364,279)"/>
<path d="M0 0 C3.77545388 1.09068668 6.47043472 1.9083091 9 5 C2.25 3.125 2.25 3.125 0 2 C0 1.34 0 0.68 0 0 Z " fill="#0C6471" transform="translate(169,263)"/>
<path d="M0 0 C3.66881155 0.70554068 6.70450534 2.27735506 10 4 C6.19881294 5.26706235 4.6149628 4.57172296 1 3 C0.67 2.01 0.34 1.02 0 0 Z " fill="#21CAC6" transform="translate(177,255)"/>
<path d="M0 0 C0.33 0 0.66 0 1 0 C1.3125 2.25 1.3125 2.25 1 5 C-1.5 7.3125 -1.5 7.3125 -4 9 C-3.67 7.02 -3.34 5.04 -3 3 C-2.01 3 -1.02 3 0 3 C0 2.01 0 1.02 0 0 Z " fill="#0ED7CB" transform="translate(105,175)"/>
</svg>
