<?xml version="1.0" encoding="UTF-8"?>
<svg version="1.1" xmlns="http://www.w3.org/2000/svg" width="1024" height="1024">
<path d="M0 0 C2.03506944 0.09561596 4.07022609 0.18939508 6.10546875 0.28125 C7.55058838 0.34699219 7.55058838 0.34699219 9.02490234 0.4140625 C11.64588072 0.49486337 14.24235784 0.46558766 16.86328125 0.40625 C20.8125 0.5 20.8125 0.5 23.8125 2.5 C25.74563645 2.98696518 27.69924525 3.39476889 29.66015625 3.75390625 C31.40522461 4.07584961 31.40522461 4.07584961 33.18554688 4.40429688 C35.01182617 4.73010742 35.01182617 4.73010742 36.875 5.0625 C38.06544922 5.28357422 39.25589844 5.50464844 40.48242188 5.73242188 C46.62769527 6.85066569 52.68176835 7.79042887 58.91967773 8.17163086 C60.8125 8.5 60.8125 8.5 62.8125 10.5 C64.83175898 11.26270924 66.87926492 11.95133134 68.9375 12.6015625 C70.20699064 13.00954849 71.47635421 13.41793005 72.74560547 13.82666016 C73.41058044 14.03865051 74.07555542 14.25064087 74.76068115 14.46905518 C87.1325344 18.42420605 99.11130032 22.82380828 110.8125 28.5 C111.1425 27.84 111.4725 27.18 111.8125 26.5 C111.8125 27.49 111.8125 28.48 111.8125 29.5 C112.61171875 29.72300781 113.4109375 29.94601563 114.234375 30.17578125 C119.6844071 32.19276911 124.52560653 35.20430041 129.53125 38.13085938 C130.30984375 38.57623047 131.0884375 39.02160156 131.890625 39.48046875 C132.94878418 40.09764771 132.94878418 40.09764771 134.02832031 40.72729492 C134.61709961 40.9822876 135.20587891 41.23728027 135.8125 41.5 C136.4725 41.17 137.1325 40.84 137.8125 40.5 C138.1425 41.49 138.4725 42.48 138.8125 43.5 C141.31969921 45.20660367 141.31969921 45.20660367 144.375 46.8125 C148.94145358 49.37297576 153.11484494 52.05715486 157.19140625 55.3359375 C158.92505261 56.70222703 158.92505261 56.70222703 161.8125 57.5 C163.5051359 59.14028634 165.16718305 60.81225367 166.8125 62.5 C168.98255349 64.46173939 171.2086792 66.35551773 173.4375 68.25 C174.35511108 69.03552246 174.35511108 69.03552246 175.29125977 69.83691406 C179.05562521 73.0474227 182.88005699 76.16689187 186.75 79.25 C190.72083713 82.46643655 194.12925867 85.82986179 197.375 89.7734375 C198.78900493 91.54022587 198.78900493 91.54022587 200.5 93.1015625 C201.8125 94.5 201.8125 94.5 201.8125 96.5 C202.8025 96.83 203.7925 97.16 204.8125 97.5 C206.6875 99.51171875 206.6875 99.51171875 208.8125 102.1875 C209.60785156 103.18652344 210.40320313 104.18554688 211.22265625 105.21484375 C211.64434082 105.75093262 212.06602539 106.28702148 212.50048828 106.83935547 C213.81962589 108.50901941 215.15593157 110.16358797 216.49609375 111.81640625 C247.89586792 150.79041726 269.82767544 198.32617425 278.8125 247.5 C278.96412598 248.30711426 279.11575195 249.11422852 279.27197266 249.94580078 C289.96790183 308.22721059 282.10435861 367.39191399 260.61938477 422.20703125 C259.70185246 424.40930054 259.70185246 424.40930054 259.8125 426.5 C259.1525 426.5 258.4925 426.5 257.8125 426.5 C257.4825 427.655 257.1525 428.81 256.8125 430 C249.58928362 451.56838909 235.67611669 471.82955835 222.6875 490.3125 C222.20885498 490.99368896 221.73020996 491.67487793 221.23706055 492.37670898 C220.30656367 493.68752485 219.36315284 494.9893025 218.40497398 496.28002167 C216.78390386 498.48138399 216.78390386 498.48138399 215.38985634 500.83431244 C211.334494 507.00018065 211.334494 507.00018065 207.34208298 508.3112793 C204.32979818 508.60172708 201.43655991 508.60267363 198.41162109 508.50585938 C197.27368072 508.50558715 196.13574034 508.50531492 194.96331692 508.50503445 C191.16927961 508.49366867 187.37921542 508.41841846 183.5859375 508.34375 C180.88721331 508.31886336 178.18848163 508.30803855 175.4896698 508.29701233 C169.72452987 508.26673613 163.96044087 508.20533025 158.1958313 508.12210083 C149.17364329 507.99242325 140.15156784 507.92354147 131.12866211 507.86694336 C128.09055983 507.8473787 125.05245914 507.82757516 122.01435852 507.80775452 C121.26078542 507.8029095 120.50721232 507.79806448 119.73080367 507.79307264 C114.37090122 507.75798511 109.01110535 507.71442483 103.65129089 507.66795349 C84.34076475 507.5044026 65.04114217 507.50869387 45.73046875 507.72265625 C44.54154778 507.73581753 43.3526268 507.74897881 42.12767792 507.76253891 C34.20998384 507.85271799 26.29248071 507.95536739 18.375 508.0625 C11.12080252 508.16032146 3.8665993 508.25576886 -3.38773155 508.34319878 C-6.09368408 508.37775796 -8.79947674 508.41889182 -11.50532532 508.46070862 C-13.11869968 508.48132622 -14.73207741 508.50168304 -16.34545898 508.52172852 C-17.05966822 508.53467705 -17.77387745 508.54762558 -18.50972939 508.56096649 C-22.53469843 508.60352214 -26.22974646 508.16848317 -30.1875 507.5 C-32.78052832 507.41444576 -35.34504243 507.37313215 -37.93701172 507.38647461 C-38.68891281 507.38632858 -39.4408139 507.38618256 -40.21549988 507.3860321 C-42.68275918 507.38672472 -45.1499415 507.39448642 -47.6171875 507.40234375 C-49.33497069 507.40421025 -51.05275442 507.40563306 -52.77053833 507.40663147 C-57.27829473 507.41043841 -61.7860186 507.42025304 -66.29376221 507.43133545 C-70.898962 507.44158885 -75.50416707 507.44613749 -80.109375 507.45117188 C-89.13543091 507.46187702 -98.16146274 507.47893144 -107.1875 507.5 C-107.1875 508.16 -107.1875 508.82 -107.1875 509.5 C-110.1875 508.5 -110.1875 508.5 -111.1875 507.5 C-112.90361118 507.4430374 -114.62214402 507.45815045 -116.33866882 507.50086975 C-117.45572205 507.52550797 -118.57277527 507.55014618 -119.72367859 507.57553101 C-120.96043839 507.60740509 -122.19719818 507.63927917 -123.47143555 507.67211914 C-126.15580212 507.731778 -128.84017783 507.79050933 -131.52458191 507.84840393 C-132.23430409 507.86421764 -132.94402627 507.88003136 -133.67525518 507.89632428 C-142.767905 508.0959773 -151.86184618 508.20736259 -160.95591676 508.32059872 C-169.808359 508.43113092 -178.65790942 508.56990332 -187.50805664 508.80297852 C-194.53582912 508.98790432 -201.56137509 509.10781096 -208.59148246 509.15292257 C-212.3094646 509.17910386 -216.02067725 509.23650218 -219.73639488 509.37257576 C-242.18420749 510.16486169 -242.18420749 510.16486169 -248.76709366 505.78284836 C-253.09025231 501.70175616 -256.12704749 497.05191322 -258.91205788 491.83181572 C-260.60116483 488.74372095 -262.57757738 485.90217173 -264.59466076 483.02172947 C-267.16039319 479.34603018 -269.55753142 475.56989913 -271.83203125 471.70703125 C-273.12896621 469.40354346 -273.12896621 469.40354346 -275.1875 467.5 C-275.86200697 466.32427147 -276.49458771 465.12407781 -277.09765625 463.91015625 C-277.62262695 462.85731445 -277.62262695 462.85731445 -278.15820312 461.78320312 C-278.51849609 461.05037109 -278.87878906 460.31753906 -279.25 459.5625 C-279.61416016 458.83353516 -279.97832031 458.10457031 -280.35351562 457.35351562 C-281.81215754 454.41196603 -283.14697844 451.62156468 -284.1875 448.5 C-285.1775 448.5 -286.1675 448.5 -287.1875 448.5 C-287.29964844 447.62472656 -287.41179687 446.74945312 -287.52734375 445.84765625 C-288.19406277 442.46672015 -289.21568931 440.01030207 -290.75 436.9375 C-294.11903955 429.93087427 -296.7944544 422.72444842 -299.38305664 415.39624023 C-299.70395264 414.51782471 -300.02484863 413.63940918 -300.35546875 412.734375 C-300.63672607 411.94256836 -300.9179834 411.15076172 -301.20776367 410.33496094 C-302.10683852 408.14470673 -302.10683852 408.14470673 -305.1875 407.5 C-304.9920459 406.78730957 -304.7965918 406.07461914 -304.59521484 405.34033203 C-304.12236181 402.04621696 -304.62376769 400.20056074 -305.6640625 397.0546875 C-306.0029248 395.9910498 -306.34178711 394.92741211 -306.69091797 393.83154297 C-307.06104004 392.69088379 -307.43116211 391.55022461 -307.8125 390.375 C-315.79204785 364.66544763 -319.32633253 338.33690507 -320.1875 311.5 C-320.23003906 310.22125 -320.27257812 308.9425 -320.31640625 307.625 C-320.79496332 277.50780865 -316.3048248 247.44453492 -308.1875 218.5 C-307.95836914 217.68015625 -307.72923828 216.8603125 -307.49316406 216.015625 C-297.31782995 180.33549842 -280.27786525 141.14371493 -254.75 113.6875 C-252.16494859 110.78719842 -251.38026843 108.45175289 -251.1875 104.5 C-250.5275 105.16 -249.8675 105.82 -249.1875 106.5 C-248.8575 105.84 -248.5275 105.18 -248.1875 104.5 C-247.5275 104.5 -246.8675 104.5 -246.1875 104.5 C-245.9503125 103.94828125 -245.713125 103.3965625 -245.46875 102.828125 C-243.87504857 99.93225289 -241.89832727 97.70487963 -239.6875 95.25 C-238.8934375 94.35796875 -238.099375 93.4659375 -237.28125 92.546875 C-235.1875 90.5 -235.1875 90.5 -233.1875 90.5 C-232.92573975 89.90920654 -232.66397949 89.31841309 -232.39428711 88.7097168 C-231.12005931 86.37651108 -229.8165495 84.95195725 -227.87890625 83.14453125 C-226.8892688 82.21664795 -226.8892688 82.21664795 -225.87963867 81.27001953 C-225.17685791 80.62403809 -224.47407715 79.97805664 -223.75 79.3125 C-223.03368408 78.64847168 -222.31736816 77.98444336 -221.5793457 77.30029297 C-206.24395553 63.18548518 -206.24395553 63.18548518 -201.1875 61.5 C-201.1875 60.84 -201.1875 60.18 -201.1875 59.5 C-200.16527344 58.94183594 -199.14304687 58.38367188 -198.08984375 57.80859375 C-195.02111504 56.05558344 -192.2429748 54.08484575 -189.46069336 51.89819336 C-137.45778779 11.29481155 -64.58073313 -3.06934762 0 0 Z " fill="#1C4C5D" transform="translate(531.1875,207.5)"/>
<path d="M0 0 C1.11768768 0.00337372 2.23537537 0.00674744 3.38693237 0.01022339 C20.15100445 0.08342633 36.41808363 0.61231577 52.8125 4.4375 C53.8962793 4.68951172 54.98005859 4.94152344 56.09667969 5.20117188 C95.97838516 14.76727552 134.47163889 31.49990037 165.8125 58.4375 C166.88066127 59.32394089 167.94974602 60.20926964 169.01953125 61.09375 C181.48118391 71.48194243 192.78743178 82.66418032 202.8125 95.4375 C203.75258731 96.57898656 204.69546193 97.71818141 205.640625 98.85546875 C237.43168337 137.35265453 257.86616796 185.94473831 263.8125 235.4375 C263.9053125 236.12094482 263.998125 236.80438965 264.09375 237.50854492 C265.17662425 246.46256141 265.05636224 255.49445076 265.0625 264.5 C265.06351212 265.83416458 265.06351212 265.83416458 265.06454468 267.19528198 C265.01425737 309.03103144 255.48876455 350.49449891 235.79052734 387.57861328 C234.83030418 389.40366051 233.90595839 391.24309898 232.98828125 393.08984375 C227.55763978 403.84923041 220.76770319 413.61454934 213.8125 423.4375 C210.03113848 422.86295718 207.38083357 421.81331388 204.13671875 419.8046875 C203.23864502 419.25345215 202.34057129 418.7022168 201.4152832 418.13427734 C200.45323975 417.53309082 199.49119629 416.9319043 198.5 416.3125 C197.4896167 415.68939941 196.4792334 415.06629883 195.43823242 414.42431641 C192.22374706 412.43804565 189.01694927 410.43991698 185.8125 408.4375 C184.78930664 407.798125 183.76611328 407.15875 182.71191406 406.5 C178.67080762 403.97252811 174.63066912 401.44353348 170.59326172 398.91015625 C163.50151758 394.46785909 156.35310474 390.13162013 149.16577148 385.84619141 C140.60107202 380.73245412 132.13367792 375.46524832 123.65966797 370.203125 C99.63774207 355.30631758 75.48870715 340.62000919 51.23925781 326.09692383 C39.95086271 319.33154535 28.70647751 312.49410165 17.46191406 305.65625 C11.72100793 302.16546823 5.97774827 298.6785613 0.23452759 295.19158936 C-1.5824383 294.0883431 -3.39926437 292.98486692 -5.21606445 291.88134766 C-6.31909912 291.21151855 -7.42213379 290.54168945 -8.55859375 289.8515625 C-9.52724365 289.2632666 -10.49589355 288.6749707 -11.49389648 288.06884766 C-12.82723022 287.26133057 -12.82723022 287.26133057 -14.1875 286.4375 C-15.02547119 285.85145996 -15.86344238 285.26541992 -16.72680664 284.66162109 C-19.11259592 283.21959199 -19.11259592 283.21959199 -21.74487305 283.5925293 C-24.24586912 284.45769146 -26.0980525 285.4518463 -28.26953125 286.95703125 C-29.02854736 287.47869873 -29.78756348 288.00036621 -30.56958008 288.5378418 C-31.37161865 289.102854 -32.17365723 289.66786621 -33 290.25 C-33.83877686 290.83241455 -34.67755371 291.4148291 -35.54174805 292.01489258 C-44.24580247 298.09810612 -52.69629287 304.51352476 -61.15527344 310.93017578 C-63.05295513 312.36170222 -64.96212364 313.77637002 -66.875 315.1875 C-67.72155151 315.83368286 -67.72155151 315.83368286 -68.58520508 316.49291992 C-71.99556936 318.98401796 -73.99690591 319.93176738 -78.1875 319.4375 C-81.00805664 318.06738281 -81.00805664 318.06738281 -84.09765625 316.140625 C-84.93697945 315.62397781 -84.93697945 315.62397781 -85.79325867 315.09689331 C-87.61856373 313.97039721 -89.43400282 312.82892794 -91.25 311.6875 C-92.52626596 310.89705881 -93.80329218 310.10784392 -95.08105469 309.31982422 C-97.62797453 307.74797 -100.17190432 306.17146269 -102.71337891 304.59082031 C-107.09464409 301.8698381 -111.51012411 299.20766747 -115.9375 296.5625 C-116.70521729 296.10222412 -117.47293457 295.64194824 -118.26391602 295.16772461 C-123.34971474 292.12215022 -128.44685933 289.0958957 -133.546875 286.07421875 C-136.26047838 284.46624995 -138.97402691 282.85818866 -141.6875 281.25 C-142.36587921 280.84799377 -143.04425842 280.44598755 -143.74319458 280.03179932 C-157.07311854 272.12925797 -170.32953328 264.10917628 -183.55737305 256.03710938 C-184.42531494 255.50923828 -185.29325684 254.98136719 -186.1875 254.4375 C-187.0638208 253.87353516 -187.9401416 253.30957031 -188.84301758 252.72851562 C-191.17941264 251.1963183 -191.17941264 251.1963183 -194.1875 251.4375 C-205.33122769 270.54103319 -204.30085013 295.86771136 -200.6875 317.0625 C-199.27082933 325.40474517 -198.78826995 333.60111 -198.6875 342.0625 C-198.65720703 343.20541504 -198.62691406 344.34833008 -198.59570312 345.52587891 C-198.58564527 363.29559306 -205.64854063 380.31612678 -211.4375 396.875 C-212.39406502 399.63007134 -213.34864171 402.38581769 -214.30169678 405.1421051 C-214.88799752 406.83577348 -215.47661867 408.52864099 -216.06793213 410.2205658 C-216.33200867 410.97978836 -216.59608521 411.73901093 -216.86816406 412.52124023 C-217.09957092 413.18341049 -217.33097778 413.84558075 -217.56939697 414.52781677 C-220.94895058 424.96924249 -217.85119585 433.88227566 -213.21386719 443.4453125 C-211.55718919 446.68670703 -209.82510566 449.88204524 -208.0546875 453.0625 C-203.1875 461.86009414 -203.1875 461.86009414 -203.1875 465.4375 C-208.86922063 466.43429309 -212.70936367 466.78699838 -218.1875 464.4375 C-220.34464852 462.02803385 -221.80175122 459.34732143 -223.3125 456.5 C-223.95251953 455.35072021 -223.95251953 455.35072021 -224.60546875 454.17822266 C-232.1832244 440.39864177 -237.70620272 428.87695339 -233.3125 413.1875 C-232.34868253 409.9747751 -231.35644613 406.85027973 -230.0859375 403.74609375 C-228.7165682 400.22741003 -228.44067036 397.10023338 -229.1875 393.4375 C-230.37016886 391.11732893 -230.37016886 391.11732893 -231.91796875 388.7890625 C-246.24313648 365.68798283 -254.59091669 338.06915583 -259.1875 311.4375 C-259.34976074 310.52548828 -259.51202148 309.61347656 -259.67919922 308.67382812 C-265.48527246 274.52045613 -263.59343719 238.29245946 -255.625 204.6875 C-255.42753174 203.8524292 -255.23006348 203.0173584 -255.02661133 202.15698242 C-254.43359375 199.890625 -254.43359375 199.890625 -253.1875 196.4375 C-250.1875 195.4375 -250.1875 195.4375 -248.31591797 196.1875 C-247.61096191 196.6 -246.90600586 197.0125 -246.1796875 197.4375 C-245.37144531 197.90438232 -244.56320312 198.37126465 -243.73046875 198.85229492 C-242.85003906 199.3754126 -241.96960938 199.89853027 -241.0625 200.4375 C-240.13308594 200.97930908 -239.20367187 201.52111816 -238.24609375 202.0793457 C-230.13877792 206.82409039 -222.08936406 211.66841683 -214.0456543 216.52001953 C-206.63247826 220.98831237 -199.18022855 225.38370808 -191.70407104 229.74526978 C-177.94073803 237.7759283 -164.29815454 245.99187568 -150.69775391 254.29492188 C-144.73989262 257.93217341 -138.77726901 261.56158947 -132.8125 265.1875 C-132.22856476 265.54257629 -131.64462952 265.89765259 -131.04299927 266.26348877 C-122.36580128 271.53747067 -113.65670797 276.75453264 -104.88745117 281.87426758 C-100.53707555 284.42117629 -96.24027304 287.02084402 -92.00390625 289.75390625 C-90.76858154 290.5420874 -90.76858154 290.5420874 -89.50830078 291.34619141 C-87.96401681 292.33679848 -86.42906616 293.34217143 -84.90576172 294.36474609 C-81.08609116 296.91594051 -81.08609116 296.91594051 -76.67578125 297.08984375 C-73.13024029 294.73542644 -69.77336483 292.20418979 -66.4375 289.5625 C-60.49429386 284.93332082 -54.48577996 280.44302527 -48.3125 276.125 C-47.60617432 275.63088623 -46.89984863 275.13677246 -46.17211914 274.62768555 C-44.81004765 273.67540131 -43.44783024 272.72332573 -42.08544922 271.77148438 C-34.41806235 266.53751262 -34.41806235 266.53751262 -27.26953125 260.66015625 C-25.1875 259.4375 -25.1875 259.4375 -22.3828125 259.48046875 C-18.4984267 260.64388503 -15.40701208 262.52837618 -12.0625 264.75 C-10.63791876 265.66853048 -9.21207858 266.58511061 -7.78515625 267.5 C-7.03637207 267.98210937 -6.28758789 268.46421875 -5.51611328 268.9609375 C-1.55857557 271.47039316 2.47237291 273.85529071 6.5 276.25 C13.27041585 280.28988827 19.99570959 284.39376916 26.6875 288.5625 C35.40398945 293.9878493 44.19055755 299.29011708 53 304.5625 C63.20396813 310.66975406 73.3830434 316.81365091 83.51904297 323.03320312 C89.08554257 326.44160271 94.665176 329.82854986 100.24291992 333.21850586 C104.89347921 336.04629981 109.5392643 338.88116073 114.171875 341.73828125 C115.00009766 342.24810547 115.82832031 342.75792969 116.68164062 343.28320312 C118.22879411 344.23637151 119.77445569 345.1919673 121.31835938 346.15039062 C124.12516995 347.87786217 126.67401417 349.39133806 129.8125 350.4375 C128.35894366 340.82908098 126.23344204 331.47607822 123.84765625 322.06054688 C122.17815626 315.14815899 121.12123363 308.56501674 121.8125 301.4375 C122.8125 300.4375 122.8125 300.4375 125.8984375 300.17578125 C132.15976941 300.2607704 138.23481153 301.7939758 144.31884766 303.15356445 C146.40918087 303.61869852 148.5028834 304.06511346 150.59765625 304.50976562 C165.05597574 307.64773363 177.33657761 311.85676209 189.0390625 321.21875 C194.051082 324.97333705 197.86537509 326.34496256 204.1796875 325.94921875 C212.88200752 324.25781827 219.49752939 316.81043995 224.6484375 310.015625 C227.72306191 305.36760125 229.83862347 301.30853526 229.3828125 295.640625 C227.77064919 289.41281605 223.1065673 284.75734406 219.01538086 279.98974609 C212.67246585 272.57510119 209.40020723 266.45070809 207.375 256.875 C205.71419975 249.2459764 202.92805875 244.35919628 197.3125 239 C190.1488362 232.14864573 187.14045061 222.58364346 183.8515625 213.45898438 C181.63766433 207.62757659 179.56751015 204.31500508 173.8125 201.4375 C172.41838473 201.40055189 171.02236715 201.42399512 169.62890625 201.48046875 C159.75302719 201.76867718 151.87428969 201.71800329 142.8125 197.4375 C141.30501822 196.80674151 139.7942671 196.18376906 138.28125 195.56640625 C134.14067354 193.87360532 130.02494507 192.13051661 125.92089844 190.35107422 C124.2142405 189.61157515 122.50241318 188.88401371 120.7890625 188.16015625 C110.03480106 183.27027362 102.08581047 175.13266509 94.8828125 165.98046875 C85.632078 154.61777411 73.17538242 149.95646615 58.8125 148.4375 C41.44518865 147.07493385 24.60611524 149.88619414 7.8125 154.1875 C-8.09379639 157.99163396 -22.80474805 154.00940496 -37.8125 148.875 C-64.99454559 139.58112998 -88.00297181 144.2819404 -113.33984375 156.38671875 C-125.27027489 162.32925289 -135.14940397 170.62003523 -145.21850586 179.23901367 C-149.3625817 182.77716063 -153.59176967 186.19438119 -157.875 189.5625 C-158.47562256 190.0361499 -159.07624512 190.5097998 -159.69506836 190.99780273 C-164.63226845 194.85764007 -167.53085092 196.08827211 -173.796875 196.0390625 C-181.00621098 194.75998676 -187.07377849 190.28355867 -193.1875 186.4375 C-200.20560467 182.06153397 -207.2653131 177.78501034 -214.421875 173.640625 C-216.54323412 172.40621701 -218.66420715 171.17114749 -220.78515625 169.93603516 C-222.23924096 169.09254727 -223.6956914 168.25312647 -225.15429688 167.41748047 C-227.29211679 166.19093233 -229.42009433 164.94869078 -231.546875 163.703125 C-232.52790192 163.14833466 -232.52790192 163.14833466 -233.52874756 162.58233643 C-237.90489134 159.99251802 -237.90489134 159.99251802 -239.20898438 157.43139648 C-239.18227752 154.95281845 -238.59285405 153.48775013 -237.484375 151.26953125 C-236.88810303 150.06635254 -236.88810303 150.06635254 -236.27978516 148.83886719 C-235.83683105 147.98454102 -235.39387695 147.13021484 -234.9375 146.25 C-234.48294434 145.36086914 -234.02838867 144.47173828 -233.56005859 143.55566406 C-223.74598666 124.71989822 -210.92051604 107.58650961 -197.1875 91.4375 C-196.23617187 90.31794922 -196.23617187 90.31794922 -195.265625 89.17578125 C-184.29464554 76.65270586 -172.4281059 64.55212827 -159.1875 54.4375 C-158.25808594 53.67953125 -157.32867187 52.9215625 -156.37109375 52.140625 C-112.37180919 16.85128821 -55.88911466 -0.32873192 0 0 Z " fill="#22E7D9" transform="translate(512.1875,248.5625)"/>
<path d="M0 0 C3.29217141 0.812508 5.44256452 1.88139809 8.28295898 3.70800781 C9.23855713 4.31475342 10.19415527 4.92149902 11.17871094 5.54663086 C12.69791138 6.53143433 12.69791138 6.53143433 14.24780273 7.53613281 C16.40891912 8.91297177 18.57038386 10.28926409 20.73217773 11.66503906 C21.81563477 12.35871582 22.8990918 13.05239258 24.01538086 13.76708984 C28.64691721 16.71709028 33.32097922 19.59619733 37.99780273 22.47363281 C45.29829795 26.98211909 52.56653528 31.53877579 59.81591797 36.12890625 C74.85804443 45.64880711 89.97520471 55.04887704 105.11914062 64.40576172 C111.17331603 68.14984562 117.20052917 71.93177045 123.18530273 75.78613281 C121.18530273 79.78613281 121.18530273 79.78613281 114.18530273 86.78613281 C138.44030273 87.28113281 138.44030273 87.28113281 163.18530273 87.78613281 C163.18530273 88.11613281 163.18530273 88.44613281 163.18530273 88.78613281 C120.28530273 88.78613281 77.38530273 88.78613281 33.18530273 88.78613281 C33.18530273 88.12613281 33.18530273 87.46613281 33.18530273 86.78613281 C32.6606543 86.56054688 32.13600586 86.33496094 31.59545898 86.10253906 C28.33175849 84.31993441 25.51734181 82.03831802 22.62280273 79.72363281 C22.00219971 79.23121094 21.38159668 78.73878906 20.7421875 78.23144531 C12.27043742 71.49322097 3.92695395 64.61007626 -4.31298828 57.59082031 C-6.66969988 55.58567464 -9.029598 53.62292103 -11.49438477 51.75097656 C-13.88931449 49.72294685 -15.3874623 47.800571 -17.06469727 45.16113281 C-17.56485352 44.38511719 -18.06500977 43.60910156 -18.58032227 42.80957031 C-21.86154768 37.4308527 -21.50710148 31.95054702 -20.81469727 25.78613281 C-18.00100418 17.34505357 -12.69491781 10.35674362 -6.81469727 3.78613281 C-6.19852539 3.01269531 -5.58235352 2.23925781 -4.94750977 1.44238281 C-2.81469727 -0.21386719 -2.81469727 -0.21386719 0 0 Z " fill="#22E6D8" transform="translate(575.814697265625,626.2138671875)"/>
<path d="M0 0 C0.33 0 0.66 0 1 0 C1.06731323 1.04172363 1.06731323 1.04172363 1.13598633 2.10449219 C1.35026365 5.32051987 1.5813072 8.53514575 1.8125 11.75 C1.88275391 12.84183594 1.95300781 13.93367187 2.02539062 15.05859375 C3.1383439 30.105722 6.72390623 42.44304103 17.1875 53.6875 C24.14563673 61.25362926 25.51305994 67.49935907 25.203125 77.73828125 C24.60153257 87.39846743 24.60153257 87.39846743 23 89 C21.56565866 89.15002082 20.124223 89.23311708 18.68310547 89.28808594 C17.30564651 89.34122955 17.30564651 89.34122955 15.90036011 89.39544678 C11.6767782 89.51927607 7.45333069 89.61006135 3.22851562 89.6796875 C1.00301995 89.72634903 -1.22213448 89.79451766 -3.44628906 89.88476562 C-22.02679565 90.62599453 -22.02679565 90.62599453 -26.91088867 86.60131836 C-28.73828125 83.63671875 -28.73828125 83.63671875 -29.91137695 80.66674805 C-31.66695558 76.36619068 -35.03342347 75.023599 -39 73 C-47.49907707 67.54776188 -47.49907707 67.54776188 -48.65234375 63.984375 C-49.26834472 59.15762768 -49.20040613 55.88814262 -46.34765625 51.671875 C-41.53771959 45.70476517 -35.69938161 40.99776112 -29.74609375 36.2109375 C-28.83988281 35.48132813 -27.93367188 34.75171875 -27 34 C-26.01773437 33.23945312 -25.03546875 32.47890625 -24.0234375 31.6953125 C-20.48972118 28.73433919 -17.88507723 25.21413979 -15.1875 21.5 C-14.67340576 20.80455078 -14.15931152 20.10910156 -13.62963867 19.39257812 C-9.50284523 13.7784502 -5.53670985 8.05990796 -1.64453125 2.28125 C-0.83048828 1.15203125 -0.83048828 1.15203125 0 0 Z " fill="#22E7DA" transform="translate(397,626)"/>
<path d="M0 0 C0.33 0 0.66 0 1 0 C1.01981934 0.68811768 1.03963867 1.37623535 1.06005859 2.08520508 C1.77362468 25.776782 3.90184264 47.43655542 10.1796875 70.3203125 C13.9157445 84.12010273 14 96.64166882 14 111 C46.67 111 79.34 111 113 111 C113 111.33 113 111.66 113 112 C99.93492579 112.15390643 86.86980037 112.30208719 73.80457878 112.4429636 C67.73784709 112.50855826 61.67115068 112.57612314 55.60449219 112.64819336 C49.74958795 112.71767546 43.89464762 112.78197867 38.03964615 112.84269524 C35.80613262 112.8667663 33.57263837 112.89270174 31.33916855 112.92053413 C28.21035526 112.95920505 25.08153896 112.99124021 21.95263672 113.02172852 C21.02978378 113.03467453 20.10693085 113.04762054 19.15611267 113.06095886 C14.64135397 113.097997 10.44271487 112.92722437 6 112 C5.05125 111.814375 4.1025 111.62875 3.125 111.4375 C2.42375 111.293125 1.7225 111.14875 1 111 C0.84144531 110.19175781 0.68289063 109.38351562 0.51953125 108.55078125 C0.28621094 107.48214844 0.05289062 106.41351562 -0.1875 105.3125 C-0.40792969 104.25675781 -0.62835938 103.20101562 -0.85546875 102.11328125 C-3.59544784 94.66016407 -10.45232238 91.89044826 -17.1171875 88.5703125 C-23.13608999 85.39051496 -26.78838307 81.63485078 -29 75 C-31.43992083 50.56990659 -19.19651902 23.47016208 -4.125 4.75 C-2.78250882 3.13901059 -1.41757131 1.54533525 0 0 Z " fill="#22E3D7" transform="translate(495,603)"/>
<path d="M0 0 C0.66 0.33 1.32 0.66 2 1 C1.35675781 1.77859375 0.71351563 2.5571875 0.05078125 3.359375 C-8.10803696 13.39828868 -15.15820548 24.03127 -22 35 C-22.45793945 35.7312207 -22.91587891 36.46244141 -23.38769531 37.21582031 C-31.25653596 49.8800112 -37.97073597 63.20806356 -43.66015625 76.9921875 C-45 80 -45 80 -47 82 C-46.47437979 77.09267114 -45.45402007 73.23016681 -43.33203125 68.78125 C-42.77547852 67.61279541 -42.21892578 66.44434082 -41.64550781 65.24047852 C-41.03577532 63.99303073 -40.42474215 62.74621797 -39.8125 61.5 C-39.34789368 60.54491043 -39.34789368 60.54491043 -38.87390137 59.57052612 C-28.65921544 38.63120501 -16.62062517 16.62062517 0 0 Z " fill="#163443" transform="translate(281,316)"/>
<path d="M0 0 C0.33 0 0.66 0 1 0 C1 18.48 1 36.96 1 56 C0.34 55.67 -0.32 55.34 -1 55 C-1.88110074 39.64367275 -2.35040202 24.43419471 -1.5625 9.0625 C-1.52334473 8.27407715 -1.48418945 7.4856543 -1.44384766 6.67333984 C-1.12239277 1.12239277 -1.12239277 1.12239277 0 0 Z " fill="#173544" transform="translate(213,484)"/>
<path d="M0 0 C4.25420435 1.50864956 5.50681936 4.07520041 7.625 7.9375 C7.96273437 8.55085205 8.30046875 9.1642041 8.6484375 9.79614258 C9.38495031 11.14157935 10.1154874 12.49030015 10.84082031 13.84179688 C12.03412067 16.06352712 13.24726287 18.27371941 14.4609375 20.484375 C30 49.09855143 30 49.09855143 30 56 C29.34 56 28.68 56 28 56 C27.7097998 55.31301025 27.41959961 54.62602051 27.12060547 53.91821289 C20.09480592 37.4074471 12.38298866 21.8175364 3.32177734 6.32055664 C2.13867843 4.24346851 1.04449857 2.14943548 0 0 Z " fill="#143342" transform="translate(764,346)"/>
<path d="M0 0 C3.73724331 1.50493019 5.58268345 3.61662432 8.0625 6.75 C8.84625 7.73613281 9.63 8.72226562 10.4375 9.73828125 C10.85257813 10.26760254 11.26765625 10.79692383 11.6953125 11.34228516 C13.03477944 13.0441902 14.39077035 14.73181764 15.75 16.41796875 C28.53323078 32.35535899 28.53323078 32.35535899 32 39 C31.67 39.99 31.34 40.98 31 42 C30.26136719 40.93523437 29.52273438 39.87046875 28.76171875 38.7734375 C20.24396932 26.55994696 11.56632805 14.5496724 1.36328125 3.671875 C0 2 0 2 0 0 Z " fill="#143342" transform="translate(732,303)"/>
<path d="M0 0 C8.11074612 2.31735603 12.34826081 5.96030425 16.8984375 12.87890625 C18 15 18 15 18 18 C-11.7 17.505 -11.7 17.505 -42 17 C-42 16.67 -42 16.34 -42 16 C-13.785 15.505 -13.785 15.505 15 15 C10.75436815 7.58712606 10.75436815 7.58712606 4.6875 3.5625 C3.11785436 2.72153657 1.5529276 1.87144869 0 1 C0 0.67 0 0.34 0 0 Z " fill="#13202E" transform="translate(354,697)"/>
<path d="M0 0 C1.74833132 3.49666264 2.25892916 4.68364473 2.4140625 8.30859375 C2.45305664 9.13230469 2.49205078 9.95601563 2.53222656 10.8046875 C2.5628418 11.67351562 2.59345703 12.54234375 2.625 13.4375 C2.66077148 14.32824219 2.69654297 15.21898437 2.73339844 16.13671875 C2.83281636 18.75756467 2.9169435 21.37859333 3 24 C3.02868164 24.70656738 3.05736328 25.41313477 3.08691406 26.14111328 C3.15846845 27.9268028 3.20528511 29.71343691 3.25 31.5 C3.27578125 32.4796875 3.3015625 33.459375 3.328125 34.46875 C3 37 3 37 0 41 C0 27.47 0 13.94 0 0 Z " fill="#183A4B" transform="translate(812,481)"/>
<path d="M0 0 C2.08337324 1.98812687 3.77982015 3.98125659 5.3828125 6.37109375 C6.04410156 7.34804199 6.04410156 7.34804199 6.71875 8.34472656 C7.41484375 9.38064941 7.41484375 9.38064941 8.125 10.4375 C12.88850872 17.45221238 17.85015735 24.2622892 23 31 C23.52207031 31.7528125 24.04414063 32.505625 24.58203125 33.28125 C26.48605662 35.58915953 28.09809064 35.68628007 31 36 C31 36.33 31 36.66 31 37 C27.89453125 37.47265625 27.89453125 37.47265625 24 37 C21.39837525 34.8489403 19.60330808 32.1982043 17.6875 29.4375 C17.13352539 28.67405273 16.57955078 27.91060547 16.00878906 27.12402344 C14.31243052 24.76704968 12.65334631 22.38728766 11 20 C10.48840332 19.27506348 9.97680664 18.55012695 9.44970703 17.80322266 C8.0348591 15.79530789 6.6372746 13.77704336 5.25 11.75 C4.83194092 11.14341553 4.41388184 10.53683105 3.9831543 9.91186523 C1.81270826 6.64220367 0.44214898 3.92038764 0 0 Z " fill="#173341" transform="translate(260,677)"/>
<path d="M0 0 C0.99 0.33 1.98 0.66 3 1 C2.41734375 1.51046875 1.8346875 2.0209375 1.234375 2.546875 C-8.63886935 11.30239358 -18.28022007 20.23579981 -26 31 C-26.33 30.34 -26.66 29.68 -27 29 C-25.02678238 25.07363139 -22.36374693 21.94156372 -19.4375 18.6875 C-18.65246094 17.80449219 -17.86742187 16.92148437 -17.05859375 16.01171875 C-15 14 -15 14 -13 14 C-12.78601563 13.44828125 -12.57203125 12.8965625 -12.3515625 12.328125 C-10.546489 9.21880764 -8.05199936 7.08727863 -5.375 4.75 C-4.859375 4.29109375 -4.34375 3.8321875 -3.8125 3.359375 C-2.5465398 2.23407704 -1.27392058 1.11627823 0 0 Z " fill="#153140" transform="translate(311,284)"/>
<path d="M0 0 C0 3 0 3 -2 9 C12.52 9 27.04 9 42 9 C42 9.33 42 9.66 42 10 C25.17 10 8.34 10 -9 10 C-3 3 -3 3 0 0 Z " fill="#0F1826" transform="translate(698,704)"/>
<path d="M0 0 C4.00457952 1.60753905 6.71760368 4.41345876 9.6875 7.4375 C10.21641846 7.97173584 10.74533691 8.50597168 11.2902832 9.05639648 C15.39116308 13.25516713 19.17412448 17.64926012 22.81640625 22.25390625 C24.37054367 24.20839391 25.96658669 26.12987132 27.58984375 28.02734375 C28.42644531 29.00832031 29.26304687 29.98929687 30.125 31 C30.89070312 31.886875 31.65640625 32.77375 32.4453125 33.6875 C32.95835937 34.450625 33.47140625 35.21375 34 36 C33.67 36.99 33.34 37.98 33 39 C32.39414062 38.18917969 31.78828125 37.37835938 31.1640625 36.54296875 C25.4602047 28.97958205 19.44688435 21.94697993 13 15 C8.5990853 10.05877498 4.29746223 5.0311753 0 0 Z " fill="#24EEED" transform="translate(690,319)"/>
<path d="M0 0 C-0.589021 0.33209473 -1.17804199 0.66418945 -1.78491211 1.00634766 C-4.50446784 2.54234123 -7.22098421 4.08363692 -9.9375 5.625 C-10.86369141 6.14707031 -11.78988281 6.66914063 -12.74414062 7.20703125 C-18.0689926 10.23378922 -23.20830909 13.39476301 -28.22485352 16.91162109 C-30 18 -30 18 -32 18 C-32 17.34 -32 16.68 -32 16 C-29.98730564 14.5256555 -27.98985846 13.18907061 -25.875 11.875 C-24.93841553 11.2864624 -24.93841553 11.2864624 -23.98291016 10.68603516 C-21.99522403 9.44627996 -19.99881765 8.22171446 -18 7 C-17.34902344 6.5978125 -16.69804687 6.195625 -16.02734375 5.78125 C-14.15237149 4.62975189 -12.2666365 3.49886948 -10.375 2.375 C-8.68503906 1.36566406 -8.68503906 1.36566406 -6.9609375 0.3359375 C-3.75381368 -1.11107615 -3.16507056 -1.01755699 0 0 Z " fill="#183545" transform="translate(374,243)"/>
<path d="M0 0 C0.33 0 0.66 0 1 0 C2.02008333 5.28588635 2.23975423 7.8352673 -0.06665039 12.82543945 C-2.53432369 18.5747374 -4.21947484 24.6813334 -6.12695312 30.63476562 C-6.63838867 32.20194336 -6.63838867 32.20194336 -7.16015625 33.80078125 C-7.46574463 34.75122314 -7.77133301 35.70166504 -8.08618164 36.6809082 C-9 39 -9 39 -11 41 C-9.34769895 33.00286291 -7.01149002 25.31273602 -4.56640625 17.52734375 C-2.7645015 11.71948765 -1.23059644 5.95608677 0 0 Z " fill="#161728" transform="translate(313,601)"/>
<path d="M0 0 C4.48765418 0.88509561 7.39889499 3.42335834 10.875 6.25 C11.47441406 6.72824219 12.07382812 7.20648438 12.69140625 7.69921875 C16.50259186 10.74982068 20.25830366 13.86475597 24 17 C23.67 17.99 23.34 18.98 23 20 C22.42894531 19.46632813 21.85789062 18.93265625 21.26953125 18.3828125 C15.76315116 13.32289566 10.10785347 8.65803895 4.11645508 4.18798828 C2.72845955 3.14610497 1.36185698 2.07582432 0 1 C0 0.67 0 0.34 0 0 Z " fill="#143141" transform="translate(692,268)"/>
<path d="M0 0 C0.99 0.33 1.98 0.66 3 1 C0.12773012 3.25350243 -2.74829829 5.50215866 -5.625 7.75 C-6.43324219 8.38421875 -7.24148438 9.0184375 -8.07421875 9.671875 C-12.28546196 12.95869897 -16.50144497 16.11743076 -21 19 C-19.50198648 15.38522825 -17.42462583 13.31379537 -14.5 10.75 C-13.7059375 10.04359375 -12.911875 9.3371875 -12.09375 8.609375 C-10 7 -10 7 -8 7 C-8 6.34 -8 5.68 -8 5 C-6.20963542 3.99088542 -4.41927083 2.98177083 -2.62890625 1.97265625 C-1.02121854 1.1027487 -1.02121854 1.1027487 0 0 Z " fill="#163342" transform="translate(338,262)"/>
<path d="M0 0 C0.495 1.485 0.495 1.485 1 3 C-0.57300414 5.36097631 -2.15210242 7.49902461 -3.9375 9.6875 C-4.41896484 10.29400391 -4.90042969 10.90050781 -5.39648438 11.52539062 C-6.58849658 13.02425746 -7.79308951 14.51310325 -9 16 C-9.33 15.34 -9.66 14.68 -10 14 C-18.58 14 -27.16 14 -36 14 C-36 13.67 -36 13.34 -36 13 C-35.22922119 13.03254883 -34.45844238 13.06509766 -33.66430664 13.09863281 C-18.53627439 14.47156716 -18.53627439 14.47156716 -5.203125 9.26171875 C-2.91168424 6.4436999 -1.33109874 3.3812968 0 0 Z " fill="#1D4555" transform="translate(750,699)"/>
<path d="M0 0 C2.188364 2.188364 2.71634548 3.5772348 3.7265625 6.46484375 C4.0359375 7.34720703 4.3453125 8.22957031 4.6640625 9.13867188 C5.13972656 10.5240918 5.13972656 10.5240918 5.625 11.9375 C5.94984375 12.85724609 6.2746875 13.77699219 6.609375 14.72460938 C9 21.61021205 9 21.61021205 9 25 C8.34 25 7.68 25 7 25 C6.67386719 24.00097656 6.34773437 23.00195312 6.01171875 21.97265625 C5.57093452 20.66906034 5.12949414 19.36568617 4.6875 18.0625 C4.47416016 17.40314453 4.26082031 16.74378906 4.04101562 16.06445312 C3.44958907 14.34313703 2.73136173 12.66668068 2 11 C1.01 10.67 0.02 10.34 -1 10 C-0.835 9.278125 -0.67 8.55625 -0.5 7.8125 C-0.02412881 5.13572455 0.077443 2.71050513 0 0 Z " fill="#163342" transform="translate(227,605)"/>
<path d="M0 0 C3.19575521 2.67122396 4.69571228 6.12423554 6.4375 9.8125 C8.64956871 14.47027165 11.05417068 18.77224935 14 23 C13.67 23.66 13.34 24.32 13 25 C9.75177521 22.22312644 7.87816944 18.60938618 5.8125 14.9375 C5.26045898 13.98133789 5.26045898 13.98133789 4.69726562 13.00585938 C2 8.25687036 2 8.25687036 2 6 C1.01 6 0.02 6 -1 6 C-0.67 4.02 -0.34 2.04 0 0 Z " fill="#163140" transform="translate(245,650)"/>
<path d="M0 0 C3.9375 3.5390625 3.9375 3.5390625 4.5 7.6875 C4.27777575 12.60421144 2.2347207 16.6901815 0 21 C-1.435527 18.12894601 -0.5383086 16.14075224 0 13 C0.06522873 10.70916711 0.0858841 8.41664206 0.0625 6.125 C0.05347656 4.97257813 0.04445313 3.82015625 0.03515625 2.6328125 C0.02355469 1.76398437 0.01195312 0.89515625 0 0 Z " fill="#183342" transform="translate(280,638)"/>
<path d="M0 0 C0.33 0 0.66 0 1 0 C1.55048791 8.66508753 -0.11918875 16.60352122 -2 25 C-2.66 25 -3.32 25 -4 25 C-3.24595285 16.55467195 -1.62171958 8.31258777 0 0 Z " fill="#163242" transform="translate(809,558)"/>
<path d="M0 0 C3.05402088 1.52701044 3.65869481 3.95157912 5 7 C5 7.99 5 8.98 5 10 C-0.79141983 11.01603857 -4.4584498 10.96263236 -10 9 C-9.67 8.34 -9.34 7.68 -9 7 C-5.37 7 -1.74 7 2 7 C1.34 5.68 0.68 4.36 0 3 C0 2.01 0 1.02 0 0 Z " fill="#27DED5" transform="translate(304,704)"/>
<path d="M0 0 C0.90084214 2.4540301 1.18479756 3.56934498 0.13549805 6.01464844 C-0.31784912 6.7059082 -0.77119629 7.39716797 -1.23828125 8.109375 C-1.72876953 8.86347656 -2.21925781 9.61757813 -2.72460938 10.39453125 C-3.51061523 11.56048828 -3.51061523 11.56048828 -4.3125 12.75 C-4.82490234 13.54277344 -5.33730469 14.33554687 -5.86523438 15.15234375 C-8.69809171 19.44410414 -8.69809171 19.44410414 -10 21 C-10.66 21 -11.32 21 -12 21 C-10.64517553 18.2250583 -9.18798865 15.54890386 -7.6171875 12.890625 C-7.17246094 12.13652344 -6.72773437 11.38242187 -6.26953125 10.60546875 C-5.57923828 9.43951172 -5.57923828 9.43951172 -4.875 8.25 C-4.40707031 7.45722656 -3.93914063 6.66445313 -3.45703125 5.84765625 C-2.30587205 3.89773352 -1.15349193 1.94854339 0 0 Z " fill="#152F3D" transform="translate(771,666)"/>
<path d="M0 0 C3.36415551 1.26705319 6.37031789 2.71113193 9.42578125 4.6015625 C10.22177734 5.09140625 11.01777344 5.58125 11.83789062 6.0859375 C12.65451172 6.59382812 13.47113281 7.10171875 14.3125 7.625 C15.14845703 8.140625 15.98441406 8.65625 16.84570312 9.1875 C18.89931199 10.45487004 20.95063341 11.72578573 23 13 C22.01 13.495 22.01 13.495 21 14 C18.49416709 12.60622312 16.09800364 11.16919299 13.6875 9.625 C7.7801753 5.7454791 7.7801753 5.7454791 1 4 C0.67 2.68 0.34 1.36 0 0 Z " fill="#162537" transform="translate(688,651)"/>
<path d="M0 0 C7.08703739 0.54515672 13.32796106 2.60918605 20 5 C20 5.99 20 6.98 20 8 C17.03842966 7.05147657 14.08139269 6.08952872 11.125 5.125 C10.28324219 4.85558594 9.44148437 4.58617187 8.57421875 4.30859375 C7.76855469 4.04433594 6.96289062 3.78007812 6.1328125 3.5078125 C5.38918457 3.26691895 4.64555664 3.02602539 3.87939453 2.77783203 C2 2 2 2 0 0 Z " fill="#163747" transform="translate(599,221)"/>
<path d="M0 0 C0.928125 0.2784375 0.928125 0.2784375 1.875 0.5625 C4.04160178 1.23686176 4.04160178 1.23686176 6 0 C6.33 0.99 6.66 1.98 7 3 C9.32162189 4.60864828 9.32162189 4.60864828 12.0625 6.0625 C14.84765625 7.59765625 14.84765625 7.59765625 17 9 C17 9.66 17 10.32 17 11 C12.99624358 9.5143761 9.38578153 7.63136615 5.6875 5.5 C4.61886719 4.8915625 3.55023437 4.283125 2.44921875 3.65625 C1.23685547 2.83640625 1.23685547 2.83640625 0 2 C0 1.34 0 0.68 0 0 Z " fill="#153545" transform="translate(663,248)"/>
<path d="M0 0 C0.66 0.33 1.32 0.66 2 1 C-1.63 4.96 -5.26 8.92 -9 13 C-9.33 12.01 -9.66 11.02 -10 10 C-10.33 10 -10.66 10 -11 10 C-11 8.35 -11 6.7 -11 5 C-10.34 5.66 -9.68 6.32 -9 7 C-8.67 6.34 -8.34 5.68 -8 5 C-7.34 5.33 -6.68 5.66 -6 6 C-5.195625 5.195625 -4.39125 4.39125 -3.5625 3.5625 C-2.375 2.375 -1.1875 1.1875 0 0 Z " fill="#1F5466" transform="translate(291,307)"/>
<path d="M0 0 C3.83797544 1.56361962 6.1667627 4.02510083 9 7 C9.763125 7.763125 10.52625 8.52625 11.3125 9.3125 C11.869375 9.869375 12.42625 10.42625 13 11 C12.67 11.99 12.34 12.98 12 14 C9.99387601 12.04761147 7.99507567 10.08862178 6 8.125 C5.42765625 7.56941406 4.8553125 7.01382812 4.265625 6.44140625 C2.80549218 4.99865596 1.39850702 3.5025626 0 2 C0 1.34 0 0.68 0 0 Z " fill="#173646" transform="translate(717,288)"/>
<path d="M0 0 C0 0.33 0 0.66 0 1 C-1.65 1.33 -3.3 1.66 -5 2 C-5 2.33 -5 2.66 -5 3 C-11.43311296 3.09507063 -17.65758005 3.15316726 -24 2 C-24 1.67 -24 1.34 -24 1 C-15.98866917 0.40891367 -8.03770278 -0.14101233 0 0 Z " fill="#173A4A" transform="translate(552,208)"/>
<path d="M0 0 C3.69876091 1.37287342 6.9514476 3.06355453 10.3125 5.125 C11.19550781 5.66382813 12.07851563 6.20265625 12.98828125 6.7578125 C13.65214844 7.16773438 14.31601562 7.57765625 15 8 C12.10765685 8.82638376 10.11257569 9 7 9 C6.95875 8.4225 6.9175 7.845 6.875 7.25 C5.56544153 3.88256394 2.99617216 2.84870197 0 1 C0 0.67 0 0.34 0 0 Z " fill="#162D3C" transform="translate(419,559)"/>
<path d="M0 0 C0.33 0 0.66 0 1 0 C2.18393001 6.13491005 1.96520702 9.28923092 -1 15 C-1.5878125 16.2065625 -1.5878125 16.2065625 -2.1875 17.4375 C-2.455625 17.953125 -2.72375 18.46875 -3 19 C-4.35949488 14.92151537 -3.14486103 11.82319055 -2.0625 7.8125 C-1.86720703 7.06291016 -1.67191406 6.31332031 -1.47070312 5.54101562 C-0.98785625 3.69206541 -0.49489367 1.84576224 0 0 Z " fill="#172838" transform="translate(313,601)"/>
<path d="M0 0 C0.66 0 1.32 0 2 0 C1.36934845 5.7809725 0.34844868 11.3443706 -1 17 C-1.33 17 -1.66 17 -2 17 C-2.21824777 10.9981863 -1.5056904 5.80766296 0 0 Z " fill="#143040" transform="translate(220,437)"/>
<path d="M0 0 C0.66 0 1.32 0 2 0 C3.35545024 6.40758294 3.35545024 6.40758294 1.6875 9.1875 C1.130625 9.785625 0.57375 10.38375 0 11 C-0.69097081 12.3209018 -1.36136708 13.6530144 -2 15 C-1.85816304 13.24967156 -1.71136571 11.49974466 -1.5625 9.75 C-1.48128906 8.77546875 -1.40007813 7.8009375 -1.31640625 6.796875 C-1.04925416 4.43538247 -0.64628032 2.28098935 0 0 Z " fill="#182B3B" transform="translate(773,560)"/>
<path d="M0 0 C3.85025879 0.60355408 6.86101159 1.76772603 10.3125 3.5625 C11.19550781 4.01753906 12.07851563 4.47257813 12.98828125 4.94140625 C13.65214844 5.29074219 14.31601562 5.64007813 15 6 C15 6.66 15 7.32 15 8 C9.52067211 6.45454854 4.88570819 3.84456788 0 1 C0 0.67 0 0.34 0 0 Z " fill="#143041" transform="translate(647,240)"/>
<path d="M0 0 C0.33 0 0.66 0 1 0 C1.027193 1.58323688 1.04648306 3.16661062 1.0625 4.75 C1.07410156 5.63171875 1.08570313 6.5134375 1.09765625 7.421875 C1.00826198 9.7818838 0.66912821 11.74498524 0 14 C-0.66 14 -1.32 14 -2 14 C-2.05389087 12.04196493 -2.09274217 10.08351091 -2.125 8.125 C-2.14820313 7.03445313 -2.17140625 5.94390625 -2.1953125 4.8203125 C-2 2 -2 2 0 0 Z " fill="#22DCD3" transform="translate(776,494)"/>
<path d="M0 0 C0 3.38023517 -0.87455622 5.83468937 -2 9 C-3.98 9 -5.96 9 -8 9 C-7.04270084 7.87411986 -6.08412105 6.7493285 -5.125 5.625 C-4.59132813 4.99851562 -4.05765625 4.37203125 -3.5078125 3.7265625 C-2.38567993 2.44163349 -1.20628025 1.20628025 0 0 Z " fill="#182A3C" transform="translate(698,704)"/>
<path d="M0 0 C3.875 1.75 3.875 1.75 5 4 C5.99 4.66 6.98 5.32 8 6 C4.37 6 0.74 6 -3 6 C-2.67 5.01 -2.34 4.02 -2 3 C-1.34 3 -0.68 3 0 3 C0 2.01 0 1.02 0 0 Z " fill="#285D68" transform="translate(288,709)"/>
<path d="M0 0 C0.98464547 2.6078186 1.1236295 3.68962214 0.07421875 6.32421875 C-0.38339844 7.10410156 -0.84101562 7.88398437 -1.3125 8.6875 C-1.98732422 9.86892578 -1.98732422 9.86892578 -2.67578125 11.07421875 C-4 13 -4 13 -6 14 C-4.50829734 9.0276578 -2.39542583 4.58154261 0 0 Z " fill="#132C3C" transform="translate(784,641)"/>
<path d="M0 0 C0.33 0.99 0.66 1.98 1 3 C-0.65234375 5.48046875 -0.65234375 5.48046875 -2.9375 8.1875 C-3.68902344 9.08855469 -4.44054687 9.98960937 -5.21484375 10.91796875 C-5.80394531 11.60503906 -6.39304687 12.29210937 -7 13 C-7.66 12.67 -8.32 12.34 -9 12 C-6.03 8.04 -3.06 4.08 0 0 Z " fill="#132E3C" transform="translate(750,699)"/>
<path d="M0 0 C5.03985731 0.44469329 7.37634988 2.71343362 11 6 C10.34 6.66 9.68 7.32 9 8 C7.49712782 6.85793642 5.99776716 5.71125043 4.5 4.5625 C3.6646875 3.92441406 2.829375 3.28632813 1.96875 2.62890625 C1.3190625 2.09136719 0.669375 1.55382812 0 1 C0 0.67 0 0.34 0 0 Z " fill="#153445" transform="translate(681,260)"/>
<path d="M0 0 C0.33 0.99 0.66 1.98 1 3 C4.00847418 4.22520264 4.00847418 4.22520264 7 5 C6.01 5.66 5.02 6.32 4 7 C1.03 5.35 -1.94 3.7 -5 2 C-4.01 1.67 -3.02 1.34 -2 1 C-1.34 1.33 -0.68 1.66 0 2 C0 1.34 0 0.68 0 0 Z " fill="#1B404F" transform="translate(642,234)"/>
<path d="M0 0 C0 3.9765245 -1.38011503 5.0890167 -4 8 C-6.25 9.8125 -6.25 9.8125 -8 11 C-8.66 10.67 -9.32 10.34 -10 10 C-6.7 6.7 -3.4 3.4 0 0 Z " fill="#24F0EE" transform="translate(735,561)"/>
<path d="M0 0 C0.66 0.33 1.32 0.66 2 1 C1 4 1 4 -1.3125 5.75 C-4 7 -4 7 -8 6 C-5.36 4.02 -2.72 2.04 0 0 Z " fill="#182A3C" transform="translate(472,543)"/>
<path d="M0 0 C4.3177458 0.50797009 8.03302114 1.19682779 12 3 C12 3.66 12 4.32 12 5 C10.37276701 4.54965877 8.74826336 4.08944646 7.125 3.625 C5.76761719 3.24214844 5.76761719 3.24214844 4.3828125 2.8515625 C2 2 2 2 0 0 Z " fill="#173848" transform="translate(624,230)"/>
<path d="M0 0 C1.485 0.99 1.485 0.99 3 2 C3.40843923 4.71203652 3.13336867 7.2437142 3 10 C2.01 10.33 1.02 10.66 0 11 C0 7.37 0 3.74 0 0 Z " fill="#22DBD1" transform="translate(774,524)"/>
<path d="M0 0 C3.3 0.33 6.6 0.66 10 1 C6.00889681 2.9955516 4.30013434 3.19546065 0 3 C0 2.01 0 1.02 0 0 Z " fill="#1A3E4F" transform="translate(514,207)"/>
<path d="M0 0 C0.75 1.5625 0.75 1.5625 1 4 C-0.13084437 6.50286409 -1.52139516 8.67007722 -3 11 C-3.66 10.67 -4.32 10.34 -5 10 C-3.66511872 6.40608886 -2.03977277 3.24509304 0 0 Z " fill="#193A49" transform="translate(255,352)"/>
<path d="M0 0 C2.72426311 2.35277269 3.8141763 4.62496331 5 8 C4.01 8 3.02 8 2 8 C2 7.34 2 6.68 2 6 C1.01 6 0.02 6 -1 6 C-0.67 4.02 -0.34 2.04 0 0 Z " fill="#1A3D4B" transform="translate(245,650)"/>
<path d="M0 0 C0 3.10551666 -0.5393715 4.35261084 -2 7 C-2.66 7 -3.32 7 -4 7 C-4.66 8.32 -5.32 9.64 -6 11 C-5.55530671 5.96014269 -3.28656638 3.62365012 0 0 Z " fill="#25EEEC" transform="translate(489,611)"/>
<path d="M0 0 C1.32 0.66 2.64 1.32 4 2 C3.01 2.33 2.02 2.66 1 3 C-0.22969878 6.51190809 -0.22969878 6.51190809 -1 10 C-1.33 10 -1.66 10 -2 10 C-1.85950482 8.52031676 -1.71245174 7.04125484 -1.5625 5.5625 C-1.48128906 4.73878906 -1.40007812 3.91507812 -1.31640625 3.06640625 C-1 1 -1 1 0 0 Z " fill="#25ECEA" transform="translate(260,444)"/>
<path d="M0 0 C0 4.53846154 0 4.53846154 -1 7 C-3.5625 8.75 -3.5625 8.75 -6 10 C-4.6302836 6.00499382 -2.74277578 3.19990508 0 0 Z " fill="#1E5567" transform="translate(273,329)"/>
<path d="M0 0 C2.5 1.125 2.5 1.125 5 3 C5.3125 6.1875 5.3125 6.1875 5 9 C1.9083091 6.47043472 1.09068668 3.77545388 0 0 Z " fill="#17283B" transform="translate(402,661)"/>
<path d="M0 0 C0.66 0 1.32 0 2 0 C0.70700306 2.88437779 -0.65941363 4.87219421 -3 7 C-3.66 6.67 -4.32 6.34 -5 6 C-3.38405168 3.95880212 -1.7143618 1.95927063 0 0 Z " fill="#23EFE8" transform="translate(381,649)"/>
<path d="M0 0 C4.75 1.875 4.75 1.875 7 3 C6.34 4.32 5.68 5.64 5 7 C4.34 6.67 3.68 6.34 3 6 C3 5.01 3 4.02 3 3 C1.56249809 1.31201173 1.56249809 1.31201173 0 0 Z " fill="#25E9E9" transform="translate(692,699)"/>
<path d="M0 0 C0.75 1.75 0.75 1.75 1 4 C-0.9375 6.25 -0.9375 6.25 -3 8 C-3 4.42424104 -1.91159393 2.94704065 0 0 Z " fill="#16283B" transform="translate(741,648)"/>
<path d="M0 0 C0.33 0 0.66 0 1 0 C0.67 2.97 0.34 5.94 0 9 C-0.66 9 -1.32 9 -2 9 C-1.125 2.25 -1.125 2.25 0 0 Z " fill="#153140" transform="translate(800,599)"/>
<path d="M0 0 C2.31 0 4.62 0 7 0 C7 0.33 7 0.66 7 1 C4.69 1 2.38 1 0 1 C0 0.67 0 0.34 0 0 Z " fill="#275E6C" transform="translate(469,208)"/>
<path d="M0 0 C0.33 0 0.66 0 1 0 C1 1.65 1 3.3 1 5 C0.67 5 0.34 5 0 5 C0 3.35 0 1.7 0 0 Z " fill="#265D6C" transform="translate(815,492)"/>
<path d="M0 0 C0.99 0.495 0.99 0.495 2 1 C1.34 1.66 0.68 2.32 0 3 C0 2.01 0 1.02 0 0 Z " fill="#285C69" transform="translate(240,648)"/>
<path d="M0 0 C0.66 0.66 1.32 1.32 2 2 C1.01 2.495 1.01 2.495 0 3 C0 2.01 0 1.02 0 0 Z " fill="#275D6C" transform="translate(216,442)"/>
<path d="M0 0 C0 3 0 3 0 3 Z " fill="#255B68" transform="translate(241,374)"/>
<path d="M0 0 C0.99 0 1.98 0 3 0 C2.67 0.66 2.34 1.32 2 2 C1.34 1.34 0.68 0.68 0 0 Z " fill="#265966" transform="translate(730,298)"/>
<path d="M0 0 C0.99 0.495 0.99 0.495 2 1 C1.01 1.495 1.01 1.495 0 2 C0 1.34 0 0.68 0 0 Z " fill="#2FAFA8" transform="translate(417,716)"/>
<path d="" fill="#28606C" transform="translate(0,0)"/>
<path d="M0 0 C0.66 0 1.32 0 2 0 C1.67 0.66 1.34 1.32 1 2 C0.67 1.34 0.34 0.68 0 0 Z " fill="#265B69" transform="translate(234,635)"/>
<path d="M0 0 C0.66 0.66 1.32 1.32 2 2 C1.34 2 0.68 2 0 2 C0 1.34 0 0.68 0 0 Z " fill="#265C6A" transform="translate(232,632)"/>
<path d="" fill="#295C6A" transform="translate(0,0)"/>
<path d="M0 0 C0.66 0.66 1.32 1.32 2 2 C1.34 2 0.68 2 0 2 C0 1.34 0 0.68 0 0 Z " fill="#285A6A" transform="translate(404,224)"/>
<path d="M0 0 C0.99 0.495 0.99 0.495 2 1 C1.01 1.495 1.01 1.495 0 2 C0 1.34 0 0.68 0 0 Z " fill="#265C69" transform="translate(464,208)"/>
<path d="M0 0 C2 1 2 1 2 1 Z " fill="#2E888C" transform="translate(504,719)"/>
<path d="" fill="#2E6B75" transform="translate(0,0)"/>
<path d="" fill="#2E727A" transform="translate(0,0)"/>
<path d="M0 0 C2 1 2 1 2 1 Z " fill="#30707B" transform="translate(718,716)"/>
<path d="M0 0 C2 1 2 1 2 1 Z " fill="#32A29F" transform="translate(687,716)"/>
<path d="M0 0 C2 1 2 1 2 1 Z " fill="#2F727A" transform="translate(521,716)"/>
<path d="" fill="#2C6771" transform="translate(0,0)"/>
<path d="M0 0 C2 1 2 1 2 1 Z " fill="#285A66" transform="translate(751,703)"/>
<path d="" fill="#245B66" transform="translate(0,0)"/>
<path d="M0 0 C2 1 2 1 2 1 Z " fill="#285B67" transform="translate(224,608)"/>
<path d="" fill="#285A68" transform="translate(0,0)"/>
<path d="" fill="#285D6B" transform="translate(0,0)"/>
<path d="" fill="#255969" transform="translate(0,0)"/>
<path d="" fill="#285B6B" transform="translate(0,0)"/>
<path d="" fill="#2A5F6D" transform="translate(0,0)"/>
<path d="" fill="#245968" transform="translate(0,0)"/>
<path d="M0 0 C2 1 2 1 2 1 Z " fill="#285E6A" transform="translate(218,436)"/>
<path d="" fill="#235967" transform="translate(0,0)"/>
<path d="" fill="#27596A" transform="translate(0,0)"/>
<path d="" fill="#255B67" transform="translate(0,0)"/>
<path d="M0 0 C2 1 2 1 2 1 Z " fill="#285A69" transform="translate(265,333)"/>
<path d="" fill="#255A68" transform="translate(0,0)"/>
<path d="" fill="#265967" transform="translate(0,0)"/>
<path d="" fill="#2A5C6D" transform="translate(0,0)"/>
<path d="" fill="#255867" transform="translate(0,0)"/>
<path d="" fill="#255969" transform="translate(0,0)"/>
<path d="" fill="#255B69" transform="translate(0,0)"/>
<path d="" fill="#245A67" transform="translate(0,0)"/>
<path d="M0 0 C2 1 2 1 2 1 Z " fill="#275E6B" transform="translate(384,233)"/>
<path d="M0 0 C2 1 2 1 2 1 Z " fill="#2A5E6D" transform="translate(407,224)"/>
<path d="M0 0 C2 1 2 1 2 1 Z " fill="#255C6B" transform="translate(598,218)"/>
<path d="M0 0 C2 1 2 1 2 1 Z " fill="#275D6A" transform="translate(595,217)"/>
<path d="M0 0 C2 1 2 1 2 1 Z " fill="#295C6A" transform="translate(432,216)"/>
<path d="" fill="#111614" transform="translate(0,0)"/>
<path d="" fill="#0C1416" transform="translate(0,0)"/>
<path d="" fill="#2A636C" transform="translate(0,0)"/>
<path d="" fill="#319394" transform="translate(0,0)"/>
<path d="" fill="#2FBAB1" transform="translate(0,0)"/>
<path d="" fill="#2F7379" transform="translate(0,0)"/>
<path d="" fill="#31BCAF" transform="translate(0,0)"/>
<path d="" fill="#2DA4A1" transform="translate(0,0)"/>
<path d="" fill="#32ABA8" transform="translate(0,0)"/>
<path d="" fill="#2F777F" transform="translate(0,0)"/>
<path d="" fill="#328F93" transform="translate(0,0)"/>
<path d="" fill="#318589" transform="translate(0,0)"/>
<path d="" fill="#308A8C" transform="translate(0,0)"/>
<path d="" fill="#30BBB1" transform="translate(0,0)"/>
<path d="" fill="#32BFB4" transform="translate(0,0)"/>
<path d="" fill="#30A39E" transform="translate(0,0)"/>
<path d="" fill="#296B73" transform="translate(0,0)"/>
<path d="" fill="#359496" transform="translate(0,0)"/>
<path d="" fill="#32AFA4" transform="translate(0,0)"/>
<path d="" fill="#32C1B6" transform="translate(0,0)"/>
<path d="" fill="#2F7780" transform="translate(0,0)"/>
<path d="" fill="#2E767B" transform="translate(0,0)"/>
<path d="" fill="#2C717B" transform="translate(0,0)"/>
<path d="" fill="#2D6E77" transform="translate(0,0)"/>
<path d="" fill="#2D6E77" transform="translate(0,0)"/>
<path d="" fill="#327C84" transform="translate(0,0)"/>
<path d="" fill="#317B82" transform="translate(0,0)"/>
<path d="" fill="#2E747B" transform="translate(0,0)"/>
<path d="" fill="#328386" transform="translate(0,0)"/>
<path d="" fill="#34BFB4" transform="translate(0,0)"/>
<path d="" fill="#30A6A0" transform="translate(0,0)"/>
<path d="" fill="#318487" transform="translate(0,0)"/>
<path d="" fill="#307980" transform="translate(0,0)"/>
<path d="" fill="#33BBAF" transform="translate(0,0)"/>
<path d="" fill="#275C68" transform="translate(0,0)"/>
<path d="" fill="#316A74" transform="translate(0,0)"/>
<path d="" fill="#286274" transform="translate(0,0)"/>
<path d="" fill="#296370" transform="translate(0,0)"/>
<path d="" fill="#2A626E" transform="translate(0,0)"/>
<path d="" fill="#275D6C" transform="translate(0,0)"/>
<path d="" fill="#2A5E6C" transform="translate(0,0)"/>
<path d="" fill="#27636C" transform="translate(0,0)"/>
<path d="" fill="#2B626D" transform="translate(0,0)"/>
<path d="" fill="#265C6A" transform="translate(0,0)"/>
<path d="" fill="#285D6B" transform="translate(0,0)"/>
<path d="" fill="#295E6C" transform="translate(0,0)"/>
<path d="" fill="#2A5967" transform="translate(0,0)"/>
<path d="" fill="#275B67" transform="translate(0,0)"/>
<path d="" fill="#285A69" transform="translate(0,0)"/>
<path d="" fill="#285A69" transform="translate(0,0)"/>
<path d="" fill="#286069" transform="translate(0,0)"/>
<path d="" fill="#265965" transform="translate(0,0)"/>
<path d="" fill="#275D6C" transform="translate(0,0)"/>
<path d="" fill="#285A69" transform="translate(0,0)"/>
<path d="" fill="#255A65" transform="translate(0,0)"/>
<path d="" fill="#265C6B" transform="translate(0,0)"/>
<path d="" fill="#255E69" transform="translate(0,0)"/>
<path d="" fill="#275F6D" transform="translate(0,0)"/>
<path d="" fill="#2A606E" transform="translate(0,0)"/>
<path d="" fill="#255864" transform="translate(0,0)"/>
<path d="" fill="#275A69" transform="translate(0,0)"/>
<path d="" fill="#285A67" transform="translate(0,0)"/>
<path d="" fill="#265A6A" transform="translate(0,0)"/>
<path d="" fill="#285D6B" transform="translate(0,0)"/>
<path d="" fill="#2A5B69" transform="translate(0,0)"/>
<path d="" fill="#255C67" transform="translate(0,0)"/>
<path d="" fill="#265A68" transform="translate(0,0)"/>
<path d="" fill="#265E69" transform="translate(0,0)"/>
<path d="" fill="#245F6A" transform="translate(0,0)"/>
<path d="" fill="#2A5E6C" transform="translate(0,0)"/>
<path d="" fill="#245C6B" transform="translate(0,0)"/>
<path d="" fill="#295A68" transform="translate(0,0)"/>
<path d="" fill="#245C6C" transform="translate(0,0)"/>
<path d="" fill="#285D6B" transform="translate(0,0)"/>
<path d="" fill="#1B363A" transform="translate(0,0)"/>
<path d="" fill="#285F6A" transform="translate(0,0)"/>
<path d="" fill="#2A5F6C" transform="translate(0,0)"/>
<path d="" fill="#255A6B" transform="translate(0,0)"/>
<path d="" fill="#265A6A" transform="translate(0,0)"/>
<path d="" fill="#255968" transform="translate(0,0)"/>
<path d="" fill="#285F6B" transform="translate(0,0)"/>
<path d="" fill="#285D69" transform="translate(0,0)"/>
<path d="" fill="#2A606F" transform="translate(0,0)"/>
<path d="" fill="#28606B" transform="translate(0,0)"/>
<path d="" fill="#265D6A" transform="translate(0,0)"/>
<path d="" fill="#2A5E6C" transform="translate(0,0)"/>
<path d="" fill="#295E6D" transform="translate(0,0)"/>
<path d="" fill="#255B6B" transform="translate(0,0)"/>
<path d="" fill="#255B6A" transform="translate(0,0)"/>
<path d="" fill="#245B6B" transform="translate(0,0)"/>
<path d="" fill="#285F6B" transform="translate(0,0)"/>
<path d="" fill="#275B6B" transform="translate(0,0)"/>
<path d="" fill="#255C69" transform="translate(0,0)"/>
<path d="" fill="#285E6C" transform="translate(0,0)"/>
<path d="" fill="#285C6A" transform="translate(0,0)"/>
<path d="" fill="#275A6A" transform="translate(0,0)"/>
<path d="" fill="#255D67" transform="translate(0,0)"/>
<path d="" fill="#2A5C6B" transform="translate(0,0)"/>
<path d="" fill="#275E6D" transform="translate(0,0)"/>
<path d="" fill="#285F6F" transform="translate(0,0)"/>
<path d="" fill="#285B69" transform="translate(0,0)"/>
<path d="" fill="#235968" transform="translate(0,0)"/>
<path d="" fill="#235865" transform="translate(0,0)"/>
<path d="" fill="#255A69" transform="translate(0,0)"/>
<path d="" fill="#27596C" transform="translate(0,0)"/>
<path d="" fill="#215867" transform="translate(0,0)"/>
<path d="" fill="#255D69" transform="translate(0,0)"/>
<path d="" fill="#275E6A" transform="translate(0,0)"/>
<path d="" fill="#265D6A" transform="translate(0,0)"/>
<path d="" fill="#245A69" transform="translate(0,0)"/>
<path d="" fill="#245A69" transform="translate(0,0)"/>
<path d="" fill="#275C67" transform="translate(0,0)"/>
<path d="" fill="#255B66" transform="translate(0,0)"/>
<path d="" fill="#275C68" transform="translate(0,0)"/>
<path d="" fill="#275767" transform="translate(0,0)"/>
<path d="" fill="#255B68" transform="translate(0,0)"/>
<path d="" fill="#275B6A" transform="translate(0,0)"/>
<path d="" fill="#295A68" transform="translate(0,0)"/>
<path d="" fill="#255F6B" transform="translate(0,0)"/>
<path d="" fill="#265B68" transform="translate(0,0)"/>
<path d="" fill="#255B67" transform="translate(0,0)"/>
<path d="" fill="#285E68" transform="translate(0,0)"/>
<path d="" fill="#275C6C" transform="translate(0,0)"/>
<path d="" fill="#26586B" transform="translate(0,0)"/>
<path d="" fill="#235768" transform="translate(0,0)"/>
<path d="" fill="#255A67" transform="translate(0,0)"/>
<path d="" fill="#265C69" transform="translate(0,0)"/>
<path d="" fill="#255965" transform="translate(0,0)"/>
<path d="" fill="#275E6A" transform="translate(0,0)"/>
<path d="" fill="#265C68" transform="translate(0,0)"/>
<path d="" fill="#235666" transform="translate(0,0)"/>
<path d="" fill="#275B6C" transform="translate(0,0)"/>
<path d="" fill="#2B5E6C" transform="translate(0,0)"/>
<path d="" fill="#255A69" transform="translate(0,0)"/>
<path d="" fill="#285C6A" transform="translate(0,0)"/>
<path d="" fill="#255B6A" transform="translate(0,0)"/>
<path d="" fill="#285B68" transform="translate(0,0)"/>
<path d="" fill="#285C68" transform="translate(0,0)"/>
<path d="" fill="#215563" transform="translate(0,0)"/>
<path d="" fill="#285B66" transform="translate(0,0)"/>
<path d="" fill="#285A68" transform="translate(0,0)"/>
<path d="" fill="#1A3840" transform="translate(0,0)"/>
<path d="" fill="#2A5B69" transform="translate(0,0)"/>
<path d="" fill="#275A68" transform="translate(0,0)"/>
<path d="" fill="#265968" transform="translate(0,0)"/>
<path d="" fill="#255A64" transform="translate(0,0)"/>
<path d="" fill="#255764" transform="translate(0,0)"/>
<path d="" fill="#225765" transform="translate(0,0)"/>
<path d="" fill="#255967" transform="translate(0,0)"/>
<path d="" fill="#275B69" transform="translate(0,0)"/>
<path d="" fill="#265966" transform="translate(0,0)"/>
<path d="" fill="#265663" transform="translate(0,0)"/>
<path d="" fill="#255A66" transform="translate(0,0)"/>
<path d="" fill="#255769" transform="translate(0,0)"/>
<path d="" fill="#295766" transform="translate(0,0)"/>
<path d="" fill="#245866" transform="translate(0,0)"/>
<path d="" fill="#285B6A" transform="translate(0,0)"/>
<path d="" fill="#2A5A68" transform="translate(0,0)"/>
<path d="" fill="#255866" transform="translate(0,0)"/>
<path d="" fill="#285E6D" transform="translate(0,0)"/>
<path d="" fill="#265C6C" transform="translate(0,0)"/>
<path d="" fill="#255967" transform="translate(0,0)"/>
<path d="" fill="#245C6A" transform="translate(0,0)"/>
<path d="" fill="#255D6C" transform="translate(0,0)"/>
<path d="" fill="#255969" transform="translate(0,0)"/>
<path d="" fill="#275869" transform="translate(0,0)"/>
<path d="" fill="#285A68" transform="translate(0,0)"/>
<path d="" fill="#25596A" transform="translate(0,0)"/>
<path d="" fill="#235768" transform="translate(0,0)"/>
<path d="" fill="#265E69" transform="translate(0,0)"/>
<path d="" fill="#2C6373" transform="translate(0,0)"/>
<path d="" fill="#295D68" transform="translate(0,0)"/>
<path d="" fill="#275A68" transform="translate(0,0)"/>
<path d="" fill="#265B6B" transform="translate(0,0)"/>
<path d="" fill="#265B68" transform="translate(0,0)"/>
<path d="" fill="#245A6A" transform="translate(0,0)"/>
<path d="" fill="#245966" transform="translate(0,0)"/>
<path d="" fill="#275C67" transform="translate(0,0)"/>
<path d="" fill="#295C67" transform="translate(0,0)"/>
<path d="" fill="#285C6C" transform="translate(0,0)"/>
<path d="" fill="#285E6A" transform="translate(0,0)"/>
<path d="" fill="#245B68" transform="translate(0,0)"/>
<path d="" fill="#285867" transform="translate(0,0)"/>
<path d="" fill="#265C65" transform="translate(0,0)"/>
<path d="" fill="#295C69" transform="translate(0,0)"/>
<path d="" fill="#265B69" transform="translate(0,0)"/>
<path d="" fill="#285A67" transform="translate(0,0)"/>
<path d="" fill="#2A5E6C" transform="translate(0,0)"/>
<path d="" fill="#275A69" transform="translate(0,0)"/>
<path d="" fill="#295D6E" transform="translate(0,0)"/>
<path d="" fill="#255D69" transform="translate(0,0)"/>
<path d="" fill="#285E69" transform="translate(0,0)"/>
<path d="" fill="#27606A" transform="translate(0,0)"/>
<path d="" fill="#2A5967" transform="translate(0,0)"/>
<path d="" fill="#2C5F68" transform="translate(0,0)"/>
<path d="" fill="#285F6C" transform="translate(0,0)"/>
<path d="" fill="#275B68" transform="translate(0,0)"/>
<path d="" fill="#255C6A" transform="translate(0,0)"/>
<path d="" fill="#265B69" transform="translate(0,0)"/>
<path d="" fill="#265B69" transform="translate(0,0)"/>
<path d="" fill="#2A5D67" transform="translate(0,0)"/>
<path d="" fill="#285B69" transform="translate(0,0)"/>
<path d="" fill="#295E6A" transform="translate(0,0)"/>
<path d="" fill="#275D68" transform="translate(0,0)"/>
<path d="" fill="#255E6D" transform="translate(0,0)"/>
<path d="" fill="#285C6A" transform="translate(0,0)"/>
<path d="" fill="#255E6D" transform="translate(0,0)"/>
<path d="" fill="#27606D" transform="translate(0,0)"/>
<path d="" fill="#295E6C" transform="translate(0,0)"/>
</svg>
