<?xml version="1.0" encoding="UTF-8"?>
<svg version="1.1" xmlns="http://www.w3.org/2000/svg" width="500" height="500">
<path d="M0 0 C1.23105469 0.18304688 2.46210938 0.36609375 3.73046875 0.5546875 C20.46662872 3.46064454 35.85958685 10.53641605 51 18 C51 18.66 51 19.32 51 20 C51.66386719 20.2165625 52.32773437 20.433125 53.01171875 20.65625 C57.00376357 22.45136558 60.30587598 24.90274929 63.8125 27.5 C64.85180664 28.24830078 64.85180664 28.24830078 65.91210938 29.01171875 C66.8934082 29.73294922 66.8934082 29.73294922 67.89453125 30.46875 C68.49112549 30.90638672 69.08771973 31.34402344 69.70239258 31.79492188 C70.13060303 32.19259766 70.55881348 32.59027344 71 33 C71 33.66 71 34.32 71 35 C71.804375 35.3403125 71.804375 35.3403125 72.625 35.6875 C94.78225034 47.93229624 109.5980844 81.24623279 116.28515625 104.3828125 C125.37056505 136.79669454 124.7484206 170.67792355 112 202 C111.73316406 202.67224609 111.46632813 203.34449219 111.19140625 204.03710938 C107.07634671 214.32475821 101.89307889 223.63520109 96 233 C95.46761719 233.89589844 94.93523437 234.79179687 94.38671875 235.71484375 C93.31577478 237.51238688 92.16880803 239.26449717 91 241 C90.34 241 89.68 241 89 241 C88.690625 241.639375 88.38125 242.27875 88.0625 242.9375 C87 245 87 245 86 246 C83.14516437 246.13569439 80.31327922 246.2058223 77.45658875 246.23464966 C76.54948538 246.2474987 75.64238202 246.26034775 74.70779067 246.27358615 C71.64337214 246.31530756 68.5789192 246.34944607 65.5144043 246.38330078 C63.32685595 246.41082762 61.13931022 246.43856275 58.95176697 246.4664917 C38.94250704 246.71215602 18.93210388 246.85156654 -1.07830524 246.96293831 C-3.75866675 246.97810549 -6.43902641 246.99356305 -9.11938477 247.00927734 C-9.78556925 247.01317112 -10.45175373 247.0170649 -11.13812562 247.02107666 C-21.91051241 247.08585726 -32.68124483 247.21362146 -43.45271335 247.36573304 C-54.51783859 247.52068763 -65.5820596 247.60934412 -76.64822644 247.64017475 C-82.8596206 247.6594471 -89.06758408 247.70802131 -95.27791786 247.82797623 C-101.12899486 247.93988116 -106.97505997 247.97087502 -112.82707787 247.94112396 C-114.96860319 247.94419246 -117.11032274 247.97617063 -119.25090027 248.03995132 C-134.97696648 248.4846537 -134.97696648 248.4846537 -140.03194785 244.32992697 C-143.68924865 240.29719836 -146.41121781 235.82813481 -148.92995965 231.02063346 C-150.34972915 228.33958151 -152.01332858 225.84016551 -153.6875 223.3125 C-161.43930787 209.49984235 -166.74248892 194.45508037 -170 179 C-170.21140625 178.16726563 -170.4228125 177.33453125 -170.640625 176.4765625 C-175.73604745 156.31324797 -174.5391148 131.01634666 -169 111 C-168.83628906 110.40251953 -168.67257813 109.80503906 -168.50390625 109.18945312 C-158.16471247 71.79009355 -137.35686455 41.71276935 -105 20 C-104.15824219 19.43410156 -103.31648438 18.86820313 -102.44921875 18.28515625 C-86.17850191 7.97581129 -66.07490981 1.35379496 -47 -1 C-45.6696875 -1.16435547 -45.6696875 -1.16435547 -44.3125 -1.33203125 C-29.46658099 -2.84486267 -14.72483735 -2.25874057 0 0 Z " fill="#1D4F5F" transform="translate(276,103)"/>
<path d="M0 0 C0.95132813 0.74765625 1.90265625 1.4953125 2.8828125 2.265625 C9.88517056 7.84645173 15.61532209 13.82042946 21 21 C21.68835938 21.8971875 22.37671875 22.794375 23.0859375 23.71875 C44.51717986 52.29373981 53.68615131 86.63717641 48.69140625 122.01953125 C46.8448034 133.17345279 43.82577378 143.7469017 39 154 C38.19369141 155.71509766 38.19369141 155.71509766 37.37109375 157.46484375 C33.72227287 164.98288408 29.65759705 172.06315334 25 179 C20.50389132 177.6732794 16.89017318 175.88352331 12.9375 173.375 C11.78784308 172.65221225 10.63810114 171.92955971 9.48828125 171.20703125 C8.61743896 170.65523193 8.61743896 170.65523193 7.72900391 170.09228516 C5.04092961 168.39411453 2.33297956 166.72869211 -0.375 165.0625 C-1.43976563 164.40636719 -2.50453125 163.75023437 -3.6015625 163.07421875 C-7.93781878 160.42760716 -12.30358578 157.83170299 -16.66845703 155.23266602 C-20.96718103 152.65850219 -25.15501616 149.96161663 -29.265625 147.09375 C-31.12159792 145.82693147 -31.12159792 145.82693147 -34 145 C-34 144.34 -34 143.68 -34 143 C-34.57113525 142.885354 -35.14227051 142.77070801 -35.73071289 142.65258789 C-38.23000009 141.93385796 -40.08826584 140.90911253 -42.30859375 139.55859375 C-43.13141846 139.06141846 -43.95424316 138.56424316 -44.80200195 138.05200195 C-45.67171631 137.51921631 -46.54143066 136.98643066 -47.4375 136.4375 C-48.33621826 135.89246826 -49.23493652 135.34743652 -50.16088867 134.78588867 C-56.06684942 131.19908625 -61.95169307 127.57783623 -67.83203125 123.94921875 C-71.54780728 121.66293979 -75.26888727 119.38615679 -79 117.125 C-79.62366455 116.7431958 -80.2473291 116.3613916 -80.88989258 115.96801758 C-85.73320291 113.00086505 -85.73320291 113.00086505 -91 111 C-93.43442408 111.95448014 -93.43442408 111.95448014 -95.6875 113.76171875 C-96.55117187 114.38626953 -97.41484375 115.01082031 -98.3046875 115.65429688 C-99.63886719 116.66073242 -99.63886719 116.66073242 -101 117.6875 C-102.76999704 118.98421522 -104.54080535 120.27982393 -106.3125 121.57421875 C-107.09238281 122.15776123 -107.87226563 122.74130371 -108.67578125 123.3425293 C-115.24880576 128.02995192 -115.24880576 128.02995192 -118.44921875 127.90234375 C-121.54524109 126.80711992 -124.04179229 125.3302044 -126.8125 123.5625 C-127.64249512 123.03885864 -127.64249512 123.03885864 -128.48925781 122.50463867 C-129.69028315 121.74643742 -130.88926767 120.98499591 -132.08642578 120.22070312 C-135.46301167 118.06671876 -138.85625911 115.93931871 -142.25 113.8125 C-142.93006104 113.38590088 -143.61012207 112.95930176 -144.31079102 112.51977539 C-150.39537127 108.71941736 -156.57111824 105.1859945 -163 102 C-163 101.34 -163 100.68 -163 100 C-163.556875 99.896875 -164.11375 99.79375 -164.6875 99.6875 C-167 99 -167 99 -169.5 97.375 C-171.84424838 95.83780978 -171.84424838 95.83780978 -174.1875 95.9375 C-176.21842163 96.8999688 -176.21842163 96.8999688 -177.1015625 99.31640625 C-178.38117818 104.56283052 -178.24921095 109.62140314 -178.1875 115 C-178.18685547 116.06734375 -178.18621094 117.1346875 -178.18554688 118.234375 C-178.15731661 123.27818199 -177.97061132 128.03664665 -177 133 C-175.60583341 146.46517857 -179.8873821 157.93326322 -184.66015625 170.31640625 C-187.24529692 177.42365888 -186.6017934 182.10638848 -183.48974609 188.88256836 C-182.52718359 190.88106085 -181.53435765 192.86145002 -180.53125 194.83984375 C-179 198 -179 198 -179 200 C-182.125 200.625 -182.125 200.625 -186 200 C-188.53781424 196.94087404 -190.25839211 193.55870342 -192 190 C-192.57041016 189.02353516 -192.57041016 189.02353516 -193.15234375 188.02734375 C-195.50284341 182.40564181 -194.50075613 175.13757474 -192.625 169.5 C-190.99728198 163.24911067 -195.04424894 158.29107324 -198 153 C-205.30573919 137.2284887 -208.390971 120.53383321 -208.3125 103.25 C-208.30976074 102.02659912 -208.30702148 100.80319824 -208.30419922 99.54272461 C-208.17862114 88.64269197 -207.35335216 78.12627569 -203 68 C-194.98336649 71.84606105 -187.32234067 75.90313627 -179.79296875 80.64453125 C-175.02542052 83.63324118 -170.16353585 86.46217855 -165.3125 89.3125 C-158.36164676 93.40388115 -151.43765187 97.53257064 -144.5625 101.75 C-143.83828857 102.1936792 -143.11407715 102.6373584 -142.36791992 103.09448242 C-139.52292841 104.83812446 -136.67846365 106.58260169 -133.83642578 108.33105469 C-131.7690034 109.60078052 -129.69752178 110.86361993 -127.625 112.125 C-126.70569702 112.69299316 -126.70569702 112.69299316 -125.76782227 113.27246094 C-121.62399162 115.78775113 -121.62399162 115.78775113 -117 117 C-114.45930419 115.42177955 -112.21367004 113.83802924 -109.875 112 C-108.53144969 110.98541259 -107.18769922 109.9710902 -105.84375 108.95703125 C-103.54362563 107.19401762 -101.25433037 105.41864674 -98.96875 103.63671875 C-97.68484375 102.67185547 -97.68484375 102.67185547 -96.375 101.6875 C-95.27285156 100.82705078 -95.27285156 100.82705078 -94.1484375 99.94921875 C-92 99 -92 99 -89.60546875 99.609375 C-86.65826076 101.18239756 -83.79146567 102.82426823 -80.9375 104.5625 C-80.31101562 104.94253174 -79.68453125 105.32256348 -79.0390625 105.71411133 C-77.5639545 106.60954157 -76.08992306 107.50674661 -74.61669922 108.40527344 C-71.61315352 110.23576051 -68.60555912 112.05949424 -65.59765625 113.8828125 C-56.1304936 119.62307249 -46.66667361 125.36874209 -37.21875 131.140625 C-36.16751953 131.78233643 -35.11628906 132.42404785 -34.03320312 133.08520508 C-32.0570826 134.29196831 -30.0817801 135.50007244 -28.10742188 136.7097168 C-27.22634766 137.24765869 -26.34527344 137.78560059 -25.4375 138.33984375 C-24.67308594 138.80769287 -23.90867187 139.27554199 -23.12109375 139.75756836 C-21.11716349 140.93137143 -19.08981305 141.98856128 -17 143 C-17.2165625 142.02160156 -17.433125 141.04320312 -17.65625 140.03515625 C-19.17614044 132.95588047 -20.38311431 126.27917189 -20 119 C-7.80353478 119.87117609 3.71220747 122.11343571 13.5703125 129.609375 C16.62630197 131.35846222 18.52894995 131.41221647 22 131 C25.25814691 128.82654873 25.25814691 128.82654873 28 126 C28.61875 125.401875 29.2375 124.80375 29.875 124.1875 C31.67283711 120.69170561 32.03071965 117.73635874 31 114 C29.14575948 111.37315927 27.09116737 109.01471105 24.9765625 106.59375 C21.56981585 102.12323661 20.64172889 97.16991942 19.546875 91.76171875 C19.36640625 91.18035156 19.1859375 90.59898437 19 90 C18.401875 89.731875 17.80375 89.46375 17.1875 89.1875 C12.70677134 86.75510444 11.04034278 81.28183761 9.375 76.6875 C8.29910447 73.02210823 8.29910447 73.02210823 6 71 C3.96133181 70.87295256 1.91758995 70.82413206 -0.125 70.8125 C-12.06821374 70.11212635 -23.93034714 65.00316027 -32 56 C-32.84137645 54.94385779 -33.67527103 53.8816926 -34.5 52.8125 C-39.31525162 47.39534193 -45.39727577 45.37164854 -52.515625 44.796875 C-58.74738644 44.6900448 -64.52760456 45.3384636 -70.625 46.5 C-81.49652891 48.51852328 -88.99919851 48.12698138 -99.53759766 44.796875 C-112.12986718 40.96601874 -123.86349852 42.69137318 -135.5 48.625 C-142.28294357 52.52034759 -148.31376725 57.48232262 -153.96484375 62.875 C-157.35797032 66.07577245 -160.13751074 68.09762536 -164.91015625 68.36328125 C-168.39579875 67.75736583 -170.78593266 65.82993315 -173.58203125 63.74609375 C-176.1285862 61.90714373 -178.72116495 60.4611169 -181.5 59 C-186.55867747 56.30299001 -191.29791697 53.274043 -196 50 C-194.57935985 40.70734205 -188.2479992 32.58746872 -183 25 C-182.34 24.01 -181.68 23.02 -181 22 C-180.34 22 -179.68 22 -179 22 C-178.80792969 21.32195312 -178.61585938 20.64390625 -178.41796875 19.9453125 C-176.43483096 15.82606761 -173.54913611 13.05994436 -170.3125 9.875 C-169.64476562 9.21556396 -168.97703125 8.55612793 -168.2890625 7.87670898 C-123.47073455 -35.46484245 -48.38867919 -41.47601073 0 0 Z " fill="#23E5D7" transform="translate(330,149)"/>
<path d="M0 0 C4.71590568 0.41610932 8.03624022 2.59065582 12 5 C12 5.66 12 6.32 12 7 C12.58974609 7.12656982 13.17949219 7.25313965 13.78710938 7.38354492 C17.34882331 8.37574789 20.35621715 10.41622701 23.5 12.3125 C24.23105957 12.74820312 24.96211914 13.18390625 25.71533203 13.6328125 C28.14651236 15.08365346 30.57314993 16.54192905 33 18 C34.82007467 19.08763768 36.64039207 20.17486924 38.4609375 21.26171875 C41.95213 23.34888539 45.44277372 25.43694157 48.9296875 27.53125 C49.64366699 27.95986328 50.35764648 28.38847656 51.09326172 28.83007812 C52.75295663 29.84842102 54.37982704 30.9198847 56 32 C60.00875893 31.69550108 62.48097813 30.24780345 65.6875 27.91015625 C66.55117187 27.29076172 67.41484375 26.67136719 68.3046875 26.03320312 C69.19414062 25.38287109 70.08359375 24.73253906 71 24.0625 C72.76745604 22.77789246 74.53818798 21.4977775 76.3125 20.22265625 C77.09238281 19.65297119 77.87226563 19.08328613 78.67578125 18.49633789 C81.12615621 16.91878032 83.17832404 15.75509248 86 15 C88.19726562 15.74755859 88.19726562 15.74755859 90.40625 17.1484375 C91.22561035 17.65511963 92.0449707 18.16180176 92.88916016 18.68383789 C93.7507373 19.24192139 94.61231445 19.80000488 95.5 20.375 C96.39638184 20.93501709 97.29276367 21.49503418 98.21630859 22.07202148 C100.00925303 23.19370069 101.79761805 24.32273708 103.58105469 25.45947266 C106.57349633 27.36523636 109.59625354 29.21504212 112.625 31.0625 C113.61628906 31.67480469 114.60757813 32.28710938 115.62890625 32.91796875 C119.93553494 35.57779852 124.24741072 38.22892223 128.5625 40.875 C129.3373877 41.35203369 130.11227539 41.82906738 130.91064453 42.32055664 C131.6426709 42.76906982 132.37469727 43.21758301 133.12890625 43.6796875 C133.77931885 44.07913574 134.42973145 44.47858398 135.09985352 44.89013672 C137.02888165 46.01686959 138.99147534 47.02321159 141 48 C141 48.66 141 49.32 141 50 C141.58378418 50.12133301 142.16756836 50.24266602 142.76904297 50.36767578 C145.05839364 51.01655062 146.68195693 51.86218363 148.6953125 53.1171875 C149.40196045 53.55369629 150.1086084 53.99020508 150.83666992 54.43994141 C151.59181885 54.91351074 152.34696777 55.38708008 153.125 55.875 C154.74862357 56.88032842 156.37232365 57.88553328 157.99609375 58.890625 C158.82608887 59.40689453 159.65608398 59.92316406 160.51123047 60.45507812 C164.39177774 62.8639562 168.28919459 65.24500421 172.1875 67.625 C172.92645508 68.07657471 173.66541016 68.52814941 174.42675781 68.9934082 C179.40087622 72.03077443 184.38223422 75.05587825 189.375 78.0625 C189.98754639 78.43262207 190.60009277 78.80274414 191.23120117 79.18408203 C194.10315087 80.90846792 196.97350464 82.56129654 200 84 C200.33 83.01 200.66 82.02 201 81 C201.99 82.485 201.99 82.485 203 84 C202.34 84.66 201.68 85.32 201 86 C197.86371908 85.57780834 195.11241905 84.24242633 192.25 82.9375 C191.05117188 82.39416016 191.05117188 82.39416016 189.828125 81.83984375 C189.22484375 81.56269531 188.6215625 81.28554688 188 81 C188 81.66 188 82.32 188 83 C184.846632 83.70074844 182.27275026 84 179 84 C179.66 85.32 180.32 86.64 181 88 C180.360625 88.103125 179.72125 88.20625 179.0625 88.3125 C178.381875 88.539375 177.70125 88.76625 177 89 C176.67 89.99 176.34 90.98 176 92 C179.3 94.31 182.6 96.62 186 99 C184.47139359 101.95490456 184.47139359 101.95490456 182 105 C179.20280972 105.60792335 177.25393268 105.79015826 174.45770264 105.7215271 C173.6947442 105.72665365 172.93178576 105.7317802 172.14570737 105.7370621 C169.58684039 105.74695265 167.0303294 105.71393837 164.47167969 105.68115234 C162.63860123 105.67946006 160.80551871 105.68040957 158.97244263 105.68380737 C153.99314421 105.68553124 149.01471028 105.65021781 144.03561306 105.60836363 C138.83329572 105.57089489 133.63095928 105.56733431 128.42852783 105.56021118 C118.57574747 105.541551 108.72336582 105.492298 98.87076116 105.43211424 C87.65449317 105.36508566 76.43820629 105.33206928 65.22178793 105.30194163 C42.14763744 105.23920008 19.07384104 105.13364215 -4 105 C-5.35594275 102.36378095 -6.68414683 99.71865632 -8 97.0625 C-8.3815625 96.32708984 -8.763125 95.59167969 -9.15625 94.83398438 C-12.32796825 88.34895331 -13.10584093 82.74807561 -11.046875 75.76953125 C-10.61890625 74.79371094 -10.1909375 73.81789063 -9.75 72.8125 C-4.75292358 60.56895093 -0.97618908 48.68383906 -3.50390625 35.33984375 C-4.25916729 30.25521233 -4.2250953 25.19598035 -4.25 20.0625 C-4.270625 19.00353516 -4.29125 17.94457031 -4.3125 16.85351562 C-4.34286621 10.7688862 -3.95310896 6.36183167 -1 1 C-0.67 0.67 -0.34 0.34 0 0 Z " fill="#1B4E5E" transform="translate(155,244)"/>
<path d="M0 0 C5.28258091 0.49262163 9.12984398 3.29473452 13.5 6.0625 C14.30099121 6.56128662 15.10198242 7.06007324 15.92724609 7.57397461 C17.54282285 8.58027492 19.15662257 9.58943432 20.76855469 10.6015625 C23.70772454 12.44352803 26.6658129 14.2528718 29.625 16.0625 C31.75067113 17.37391278 33.87563135 18.68647836 36 20 C36.64211426 20.39574219 37.28422852 20.79148437 37.94580078 21.19921875 C46.12812229 26.24643961 54.21493715 31.3483438 62 37 C60.54711914 39.94360352 60.54711914 39.94360352 58 43 C55.10176478 43.94480318 52.2765024 43.91245088 49.24609375 43.90234375 C48.39000015 43.91519913 47.53390656 43.9280545 46.65187073 43.94129944 C44.83887672 43.95851561 43.0256755 43.96003942 41.21264648 43.94702148 C38.46812504 43.93760507 35.73353746 44.00760987 32.99023438 44.08398438 C24.75694241 44.17377033 18.30977052 44.22937244 11.6640625 38.8046875 C10.07955526 37.23262119 8.52133343 35.63327899 7 34 C5.7359444 32.92958957 4.45537442 31.87807626 3.15234375 30.85546875 C2.08014169 29.9668542 1.00850103 29.07756172 -0.0625 28.1875 C-0.61615234 27.73697266 -1.16980469 27.28644531 -1.74023438 26.82226562 C-5.92423351 23.32966854 -7.7630034 21.09346999 -8.375 15.6875 C-7.71734228 9.22053244 -4.13885225 4.877933 0 0 Z " fill="#25E4D7" transform="translate(279,306)"/>
<path d="M0 0 C0.33 0 0.66 0 1 0 C1.02578125 0.67804688 1.0515625 1.35609375 1.078125 2.0546875 C1.63981508 11.27151115 3.54685366 18.39332113 9.75 25.375 C13 30 13 30 13 42 C4.75 42 -3.5 42 -12 42 C-12.66 40.02 -13.32 38.04 -14 36 C-16.92914165 34.82917122 -16.92914165 34.82917122 -20 34 C-21.9375 32.25 -21.9375 32.25 -23 30 C-22.91211651 25.816746 -22.27825507 24.29564602 -19.375 21.2109375 C-18.25946294 20.25447642 -17.13388032 19.30964226 -16 18.375 C-10.32573078 13.45897106 -5.91779074 8.33554157 -1.609375 2.203125 C-1.07828125 1.47609375 -0.5471875 0.7490625 0 0 Z " fill="#26E4D6" transform="translate(193,307)"/>
<path d="M0 0 C0.33 0 0.66 0 1 0 C1.0501123 0.64960693 1.10022461 1.29921387 1.15185547 1.96850586 C1.3863098 4.95872901 1.63059304 7.94807452 1.875 10.9375 C1.95363281 11.95908203 2.03226563 12.98066406 2.11328125 14.03320312 C2.73191137 21.48055804 3.88265342 28.43308593 6.1171875 35.56640625 C7.12345211 39.48015222 7.19640231 42.9032696 7.125 46.9375 C7.11597656 47.62134766 7.10695312 48.30519531 7.09765625 49.00976562 C7.07438958 50.67333287 7.03853167 52.33671631 7 54 C5.02 54 3.04 54 1 54 C0.855625 52.96875 0.71125 51.9375 0.5625 50.875 C-0.70523538 46.27013767 -3.85567701 44.67772485 -7.80859375 42.359375 C-9.95876645 41.02557803 -11.48196843 40.02245586 -13 38 C-15.44348922 25.3549433 -9.30105818 13.20918446 -2.453125 3.01171875 C-1 1 -1 1 0 0 Z " fill="#27E2D5" transform="translate(241,295)"/>
<path d="M0 0 C0.66 0 1.32 0 2 0 C2 0.99 2 1.98 2 3 C2.66 3 3.32 3 4 3 C4 4.32 4 5.64 4 7 C4.66 7 5.32 7 6 7 C6.66 8.32 7.32 9.64 8 11 C9.65 10.67 11.3 10.34 13 10 C13.33 9.01 13.66 8.02 14 7 C14.33 7.66 14.66 8.32 15 9 C14.41810349 10.7106003 13.75894589 12.39525075 13.0625 14.0625 C10.07919284 22.18255786 9.91600864 27.01115663 13.51245117 34.87597656 C14.4716048 36.87822459 15.4642725 38.86001885 16.46875 40.83984375 C18 44 18 44 18 46 C14.875 46.625 14.875 46.625 11 46 C8.46218576 42.94087404 6.74160789 39.55870342 5 36 C4.42958984 35.02353516 4.42958984 35.02353516 3.84765625 34.02734375 C1.48736997 28.38223509 2.53631569 21.06893942 4.3125 15.375 C5.39735003 11.34555702 4.48932008 9.18686268 2.625 5.5 C1.75693633 3.99597524 0.88383634 2.49481046 0 1 C0 0.67 0 0.34 0 0 Z " fill="#2FDDD3" transform="translate(133,303)"/>
<path d="M0 0 C8.04536371 3.77750712 15.49595345 8.25998314 23 13 C22.01 13.66 21.02 14.32 20 15 C19.2575 14.38125 18.515 13.7625 17.75 13.125 C14.34154155 10.49119119 12.33595861 9 8 9 C8.495 9.4125 8.99 9.825 9.5 10.25 C11 12 11 12 11 16 C11.5775 16.0825 12.155 16.165 12.75 16.25 C15.6159304 17.20531013 16.9990764 18.78469173 19 21 C17.02 20.34 15.04 19.68 13 19 C13 18.34 13 17.68 13 17 C12.46890625 16.90847656 11.9378125 16.81695312 11.390625 16.72265625 C8.19444585 15.75649098 5.61260925 14.14884249 2.75 12.4375 C1.13351562 11.47650391 1.13351562 11.47650391 -0.515625 10.49609375 C-1.33546875 10.00238281 -2.1553125 9.50867188 -3 9 C-1.0625 8.4375 -1.0625 8.4375 1 8 C1.33 8.33 1.66 8.66 2 9 C2.33 8.01 2.66 7.02 3 6 C2.34 5.67 1.68 5.34 1 5 C1.33 4.01 1.66 3.02 2 2 C1.34 2 0.68 2 0 2 C0 1.34 0 0.68 0 0 Z " fill="#2CDED4" transform="translate(283,275)"/>
<path d="M0 0 C1.38308641 2.76617283 0.90563946 4.07408791 0 7 C-1.75 9.3125 -1.75 9.3125 -4 11 C-6.75 11.25 -6.75 11.25 -9 11 C-10.0825758 13.52601019 -10.96858701 15.6544571 -11.21875 18.40625 C-12.33440328 22.11021889 -14.40643421 23.17217952 -17.5625 25.3125 C-18.57441406 26.00988281 -19.58632812 26.70726562 -20.62890625 27.42578125 C-21.80259766 28.20501953 -21.80259766 28.20501953 -23 29 C-23.33 28.01 -23.66 27.02 -24 26 C-22.48046875 23.6875 -22.48046875 23.6875 -20.1875 21 C-18.94806641 19.54400391 -18.94806641 19.54400391 -17.68359375 18.05859375 C-16.7907919 17.03754773 -15.89624093 16.01802864 -15 15 C-14.56059082 14.49742676 -14.12118164 13.99485352 -13.66845703 13.47705078 C-9.3691466 8.58012825 -5.19110439 3.96696098 0 0 Z " fill="#486673" transform="translate(154,136)"/>
<path d="M0 0 C2.84614024 2.84614024 2.45579076 5.80369142 2.625 9.625 C2.66367188 10.33140625 2.70234375 11.0378125 2.7421875 11.765625 C2.83647724 13.50998524 2.91932891 15.25495691 3 17 C2.01 17.33 1.02 17.66 0 18 C0.33 18.99 0.66 19.98 1 21 C0.34 21 -0.32 21 -1 21 C-1.06058594 21.59167969 -1.12117187 22.18335938 -1.18359375 22.79296875 C-1.89160708 29.47007904 -1.89160708 29.47007904 -2.5625 32.75 C-3.04117353 35.21174959 -3.0714775 37.49828751 -3 40 C-3.99 40.495 -3.99 40.495 -5 41 C-5.65213292 43.02463255 -5.65213292 43.02463255 -6 45 C-6.66 45 -7.32 45 -8 45 C-8 47.64 -8 50.28 -8 53 C-8.66 52.67 -9.32 52.34 -10 52 C-10.60481283 44.86320862 -9.06488751 40.03248021 -6.375 33.4453125 C-1.93280368 22.31458196 -0.30796166 11.85652397 0 0 Z " fill="#0C5360" transform="translate(153,280)"/>
<path d="M0 0 C5.86809507 0.52393706 10.54873741 1.76108858 16 4 C16 4.99 16 5.98 16 7 C16.66 7 17.32 7 18 7 C18.33 9.64 18.66 12.28 19 15 C16.0625 14.25 16.0625 14.25 13 13 C12.66666667 11.66666667 12.33333333 10.33333333 12 9 C9.02496878 7.84164327 9.02496878 7.84164327 6 7 C5.67 6.34 5.34 5.68 5 5 C4.01 5 3.02 5 2 5 C2 4.34 2 3.68 2 3 C1.01 2.67 0.02 2.34 -1 2 C-0.67 1.34 -0.34 0.68 0 0 Z " fill="#22E6D8" transform="translate(267,270)"/>
<path d="M0 0 C0 0.33 0 0.66 0 1 C-5.75 1.125 -5.75 1.125 -8 0 C-27.19013569 -3.26996093 -46.66572298 -2.25025348 -66 -1 C-66 -1.33 -66 -1.66 -66 -2 C-44.72937875 -7.59753191 -21.02899085 -5.70862757 0 0 Z " fill="#35CCC6" transform="translate(287,126)"/>
<path d="M0 0 C2.13586678 3.20380017 2.23132175 4.01939967 2.125 7.6875 C2.10695313 8.49574219 2.08890625 9.30398438 2.0703125 10.13671875 C2.03550781 11.05904297 2.03550781 11.05904297 2 12 C1.01 12.33 0.02 12.66 -1 13 C-1.66 12.67 -2.32 12.34 -3 12 C-3 12.66 -3 13.32 -3 14 C-1.68 14.66 -0.36 15.32 1 16 C0.67 16.66 0.34 17.32 0 18 C0.66 18.33 1.32 18.66 2 19 C2 19.99 2 20.98 2 22 C3.32 22 4.64 22 6 22 C6.66 22.99 7.32 23.98 8 25 C9.7179646 26.20482939 9.7179646 26.20482939 11.625 27.1875 C12.73875 27.785625 13.8525 28.38375 15 29 C14.34 29.33 13.68 29.66 13 30 C10.49609375 28.77734375 10.49609375 28.77734375 7.4375 26.9375 C6.36886719 26.29554688 5.30023438 25.65359375 4.19921875 24.9921875 C0.06832223 22.41983436 -3.99362132 19.76197318 -8 17 C-7.51917969 16.55011719 -7.03835938 16.10023438 -6.54296875 15.63671875 C-4.78745983 13.77454599 -4.42874896 12.48674399 -4 10 C-4.66 10 -5.32 10 -6 10 C-5.67 9.34 -5.34 8.68 -5 8 C-3.02 8.99 -1.04 9.98 1 11 C0.67 7.37 0.34 3.74 0 0 Z " fill="#2ED4CB" transform="translate(312,281)"/>
<path d="M0 0 C0.33 0 0.66 0 1 0 C4.34390956 18.83934763 3.64918103 37.4032759 -1 56 C-1.99 56 -2.98 56 -4 56 C-4 55.01 -4 54.02 -4 53 C-3.34 53 -2.68 53 -2 53 C-2 50.69 -2 48.38 -2 46 C-1.34 46 -0.68 46 0 46 C0 30.82 0 15.64 0 0 Z " fill="#30CAC4" transform="translate(377,228)"/>
<path d="M0 0 C0.66 0 1.32 0 2 0 C2 0.99 2 1.98 2 3 C2.66 3 3.32 3 4 3 C4 4.32 4 5.64 4 7 C4.66 7 5.32 7 6 7 C6.66 8.32 7.32 9.64 8 11 C9.65 10.67 11.3 10.34 13 10 C13.33 9.01 13.66 8.02 14 7 C14.33 7.66 14.66 8.32 15 9 C14.41810349 10.7106003 13.75894589 12.39525075 13.0625 14.0625 C10.55074756 20.66234607 10.128477 26.19861152 12 33 C11.34 33 10.68 33 10 33 C7.62293582 29.33460332 7.94905683 26.50943165 8.375 22.25 C8.54128906 20.49429687 8.54128906 20.49429687 8.7109375 18.703125 C8.80632812 17.81109375 8.90171875 16.9190625 9 16 C8.34 16 7.68 16 7 16 C6.34 17.32 5.68 18.64 5 20 C4 17 4 17 4.75 14.4375 C5.08812989 9.78821394 3.33024342 7.08701049 1.12890625 3.07421875 C0 1 0 1 0 0 Z " fill="#31D3CD" transform="translate(133,303)"/>
<path d="M0 0 C0 3.95875396 -1.21313946 6.49009536 -3 10 C-4.9375 11.0625 -4.9375 11.0625 -7 12 C-10.13225751 16.08142646 -12.10551336 20.2637834 -14 25 C-14.66 25 -15.32 25 -16 25 C-16.2165625 25.8971875 -16.2165625 25.8971875 -16.4375 26.8125 C-16.8872439 28.56150404 -17.42892341 30.28677023 -18 32 C-17.34 32.66 -16.68 33.32 -16 34 C-16 34.99 -16 35.98 -16 37 C-15.01 37 -14.02 37 -13 37 C-13 37.66 -13 38.32 -13 39 C-15.9719385 37.87548273 -18.33440687 36.77706209 -21 35 C-19.57935985 25.70734205 -13.2479992 17.58746872 -8 10 C-7.34 9.01 -6.68 8.02 -6 7 C-5.34 7 -4.68 7 -4 7 C-3.71125 6.21625 -3.4225 5.4325 -3.125 4.625 C-2 2 -2 2 0 0 Z " fill="#34CFC9" transform="translate(155,164)"/>
<path d="M0 0 C0.33 0 0.66 0 1 0 C0.9278125 1.00160156 0.855625 2.00320313 0.78125 3.03515625 C0.68737314 4.3775953 0.59363031 5.72004373 0.5 7.0625 C0.4071875 8.37347656 0.314375 9.68445313 0.21875 11.03515625 C0.0165098 14.70075995 -0.0381804 18.32990952 0 22 C0.99 22 1.98 22 3 22 C3 22.66 3 23.32 3 24 C1.68 24.33 0.36 24.66 -1 25 C-1.66 22.03 -2.32 19.06 -3 16 C-3.66 16 -4.32 16 -5 16 C-5.08142927 14.2507786 -5.13938541 12.50045458 -5.1875 10.75 C-5.22230469 9.77546875 -5.25710937 8.8009375 -5.29296875 7.796875 C-4.96075202 4.62531258 -4.11327721 3.32959693 -2 1 C-1.34 1.33 -0.68 1.66 0 2 C0 1.34 0 0.68 0 0 Z " fill="#21E7D7" transform="translate(142,317)"/>
<path d="M0 0 C0.66 0.66 1.32 1.32 2 2 C0.74445313 2.12117187 -0.51109375 2.24234375 -1.8046875 2.3671875 C-12.24644921 3.32145948 -12.24644921 3.32145948 -22.5625 5.125 C-31.32266189 7.02278204 -38.61187186 5.99830963 -47 3 C-47 2.67 -47 2.34 -47 2 C-44.36 2 -41.72 2 -39 2 C-39 2.66 -39 3.32 -39 4 C-36.43719792 3.85845864 -33.87484515 3.71191438 -31.3125 3.5625 C-30.59126953 3.52318359 -29.87003906 3.48386719 -29.12695312 3.44335938 C-25.32949277 3.21793935 -21.71593638 2.86535505 -18 2 C-11.89984343 0.63666974 -6.27006507 -0.44786179 0 0 Z " fill="#35E1D7" transform="translate(278,191)"/>
<path d="M0 0 C8.78697988 13.18046982 4.9022353 40.19394399 2 55 C1.10110101 57.72089582 0.07600588 60.3409389 -1 63 C-2.18404699 59.44785902 -1.45779261 57.45067091 -0.61328125 53.89453125 C3.21465015 35.82767033 2.38088121 18.17547707 0 0 Z " fill="#05515D" transform="translate(377,224)"/>
<path d="M0 0 C7.53828658 0.61789234 7.53828658 0.61789234 9.8125 2.5 C10.204375 2.995 10.59625 3.49 11 4 C11.99 4.33 12.98 4.66 14 5 C14 5.66 14 6.32 14 7 C10.60311958 9.06239168 10.60311958 9.06239168 8.1875 8.8125 C-0.75438596 5.49122807 -0.75438596 5.49122807 -2 3 C-1.34 2.34 -0.68 1.68 0 1 C0 0.67 0 0.34 0 0 Z M-3 5 C-2.34 5 -1.68 5 -1 5 C-1.33 5.66 -1.66 6.32 -2 7 C-2.33 6.34 -2.66 5.68 -3 5 Z " fill="#22E6D9" transform="translate(237,251)"/>
<path d="M0 0 C0.33 0 0.66 0 1 0 C1.03738281 0.67804688 1.07476562 1.35609375 1.11328125 2.0546875 C1.58485329 8.73066814 2.81921135 14.67708447 5 21 C2 19 2 19 1.05078125 15.7421875 C0.80714844 14.46601563 0.56351563 13.18984375 0.3125 11.875 C-0.06455078 9.95300781 -0.06455078 9.95300781 -0.44921875 7.9921875 C-0.63097656 7.00476563 -0.81273437 6.01734375 -1 5 C-1.13921875 5.79148437 -1.2784375 6.58296875 -1.421875 7.3984375 C-2.30471694 11.37122623 -4.20781187 12.46527301 -7.5 14.6875 C-10 16 -10 16 -13 16 C-12.48050781 15.43152344 -11.96101562 14.86304688 -11.42578125 14.27734375 C-8.11654024 10.61332274 -4.88779183 6.99262475 -2.0625 2.9375 C-1.381875 1.968125 -0.70125 0.99875 0 0 Z " fill="#33DAD0" transform="translate(193,307)"/>
<path d="M0 0 C6.47008302 1.62504411 10.64140896 4.8516962 15.26953125 9.5703125 C13.94953125 9.9003125 12.62953125 10.2303125 11.26953125 10.5703125 C11.03492188 9.94640625 10.8003125 9.3225 10.55859375 8.6796875 C8.9013005 5.96775309 7.65537135 5.68055253 4.64453125 4.8203125 C3.82726562 4.57796875 3.01 4.335625 2.16796875 4.0859375 C1.54148437 3.91578125 0.915 3.745625 0.26953125 3.5703125 C0.26953125 2.9103125 0.26953125 2.2503125 0.26953125 1.5703125 C-5.67046875 1.5703125 -11.61046875 1.5703125 -17.73046875 1.5703125 C-12.48863559 -1.92424294 -6.06182352 -0.95393503 0 0 Z " fill="#08606B" transform="translate(282.73046875,193.4296875)"/>
<path d="M0 0 C2.32891212 3.49336818 2.23551143 4.86007865 2.1953125 8.98046875 C2.18886719 10.14384766 2.18242187 11.30722656 2.17578125 12.50585938 C2.15902344 13.72080078 2.14226562 14.93574219 2.125 16.1875 C2.11597656 17.41404297 2.10695313 18.64058594 2.09765625 19.90429688 C2.07406017 22.93639295 2.04113841 25.96809938 2 29 C1.34 29 0.68 29 0 29 C-1.69021815 19.28124566 -0.94054266 9.77492546 0 0 Z " fill="#435E6C" transform="translate(396,234)"/>
<path d="M0 0 C0.66 0 1.32 0 2 0 C2 0.99 2 1.98 2 3 C2.99 3.33 3.98 3.66 5 4 C9 9.37142857 9 9.37142857 9 12 C6.2421875 12.3125 6.2421875 12.3125 3 12 C0.8828125 9.8125 0.8828125 9.8125 -0.875 7 C-1.47054687 6.071875 -2.06609375 5.14375 -2.6796875 4.1875 C-3.11539063 3.465625 -3.55109375 2.74375 -4 2 C-3.01 2 -2.02 2 -1 2 C-0.67 1.34 -0.34 0.68 0 0 Z " fill="#22535F" transform="translate(135,337)"/>
<path d="M0 0 C4.75 0.75 4.75 0.75 7 3 C6.67 3.66 6.34 4.32 6 5 C5.34 5 4.68 5 4 5 C3.690625 5.639375 3.38125 6.27875 3.0625 6.9375 C2 9 2 9 1 10 C-0.63472882 10.08700342 -2.27314055 10.10701063 -3.91015625 10.09765625 C-4.89951172 10.09443359 -5.88886719 10.09121094 -6.90820312 10.08789062 C-7.94912109 10.07951172 -8.99003906 10.07113281 -10.0625 10.0625 C-11.10728516 10.05798828 -12.15207031 10.05347656 -13.22851562 10.04882812 C-15.8190666 10.03699913 -18.40950559 10.02051689 -21 10 C-19 8 -19 8 -17.12060547 7.77294922 C-16.37697754 7.78342285 -15.63334961 7.79389648 -14.8671875 7.8046875 C-14.06152344 7.81113281 -13.25585938 7.81757813 -12.42578125 7.82421875 C-11.16314453 7.84935547 -11.16314453 7.84935547 -9.875 7.875 C-8.60076172 7.88853516 -8.60076172 7.88853516 -7.30078125 7.90234375 C-5.20040116 7.92594353 -3.10016556 7.96181517 -1 8 C-0.67 5.36 -0.34 2.72 0 0 Z " fill="#3A5D68" transform="translate(361,339)"/>
<path d="M0 0 C0.33 1.32 0.66 2.64 1 4 C0.01 4.495 0.01 4.495 -1 5 C-1.69937532 6.31647119 -2.36729133 7.65022151 -3 9 C-3.33 9.33 -3.66 9.66 -4 10 C-3.67 10 -3.34 10 -3 10 C-3 11.98 -3 13.96 -3 16 C-3.66 15.67 -4.32 15.34 -5 15 C-7.19117773 15.82201984 -7.19117773 15.82201984 -7.8515625 18.06640625 C-8.23441406 19.30197266 -8.23441406 19.30197266 -8.625 20.5625 C-8.88539063 21.38878906 -9.14578125 22.21507812 -9.4140625 23.06640625 C-9.60742188 23.70449219 -9.80078125 24.34257812 -10 25 C-10.66 25 -11.32 25 -12 25 C-10.20727272 15.67781816 -6.12810336 7.25556827 0 0 Z " fill="#33D8CF" transform="translate(241,295)"/>
<path d="M0 0 C1.79398267 0.95399078 3.58511655 1.91334026 5.375 2.875 C6.37273437 3.40867188 7.37046875 3.94234375 8.3984375 4.4921875 C11 6 11 6 13 8 C11.68 8 10.36 8 9 8 C8.67 9.98 8.34 11.96 8 14 C6.68 13.67 5.36 13.34 4 13 C4 12.34 4 11.68 4 11 C2.68 10.67 1.36 10.34 0 10 C1.32 9.67 2.64 9.34 4 9 C4.33 7.68 4.66 6.36 5 5 C2.525 4.01 2.525 4.01 0 3 C0 2.01 0 1.02 0 0 Z " fill="#2FDAD0" transform="translate(163,238)"/>
<path d="M0 0 C2.33944736 0.28730055 4.6739143 0.61936779 7 1 C6.67 1.66 6.34 2.32 6 3 C-3.57 3 -13.14 3 -23 3 C-22.67 2.34 -22.34 1.68 -22 1 C-21.36908447 1.00523682 -20.73816895 1.01047363 -20.08813477 1.01586914 C-17.24626653 1.03657826 -14.40441412 1.04964066 -11.5625 1.0625 C-10.56927734 1.07087891 -9.57605469 1.07925781 -8.55273438 1.08789062 C-7.60849609 1.09111328 -6.66425781 1.09433594 -5.69140625 1.09765625 C-4.81685791 1.10289307 -3.94230957 1.10812988 -3.04125977 1.11352539 C-1.00559794 1.22784809 -1.00559794 1.22784809 0 0 Z " fill="#2E4A5C" transform="translate(273,346)"/>
<path d="M0 0 C0.99 0 1.98 0 3 0 C3.33 1.65 3.66 3.3 4 5 C5.98 5 7.96 5 10 5 C10 6.32 10 7.64 10 9 C8.35 9.33 6.7 9.66 5 10 C4.566875 9.34 4.13375 8.68 3.6875 8 C2.8521875 7.01 2.8521875 7.01 2 6 C1.01 6 0.02 6 -1 6 C-0.67 4.02 -0.34 2.04 0 0 Z " fill="#20E8D8" transform="translate(198,261)"/>
<path d="M0 0 C3.46941546 0.45822468 6.67395049 0.89131683 10 2 C10.268125 2.78375 10.53625 3.5675 10.8125 4.375 C12.42040587 7.92931823 14.48608262 8.54859934 18 10 C17.34 10.66 16.68 11.32 16 12 C13.32613853 10.38661617 10.66226511 8.75743621 8 7.125 C7.236875 6.66480469 6.47375 6.20460938 5.6875 5.73046875 C4.965625 5.28574219 4.24375 4.84101563 3.5 4.3828125 C2.8296875 3.97434082 2.159375 3.56586914 1.46875 3.14501953 C0.9840625 2.76716309 0.499375 2.38930664 0 2 C0 1.34 0 0.68 0 0 Z " fill="#0F5460" transform="translate(283,273)"/>
<path d="M0 0 C2.125 0.9375 2.125 0.9375 4 2 C0.67149253 5.59478807 -2.98971331 8.22364768 -7 11 C-7.33 10.01 -7.66 9.02 -8 8 C-6.85546875 6.2109375 -6.85546875 6.2109375 -5.1875 4.375 C-4.64480469 3.76398438 -4.10210937 3.15296875 -3.54296875 2.5234375 C-2 1 -2 1 0 0 Z " fill="#375A68" transform="translate(138,154)"/>
<path d="M0 0 C4.07591543 1.2322535 7.3714961 2.80380027 11 5 C12.051875 5.2475 12.051875 5.2475 13.125 5.5 C15 6 15 6 16.375 7.4375 C18.62538002 9.60132694 21.04092468 10.14515602 24 11 C24 11.66 24 12.32 24 13 C23.01 13.33 22.02 13.66 21 14 C19.125 12.99609375 19.125 12.99609375 17 11.4375 C12.57664324 8.31641439 7.99337123 5.77990847 3.1875 3.296875 C1 2 1 2 0 0 Z " fill="#095964" transform="translate(302,131)"/>
<path d="M0 0 C5.17779255 1.36257699 9.32141763 3.86736335 13.828125 6.66015625 C15.93676304 8.00546176 15.93676304 8.00546176 18 9 C18.33 8.01 18.66 7.02 19 6 C19.99 7.485 19.99 7.485 21 9 C20.34 9.66 19.68 10.32 19 11 C16.28794603 10.70942279 14.43459034 9.7055158 12 8.4375 C8.95322612 6.71191988 8.95322612 6.71191988 5 7 C4.731875 6.401875 4.46375 5.80375 4.1875 5.1875 C3.01506533 3.02775192 1.80630718 1.64209744 0 0 Z " fill="#0A5461" transform="translate(337,319)"/>
<path d="M0 0 C3 1 3 1 6 3 C6.66 2.34 7.32 1.68 8 1 C8.99 1.33 9.98 1.66 11 2 C10.34 2 9.68 2 9 2 C9.33 2.99 9.66 3.98 10 5 C10.99 5.33 11.98 5.66 13 6 C13 6.66 13 7.32 13 8 C13.66 8 14.32 8 15 8 C14.67 8.99 14.34 9.98 14 11 C11.8728687 9.71173738 9.74828388 8.41957604 7.625 7.125 C7.02171875 6.76019531 6.4184375 6.39539063 5.796875 6.01953125 C3.29488405 4.49053678 1.08128646 3.08128646 -1 1 C-0.67 0.67 -0.34 0.34 0 0 Z " fill="#0E5463" transform="translate(260,259)"/>
<path d="M0 0 C0.33 0 0.66 0 1 0 C1.07347656 0.99580078 1.07347656 0.99580078 1.1484375 2.01171875 C1.71125812 8.7112236 1.71125812 8.7112236 4 15 C3.34 15 2.68 15 2 15 C2 14.01 2 13.02 2 12 C0.68 11.67 -0.64 11.34 -2 11 C-2 10.01 -2 9.02 -2 8 C-2.66 8 -3.32 8 -4 8 C-3.4021799 4.65220745 -2.20964398 2.57791798 0 0 Z " fill="#115765" transform="translate(135,325)"/>
<path d="M0 0 C2.125 0.9375 2.125 0.9375 4 2 C3.67 2.33 3.34 2.66 3 3 C4.65 2.67 6.3 2.34 8 2 C8 2.66 8 3.32 8 4 C9.32 4 10.64 4 12 4 C11.67 5.32 11.34 6.64 11 8 C9 7 9 7 8 6 C7.071875 6.0825 6.14375 6.165 5.1875 6.25 C2 6 2 6 -0.375 3.5 C-1.179375 2.2625 -1.179375 2.2625 -2 1 C-1.34 0.67 -0.68 0.34 0 0 Z " fill="#23E7D9" transform="translate(181,253)"/>
<path d="M0 0 C1.28583984 0.30357422 1.28583984 0.30357422 2.59765625 0.61328125 C3.45230469 0.80277344 4.30695313 0.99226563 5.1875 1.1875 C7.52407616 1.8851507 9.52390706 2.76100501 11.66015625 3.92578125 C10.92410156 3.90257813 10.18804687 3.879375 9.4296875 3.85546875 C7.96595703 3.82839844 7.96595703 3.82839844 6.47265625 3.80078125 C5.02826172 3.76597656 5.02826172 3.76597656 3.5546875 3.73046875 C0.53202847 3.93442685 -1.6075436 4.65703493 -4.33984375 5.92578125 C-4.66984375 4.93578125 -4.99984375 3.94578125 -5.33984375 2.92578125 C-3.58376178 0.65151116 -2.94874927 -0.09353295 0 0 Z " fill="#325764" transform="translate(285.33984375,105.07421875)"/>
<path d="M0 0 C0.68964844 0.20496094 1.37929687 0.40992188 2.08984375 0.62109375 C8.0949719 2.34272857 13.77409051 3.48967955 20 4 C20 4.66 20 5.32 20 6 C16.37 6 12.74 6 9 6 C9 5.34 9 4.68 9 4 C7.6078125 4.061875 7.6078125 4.061875 6.1875 4.125 C3 4 3 4 0 2 C0 1.34 0 0.68 0 0 Z " fill="#095663" transform="translate(230,193)"/>
<path d="M0 0 C0.33 0.66 0.66 1.32 1 2 C0.34 2 -0.32 2 -1 2 C-1.2165625 2.8971875 -1.2165625 2.8971875 -1.4375 3.8125 C-1.8872439 5.56150404 -2.42892341 7.28677023 -3 9 C-2.34 9.66 -1.68 10.32 -1 11 C-1 11.99 -1 12.98 -1 14 C-0.01 14 0.98 14 2 14 C2 14.66 2 15.32 2 16 C-0.9719385 14.87548273 -3.33440687 13.77706209 -6 12 C-5.39294514 7.87202695 -4.06000669 4.62561178 -2 1 C-1.34 0.67 -0.68 0.34 0 0 Z " fill="#32DCD1" transform="translate(140,187)"/>
<path d="M0 0 C1.66666667 0 3.33333333 0 5 0 C5 2.97 5 5.94 5 9 C3.68 9 2.36 9 1 9 C0.67 6.03 0.34 3.06 0 0 Z " fill="#20E7DA" transform="translate(242,338)"/>
<path d="M0 0 C2.52940738 3.13164723 4.44920018 6.27808042 6 10 C5.6875 12.375 5.6875 12.375 5 14 C4.01 13.67 3.02 13.34 2 13 C1 10 1 10 2 7 C1.34 7 0.68 7 0 7 C0 4.69 0 2.38 0 0 Z " fill="#58717C" transform="translate(379,177)"/>
<path d="M0 0 C1.3420606 4.02618181 -0.10727931 6.32271699 -1.75 10 C-2.01554687 10.6290625 -2.28109375 11.258125 -2.5546875 11.90625 C-3.96208982 15.13097764 -5.25166813 17.74835461 -8 20 C-8.33 18.35 -8.66 16.7 -9 15 C-8.01 15 -7.02 15 -6 15 C-6 14.01 -6 13.02 -6 12 C-5.34 12 -4.68 12 -4 12 C-4 10.35 -4 8.7 -4 7 C-3.34 7 -2.68 7 -2 7 C-2 5.35 -2 3.7 -2 2 C-1.34 2 -0.68 2 0 2 C0 1.34 0 0.68 0 0 Z " fill="#35D5CD" transform="translate(371,293)"/>
<path d="M0 0 C2.31 0.33 4.62 0.66 7 1 C7.2475 2.051875 7.495 3.10375 7.75 4.1875 C8.76700786 7.8133541 10.45373429 10.19910772 13 13 C12.67 13.66 12.34 14.32 12 15 C10.56147125 13.25084555 9.12421802 11.50064205 7.6875 9.75 C6.88699219 8.77546875 6.08648437 7.8009375 5.26171875 6.796875 C3.45557742 4.5633738 1.70180085 2.31312737 0 0 Z " fill="#0B525F" transform="translate(342,160)"/>
<path d="M0 0 C0 4.30269952 -2.2009571 5.8677377 -5 9 C-7.35953094 11.35953094 -8.77895617 11.49141413 -12 12 C-8.32167983 7.47384007 -4.58913637 3.60575001 0 0 Z " fill="#31D8CF" transform="translate(172,148)"/>
<path d="M0 0 C0 0.66 0 1.32 0 2 C-0.58007812 2.18175781 -1.16015625 2.36351562 -1.7578125 2.55078125 C-6.37630033 4.03692832 -10.77322178 5.56960252 -15 8 C-15.33 8.66 -15.66 9.32 -16 10 C-17.98 10 -19.96 10 -22 10 C-18.85881272 7.47798906 -15.60307137 5.66752801 -12 3.875 C-10.453125 3.09769531 -10.453125 3.09769531 -8.875 2.3046875 C-5.83314164 0.92427895 -3.33799377 0 0 0 Z " fill="#37D1CC" transform="translate(208,129)"/>
<path d="M0 0 C6.30719307 0.92065781 9.91921368 1.9977458 14 7 C13.67 7.66 13.34 8.32 13 9 C10.83061859 7.69181533 8.6644848 6.37874076 6.5 5.0625 C5.87996094 4.68931641 5.25992187 4.31613281 4.62109375 3.93164062 C3.06370003 2.9818016 1.5296725 1.99386689 0 1 C0 0.67 0 0.34 0 0 Z " fill="#30D6CD" transform="translate(266,274)"/>
<path d="M0 0 C8.26838016 -0.62402869 8.26838016 -0.62402869 11.125 1.8125 C12 4 12 4 11 7 C11.66 7 12.32 7 13 7 C12.67 8.65 12.34 10.3 12 12 C11.7525 11.46375 11.505 10.9275 11.25 10.375 C9.65846055 7.35107505 8.14261631 4.67827038 6 2 C2.86734521 1.0311941 2.86734521 1.0311941 0 1 C0 0.67 0 0.34 0 0 Z " fill="#33DBD1" transform="translate(330,218)"/>
<path d="M0 0 C1.32 0.66 2.64 1.32 4 2 C2.64775615 3.94385053 1.42479867 4.87012525 -0.83984375 5.5625 C-2.97859749 5.94484704 -4.83150036 6.16580078 -7 6 C-9.5 4.0625 -9.5 4.0625 -11 2 C-10.01 2 -9.02 2 -8 2 C-8 2.66 -8 3.32 -8 4 C-5.06556598 3.73343428 -5.06556598 3.73343428 -2 3 C-1.34 2.01 -0.68 1.02 0 0 Z " fill="#31D5CE" transform="translate(170,211)"/>
<path d="M0 0 C0.33 0.66 0.66 1.32 1 2 C0.41992188 2.24234375 -0.16015625 2.4846875 -0.7578125 2.734375 C-4.50965152 4.34407491 -8.01702852 5.88113673 -11.3125 8.3125 C-14 10 -14 10 -16.16796875 9.60546875 C-16.77253906 9.40566406 -17.37710938 9.20585937 -18 9 C-12.14941317 5.2954276 -6.57879137 2.19293046 0 0 Z " fill="#0A5D67" transform="translate(204,193)"/>
<path d="M0 0 C3.3 0 6.6 0 10 0 C7.13311223 2.15016583 4.88949817 3.67007588 1.75 5.1875 C1.04359375 5.53167969 0.3371875 5.87585938 -0.390625 6.23046875 C-1.18726563 6.61138672 -1.18726563 6.61138672 -2 7 C-2.33 6.01 -2.66 5.02 -3 4 C-2.34 4 -1.68 4 -1 4 C-0.67 2.68 -0.34 1.36 0 0 Z " fill="#2DDED1" transform="translate(189,195)"/>
<path d="M0 0 C0.99 0.33 1.98 0.66 3 1 C-0.96 6.94 -0.96 6.94 -5 13 C-6.09658936 9.71023192 -5.79953138 8.28696233 -5 5 C-4.01 5 -3.02 5 -2 5 C-1.34 3.35 -0.68 1.7 0 0 Z " fill="#455C6A" transform="translate(374,327)"/>
<path d="M0 0 C2.97 1.65 5.94 3.3 9 5 C9 5.33 9 5.66 9 6 C5.7 5.67 2.4 5.34 -1 5 C-1 1 -1 1 0 0 Z " fill="#2CDDD2" transform="translate(337,275)"/>
<path d="M0 0 C2.475 0.99 2.475 0.99 5 2 C5 3.32 5 4.64 5 6 C5.99 6.33 6.98 6.66 8 7 C7.67 7.66 7.34 8.32 7 9 C3.04 7.35 -0.92 5.7 -5 4 C-1 3 -1 3 1 4 C0.67 2.68 0.34 1.36 0 0 Z " fill="#2CD6CE" transform="translate(315,210)"/>
<path d="M0 0 C0.33 0 0.66 0 1 0 C1.12375 0.94875 1.2475 1.8975 1.375 2.875 C1.71687177 6.08667191 1.71687177 6.08667191 4 8 C3.625 10.625 3.625 10.625 3 13 C-0.06734237 10.06602035 -0.97028556 8.84686156 -1.125 4.4375 C-1 1 -1 1 0 0 Z " fill="#35D8D0" transform="translate(272,317)"/>
<path d="M0 0 C2.31 0 4.62 0 7 0 C7 1.32 7 2.64 7 4 C7.5775 4.0825 8.155 4.165 8.75 4.25 C11.6159304 5.20531013 12.9990764 6.78469173 15 9 C13.02 8.34 11.04 7.68 9 7 C9 6.34 9 5.68 9 5 C8.443125 4.9175 7.88625 4.835 7.3125 4.75 C4.30285794 3.77389987 2.37845248 2.04811186 0 0 Z " fill="#33D1CB" transform="translate(287,287)"/>
<path d="M0 0 C2.49770493 1.1893833 4.48680657 2.50776832 6.625 4.25 C3.625 4.25 3.625 4.25 -0.25 3.625 C-3.83616456 3.1419926 -6.11737435 3.51938638 -9.375 5.25 C-3.25735294 -1.02863777 -3.25735294 -1.02863777 0 0 Z " fill="#0A5361" transform="translate(241.375,259.75)"/>
<path d="M0 0 C0.66 0.33 1.32 0.66 2 1 C-0.33846154 6.66153846 -0.33846154 6.66153846 -3.6875 8.375 C-4.450625 8.58125 -5.21375 8.7875 -6 9 C-6.33 8.01 -6.66 7.02 -7 6 C-4.69 4.02 -2.38 2.04 0 0 Z " fill="#506D79" transform="translate(162,129)"/>
<path d="M0 0 C4.40114397 0.50298788 6.71195019 2.08772731 10 5 C8.68 5 7.36 5 6 5 C6 4.34 6 3.68 6 3 C5.01 3 4.02 3 3 3 C2.67 3.66 2.34 4.32 2 5 C0.68 4.67 -0.64 4.34 -2 4 C-1.34 2.68 -0.68 1.36 0 0 Z " fill="#32DDD2" transform="translate(279,306)"/>
<path d="M0 0 C2.31 0.33 4.62 0.66 7 1 C6 4 6 4 3.9375 5.1875 C3.298125 5.455625 2.65875 5.72375 2 6 C2 5.34 2 4.68 2 4 C1.01 4 0.02 4 -1 4 C-0.67 2.68 -0.34 1.36 0 0 Z " fill="#1FE7D7" transform="translate(250,259)"/>
<path d="M0 0 C0.66 1.32 1.32 2.64 2 4 C1 5 1 5 -1.13305664 5.11352539 C-2.04949951 5.10828857 -2.96594238 5.10305176 -3.91015625 5.09765625 C-4.89951172 5.09443359 -5.88886719 5.09121094 -6.90820312 5.08789062 C-7.94912109 5.07951172 -8.99003906 5.07113281 -10.0625 5.0625 C-11.10728516 5.05798828 -12.15207031 5.05347656 -13.22851562 5.04882812 C-15.8190666 5.03699913 -18.40950559 5.02051689 -21 5 C-19 3 -19 3 -17.12060547 2.77294922 C-16.37697754 2.78342285 -15.63334961 2.79389648 -14.8671875 2.8046875 C-13.65869141 2.81435547 -13.65869141 2.81435547 -12.42578125 2.82421875 C-11.16314453 2.84935547 -11.16314453 2.84935547 -9.875 2.875 C-8.60076172 2.88853516 -8.60076172 2.88853516 -7.30078125 2.90234375 C-5.20040116 2.92594353 -3.10016556 2.96181517 -1 3 C-0.67 2.01 -0.34 1.02 0 0 Z " fill="#384F5B" transform="translate(361,344)"/>
<path d="M0 0 C2.64 1.32 5.28 2.64 8 4 C5.07175348 4.97608217 3.04386724 5.08226668 0 5 C0 5.66 0 6.32 0 7 C-0.66 7 -1.32 7 -2 7 C-1.34 4.69 -0.68 2.38 0 0 Z " fill="#33D6CD" transform="translate(127,217)"/>
<path d="M0 0 C1.5625 1.1875 1.5625 1.1875 3 3 C2.71263151 5.87368492 1.91403285 8.25790144 1 11 C0.34 11 -0.32 11 -1 11 C-1.0270043 9.54176788 -1.04639787 8.08339325 -1.0625 6.625 C-1.07410156 5.81289062 -1.08570312 5.00078125 -1.09765625 4.1640625 C-1 2 -1 2 0 0 Z " fill="#365965" transform="translate(107,214)"/>
<path d="M0 0 C1.32 0 2.64 0 4 0 C4 1.65 4 3.3 4 5 C4.66 5.33 5.32 5.66 6 6 C5.67 6.99 5.34 7.98 5 9 C3.02 7.35 1.04 5.7 -1 4 C-0.67 2.68 -0.34 1.36 0 0 Z " fill="#2BD8CF" transform="translate(291,193)"/>
<path d="M0 0 C0.99 0.495 0.99 0.495 2 1 C2 1.66 2 2.32 2 3 C2.8971875 3.37125 2.8971875 3.37125 3.8125 3.75 C6.28647521 5.16370012 7.43370255 6.65055383 9 9 C6.69 8.67 4.38 8.34 2 8 C1.34 5.36 0.68 2.72 0 0 Z " fill="#476571" transform="translate(345,135)"/>
<path d="M0 0 C0.625 1.8125 0.625 1.8125 1 4 C1.185625 4.7425 1.37125 5.485 1.5625 6.25 C1.706875 6.8275 1.85125 7.405 2 8 C1.34 8 0.68 8 0 8 C-0.309375 6.824375 -0.309375 6.824375 -0.625 5.625 C-1.80676612 2.69083714 -1.80676612 2.69083714 -5.125 1.6875 C-6.07375 1.460625 -7.0225 1.23375 -8 1 C-8 0.67 -8 0.34 -8 0 C-4.71303767 -0.79953138 -3.28976808 -1.09658936 0 0 Z " fill="#31D3CE" transform="translate(181,340)"/>
<path d="M0 0 C3.29680965 0.65784963 5.84117922 1.89420573 8.75 3.5625 C9.94882812 4.24505859 9.94882812 4.24505859 11.171875 4.94140625 C11.77515625 5.29074219 12.3784375 5.64007813 13 6 C12.34 6.66 11.68 7.32 11 8 C10.01 7.67 9.02 7.34 8 7 C8 6.34 8 5.68 8 5 C7.05125 4.9175 6.1025 4.835 5.125 4.75 C2 4 2 4 0.625 1.9375 C0.41875 1.298125 0.2125 0.65875 0 0 Z " fill="#0B5464" transform="translate(273,280)"/>
<path d="M0 0 C0.33 0.66 0.66 1.32 1 2 C0.67 2.66 0.34 3.32 0 4 C-0.99 4.309375 -1.98 4.61875 -3 4.9375 C-4.485 5.4634375 -4.485 5.4634375 -6 6 C-6.33 6.99 -6.66 7.98 -7 9 C-10.0625 10.1875 -10.0625 10.1875 -13 11 C-9.0299782 6.78185183 -4.69159716 3.38772897 0 0 Z " fill="#36D5CF" transform="translate(232,252)"/>
<path d="M0 0 C2.64 0 5.28 0 8 0 C8 0.66 8 1.32 8 2 C11.96 2.33 15.92 2.66 20 3 C20 3.33 20 3.66 20 4 C12.7515055 4.41640288 6.83085645 3.44166784 0 1 C0 0.67 0 0.34 0 0 Z " fill="#39D3CE" transform="translate(231,193)"/>
<path d="M0 0 C0.33 0 0.66 0 1 0 C1.33168041 4.7540859 0.59443287 7.05646203 -2 11 C-2.69579454 13.19130534 -2.69579454 13.19130534 -3 15 C-3.99 15 -4.98 15 -6 15 C-4.40109514 9.80355921 -2.25861997 4.93387858 0 0 Z " fill="#0A5763" transform="translate(370,298)"/>
<path d="M0 0 C1.2065625 0.0309375 1.2065625 0.0309375 2.4375 0.0625 C0.13982915 2.89040258 -0.95198075 3.97528296 -4.625 4.5 C-7.7729846 4.03115123 -8.69035559 3.55869254 -10.5625 1.0625 C-9.428125 1.083125 -8.29375 1.10375 -7.125 1.125 C-3.34891585 1.05875291 -3.4052247 0.08305426 0 0 Z " fill="#09606A" transform="translate(353.5625,276.9375)"/>
<path d="M0 0 C0.33 0 0.66 0 1 0 C1.33951619 1.56116819 1.67132544 3.12401338 2 4.6875 C2.185625 5.55761719 2.37125 6.42773438 2.5625 7.32421875 C2.98972047 9.93712964 3.07616201 12.35813038 3 15 C0.71622998 13.19508499 0.04837122 12.23563695 -0.546875 9.3359375 C-0.61390625 8.35882813 -0.6809375 7.38171875 -0.75 6.375 C-0.82734375 5.39273437 -0.9046875 4.41046875 -0.984375 3.3984375 C-0.98953125 2.60695313 -0.9946875 1.81546875 -1 1 C-0.67 0.67 -0.34 0.34 0 0 Z " fill="#4E6A73" transform="translate(106,272)"/>
<path d="M0 0 C2.62187494 1.04874998 3.79371361 1.64931313 5.25 4.125 C5.4975 4.74375 5.745 5.3625 6 6 C6.66 6 7.32 6 8 6 C7.67 6.66 7.34 7.32 7 8 C3.7 6.02 0.4 4.04 -3 2 C-2.01 1.34 -1.02 0.68 0 0 Z " fill="#105B67" transform="translate(192,252)"/>
<path d="M0 0 C1.98 0.99 3.96 1.98 6 3 C5.67 3.99 5.34 4.98 5 6 C2.9375 6.6875 2.9375 6.6875 1 7 C-0.0625 5.1875 -0.0625 5.1875 -1 3 C-0.67 2.01 -0.34 1.02 0 0 Z " fill="#2ADCD0" transform="translate(322,144)"/>
<path d="M0 0 C1.79398267 0.95399078 3.58511655 1.91334026 5.375 2.875 C6.37273437 3.40867187 7.37046875 3.94234375 8.3984375 4.4921875 C11 6 11 6 13 8 C12.01 8.33 11.02 8.66 10 9 C7.625 7.25 7.625 7.25 5 5 C4.071875 4.46375 3.14375 3.9275 2.1875 3.375 C1.465625 2.92125 0.74375 2.4675 0 2 C0 1.34 0 0.68 0 0 Z " fill="#32D6CE" transform="translate(293,281)"/>
<path d="M0 0 C3.69876091 1.37287342 6.9514476 3.06355453 10.3125 5.125 C11.19550781 5.66382813 12.07851562 6.20265625 12.98828125 6.7578125 C13.65214844 7.16773438 14.31601563 7.57765625 15 8 C12 9 12 9 9.08203125 7.63671875 C8.00308594 6.99347656 6.92414063 6.35023438 5.8125 5.6875 C4.72582031 5.05199219 3.63914063 4.41648438 2.51953125 3.76171875 C1.68808594 3.18035156 0.85664063 2.59898437 0 2 C0 1.34 0 0.68 0 0 Z " fill="#37D3CC" transform="translate(139,224)"/>
<path d="M0 0 C3.63 1.98 7.26 3.96 11 6 C11 6.33 11 6.66 11 7 C8.69 7 6.38 7 4 7 C3.67 6.01 3.34 5.02 3 4 C2.01 3.34 1.02 2.68 0 2 C0 1.34 0 0.68 0 0 Z " fill="#35D3CC" transform="translate(325,333)"/>
<path d="M0 0 C4.29 2.31 8.58 4.62 13 7 C11.68 7.33 10.36 7.66 9 8 C7.64082143 7.03542166 6.30915279 6.03145371 5 5 C2.35065178 4.28566879 2.35065178 4.28566879 0 4 C0 2.68 0 1.36 0 0 Z " fill="#0B5765" transform="translate(250,265)"/>
<path d="M0 0 C2.91517292 1.07401108 4.77810176 1.77810176 7 4 C3.04 4 -0.92 4 -5 4 C-3.35 2.68 -1.7 1.36 0 0 Z " fill="#35D2C9" transform="translate(238,248)"/>
<path d="M0 0 C1.65 0.33 3.3 0.66 5 1 C4.67 2.98 4.34 4.96 4 7 C2.68 7 1.36 7 0 7 C-0.93423645 3.98968256 -1.04449911 3.13349732 0 0 Z " fill="#21E8DA" transform="translate(171,245)"/>
<path d="M0 0 C3.39192363 0.59283621 5.2107757 1.76743189 7.75 4.0625 C8.67039062 4.88427734 8.67039062 4.88427734 9.609375 5.72265625 C10.29773438 6.35494141 10.29773438 6.35494141 11 7 C9.68 7.33 8.36 7.66 7 8 C6.6596875 7.071875 6.6596875 7.071875 6.3125 6.125 C4.62070165 3.38589791 3.00755839 2.94975528 0 2 C0 1.34 0 0.68 0 0 Z " fill="#0A5461" transform="translate(287,196)"/>
<path d="M0 0 C3.93673644 1.31224548 6.22719294 2.91910327 9 6 C6.36 5.67 3.72 5.34 1 5 C0.67 3.35 0.34 1.7 0 0 Z " fill="#32D9CE" transform="translate(201,261)"/>
<path d="M0 0 C4.29 1.65 8.58 3.3 13 5 C8.44968209 6.13757948 6.36915594 5.4283779 2 4 C2 3.34 2 2.68 2 2 C1.34 2 0.68 2 0 2 C0 1.34 0 0.68 0 0 Z " fill="#33D5CD" transform="translate(294,129)"/>
<path d="M0 0 C1 2 1 2 0.25 4.4375 C-0.93098981 6.85852911 -1.9831559 8.25818009 -4 10 C-4.66 9.67 -5.32 9.34 -6 9 C-4.02 6.03 -2.04 3.06 0 0 Z " fill="#0B5A66" transform="translate(363,314)"/>
<path d="M0 0 C2.475 0.495 2.475 0.495 5 1 C5 1.66 5 2.32 5 3 C6.65 3 8.3 3 10 3 C9.67 4.32 9.34 5.64 9 7 C7.4972763 6.02501855 5.99788037 5.04490611 4.5 4.0625 C3.6646875 3.51722656 2.829375 2.97195313 1.96875 2.41015625 C1.3190625 1.94480469 0.669375 1.47945313 0 1 C0 0.67 0 0.34 0 0 Z " fill="#0C5864" transform="translate(283,306)"/>
<path d="M0 0 C1.65 0.33 3.3 0.66 5 1 C3.68 2.32 2.36 3.64 1 5 C0.01 4.67 -0.98 4.34 -2 4 C-1.34 2.68 -0.68 1.36 0 0 Z " fill="#125967" transform="translate(155,244)"/>
<path d="M0 0 C1.32 0 2.64 0 4 0 C4 0.66 4 1.32 4 2 C5.98 1.67 7.96 1.34 10 1 C9.67 2.32 9.34 3.64 9 5 C5.22454612 3.90931332 2.52956528 3.0916909 0 0 Z " fill="#0F5463" transform="translate(132,219)"/>
<path d="M0 0 C0 0.66 0 1.32 0 2 C-0.66 2 -1.32 2 -2 2 C-2 2.66 -2 3.32 -2 4 C-3.65 4.66 -5.3 5.32 -7 6 C-7.33 5.01 -7.66 4.02 -8 3 C-3.375 0 -3.375 0 0 0 Z " fill="#55737E" transform="translate(184,117)"/>
<path d="M0 0 C0.33 0.99 0.66 1.98 1 3 C0.34 3 -0.32 3 -1 3 C-1.33 3.99 -1.66 4.98 -2 6 C-4.5625 7.1875 -4.5625 7.1875 -7 8 C-5.50902342 4.2047869 -3.24299151 2.38957269 0 0 Z " fill="#095C68" transform="translate(180,207)"/>
<path d="M0 0 C2.15377564 2.62198774 3.40072174 4.64404172 4 8 C1.69 8 -0.62 8 -3 8 C-1.68 7.67 -0.36 7.34 1 7 C0.67 4.69 0.34 2.38 0 0 Z " fill="#45C5C1" transform="translate(147,341)"/>
<path d="M0 0 C0.86625 0.4640625 0.86625 0.4640625 1.75 0.9375 C3.84294184 1.92583364 5.74535275 2.5168613 8 3 C8.33 4.65 8.66 6.3 9 8 C5.27885429 5.68462045 2.38770339 3.71420527 0 0 Z " fill="#33CDC8" transform="translate(284,337)"/>
<path d="M0 0 C2.31 0.33 4.62 0.66 7 1 C7 1.99 7 2.98 7 4 C7.66 4 8.32 4 9 4 C9 4.66 9 5.32 9 6 C5.06326356 4.68775452 2.77280706 3.08089673 0 0 Z " fill="#085764" transform="translate(320,329)"/>
<path d="M0 0 C0.66 0.33 1.32 0.66 2 1 C1.19152271 2.16945792 0.37810888 3.33550461 -0.4375 4.5 C-0.88996094 5.1496875 -1.34242188 5.799375 -1.80859375 6.46875 C-2.20175781 6.9740625 -2.59492188 7.479375 -3 8 C-3.33 8 -3.66 8 -4 8 C-4 6.35 -4 4.7 -4 3 C-3.34 3 -2.68 3 -2 3 C-2 2.34 -2 1.68 -2 1 C-1.34 0.67 -0.68 0.34 0 0 Z " fill="#0C5865" transform="translate(191,307)"/>
<path d="M0 0 C0.33 0.99 0.66 1.98 1 3 C2.32 2.67 3.64 2.34 5 2 C5.66 3.65 6.32 5.3 7 7 C3.54074837 5.7508258 0.85306797 4.32472205 -2 2 C-1.34 2 -0.68 2 0 2 C0 1.34 0 0.68 0 0 Z " fill="#2ED3CA" transform="translate(196,264)"/>
<path d="M0 0 C0.66 0 1.32 0 2 0 C1.67 1.65 1.34 3.3 1 5 C0.67 5 0.34 5 0 5 C-0.33 6.98 -0.66 8.96 -1 11 C-1.33 11 -1.66 11 -2 11 C-2.25 3.375 -2.25 3.375 0 0 Z " fill="#1F5D6C" transform="translate(250,338)"/>
<path d="M0 0 C3.91402949 1.26941497 5.79072873 2.51167694 8 6 C7.236875 5.690625 6.47375 5.38125 5.6875 5.0625 C3.81210323 4.32106407 1.91315348 3.63771783 0 3 C0 2.01 0 1.02 0 0 Z " fill="#0B5360" transform="translate(280,336)"/>
<path d="M0 0 C2.475 0.495 2.475 0.495 5 1 C5 1.66 5 2.32 5 3 C5.99 3 6.98 3 8 3 C8.33 4.32 8.66 5.64 9 7 C5.18315774 5.44499019 2.80804268 2.96404505 0 0 Z " fill="#35D4CE" transform="translate(275,330)"/>
<path d="M0 0 C3.465 1.98 3.465 1.98 7 4 C3.79937313 5.60031344 1.27728194 4.03173691 -2 3 C-1.34 2.67 -0.68 2.34 0 2 C0 1.34 0 0.68 0 0 Z " fill="#0B5460" transform="translate(187,262)"/>
<path d="M0 0 C1.32 0.99 2.64 1.98 4 3 C2.02 4.32 0.04 5.64 -2 7 C-1.125 2.25 -1.125 2.25 0 0 Z " fill="#30DAD0" transform="translate(180,202)"/>
<path d="M0 0 C0.99 0.33 1.98 0.66 3 1 C1.68 3.31 0.36 5.62 -1 8 C-1.33 8 -1.66 8 -2 8 C-2 6.02 -2 4.04 -2 2 C-1.34 2 -0.68 2 0 2 C0 1.34 0 0.68 0 0 Z " fill="#0A505E" transform="translate(141,178)"/>
<path d="M0 0 C3.26460973 1.80412643 4.88929795 2.83394693 7 6 C5.35 6.33 3.7 6.66 2 7 C2 5.68 2 4.36 2 3 C1.34 2.67 0.68 2.34 0 2 C0 1.34 0 0.68 0 0 Z " fill="#2FDCD1" transform="translate(330,150)"/>
<path d="M0 0 C1.258125 0.226875 2.51625 0.45375 3.8125 0.6875 C3.8125 1.0175 3.8125 1.3475 3.8125 1.6875 C1.79427083 2.14322917 -0.22395833 2.59895833 -2.2421875 3.0546875 C-4.39469964 3.59224428 -4.39469964 3.59224428 -6.1875 5.6875 C-6.5175 4.6975 -6.8475 3.7075 -7.1875 2.6875 C-5.15110924 -0.49436057 -3.4972064 -0.45804119 0 0 Z " fill="#4D6C79" transform="translate(287.1875,105.3125)"/>
<path d="M0 0 C3.16115776 1.36983503 3.9927092 1.9890638 6 5 C5.625 7.1875 5.625 7.1875 5 9 C4.731875 8.21625 4.46375 7.4325 4.1875 6.625 C3.15185568 3.71885077 3.15185568 3.71885077 0 2 C0 1.34 0 0.68 0 0 Z " fill="#075D67" transform="translate(236,339)"/>
<path d="M0 0 C1.65 1.65 3.3 3.3 5 5 C2.37886292 5 0.49064888 4.68707555 -2 4 C-1.34 2.68 -0.68 1.36 0 0 Z " fill="#31DAD0" transform="translate(198,328)"/>
<path d="M0 0 C3.37503669 1.1858237 5.64722731 2.27573689 8 5 C4.79604584 5 2.90600261 4.25664978 0 3 C0 2.01 0 1.02 0 0 Z " fill="#0E5865" transform="translate(328,313)"/>
<path d="M0 0 C0.99 0.33 1.98 0.66 3 1 C3 1.99 3 2.98 3 4 C2.01 4 1.02 4 0 4 C-0.33 4.66 -0.66 5.32 -1 6 C-1.33 4.35 -1.66 2.7 -2 1 C-1.34 0.67 -0.68 0.34 0 0 Z " fill="#3C616C" transform="translate(116,305)"/>
<path d="M0 0 C1.32 0.66 2.64 1.32 4 2 C4 2.99 4 3.98 4 5 C2.68 5.33 1.36 5.66 0 6 C-1.125 2.25 -1.125 2.25 0 0 Z " fill="#154A59" transform="translate(161,216)"/>
<path d="M0 0 C0.66 0 1.32 0 2 0 C2.33 1.65 2.66 3.3 3 5 C2.01 5.495 2.01 5.495 1 6 C0.01 5.01 -0.98 4.02 -2 3 C-1.34 2.67 -0.68 2.34 0 2 C0 1.34 0 0.68 0 0 Z " fill="#42626F" transform="translate(382,185)"/>
<path d="M0 0 C0.99 0.33 1.98 0.66 3 1 C1.87548273 3.9719385 0.77706209 6.33440687 -1 9 C-1.07427838 5.65747276 -1.06546953 3.1964086 0 0 Z " fill="#0C5A65" transform="translate(136,185)"/>
<path d="M0 0 C1.32 0.33 2.64 0.66 4 1 C4 1.66 4 2.32 4 3 C4.66 3 5.32 3 6 3 C5.67 4.32 5.34 5.64 5 7 C2.47411298 4.63707344 1.11179163 3.33537489 0 0 Z " fill="#536E76" transform="translate(131,338)"/>
<path d="M0 0 C0.99 0 1.98 0 3 0 C3.33 2.64 3.66 5.28 4 8 C0 3.375 0 3.375 0 0 Z " fill="#5D7480" transform="translate(119,317)"/>
<path d="M0 0 C0.66 0.66 1.32 1.32 2 2 C1.34 2 0.68 2 0 2 C0 1.34 0 0.68 0 0 Z M-2 1 C-1.01 1.99 -0.02 2.98 1 4 C-2.28976808 5.09658936 -3.71303767 4.79953138 -7 4 C-6.360625 3.690625 -5.72125 3.38125 -5.0625 3.0625 C-3.06389179 2.1654837 -3.06389179 2.1654837 -2 1 Z " fill="#0C5965" transform="translate(321,265)"/>
<path d="M0 0 C-0.66 0.66 -1.32 1.32 -2 2 C-4.93453261 1.63318342 -5.86437246 1.13562754 -8 -1 C-4.37673261 -2.2077558 -3.35853631 -1.54311128 0 0 Z " fill="#0F5A67" transform="translate(254,253)"/>
<path d="M0 0 C4.75 1.875 4.75 1.875 7 3 C7 3.66 7 4.32 7 5 C4.61435923 4.42415568 2.33317216 3.77772405 0 3 C0 2.01 0 1.02 0 0 Z " fill="#0E5B6A" transform="translate(152,210)"/>
<path d="M0 0 C2.475 0.99 2.475 0.99 5 2 C4.67 2.66 4.34 3.32 4 4 C3.01 3.67 2.02 3.34 1 3 C0.67 3.66 0.34 4.32 0 5 C-0.66 4.34 -1.32 3.68 -2 3 C-1.34 2.01 -0.68 1.02 0 0 Z " fill="#105261" transform="translate(138,202)"/>
</svg>
