<?xml version="1.0" encoding="UTF-8"?>
<svg version="1.1" xmlns="http://www.w3.org/2000/svg" width="439" height="356">
<path d="M0 0 C144.87 0 289.74 0 439 0 C439 117.48 439 234.96 439 356 C294.13 356 149.26 356 0 356 C0 238.52 0 121.04 0 0 Z " fill="#09EED7" transform="translate(0,0)"/>
<path d="M0 0 C0.92828613 0.20874756 1.85657227 0.41749512 2.81298828 0.63256836 C10.24104999 2.37667967 17.1928005 4.80229717 24.25 7.6875 C25.33901611 8.12884277 26.42803223 8.57018555 27.55004883 9.02490234 C36.26968769 12.60520272 44.7083013 16.52409274 53 21 C54.16144531 21.61101563 55.32289063 22.22203125 56.51953125 22.8515625 C102.43782271 47.8979033 138.06970827 93.7759701 153.77001953 143.43554688 C155.37792328 148.91068821 156.72948038 154.43807349 158 160 C158.19078125 160.82483887 158.3815625 161.64967773 158.578125 162.49951172 C159.14927249 164.99683481 159.70415197 167.49703233 160.25 170 C160.41338867 170.74064697 160.57677734 171.48129395 160.74511719 172.24438477 C163.19402875 183.97070278 163.23977332 195.82012761 163.25 207.75 C163.25100708 208.56747711 163.25201416 209.38495422 163.25305176 210.22720337 C163.24188159 223.67657878 162.51378872 236.7572031 160 250 C159.8448291 250.81968262 159.6896582 251.63936523 159.52978516 252.48388672 C154.95095098 275.9008195 145.88799671 296.73741273 134.375 317.5 C133.85341309 318.45084473 133.85341309 318.45084473 133.32128906 319.42089844 C132.62281172 320.66097238 131.90004138 321.88767266 131.15380859 323.09960938 C129.94929186 325.02215939 129.94929186 325.02215939 128.89697266 327.22851562 C127.45928455 329.72529143 126.31894563 331.27179585 124 333 C119.174034 333.98114053 114.52367845 333.75549777 109.625 333.5 C108.31660156 333.46390625 107.00820313 333.4278125 105.66015625 333.390625 C102.43710655 333.29652136 99.22006152 333.16516394 96 333 C96 332.34 96 331.68 96 331 C95.17302612 330.84289551 95.17302612 330.84289551 94.3293457 330.68261719 C91.49953324 329.85333769 89.27561672 328.57011596 86.73046875 327.078125 C85.16727905 326.16788574 85.16727905 326.16788574 83.57250977 325.23925781 C82.45545654 324.58280273 81.33840332 323.92634766 80.1875 323.25 C77.82679515 321.87280844 75.46407788 320.49908269 73.1015625 319.125 C72.50442947 318.77705383 71.90729645 318.42910767 71.29206848 318.07061768 C65.57838416 314.74456161 59.82504 311.49059754 54.0625 308.25 C46.37424627 303.9195778 38.71663394 299.54124526 31.0871582 295.1081543 C22.49515711 290.11798432 13.88181189 285.16196806 5.22460938 280.28564453 C3.78906444 279.45601551 2.37144366 278.59417123 0.97851562 277.69482422 C-1.02433706 276.37395887 -1.02433706 276.37395887 -4 275 C-6.29588196 275.41096161 -6.29588196 275.41096161 -8 277 C-8.57621094 277.46535156 -9.15242188 277.93070312 -9.74609375 278.41015625 C-15.24423761 283.78132219 -20.05482327 289.64293764 -20.75 297.5625 C-20.35461624 303.28567987 -17.01806174 306.2339184 -13 310 C-11.67355469 311.30130859 -11.67355469 311.30130859 -10.3203125 312.62890625 C-4.24170122 318.48382792 2.16946745 323.44631164 9.1875 328.125 C11.51088912 329.67392608 13.76610704 331.32458028 16 333 C-7.76 333 -31.52 333 -56 333 C-56 324.75 -56 316.5 -56 308 C-57.6843688 302.43937991 -57.6843688 302.43937991 -59.75390625 297.01953125 C-64.4931781 285.53533958 -63.2246292 272.18354197 -63 260 C-63.99 260 -64.98 260 -66 260 C-66.21011719 260.63808594 -66.42023438 261.27617187 -66.63671875 261.93359375 C-68.56951811 266.28100777 -71.20899755 270.09044465 -73.8125 274.0625 C-80.06563717 283.77515536 -86.08266682 293.590951 -86.1875 305.5 C-86.20167969 306.2321875 -86.21585938 306.964375 -86.23046875 307.71875 C-85.92742852 310.7183346 -85.58659212 312.38273166 -84 315 C-81.27829105 316.91778242 -78.36267767 318.35503711 -75.375 319.8125 C-74.57320312 320.21919922 -73.77140625 320.62589844 -72.9453125 321.04492188 C-70.97060389 322.0440304 -68.98619078 323.02391695 -67 324 C-67.66 327.3 -68.32 330.6 -69 334 C-85.5 334 -102 334 -119 334 C-119 327.4 -119 320.8 -119 314 C-122.31172048 309.31943506 -125.07297501 305.94501137 -129 302 C-135.04611694 293.89421685 -134.53846406 285.64448965 -134 276 C-134.66 276 -135.32 276 -136 276 C-136.26425781 276.56203125 -136.52851563 277.1240625 -136.80078125 277.703125 C-142.47117856 288.56369054 -150.51060428 297.23171877 -160.29345703 304.41210938 C-163.84380161 307.02646374 -166.95139903 309.81768846 -170 313 C-170.66 313.66 -171.32 314.32 -172 315 C-172.4727186 320.01081719 -172.13549313 323.02837537 -169 327 C-167.0572729 328.74993738 -165.04343252 330.36525398 -163 332 C-163 332.33 -163 332.66 -163 333 C-168.30175166 333.17357152 -173.60183656 333.30030928 -178.90576172 333.38452148 C-180.70813821 333.41963692 -182.51031652 333.46734303 -184.31201172 333.52807617 C-186.90902609 333.6134005 -189.50339815 333.65277328 -192.1015625 333.68359375 C-193.30191635 333.73778725 -193.30191635 333.73778725 -194.52651978 333.79307556 C-197.92834764 333.7954411 -200.11525088 333.72741412 -202.8024292 331.51809692 C-204.34907713 329.74331239 -205.69561736 327.95828698 -207 326 C-207.41182526 325.41886948 -207.82365051 324.83773895 -208.24795532 324.23899841 C-211.0237863 319.95596886 -211.42465684 317.01095069 -211 312 C-209.9924475 308.51215028 -208.67132434 305.17673242 -207.3125 301.8125 C-206.94745361 300.87994385 -206.58240723 299.9473877 -206.20629883 298.98657227 C-204.28290452 294.09966302 -202.27176003 289.2581505 -200.1875 284.4375 C-192.0465516 264.8002123 -192.95843386 240.2700709 -199 220 C-200.26529175 212.7545399 -197.64281951 206.33355064 -195.234375 199.6171875 C-194.20395384 196.59766221 -193.45448904 193.75224258 -192.875 190.625 C-192.58625 189.42875 -192.2975 188.2325 -192 187 C-189 186 -189 186 -186.63769531 186.96533203 C-185.71053711 187.47435059 -184.78337891 187.98336914 -183.828125 188.5078125 C-182.78309814 189.0757251 -181.73807129 189.6436377 -180.66137695 190.22875977 C-179.53562256 190.85451904 -178.40986816 191.48027832 -177.25 192.125 C-176.07354687 192.77015436 -174.89670243 193.41459564 -173.71948242 194.05834961 C-163.38679639 199.72445707 -153.12629636 205.52110416 -142.88818359 211.35595703 C-137.80676629 214.24845611 -132.71541682 217.1233789 -127.625 220 C-126.69212158 220.52795166 -125.75924316 221.05590332 -124.7980957 221.59985352 C-123.03745088 222.59566594 -121.27444279 223.58731475 -119.50878906 224.57421875 C-117.82852757 225.52913575 -116.16353735 226.51140899 -114.51464844 227.51953125 C-113.34337402 228.22142578 -113.34337402 228.22142578 -112.1484375 228.9375 C-111.46700684 229.35902344 -110.78557617 229.78054687 -110.08349609 230.21484375 C-107.35781458 231.24200472 -105.75692557 230.81988767 -103 230 C-100.88922013 228.80286666 -100.88922013 228.80286666 -98.8125 227.1875 C-93.81386031 223.55212568 -88.71174626 220.10410763 -83.5625 216.6875 C-82.76884033 216.15987061 -81.97518066 215.63224121 -81.1574707 215.08862305 C-79.71673816 214.13106771 -78.27569723 213.17397606 -76.83422852 212.2175293 C-75.22148897 211.14702056 -73.61059617 210.07373078 -72 209 C-68.82933066 209.3841146 -66.31026492 210.77725504 -63.53515625 212.30078125 C-62.6642334 212.77676758 -61.79331055 213.25275391 -60.89599609 213.74316406 C-59.96094238 214.26104492 -59.02588867 214.77892578 -58.0625 215.3125 C-57.08104004 215.85229492 -56.09958008 216.39208984 -55.08837891 216.94824219 C-45.98088835 221.97437374 -36.94779658 227.1272779 -27.93164062 232.31494141 C-22.33483023 235.53189555 -16.72965651 238.73424287 -11.125 241.9375 C-10.52990631 242.27773193 -9.93481262 242.61796387 -9.32168579 242.96850586 C-0.30677752 248.12206432 8.72496245 253.24520321 17.76904297 258.34741211 C24.0243917 261.87802159 30.26617183 265.43154573 36.5 269 C52.78203534 278.31168161 69.07730834 287.57546157 85.60546875 296.44555664 C89.94639152 298.7799556 94.26853758 301.12705217 98.515625 303.62890625 C99.16974365 304.01393311 99.8238623 304.39895996 100.49780273 304.7956543 C102.16730044 305.7886382 103.82822712 306.79599532 105.48828125 307.8046875 C108.0360886 309.3730851 108.0360886 309.3730851 111 308 C112.55300241 305.73305426 112.55300241 305.73305426 113.9609375 302.890625 C114.51523437 301.82457031 115.06953125 300.75851562 115.640625 299.66015625 C116.21296875 298.53480469 116.7853125 297.40945313 117.375 296.25 C117.93960937 295.17105469 118.50421875 294.09210938 119.0859375 292.98046875 C122.93920042 285.49693267 126.13919546 277.91269159 129 270 C129.25571777 269.31164062 129.51143555 268.62328125 129.77490234 267.9140625 C140.75849252 237.74104447 143.35155708 201.39438526 136 170 C135.70198486 168.70231689 135.70198486 168.70231689 135.39794922 167.37841797 C127.36906373 133.41653305 111.5367459 102.72029726 87.38085938 77.44824219 C86.05974143 76.06265668 84.75598229 74.66058215 83.453125 73.2578125 C72.27258921 61.56907054 59.05655979 51.94786792 45 44 C44.38253906 43.64486328 43.76507813 43.28972656 43.12890625 42.92382812 C27.06969813 33.74940923 9.99479934 27.22349847 -8 23 C-8.75410156 22.79890625 -9.50820313 22.5978125 -10.28515625 22.390625 C-36.46319759 15.73262605 -67.90255025 16.82686751 -94 23 C-94.89283691 23.20898926 -95.78567383 23.41797852 -96.70556641 23.63330078 C-129.66283789 31.622761 -158.71269205 48.52679176 -183 72 C-183.92296875 72.87140625 -184.8459375 73.7428125 -185.796875 74.640625 C-200.23896996 88.59315742 -212.6419805 105.70324809 -221 124 C-221 124.99 -221 125.98 -221 127 C-219.83726562 127.60585937 -218.67453125 128.21171875 -217.4765625 128.8359375 C-208.25912215 133.65520342 -199.09501474 138.54410308 -190.05322266 143.68701172 C-180.16513167 149.51645621 -180.16513167 149.51645621 -169 150 C-166.13411507 148.6604403 -163.70598568 146.90206224 -161.1875 145 C-160.49027832 144.49815186 -159.79305664 143.99630371 -159.07470703 143.47924805 C-157.03476148 142.00537915 -155.01449134 140.50841055 -153 139 C-134.85203793 125.45426622 -117.35452588 115.73433005 -94 118 C-87.07526199 119.27370036 -79.94159699 121.1610065 -73.546875 124.14453125 C-69.73124865 125.42616035 -66.06076695 125.32858313 -62.0625 125.3125 C-61.29615234 125.32861328 -60.52980469 125.34472656 -59.74023438 125.36132812 C-54.76294735 125.36539122 -50.3180065 124.67680556 -45.4765625 123.515625 C-37.80521356 121.77319892 -30.42629302 121.44156568 -22.59448242 121.4440918 C-20.3028686 121.43747218 -18.01547346 121.38259469 -15.72460938 121.32617188 C-4.71246019 121.19679378 3.40582175 123.32104613 11.49609375 131.18359375 C12.48582401 132.2597847 13.46632138 133.34453841 14.4375 134.4375 C20.05672795 140.34848434 25.62639749 144.39954069 33 148 C33.97598145 148.51651123 33.97598145 148.51651123 34.97167969 149.04345703 C44.57561168 154.1160188 52.73693409 156.981699 63.71899414 156.52490234 C68.08548509 156.43188834 69.45247448 156.49886206 72.8125 159.57421875 C75.13319482 162.91184725 76.92178022 166.53440092 78.6875 170.1875 C81.96684329 176.68914755 85.74916186 181.54133804 90.8984375 186.73046875 C94.00117299 190.08119239 95.02292558 192.53274914 95.4375 197 C96.66600752 203.21480274 101.17322743 207.05175202 105.46875 211.3984375 C109.40061212 215.43951802 110.6663564 218.31847219 111.15234375 223.796875 C111 226 111 226 109 228.625 C107.515 229.800625 107.515 229.800625 106 231 C104.84549081 232.20004667 103.70007273 233.40888662 102.5625 234.625 C98.46987013 238.67352826 95.03440496 240.62070416 89.3125 241.6875 C84.13752971 241.52918351 80.74550388 238.21729161 76.90625 235.04296875 C64.25220349 226.14771831 45.03299154 224.23095378 30 224 C31.002095 231.89710688 32.84456426 239.23116311 35.41088867 246.7421875 C35.99134508 248.47864303 36.5017344 250.23820011 37 252 C36.67 252.66 36.34 253.32 36 254 C35.11699219 253.49210937 34.23398437 252.98421875 33.32421875 252.4609375 C32.11201402 251.76556424 30.8997724 251.07025529 29.6875 250.375 C29.11193359 250.04371094 28.53636719 249.71242188 27.94335938 249.37109375 C20.67165929 245.20460614 13.2886526 241.24100225 5.921875 237.24609375 C-5.4610845 231.06942971 -16.76852108 224.7719112 -28.03125 218.37890625 C-35.46604966 214.16146899 -42.93175447 209.99920963 -50.40161133 205.84423828 C-51.3789624 205.29880371 -52.35631348 204.75336914 -53.36328125 204.19140625 C-54.3063916 203.66691895 -55.24950195 203.14243164 -56.22119141 202.60205078 C-59.81354216 200.53097315 -63.28418297 198.28244436 -66.73510742 195.98413086 C-69.60650808 194.73646286 -71.05261341 195.07140887 -74 196 C-76.49801936 197.39421516 -76.49801936 197.39421516 -79.0625 199.25 C-80.61324219 200.30767578 -80.61324219 200.30767578 -82.1953125 201.38671875 C-83.46354699 202.25780474 -84.73177553 203.12889942 -86 204 C-89.46422775 206.37704248 -92.94578934 208.72604874 -96.4375 211.0625 C-97.30189697 211.65901367 -98.16629395 212.25552734 -99.05688477 212.87011719 C-100.29523071 213.69431152 -100.29523071 213.69431152 -101.55859375 214.53515625 C-102.29392334 215.034104 -103.02925293 215.53305176 -103.78686523 216.04711914 C-106.66275029 217.28535183 -108.04607918 216.94408434 -111 216 C-113.13037109 214.99121094 -113.13037109 214.99121094 -115.2734375 213.734375 C-116.08643311 213.26306152 -116.89942871 212.79174805 -117.73706055 212.30615234 C-118.60758057 211.79262207 -119.47810059 211.2790918 -120.375 210.75 C-122.2639568 209.65301516 -124.15329334 208.55668401 -126.04296875 207.4609375 C-127.02185059 206.89084961 -128.00073242 206.32076172 -129.00927734 205.73339844 C-133.88087674 202.9098592 -138.78338392 200.14156158 -143.6875 197.375 C-144.6576001 196.82739014 -145.6277002 196.27978027 -146.62719727 195.71557617 C-168.79238388 183.21391018 -191.14847274 171.08099794 -213.6875 159.265625 C-220.14399094 155.87947622 -226.57198336 152.43980562 -233 149 C-234.39652963 154.31869796 -235.71568285 159.65314049 -237 165 C-237.18204987 165.75255066 -237.36409973 166.50510132 -237.55166626 167.28045654 C-240.65433259 180.40543806 -241.53468122 192.79637504 -241.3125 206.25 C-241.30095245 208.04686443 -241.29118421 209.84374119 -241.28320312 211.640625 C-241.23929454 232.31103492 -241.23929454 232.31103492 -238.1875 252.6875 C-238.01081787 253.48220703 -237.83413574 254.27691406 -237.65209961 255.09570312 C-234.8119342 267.55968403 -230.67511708 278.86041655 -224.83203125 290.21875 C-224.45788086 290.96608398 -224.08373047 291.71341797 -223.69824219 292.48339844 C-222.95588238 293.96492647 -222.1954429 295.43756823 -221.41503906 296.89941406 C-219.51282416 300.72715092 -218.86308542 302.33254141 -219.75 306.65625 C-220.1625 307.7596875 -220.575 308.863125 -221 310 C-222.12043689 318.82196622 -220.25190815 325.28582379 -216 333 C-220.22998349 333.82484678 -223.79430716 334.0488271 -228 333 C-231.18056533 329.81943467 -233.02496167 326.11461816 -234.9609375 322.10986328 C-236.07637343 319.84492031 -237.27688732 317.64214608 -238.5 315.43359375 C-243.76373856 305.85325586 -248.15028568 296.22325949 -252 286 C-252.62455078 284.56333984 -252.62455078 284.56333984 -253.26171875 283.09765625 C-273.66727564 235.14137902 -269.49805685 177.08237852 -250.96826172 129.39697266 C-236.93605954 94.65966529 -213.53350303 63.09355862 -184 40 C-183.05125 39.22269531 -182.1025 38.44539063 -181.125 37.64453125 C-154.9799291 16.66844758 -122.97093654 2.73437594 -90 -3 C-89.17338867 -3.14808105 -88.34677734 -3.29616211 -87.49511719 -3.44873047 C-58.16899059 -8.51078391 -28.85936111 -6.73883626 0 0 Z " fill="#244C5B" transform="translate(268,14)"/>
<path d="M0 0 C144.87 0 289.74 0 439 0 C439 117.48 439 234.96 439 356 C294.13 356 149.26 356 0 356 C0 238.52 0 121.04 0 0 Z M65 71 C64.25234375 71.70640625 63.5046875 72.4128125 62.734375 73.140625 C41.2357922 93.96208708 25.76111822 121.33855728 15 149 C14.52046875 150.22203125 14.0409375 151.4440625 13.546875 152.703125 C-6.33221536 207.81098308 -0.20328989 267.48106334 24.375 319.8125 C31.23036401 334.84448381 31.23036401 334.84448381 41 348 C43.03761187 348.09678239 45.07863712 348.12186965 47.11854553 348.12025452 C47.76460123 348.12110894 48.41065693 348.12196337 49.07629007 348.12284368 C51.25669817 348.12450024 53.43703055 348.11897429 55.61743164 348.11352539 C57.17420958 348.11324353 58.73098764 348.11340123 60.2877655 348.1139679 C64.52725204 348.11425592 68.76671054 348.10835846 73.00619054 348.10139394 C77.4318142 348.09516115 81.85743843 348.09455666 86.2830658 348.09336853 C94.66953978 348.09025499 103.0560008 348.0820413 111.44246906 348.07201904 C120.98765349 348.0608586 130.53283852 348.05534763 140.07802784 348.05032361 C159.71869248 348.03985871 179.35934542 348.02225883 199 348 C199.66 344.7 200.32 341.4 201 338 C199.19402344 337.11248047 199.19402344 337.11248047 197.3515625 336.20703125 C195.77562308 335.40968095 194.20012494 334.61145807 192.625 333.8125 C191.8309375 333.42513672 191.036875 333.03777344 190.21875 332.63867188 C184.3847334 329.64750235 184.3847334 329.64750235 182.484375 326.44921875 C179.40870042 310.89721908 187.99357917 296.99914522 196.296875 284.51953125 C197.69406449 282.4460426 199.10406158 280.38108065 200.53125 278.328125 C202.17785527 276.17686488 202.17785527 276.17686488 202 274 C202.99 274 203.98 274 205 274 C204.98428955 274.8521106 204.98428955 274.8521106 204.96826172 275.72143555 C204.52459083 295.41795617 204.52459083 295.41795617 209.625 314.25 C212 322 212 322 212 347 C235.76 347 259.52 347 284 347 C281.23333623 344.92500217 278.4893277 342.98345697 275.625 341.0625 C252.4434727 324.88694539 252.4434727 324.88694539 248 316 C246.87768309 309.40816397 248.53254555 304.94516362 252.1328125 299.44140625 C255.07590747 295.59321722 258.41963621 292.25322395 262 289 C266.09067902 290.25024136 269.60004648 291.75657669 273.2734375 293.94140625 C274.25441406 294.52019531 275.23539062 295.09898437 276.24609375 295.6953125 C277.27863281 296.31148438 278.31117188 296.92765625 279.375 297.5625 C281.54890932 298.84601772 283.72338862 300.12857056 285.8984375 301.41015625 C286.9512793 302.03164551 288.00412109 302.65313477 289.08886719 303.29345703 C292.69997682 305.41033529 296.34096019 307.4674722 300 309.5 C307.55974443 313.71076674 315.01580072 318.09374398 322.47949219 322.47192383 C331.24390577 327.59602205 340.09027362 332.56337213 348.97827148 337.46948242 C349.97028564 338.01967041 350.9622998 338.5698584 351.984375 339.13671875 C352.85803711 339.61842529 353.73169922 340.10013184 354.63183594 340.59643555 C357 342 357 342 359.12597656 343.67895508 C361.02652798 345.28808026 361.02652798 345.28808026 364 345 C364 345.66 364 346.32 364 347 C368.49832382 347.32137305 372.99369159 347.51538405 377.5 347.6875 C379.40265625 347.82575195 379.40265625 347.82575195 381.34375 347.96679688 C388.47250087 348.23942656 388.47250087 348.23942656 394.47827148 344.8737793 C396.60205434 342.01668026 398.31966949 339.13676606 400 336 C400.53318848 335.11642822 401.06637695 334.23285645 401.61572266 333.32250977 C403.17082073 330.72830332 404.62817997 328.10020007 406.0625 325.4375 C406.57417725 324.49366455 407.08585449 323.5498291 407.61303711 322.57739258 C413.33191729 311.81004675 417.4985797 300.64591355 421.30053711 289.08984375 C422.00461865 286.98620046 422.74937891 284.89991443 423.5 282.8125 C425.52291176 276.64894074 426.85158812 270.37765844 428 264 C428.13970215 263.24605957 428.2794043 262.49211914 428.42333984 261.71533203 C430.77041658 248.51600897 431.29323126 235.43349703 431.3125 222.0625 C431.31599457 221.28534637 431.31948914 220.50819275 431.3230896 219.70748901 C431.36267732 203.84412475 429.52367584 188.79241544 425.875 173.3125 C425.72449188 172.67068787 425.57398376 172.02887573 425.41891479 171.36761475 C421.20337642 153.55486902 414.69272251 137.07939557 406 121 C405.68063477 120.4013916 405.36126953 119.8027832 405.03222656 119.18603516 C378.12935308 69.08114032 331.64886478 33.91970985 278.0625 16.625 C200.51725846 -5.56068314 122.76387563 15.78922385 65 71 Z " fill="#EDFEFE" transform="translate(0,0)"/>
<path d="M0 0 C0.99 0 1.98 0 3 0 C3.01981934 0.56807373 3.03963867 1.13614746 3.06005859 1.72143555 C3.51428389 21.53503438 3.51428389 21.53503438 8.625 40.5 C12.44006372 50.44160723 12.57720562 62.69117752 10 73 C44.65 72.505 44.65 72.505 80 72 C76.37 69.69 72.74 67.38 69 65 C66.01953125 62.59375 66.01953125 62.59375 63.8125 60.5 C62.99910156 59.73945313 62.18570313 58.97890625 61.34765625 58.1953125 C60.57292969 57.47085938 59.79820312 56.74640625 59 56 C57.58769295 54.78657398 56.17131679 53.57786013 54.75 52.375 C44.69685233 43.46611304 44.69685233 43.46611304 44.25 37.6875 C45.01649171 27.65497512 53.01992904 20.42166529 60 14 C64.09067902 15.25024136 67.60004648 16.75657669 71.2734375 18.94140625 C72.25441406 19.52019531 73.23539062 20.09898437 74.24609375 20.6953125 C75.27863281 21.31148438 76.31117188 21.92765625 77.375 22.5625 C79.54890932 23.84601772 81.72338862 25.12857056 83.8984375 26.41015625 C84.9512793 27.03164551 86.00412109 27.65313477 87.08886719 28.29345703 C90.69997682 30.41033529 94.34096019 32.4674722 98 34.5 C104.53283714 38.13878086 110.9870794 41.90481085 117.4375 45.6875 C129.02560214 52.47870137 140.72967576 59.05103367 152.46533203 65.58300781 C155.65632255 67.36691351 158.83084715 69.17762599 162 71 C162 71.66 162 72.32 162 73 C171.24 73 180.48 73 190 73 C190 73.33 190 73.66 190 74 C126.31 74 62.62 74 -3 74 C-2.67 70.7 -2.34 67.4 -2 64 C-3.13179687 63.44570313 -4.26359375 62.89140625 -5.4296875 62.3203125 C-6.91156303 61.5887537 -8.39332815 60.85697122 -9.875 60.125 C-10.62136719 59.76019531 -11.36773437 59.39539063 -12.13671875 59.01953125 C-12.85214844 58.66503906 -13.56757813 58.31054688 -14.3046875 57.9453125 C-14.96452637 57.62062988 -15.62436523 57.29594727 -16.30419922 56.96142578 C-18.55185503 55.68712855 -19.80351048 54.60975136 -20.60546875 52.12109375 C-23.24302514 37.94096383 -16.22413971 25.64511409 -9 14 C-8.19522781 12.66801991 -7.39054182 11.33598774 -6.5859375 10.00390625 C-5.78841969 8.70972679 -4.98899138 7.41672237 -4.1875 6.125 C-3.62832886 5.20473022 -3.62832886 5.20473022 -3.05786133 4.26586914 C-1.98046875 2.5703125 -1.98046875 2.5703125 0 0 Z " fill="#0DF0DB" transform="translate(202,274)"/>
<path d="M0 0 C0.99 0 1.98 0 3 0 C3.01981934 0.56807373 3.03963867 1.13614746 3.06005859 1.72143555 C3.51428389 21.53503438 3.51428389 21.53503438 8.625 40.5 C12.41396914 50.37360781 12.67947379 62.75854139 10 73 C10.74134186 72.98525131 11.48268372 72.97050262 12.24649048 72.95530701 C22.03902338 72.76361077 31.83183086 72.59316317 41.625 72.4375 C42.82540483 72.4184001 42.82540483 72.4184001 44.05006027 72.39891434 C71.56233299 71.96846656 99.05027002 72.03200639 126.5625 72.4375 C127.86783062 72.45672075 127.86783062 72.45672075 129.19953156 72.4763298 C139.79998851 72.63394968 150.4001068 72.80819858 161 73 C161.33 72.34 161.66 71.68 162 71 C162 71.66 162 72.32 162 73 C171.24 73 180.48 73 190 73 C190 73.33 190 73.66 190 74 C126.31 74 62.62 74 -3 74 C-2.67 70.7 -2.34 67.4 -2 64 C-3.13179687 63.44570313 -4.26359375 62.89140625 -5.4296875 62.3203125 C-6.91156303 61.5887537 -8.39332815 60.85697122 -9.875 60.125 C-10.62136719 59.76019531 -11.36773437 59.39539063 -12.13671875 59.01953125 C-12.85214844 58.66503906 -13.56757813 58.31054688 -14.3046875 57.9453125 C-14.96452637 57.62062988 -15.62436523 57.29594727 -16.30419922 56.96142578 C-18.55185503 55.68712855 -19.80351048 54.60975136 -20.60546875 52.12109375 C-23.24302514 37.94096383 -16.22413971 25.64511409 -9 14 C-8.19522781 12.66801991 -7.39054182 11.33598774 -6.5859375 10.00390625 C-5.78841969 8.70972679 -4.98899138 7.41672237 -4.1875 6.125 C-3.62832886 5.20473022 -3.62832886 5.20473022 -3.05786133 4.26586914 C-1.98046875 2.5703125 -1.98046875 2.5703125 0 0 Z " fill="#11E5D1" transform="translate(202,274)"/>
<path d="M0 0 C0.33 0 0.66 0 1 0 C0.93071289 0.91281738 0.86142578 1.82563477 0.79003906 2.76611328 C0.05882262 13.23603987 -0.21750648 23.66799152 -0.24023438 34.16259766 C-0.24996479 36.86521927 -0.28113889 39.5670856 -0.3125 42.26953125 C-0.36805684 51.73594373 0.10837161 60.75613209 1.94549561 70.05978394 C2.82205391 74.49981662 3.13940875 78.50296711 3 83 C-2.03615679 78.74816271 -1.74898668 71.83445308 -2.29760742 65.6394043 C-2.99266978 55.18580476 -3.18622716 44.76366981 -3.18530273 34.28808594 C-3.1875191 31.47576391 -3.20584476 28.66381717 -3.22460938 25.8515625 C-3.22753935 24.03645965 -3.22952679 22.22135497 -3.23046875 20.40625 C-3.23765427 19.57903442 -3.24483978 18.75181885 -3.25224304 17.89953613 C-3.22728191 11.50131593 -2.02831957 6.08495872 0 0 Z " fill="#06F1E3" transform="translate(29,188)"/>
<path d="M0 0 C0.33 0.66 0.66 1.32 1 2 C2.24574799 1.97121513 2.24574799 1.97121513 3.5166626 1.94184875 C11.34414387 1.76370815 19.17176432 1.6002957 26.999897 1.45341206 C31.02440814 1.37737852 35.04863601 1.2956585 39.07275391 1.20092773 C42.95642096 1.10971279 46.84012045 1.03345504 50.72429657 0.96755028 C52.20596006 0.93978338 53.68753278 0.9066323 55.16895294 0.86800575 C57.24448765 0.81480911 59.31952062 0.78078748 61.39550781 0.7512207 C62.57687317 0.72679398 63.75823853 0.70236725 64.97540283 0.67720032 C68 1 68 1 72 4 C48.24 4 24.48 4 0 4 C0 2.68 0 1.36 0 0 Z " fill="#183445" transform="translate(212,343)"/>
<path d="M0 0 C0.33 0 0.66 0 1 0 C2.05871263 13.23390792 -4.18614512 25.47756602 -10 37 C-10.60932373 38.22831543 -10.60932373 38.22831543 -11.23095703 39.48144531 C-12.5343444 42.0999315 -13.85738231 44.70750206 -15.1875 47.3125 C-15.60338379 48.14354248 -16.01926758 48.97458496 -16.44775391 49.83081055 C-16.8504248 50.60465088 -17.2530957 51.37849121 -17.66796875 52.17578125 C-18.02141357 52.86583252 -18.3748584 53.55588379 -18.73901367 54.2668457 C-20.24439969 56.33591354 -21.65837774 57.03899452 -24 58 C-24 55 -24 55 -23 53 C-22.34 53 -21.68 53 -21 53 C-20.34 50.69 -19.68 48.38 -19 46 C-18.34 46 -17.68 46 -17 46 C-16.73316406 45.13503906 -16.46632813 44.27007812 -16.19140625 43.37890625 C-14.64258273 38.98634119 -12.50565442 35.01685449 -10.33984375 30.90234375 C-9.0982392 28.21280387 -8.4333474 25.91573248 -8 23 C-7.34 23 -6.68 23 -6 23 C-5.7525 21.80375 -5.505 20.6075 -5.25 19.375 C-3.80571838 12.83386947 -1.88283085 6.42538877 0 0 Z " fill="#11F3EF" transform="translate(400,266)"/>
<path d="M0 0 C0.33 0 0.66 0 1 0 C1.81141414 5.01753677 2.1836416 9.91826881 2.23828125 15.00390625 C2.24789383 15.75673386 2.25750641 16.50956146 2.26741028 17.28520203 C2.29202998 19.71101439 2.30465745 22.1365774 2.3125 24.5625 C2.31578308 25.38592896 2.31906616 26.20935791 2.32244873 27.05773926 C2.33949521 40.26200778 1.78136514 53.2482431 -2 66 C-2.99 66.495 -2.99 66.495 -4 67 C-4.09197227 62.19904725 -3.77009343 57.68405737 -3.0625 52.9375 C-2.03437447 45.63124624 -1.4314332 38.36842486 -1 31 C-0.67 31 -0.34 31 0 31 C0 20.77 0 10.54 0 0 Z " fill="#12DBD9" transform="translate(406,197)"/>
<path d="M0 0 C3.87153959 0.58782992 6.68172054 1.73785139 10.0625 3.6953125 C11.01858154 4.24348633 11.97466309 4.79166016 12.9597168 5.35644531 C14.46465698 6.23187988 14.46465698 6.23187988 16 7.125 C18.06853371 8.31072785 20.13754146 9.49562912 22.20703125 10.6796875 C23.20299316 11.25170898 24.19895508 11.82373047 25.22509766 12.41308594 C28.69326774 14.39646668 32.17945414 16.337975 35.6875 18.25 C36.64011719 18.77078125 37.59273438 19.2915625 38.57421875 19.828125 C40.74653103 20.87755122 42.6695264 21.44953493 45 22 C46.625 23.4375 46.625 23.4375 48 25 C48.66 25.66 49.32 26.32 50 27 C45.3344396 26.44911085 41.9385424 25.16729471 37.81640625 22.9375 C36.95659149 22.4762397 36.95659149 22.4762397 36.07940674 22.00566101 C34.23538916 21.01279203 32.39875898 20.00713528 30.5625 19 C29.29988171 18.31456816 28.0371045 17.62942897 26.77416992 16.94458008 C1.63031475 3.2606295 1.63031475 3.2606295 0 0 Z " fill="#09EBE4" transform="translate(316,289)"/>
<path d="M0 0 C7.13012326 1.8688303 13.16500201 6.10485956 19.38867188 9.91992188 C20.29294922 10.45552734 21.19722656 10.99113281 22.12890625 11.54296875 C22.94431885 12.03821045 23.75973145 12.53345215 24.59985352 13.04370117 C27.59637621 14.23761628 28.96266928 14.01204364 32 13 C34.2623518 11.80911247 34.2623518 11.80911247 36.42578125 10.27734375 C37.22177734 9.73916016 38.01777344 9.20097656 38.83789062 8.64648438 C40.06282227 7.80053711 40.06282227 7.80053711 41.3125 6.9375 C42.14845703 6.36966797 42.98441406 5.80183594 43.84570312 5.21679688 C45.90219899 3.81837969 47.95327542 2.41266246 50 1 C50.66 1.33 51.32 1.66 52 2 C47.07105633 5.84457606 42.00390729 9.45818153 36.8125 12.9375 C35.92183838 13.55806274 35.92183838 13.55806274 35.01318359 14.19116211 C30.65238891 17.0639623 30.65238891 17.0639623 27.60449219 16.76513672 C24.81591116 15.94591916 22.58241678 14.85654051 20.05859375 13.41796875 C19.14529297 12.89783203 18.23199219 12.37769531 17.29101562 11.84179688 C16.34935547 11.29587891 15.40769531 10.74996094 14.4375 10.1875 C13.49197266 9.65318359 12.54644531 9.11886719 11.57226562 8.56835938 C7.16757409 6.03760728 3.49661935 3.73170308 0 0 Z " fill="#273C4D" transform="translate(132,214)"/>
<path d="M0 0 C2.93879484 1.35236577 5.29232911 2.89942659 7.75 5 C8.67039062 5.7734375 8.67039062 5.7734375 9.609375 6.5625 C11 8 11 8 11 10 C11.66 10 12.32 10 13 10 C13 10.66 13 11.32 13 12 C13.515625 12.226875 14.03125 12.45375 14.5625 12.6875 C17 14 17 14 20 16.3125 C24.07057213 19.30582745 28.53470703 20.99273773 33.23046875 22.7890625 C35.84276141 23.9312497 37.81106218 25.19242843 40 27 C36.25171212 28.24942929 34.87138395 27.24466845 31.45361328 25.54931641 C30.7470459 25.18241699 30.04047852 24.81551758 29.3125 24.4375 C28.58788574 24.06544434 27.86327148 23.69338867 27.11669922 23.31005859 C18.40978125 18.75358857 12.03020748 13.24950853 5.19921875 6.171875 C3.00106135 3.86350101 3.00106135 3.86350101 0 2 C0 1.34 0 0.68 0 0 Z " fill="#07E8DF" transform="translate(273,139)"/>
<path d="M0 0 C5.45847973 0 7.99675968 1.58276244 12.25 5 C17.74716417 9.26964207 22.12519061 10.21276006 29 10 C26.32333129 12.67666871 24.76050325 12.78714133 21 13 C15.79977865 11.36289328 12.18914486 8.70633602 7.93359375 5.36328125 C5.44387382 3.60790295 2.94154326 2.73538582 0 2 C0 1.34 0 0.68 0 0 Z " fill="#08F2E9" transform="translate(335,245)"/>
<path d="M0 0 C3.06713244 1.36242426 5.11840293 2.89699705 7.4375 5.3125 C8.04464844 5.93769531 8.65179688 6.56289062 9.27734375 7.20703125 C9.84582031 7.79871094 10.41429687 8.39039062 11 9 C11.825 9.825 12.65 10.65 13.5 11.5 C14.325 12.325 15.15 13.15 16 14 C16.52207031 14.49886719 17.04414063 14.99773437 17.58203125 15.51171875 C22.4541291 20.22984511 27.37783896 25.24478856 31 31 C30.67 31.99 30.34 32.98 30 34 C29.52691406 33.39414063 29.05382812 32.78828125 28.56640625 32.1640625 C21.00411849 22.58221642 12.8800714 13.73661009 4.1652832 5.2019043 C2.75967876 3.81850794 1.37740927 2.41147194 0 1 C0 0.67 0 0.34 0 0 Z " fill="#273E4E" transform="translate(342,77)"/>
<path d="M0 0 C4.97697542 0.53701469 8.44827252 2.8544366 12.5625 5.5 C13.26197754 5.9441626 13.96145508 6.3883252 14.68212891 6.84594727 C31.38883494 17.58325241 31.38883494 17.58325241 35 23 C31.28168969 21.69567125 28.76580183 20.15000124 25.8125 17.5625 C20.26749522 12.97672215 14.24861578 9.35082299 8.06958008 5.68188477 C7.31443115 5.23256592 6.55928223 4.78324707 5.78125 4.3203125 C5.10126953 3.92086426 4.42128906 3.52141602 3.72070312 3.10986328 C2 2 2 2 0 0 Z " fill="#13374A" transform="translate(318,35)"/>
<path d="M0 0 C3.739431 0.58345732 6.44618218 1.6902654 9.75 3.5 C17.19548463 7.04400983 24.90359227 6.89559146 33 7 C33 7.66 33 8.32 33 9 C16.22603714 9.54963228 16.22603714 9.54963228 9 6 C7.33533131 5.26628347 5.66861396 4.53719942 4 3.8125 C2.6656095 3.21067185 1.33188071 2.60736227 0 2 C0 1.34 0 0.68 0 0 Z " fill="#293E4F" transform="translate(303,164)"/>
<path d="M0 0 C0.66 0.33 1.32 0.66 2 1 C1.67 1.66 1.34 2.32 1 3 C0.01 2.67 -0.98 2.34 -2 2 C-1.34 1.34 -0.68 0.68 0 0 Z M-2 3 C-2.66 4.32 -3.32 5.64 -4 7 C-4.66 7 -5.32 7 -6 7 C-6 7.66 -6 8.32 -6 9 C-7.72461735 10.35275588 -9.50624651 11.63334715 -11.3125 12.875 C-17.56183949 17.13464401 -17.56183949 17.13464401 -20.6875 23.75 C-20.790625 24.4925 -20.89375 25.235 -21 26 C-21.33 26 -21.66 26 -22 26 C-22.61135371 19.76419214 -22.61135371 19.76419214 -20 16.5 C-18.515 15.2625 -18.515 15.2625 -17 14 C-15.66566505 12.81362558 -14.33239293 11.62605505 -13 10.4375 C-4.39328603 3 -4.39328603 3 -2 3 Z " fill="#07F2ED" transform="translate(118,309)"/>
<path d="M0 0 C0.33 0 0.66 0 1 0 C2.71470076 13.39609967 3.24179823 26.49959855 3 40 C1.00896013 37.0134402 0.73400186 36.29416532 0.5859375 32.9296875 C0.54718506 32.12305664 0.50843262 31.31642578 0.46850586 30.48535156 C0.43764893 29.62393555 0.40679199 28.76251953 0.375 27.875 C0.33705322 26.99295898 0.29910645 26.11091797 0.26000977 25.20214844 C-0.07185489 16.8009307 -0.09799723 8.40598429 0 0 Z " fill="#09CEC7" transform="translate(71,241)"/>
<path d="M0 0 C5.47026655 1.5629333 10.13653342 4.10288099 15.0625 6.875 C16.24682617 7.52662109 16.24682617 7.52662109 17.45507812 8.19140625 C21.60310308 10.50706813 25.39011305 12.87675777 29 16 C23.29424245 15.08831711 18.93236422 12.4712275 13.9375 9.6875 C13.03966797 9.20087891 12.14183594 8.71425781 11.21679688 8.21289062 C10.34990234 7.73400391 9.48300781 7.25511719 8.58984375 6.76171875 C7.80472412 6.32819092 7.01960449 5.89466309 6.21069336 5.44799805 C3.80856339 3.87460955 1.95954468 2.09023684 0 0 Z " fill="#284352" transform="translate(274,293)"/>
<path d="M0 0 C3.63633649 3.16892069 5.48452349 6.6201866 7.3125 11 C7.58900391 11.61617187 7.86550781 12.23234375 8.15039062 12.8671875 C9.29857737 15.56267881 10.06853717 17.49685656 9.66796875 20.4375 C9.44753906 20.953125 9.22710937 21.46875 9 22 C8.32591692 20.73308493 7.66099503 19.46129251 7 18.1875 C6.443125 17.12595703 6.443125 17.12595703 5.875 16.04296875 C5 14 5 14 5 11 C4.34 11 3.68 11 3 11 C2.30034557 9.73581754 1.61565237 8.46334598 0.9375 7.1875 C0.55464844 6.47980469 0.17179687 5.77210938 -0.22265625 5.04296875 C-1 3 -1 3 0 0 Z " fill="#0EF2ED" transform="translate(383,129)"/>
<path d="M0 0 C4.98917432 0.55219988 8.61943937 2.87351364 12.8125 5.4375 C13.50537109 5.84548828 14.19824219 6.25347656 14.91210938 6.67382812 C16.64655453 7.72133047 18.32877914 8.85432029 20 10 C20 10.66 20 11.32 20 12 C17.36 11.67 14.72 11.34 12 11 C12 10.34 12 9.68 12 9 C11.34 8.67 10.68 8.34 10 8 C7.875 6.5625 7.875 6.5625 6 5 C6 4.34 6 3.68 6 3 C5.195625 2.87625 4.39125 2.7525 3.5625 2.625 C2.716875 2.41875 1.87125 2.2125 1 2 C0.67 1.34 0.34 0.68 0 0 Z " fill="#0DF3EA" transform="translate(343,335)"/>
<path d="M0 0 C1 3 1 3 -0.375 6.25 C-3.20800669 10.96163169 -7.5686136 13.88477324 -12 17 C-12.99 16.34 -13.98 15.68 -15 15 C-13.73427767 13.84852339 -12.46222094 12.70400686 -11.1875 11.5625 C-10.12595703 10.60537109 -10.12595703 10.60537109 -9.04296875 9.62890625 C-7 8 -7 8 -4 7 C-2.89163577 5.11683841 -2.89163577 5.11683841 -2 3 C-1.34 2.01 -0.68 1.02 0 0 Z " fill="#0EEDE5" transform="translate(380,237)"/>
<path d="M0 0 C4.49097541 1.34864127 8.32611257 3.14064831 12.375 5.5 C13.43460938 6.1084375 14.49421875 6.716875 15.5859375 7.34375 C16.38257812 7.8903125 17.17921875 8.436875 18 9 C18 9.66 18 10.32 18 11 C17.01 11 16.02 11 15 11 C15 10.34 15 9.68 15 9 C14.071875 8.71125 13.14375 8.4225 12.1875 8.125 C9 7 9 7 6 5 C4.34450469 4.61500109 2.6777567 4.27206865 1 4 C0.67 5.65 0.34 7.3 0 9 C-0.33 9 -0.66 9 -1 9 C-1.125 2.25 -1.125 2.25 0 0 Z " fill="#06EDE3" transform="translate(35,163)"/>
<path d="M0 0 C0.99 0.33 1.98 0.66 3 1 C1.54261898 1.98058352 0.08406325 2.95942132 -1.375 3.9375 C-2.18710938 4.48277344 -2.99921875 5.02804688 -3.8359375 5.58984375 C-7.86253531 8.21367373 -11.26202265 8.51037458 -16 8 C-18.4940413 7.19516866 -20.64464184 6.17767908 -23 5 C-19.98968256 4.06576355 -19.13349732 3.95550089 -16 5 C-9.77119017 5.63343829 -6.77080173 4.74528567 -1.76171875 0.99609375 C-1.18035156 0.66738281 -0.59898438 0.33867187 0 0 Z " fill="#284152" transform="translate(107,159)"/>
<path d="M0 0 C2.74733446 1.2743368 4.94000891 2.64112431 7.20703125 4.64453125 C7.79419922 5.15693359 8.38136719 5.66933594 8.98632812 6.19726562 C9.58896484 6.73029297 10.19160156 7.26332031 10.8125 7.8125 C15.3749714 11.83762471 19.99558255 15.5334317 25 19 C24.34 19.33 23.68 19.66 23 20 C16.2704731 15.3046837 9.99892441 10.38459669 3.99609375 4.78515625 C2.12140655 2.95116302 2.12140655 2.95116302 0 2 C0 1.34 0 0.68 0 0 Z " fill="#273647" transform="translate(254,325)"/>
<path d="M0 0 C2.93879484 1.35236577 5.29232911 2.89942659 7.75 5 C8.67039062 5.7734375 8.67039062 5.7734375 9.609375 6.5625 C11 8 11 8 11 10 C11.66 10 12.32 10 13 10 C13 10.66 13 11.32 13 12 C13.5775 12.2475 14.155 12.495 14.75 12.75 C17.3002997 14.16683317 19.01785701 15.87627537 21 18 C15.47968208 17.74155815 12.92668845 14.35340034 9.375 10.5625 C8.23915837 9.37421523 7.10121322 8.18793674 5.9609375 7.00390625 C5.46384277 6.47611572 4.96674805 5.9483252 4.45458984 5.40454102 C2.84811358 3.76951968 2.84811358 3.76951968 0 2 C0 1.34 0 0.68 0 0 Z " fill="#02F1E9" transform="translate(273,139)"/>
<path d="M0 0 C0.66 0 1.32 0 2 0 C0.64630977 5.14402288 -1.83156287 9.19281996 -4.66015625 13.6328125 C-6.0905911 15.8904433 -6.0905911 15.8904433 -6.49609375 18.2421875 C-6.74552734 19.11230469 -6.74552734 19.11230469 -7 20 C-7.99 20.33 -8.98 20.66 -10 21 C-9.4462522 15.89545207 -6.97407204 12.03424443 -4.4375 7.6875 C-4.01275391 6.94693359 -3.58800781 6.20636719 -3.15039062 5.44335938 C-2.10648347 3.62531882 -1.05407808 1.81216252 0 0 Z " fill="#03EEE4" transform="translate(56,120)"/>
<path d="M0 0 C0.33 0.99 0.66 1.98 1 3 C-0.51171875 5.453125 -0.51171875 5.453125 -2.6875 8.25 C-5.82191655 12.38347752 -8.56161501 16.42802814 -11 21 C-11.75 19.4375 -11.75 19.4375 -12 17 C-9.05884278 10.60617997 -4.46762067 5.38933853 0 0 Z " fill="#E6EDEF" transform="translate(44,93)"/>
<path d="M0 0 C5.02103554 0.57101973 8.82636817 2.90074197 13.125 5.375 C13.84042969 5.77460938 14.55585938 6.17421875 15.29296875 6.5859375 C18.6153192 8.47377775 21.37084359 10.19146841 24 13 C15.43414264 11.28682853 7.16714459 5.82403963 0 1 C0 0.67 0 0.34 0 0 Z " fill="#01F4E4" transform="translate(138,220)"/>
<path d="M0 0 C3.54822446 0.57881268 5.18422803 1.82692359 7.671875 4.37890625 C8.33574219 5.05244141 8.99960937 5.72597656 9.68359375 6.41992188 C10.36550781 7.12697266 11.04742187 7.83402344 11.75 8.5625 C12.44738281 9.27341797 13.14476562 9.98433594 13.86328125 10.71679688 C15.5824658 12.47130714 17.29425872 14.23243352 19 16 C18.34 16.66 17.68 17.32 17 18 C14.56596112 15.63357331 12.24932431 13.32670082 10.1875 10.625 C7.60126187 7.52151425 4.6975392 5.04537962 1.609375 2.453125 C1.07828125 1.97359375 0.5471875 1.4940625 0 1 C0 0.67 0 0.34 0 0 Z " fill="#08F5EF" transform="translate(342,80)"/>
<path d="M0 0 C5.07634826 1.7989503 9.63713611 4.49026455 14.3125 7.125 C15.14845703 7.59292969 15.98441406 8.06085938 16.84570312 8.54296875 C18.89866233 9.6926259 20.95002202 10.84503802 23 12 C20.47368628 12.94215542 19.35145295 13.13821578 16.80175781 12.13549805 C16.02670898 11.68215088 15.25166016 11.22880371 14.453125 10.76171875 C13.60878906 10.27123047 12.76445312 9.78074219 11.89453125 9.27539062 C10.58548828 8.48938477 10.58548828 8.48938477 9.25 7.6875 C8.36183594 7.17509766 7.47367188 6.66269531 6.55859375 6.13476562 C1.73520482 3.29333758 1.73520482 3.29333758 0 2 C0 1.34 0 0.68 0 0 Z " fill="#02EBE0" transform="translate(236,243)"/>
<path d="M0 0 C4.27201855 1.70041033 7.26281092 4.77945366 10.5625 7.875 C11.13935547 8.40480469 11.71621094 8.93460938 12.31054688 9.48046875 C15.1801441 12.14816813 17.78703816 14.73962206 20 18 C17 18 17 18 15.67578125 16.71484375 C15.22589844 16.12832031 14.77601563 15.54179688 14.3125 14.9375 C10.1935944 9.87124611 5.43070173 5.62046782 0 2 C0 1.34 0 0.68 0 0 Z " fill="#193C4E" transform="translate(353,58)"/>
<path d="M0 0 C0.34675781 0.46921875 0.69351562 0.9384375 1.05078125 1.421875 C-7.6222039 0.47573117 -16.28522312 -0.55356524 -24.94921875 -1.578125 C-24.94921875 -1.908125 -24.94921875 -2.238125 -24.94921875 -2.578125 C-17.91232267 -4.01422624 -5.84266055 -4.73033038 0 0 Z " fill="#E1EAEC" transform="translate(256.94921875,10.578125)"/>
<path d="M0 0 C1.05276462 2.737188 1.04640949 3.86695945 0.0625 6.6875 C-1.11889914 10.37068556 -1.08286527 13.22735064 -0.875 17.046875 C-1 19 -1 19 -3 21 C-5.35196334 13.94410999 -3.81246493 7.65956721 -1 1 C-0.67 0.67 -0.34 0.34 0 0 Z " fill="#0BF6EC" transform="translate(59,316)"/>
<path d="M0 0 C0.55300781 0.26039063 1.10601562 0.52078125 1.67578125 0.7890625 C1.34578125 1.7790625 1.01578125 2.7690625 0.67578125 3.7890625 C-0.19046875 3.9746875 -0.19046875 3.9746875 -1.07421875 4.1640625 C-4.42727153 5.09546605 -5.97773374 7.27088346 -8.32421875 9.7890625 C-9.99088542 11.45572917 -11.65755208 13.12239583 -13.32421875 14.7890625 C-12.87979719 9.96142443 -10.88664557 7.78404799 -7.51171875 4.4140625 C-6.63902344 3.51945312 -5.76632812 2.62484375 -4.8671875 1.703125 C-2.32421875 -0.2109375 -2.32421875 -0.2109375 0 0 Z " fill="#04F2EB" transform="translate(264.32421875,288.2109375)"/>
<path d="M0 0 C2.0373026 6.8012207 0.0897571 14.38243586 -2 21 C-2.99 21.66 -3.98 22.32 -5 23 C-4.34240251 17.73229802 -3.26735876 12.69866827 -1.9375 7.5625 C-1.75123047 6.83095703 -1.56496094 6.09941406 -1.37304688 5.34570312 C-0.9186242 3.56296802 -0.45977534 1.78136213 0 0 Z " fill="#08DAD2" transform="translate(33,168)"/>
<path d="M0 0 C4.91441412 1.43652105 9.00238358 3.54159615 13.375 6.125 C14.01566406 6.49753906 14.65632813 6.87007813 15.31640625 7.25390625 C16.88048477 8.16434002 18.44065534 9.08148191 20 10 C18.3046875 10.671875 18.3046875 10.671875 16 11 C13.6328125 9.890625 13.6328125 9.890625 11.125 8.25 C7.48167618 5.93250112 3.89923157 3.84700443 0 2 C0 1.34 0 0.68 0 0 Z " fill="#07F2EB" transform="translate(302,311)"/>
<path d="M0 0 C4.39688864 3.48718754 5.76417605 7.6996884 7 13 C7.1875 16.5625 7.1875 16.5625 7 19 C5 18 5 18 3.7109375 14.7265625 C3.25783875 13.36193566 2.81286206 11.9945918 2.375 10.625 C2.14554687 9.93921875 1.91609375 9.2534375 1.6796875 8.546875 C0.71204999 5.586365 0 3.13391543 0 0 Z " fill="#0FEEEB" transform="translate(393,152)"/>
<path d="M0 0 C0.66 0.33 1.32 0.66 2 1 C0.06402271 3.27214699 -1.87371172 5.54275363 -3.8125 7.8125 C-4.35970703 8.45509766 -4.90691406 9.09769531 -5.47070312 9.75976562 C-6.26831055 10.69272461 -6.26831055 10.69272461 -7.08203125 11.64453125 C-7.56905518 12.21534424 -8.0560791 12.78615723 -8.55786133 13.37426758 C-9.98264145 14.98043159 -11.46631362 16.49814109 -13 18 C-12.35494404 14.51669784 -11.01782732 11.90567134 -9 9 C-8.34 9 -7.68 9 -7 9 C-6.773125 8.443125 -6.54625 7.88625 -6.3125 7.3125 C-4.64103234 4.36753316 -2.44723648 2.31843456 0 0 Z " fill="#EEF4F5" transform="translate(58,76)"/>
<path d="M0 0 C0.66 0 1.32 0 2 0 C3.17361494 1.66138941 4.26425263 3.38179483 5.3125 5.125 C7.3655103 8.47351575 9.36174284 11.58831002 12 14.5 C12.66 15.325 13.32 16.15 14 17 C13.67 17.99 13.34 18.98 13 20 C11.57514584 18.10019446 10.15100167 16.19991672 8.73046875 14.296875 C7.60057486 12.79715128 6.45782027 11.30700706 5.30078125 9.828125 C4.76839844 9.14234375 4.23601562 8.4565625 3.6875 7.75 C3.19636719 7.12609375 2.70523438 6.5021875 2.19921875 5.859375 C0.93620177 3.90108157 0.42817633 2.27689063 0 0 Z " fill="#283C4C" transform="translate(137,310)"/>
<path d="M0 0 C3.80969888 1.49185111 5.45828792 3.60276511 7.75 6.9375 C8.36359375 7.81277344 8.9771875 8.68804687 9.609375 9.58984375 C11 12 11 12 11 15 C10.34 15 9.68 15 9 15 C8.67 13.68 8.34 12.36 8 11 C7.34 11 6.68 11 6 11 C5.67 9.68 5.34 8.36 5 7 C4.34 7 3.68 7 3 7 C0 2.61538462 0 2.61538462 0 0 Z " fill="#0CEEEA" transform="translate(364,102)"/>
<path d="M0 0 C0.66 0 1.32 0 2 0 C3.36100182 1.63320219 4.72024198 3.26790629 6.0703125 4.91015625 C9.62301421 8.75771782 13.84225536 11.83649864 18 15 C17.34 15.66 16.68 16.32 16 17 C13.51244165 14.73821825 11.03648956 12.4641087 8.5625 10.1875 C7.85544922 9.54490234 7.14839844 8.90230469 6.41992188 8.24023438 C5.74638672 7.61826172 5.07285156 6.99628906 4.37890625 6.35546875 C3.7557251 5.78465576 3.13254395 5.21384277 2.49047852 4.62573242 C1 3 1 3 0 0 Z " fill="#02F5EE" transform="translate(249,317)"/>
<path d="M0 0 C3.88014936 1.52059907 5.73906562 3.86078531 8.25 7.125 C8.95640625 8.03507812 9.6628125 8.94515625 10.390625 9.8828125 C11.18726563 10.93082031 11.18726563 10.93082031 12 12 C7.92375891 12 6.54686122 10.35797829 3.5859375 7.734375 C1.4407498 5.38840619 0.65960739 3.07816781 0 0 Z " fill="#05EFE7" transform="translate(137,315)"/>
<path d="M0 0 C4.95 0 9.9 0 15 0 C15 0.99 15 1.98 15 3 C8.07 2.505 8.07 2.505 1 2 C0.67 3.32 0.34 4.64 0 6 C0 4.02 0 2.04 0 0 Z " fill="#05EDE5" transform="translate(299,238)"/>
<path d="M0 0 C6.53903755 0.40868985 11.64426643 5.48194095 16 10 C15.67 10.99 15.34 11.98 15 13 C14.50371094 12.46890625 14.00742187 11.9378125 13.49609375 11.390625 C9.27399575 7.00028401 5.45145911 3.72572956 0 1 C0 0.67 0 0.34 0 0 Z " fill="#264252" transform="translate(266,138)"/>
<path d="M0 0 C4.85110358 4.41009417 8.348107 9.58004353 12 15 C11.34 15.66 10.68 16.32 10 17 C8.51333605 14.92167383 7.03563956 12.83787914 5.5625 10.75 C4.93118164 9.87021484 4.93118164 9.87021484 4.28710938 8.97265625 C0.48430879 3.55746822 0.48430879 3.55746822 0 0 Z " fill="#E4EBEE" transform="translate(386,89)"/>
<path d="M0 0 C0.33 0 0.66 0 1 0 C1 4.62 1 9.24 1 14 C-3.29 14 -7.58 14 -12 14 C-12 13.67 -12 13.34 -12 13 C-8.7 12.67 -5.4 12.34 -2 12 C-1.34 8.04 -0.68 4.08 0 0 Z " fill="#23F5EA" transform="translate(211,334)"/>
<path d="M0 0 C0.99 0.495 0.99 0.495 2 1 C2.33 1.99 2.66 2.98 3 4 C3.66 4.33 4.32 4.66 5 5 C5 5.66 5 6.32 5 7 C6.32 7.33 7.64 7.66 9 8 C9.33 9.32 9.66 10.64 10 12 C7 12 7 12 5.17578125 10.390625 C4.56089844 9.68421875 3.94601562 8.9778125 3.3125 8.25 C2.68988281 7.55390625 2.06726563 6.8578125 1.42578125 6.140625 C0 4 0 4 0 0 Z " fill="#09F2EB" transform="translate(348,185)"/>
<path d="M0 0 C0.99 0.33 1.98 0.66 3 1 C0.37642639 2.81457155 -2.24909753 4.6263006 -4.875 6.4375 C-5.62136719 6.95376953 -6.36773437 7.47003906 -7.13671875 8.00195312 C-8.20986328 8.74155273 -8.20986328 8.74155273 -9.3046875 9.49609375 C-9.96452637 9.95169678 -10.62436523 10.4072998 -11.30419922 10.87670898 C-13 12 -13 12 -15 13 C-13.47901178 8.67562172 -10.20068761 6.65669618 -6.5625 4.1875 C-5.97662109 3.76791016 -5.39074219 3.34832031 -4.78710938 2.91601562 C-3.06640625 1.73046875 -3.06640625 1.73046875 0 0 Z " fill="#15384B" transform="translate(102,41)"/>
<path d="M0 0 C4.34863652 0.56444825 7.17827655 2.15427964 10.8125 4.5625 C12.27623047 5.52349609 12.27623047 5.52349609 13.76953125 6.50390625 C14.50558594 6.99761719 15.24164063 7.49132813 16 8 C15.67 8.99 15.34 9.98 15 11 C4.44191344 3.70159453 4.44191344 3.70159453 0 0 Z " fill="#E6EDEF" transform="translate(328,39)"/>
<path d="M0 0 C4.53847198 1.34927545 8.31932246 3.19159348 12.375 5.625 C13.43460937 6.25664062 14.49421875 6.88828125 15.5859375 7.5390625 C16.38257813 8.02117187 17.17921875 8.50328125 18 9 C17.34 9.66 16.68 10.32 16 11 C14.07884915 9.92463883 12.16324726 8.83936088 10.25 7.75 C9.18265625 7.14671875 8.1153125 6.5434375 7.015625 5.921875 C4.25612421 4.16322942 2.19437901 2.40742552 0 0 Z " fill="#293C4D" transform="translate(253,255)"/>
<path d="M0 0 C5.4185766 -0.22577402 9.77487721 0.53329887 15 2 C15 2.66 15 3.32 15 4 C4.44191344 3.22095672 4.44191344 3.22095672 0 1 C0 0.67 0 0.34 0 0 Z " fill="#06F3EA" transform="translate(315,240)"/>
<path d="M0 0 C0.74958984 0.00902344 1.49917969 0.01804688 2.27148438 0.02734375 C4.11862654 0.05087422 5.96560412 0.08674439 7.8125 0.125 C7.8125 0.455 7.8125 0.785 7.8125 1.125 C1.07968787 2.825773 -4.32002891 3.23265663 -11.1875 2.125 C-7.39586973 -0.40275351 -4.37875969 -0.09943035 0 0 Z " fill="#01F6E5" transform="translate(201.1875,32.875)"/>
<path d="M0 0 C1.70884005 1.62339805 3.37446717 3.29319053 5 5 C5 5.66 5 6.32 5 7 C5.99 7.33 6.98 7.66 8 8 C9.6875 10.5625 9.6875 10.5625 11 13 C8 13 8 13 6.2109375 11.42578125 C5.60507812 10.72839844 4.99921875 10.03101563 4.375 9.3125 C3.76398438 8.62800781 3.15296875 7.94351563 2.5234375 7.23828125 C0.85390213 4.78534851 0.37824488 2.91861931 0 0 Z " fill="#08F6EE" transform="translate(369,218)"/>
<path d="M0 0 C-5.33511378 3.55674252 -10.68573115 3.08426976 -16.875 2.5625 C-17.56335938 2.51029297 -18.25171875 2.45808594 -18.9609375 2.40429688 C-20.64112758 2.27594902 -22.32064749 2.13887775 -24 2 C-24 1.67 -24 1.34 -24 1 C-21.50018262 0.8301095 -19.00020399 0.66402047 -16.5 0.5 C-15.80390625 0.45230469 -15.1078125 0.40460938 -14.390625 0.35546875 C-9.58304475 0.04386633 -4.81771254 -0.04340282 0 0 Z " fill="#206169" transform="translate(224,139)"/>
<path d="M0 0 C0.99 0.33 1.98 0.66 3 1 C2.31292969 1.60328125 1.62585938 2.2065625 0.91796875 2.828125 C0.01691406 3.62734375 -0.88414063 4.4265625 -1.8125 5.25 C-2.70582031 6.03890625 -3.59914063 6.8278125 -4.51953125 7.640625 C-7.00569534 9.86949988 -7.00569534 9.86949988 -8.69921875 12.296875 C-9.12847656 12.85890625 -9.55773437 13.4209375 -10 14 C-10.66 14 -11.32 14 -12 14 C-10.41332422 10.09714233 -7.86649519 7.66479018 -4.875 4.75 C-3.96492188 3.85796875 -3.05484375 2.9659375 -2.1171875 2.046875 C-1.41851562 1.37140625 -0.71984375 0.6959375 0 0 Z " fill="#01F9F0" transform="translate(89,81)"/>
<path d="M0 0 C2.51954654 2.25890379 3.87332733 4.417897 5.25 7.5 C5.60578125 8.2734375 5.9615625 9.046875 6.328125 9.84375 C7 12 7 12 6 15 C4.98965502 13.25595212 3.99207578 11.50450439 3 9.75 C2.1646875 8.28820312 2.1646875 8.28820312 1.3125 6.796875 C0 4 0 4 0 0 Z " fill="#08F6EA" transform="translate(44,305)"/>
<path d="M0 0 C4.14298667 0.59834725 7.18194377 2.00664285 10.8125 4.0625 C11.78832031 4.61035156 12.76414062 5.15820312 13.76953125 5.72265625 C14.50558594 6.14417969 15.24164063 6.56570312 16 7 C15.34 7.66 14.68 8.32 14 9 C7.07 5.04 7.07 5.04 0 1 C0 0.67 0 0.34 0 0 Z " fill="#273D4E" transform="translate(112,220)"/>
<path d="M0 0 C4.29 0.66 8.58 1.32 13 2 C13 2.66 13 3.32 13 4 C8.07872966 4.16682272 4.49656104 4.24828052 0 2 C0 1.34 0 0.68 0 0 Z " fill="#05E1D2" transform="translate(86,161)"/>
<path d="M0 0 C0.66 0 1.32 0 2 0 C3.65 4.62 5.3 9.24 7 14 C6.34 14.66 5.68 15.32 5 16 C4.1605118 13.89828133 3.32860344 11.79353375 2.5 9.6875 C2.0359375 8.51574219 1.571875 7.34398437 1.09375 6.13671875 C0 3 0 3 0 0 Z " fill="#EFF4F5" transform="translate(415,139)"/>
<path d="M0 0 C2.53910197 0.38520564 3.72751123 0.70097943 5.484375 2.62890625 C5.90203125 3.26699219 6.3196875 3.90507812 6.75 4.5625 C7.17796875 5.20316406 7.6059375 5.84382813 8.046875 6.50390625 C8.36140625 6.99761719 8.6759375 7.49132812 9 8 C6.36 7.67 3.72 7.34 1 7 C1.33 6.01 1.66 5.02 2 4 C1.12516085 1.83284443 1.12516085 1.83284443 0 0 Z " fill="#09F3E5" transform="translate(58,339)"/>
<path d="M0 0 C4.8274799 1.41292095 8.7162359 3.42974154 13 6 C12.67 6.66 12.34 7.32 12 8 C7.69235185 6.43358249 3.93828536 4.31663844 0 2 C0 1.34 0 0.68 0 0 Z " fill="#09F3EB" transform="translate(330,327)"/>
<path d="M0 0 C0.33 0 0.66 0 1 0 C0.63495936 5.66442374 -0.0554321 10.00703705 -3 15 C-4.72972617 9.8108215 -2.06662341 4.87132662 0 0 Z " fill="#07F7EA" transform="translate(68,291)"/>
<path d="M0 0 C-1.12759349 3.38278048 -2.24524175 4.41885899 -4.875 6.75 C-5.92300781 7.70132813 -5.92300781 7.70132813 -6.9921875 8.671875 C-7.65476562 9.11015625 -8.31734375 9.5484375 -9 10 C-9.99 9.67 -10.98 9.34 -12 9 C-10.38050958 7.49405319 -8.75424026 5.99539332 -7.125 4.5 C-6.22007813 3.6646875 -5.31515625 2.829375 -4.3828125 1.96875 C-2 0 -2 0 0 0 Z " fill="#E5ECEE" transform="translate(84,53)"/>
<path d="M0 0 C1.67013418 0.65793165 3.3357865 1.32723284 5 2 C5.61230469 2.24105469 6.22460938 2.48210937 6.85546875 2.73046875 C11.88712807 4.77425614 11.88712807 4.77425614 13 7 C7.71862571 6.48474397 4.42778844 4.74522883 0 2 C0 1.34 0 0.68 0 0 Z " fill="#03ECE4" transform="translate(188,330)"/>
<path d="M0 0 C4.8274799 1.41292095 8.7162359 3.42974154 13 6 C13 6.66 13 7.32 13 8 C9.70319035 7.34215037 7.15882078 6.10579427 4.25 4.4375 C3.45078125 3.98246094 2.6515625 3.52742188 1.828125 3.05859375 C1.22484375 2.70925781 0.6215625 2.35992187 0 2 C0 1.34 0 0.68 0 0 Z " fill="#283D4F" transform="translate(295,279)"/>
<path d="M0 0 C4.97209562 1.76429199 9.43438061 4.3939166 14 7 C11 8 11 8 8.30078125 6.78515625 C7.31464844 6.21667969 6.32851563 5.64820313 5.3125 5.0625 C4.31863281 4.49660156 3.32476562 3.93070312 2.30078125 3.34765625 C1.54152344 2.90292969 0.78226562 2.45820313 0 2 C0 1.34 0 0.68 0 0 Z " fill="#03ECE1" transform="translate(264,259)"/>
<path d="M0 0 C5.15464734 0.48324819 8.81550319 3.18610761 13 6 C12.67 6.66 12.34 7.32 12 8 C10.88625 7.2884375 10.88625 7.2884375 9.75 6.5625 C7.38949985 5.22130673 5.63351523 4.487688 3 4 C3 3.34 3 2.68 3 2 C2.01 1.67 1.02 1.34 0 1 C0 0.67 0 0.34 0 0 Z " fill="#01F2E1" transform="translate(115,207)"/>
<path d="M0 0 C0.99 0.33 1.98 0.66 3 1 C1.23754778 2.1999038 -0.53526981 3.38459517 -2.3125 4.5625 C-3.79169922 5.55443359 -3.79169922 5.55443359 -5.30078125 6.56640625 C-6.19152344 7.03949219 -7.08226562 7.51257813 -8 8 C-8.99 7.67 -9.98 7.34 -11 7 C-9.23754778 5.8000962 -7.46473019 4.61540483 -5.6875 3.4375 C-4.70136719 2.77621094 -3.71523437 2.11492187 -2.69921875 1.43359375 C-1.80847656 0.96050781 -0.91773438 0.48742187 0 0 Z " fill="#01EFE4" transform="translate(187,214)"/>
<path d="M0 0 C0.66 0.33 1.32 0.66 2 1 C0.21371169 2.67277835 -1.5785075 4.33824443 -3.375 6 C-4.13683594 6.71542969 -4.13683594 6.71542969 -4.9140625 7.4453125 C-8.7734375 11 -8.7734375 11 -11 11 C-11 10.34 -11 9.68 -11 9 C-9.21895282 7.39821407 -7.37462722 5.86618074 -5.5 4.375 C-4.4790625 3.55773438 -3.458125 2.74046875 -2.40625 1.8984375 C-1.6121875 1.27195313 -0.818125 0.64546875 0 0 Z " fill="#103447" transform="translate(84,54)"/>
<path d="M0 0 C1.33998047 0.31324219 1.33998047 0.31324219 2.70703125 0.6328125 C3.60808594 0.83648437 4.50914062 1.04015625 5.4375 1.25 C6.46810547 1.50136719 6.46810547 1.50136719 7.51953125 1.7578125 C7.84953125 2.7478125 8.17953125 3.7378125 8.51953125 4.7578125 C3.89953125 3.7678125 -0.72046875 2.7778125 -5.48046875 1.7578125 C-2.48046875 -0.2421875 -2.48046875 -0.2421875 0 0 Z " fill="#DFE7EA" transform="translate(265.48046875,11.2421875)"/>
<path d="M0 0 C4.8274799 1.41292095 8.7162359 3.42974154 13 6 C12.34 6.66 11.68 7.32 11 8 C9.35048774 7.04801289 7.70548492 6.08820855 6.0625 5.125 C5.14597656 4.59132813 4.22945313 4.05765625 3.28515625 3.5078125 C1 2 1 2 0 0 Z " fill="#294050" transform="translate(309,287)"/>
<path d="M0 0 C5.15464734 0.48324819 8.81550319 3.18610761 13 6 C10 7 10 7 7.7734375 6.07421875 C6.58621094 5.38779297 6.58621094 5.38779297 5.375 4.6875 C4.57835937 4.23761719 3.78171875 3.78773438 2.9609375 3.32421875 C1 2 1 2 0 0 Z " fill="#284050" transform="translate(214,216)"/>
<path d="M0 0 C4.875 3.75 4.875 3.75 6 6 C6.06950541 7.54023996 6.08452357 9.08334988 6.0625 10.625 C6.05347656 11.44226563 6.04445313 12.25953125 6.03515625 13.1015625 C6.02355469 13.72804687 6.01195312 14.35453125 6 15 C5.67 15 5.34 15 5 15 C4.89042969 14.39671875 4.78085937 13.7934375 4.66796875 13.171875 C3.78331609 8.71265023 3.072371 5.49133069 0 2 C0 1.34 0 0.68 0 0 Z " fill="#274050" transform="translate(356,199)"/>
<path d="M0 0 C1.48828125 1.11328125 1.48828125 1.11328125 3 3 C3.29296875 5.91796875 3.29296875 5.91796875 3.1875 9.1875 C3.16042969 10.27417969 3.13335937 11.36085937 3.10546875 12.48046875 C3.07066406 13.31191406 3.03585937 14.14335937 3 15 C2.67 15 2.34 15 2 15 C1.66223316 13.2508503 1.32996329 11.50063855 1 9.75 C0.814375 8.77546875 0.62875 7.8009375 0.4375 6.796875 C0 4 0 4 0 0 Z " fill="#12F5F1" transform="translate(400,173)"/>
<path d="M0 0 C0.99 0.33 1.98 0.66 3 1 C2.45730469 1.47050781 1.91460937 1.94101563 1.35546875 2.42578125 C0.28232422 3.35970703 0.28232422 3.35970703 -0.8125 4.3125 C-1.52019531 4.92738281 -2.22789063 5.54226562 -2.95703125 6.17578125 C-4.70136739 7.73334335 -6.36778041 9.32658875 -8 11 C-8 8 -8 8 -6.25 5.95703125 C-5.5075 5.24933594 -4.765 4.54164062 -4 3.8125 C-2.88625 2.73935547 -2.88625 2.73935547 -1.75 1.64453125 C-1.1725 1.10183594 -0.595 0.55914062 0 0 Z " fill="#16374A" transform="translate(70,66)"/>
<path d="M0 0 C0.33 0 0.66 0 1 0 C0.67 3.3 0.34 6.6 0 10 C-0.66 10 -1.32 10 -2 10 C-2.33 10.99 -2.66 11.98 -3 13 C-2.52060632 8.28596212 -2.03165952 4.33420699 0 0 Z " fill="#D6E1E4" transform="translate(428,263)"/>
<path d="M0 0 C1.485 0.99 1.485 0.99 3 2 C3.29296875 4.3828125 3.29296875 4.3828125 3.1875 7.125 C3.16042969 8.03507813 3.13335937 8.94515625 3.10546875 9.8828125 C3.07066406 10.58148438 3.03585937 11.28015625 3 12 C2.34 12 1.68 12 1 12 C-0.3271261 8.0186217 -0.06915913 4.14954773 0 0 Z " fill="#0CD6D1" transform="translate(298,238)"/>
<path d="M0 0 C0.90492188 0.38285156 1.80984375 0.76570313 2.7421875 1.16015625 C4.10730469 1.73056641 4.10730469 1.73056641 5.5 2.3125 C6.19867188 2.61285156 6.89734375 2.91320312 7.6171875 3.22265625 C7.6171875 3.88265625 7.6171875 4.54265625 7.6171875 5.22265625 C6.17787633 4.77004267 4.74079751 4.31032646 3.3046875 3.84765625 C2.50417969 3.59242187 1.70367187 3.3371875 0.87890625 3.07421875 C-1.3828125 2.22265625 -1.3828125 2.22265625 -4.3828125 0.22265625 C-2.3828125 -0.77734375 -2.3828125 -0.77734375 0 0 Z " fill="#D9E2E5" transform="translate(292.3828125,19.77734375)"/>
<path d="M0 0 C4.29 0 8.58 0 13 0 C10.36673543 2.63326457 8.67446899 2.71180635 5 3 C2.125 2.0625 2.125 2.0625 0 1 C0 0.67 0 0.34 0 0 Z " fill="#0CFAF0" transform="translate(351,255)"/>
<path d="M0 0 C0.99 0.33 1.98 0.66 3 1 C1.57140593 2.03325986 0.13177617 3.05127634 -1.3125 4.0625 C-2.51326172 4.91521484 -2.51326172 4.91521484 -3.73828125 5.78515625 C-4.48464844 6.18605469 -5.23101562 6.58695313 -6 7 C-6.99 6.67 -7.98 6.34 -9 6 C-7.57140593 4.96674014 -6.13177617 3.94872366 -4.6875 2.9375 C-3.88699219 2.36902344 -3.08648437 1.80054688 -2.26171875 1.21484375 C-1.51535156 0.81394531 -0.76898438 0.41304687 0 0 Z " fill="#273E50" transform="translate(190,227)"/>
<path d="M0 0 C3.12270126 2.51830747 3.94523098 3.7261549 4.75 7.75 C4.8325 8.8225 4.915 9.895 5 11 C4.01 11.495 4.01 11.495 3 12 C2.49440092 10.56445975 1.9957251 9.1264798 1.5 7.6875 C1.2215625 6.88699219 0.943125 6.08648437 0.65625 5.26171875 C0 3 0 3 0 0 Z " fill="#0AF9F1" transform="translate(360,200)"/>
<path d="M0 0 C1.33897583 0.95043374 2.67105427 1.91059147 4 2.875 C5.11375 3.67550781 5.11375 3.67550781 6.25 4.4921875 C6.8275 4.98976563 7.405 5.48734375 8 6 C8 6.66 8 7.32 8 8 C4.21479387 7.45925627 2.40822445 5.92427254 0 3 C0 2.01 0 1.02 0 0 Z " fill="#07F7F0" transform="translate(97,337)"/>
<path d="M0 0 C2 1 2 1 3.125 3.8125 C4 7 4 7 4 11 C3.34 11 2.68 11 2 11 C0.57741188 7.17679443 -0.24042276 4.08718695 0 0 Z " fill="#06F6EB" transform="translate(33,276)"/>
<path d="M0 0 C1.98 0.66 3.96 1.32 6 2 C6.33 1.34 6.66 0.68 7 0 C7.66 1.98 8.32 3.96 9 6 C7.68397477 5.38245741 6.37226444 4.75571258 5.0625 4.125 C4.33160156 3.77695312 3.60070312 3.42890625 2.84765625 3.0703125 C1 2 1 2 0 0 Z " fill="#283D4C" transform="translate(296,262)"/>
<path d="M0 0 C0.99 0 1.98 0 3 0 C3.33 2.64 3.66 5.28 4 8 C3.01 8 2.02 8 1 8 C0.67 5.36 0.34 2.72 0 0 Z " fill="#13E0D8" transform="translate(378,231)"/>
<path d="M0 0 C0.99 0.495 0.99 0.495 2 1 C2 1.66 2 2.32 2 3 C3.32 2.67 4.64 2.34 6 2 C6.99 3.485 6.99 3.485 8 5 C6.02 5.33 4.04 5.66 2 6 C0 3 0 3 0 0 Z " fill="#0DF2E6" transform="translate(50,341)"/>
<path d="M0 0 C0.33 0 0.66 0 1 0 C1.125 7.625 1.125 7.625 0 11 C-0.99 11.33 -1.98 11.66 -3 12 C-2.01 8.04 -1.02 4.08 0 0 Z " fill="#14FAF7" transform="translate(400,266)"/>
<path d="M0 0 C0.66 1.32 1.32 2.64 2 4 C-0.31 4.66 -2.62 5.32 -5 6 C-5.66 5.34 -6.32 4.68 -7 4 C-4.69 2.68 -2.38 1.36 0 0 Z " fill="#03E4D3" transform="translate(167,227)"/>
<path d="M0 0 C3.94120709 0.56302958 6.7508723 1.6791945 10 4 C10 4.66 10 5.32 10 6 C9.01 6 8.02 6 7 6 C7 5.34 7 4.68 7 4 C6.030625 3.71125 5.06125 3.4225 4.0625 3.125 C1 2 1 2 0 0 Z " fill="#03F6EB" transform="translate(43,168)"/>
<path d="M0 0 C4.571279 0.54855348 8.67435795 1.41744803 13 3 C8.43762177 4.44560748 5.50574468 3.40342867 1 2 C0.67 1.34 0.34 0.68 0 0 Z " fill="#00F7E5" transform="translate(189,135)"/>
<path d="M0 0 C1.46726798 3.81489674 0.43336419 6.29011622 -1 10 C-1.66 10 -2.32 10 -3 10 C-2.49287967 6.28111761 -1.88391785 3.26545761 0 0 Z " fill="#07DFD8" transform="translate(250,301)"/>
<path d="M0 0 C3.34373475 0.55728913 6.03312999 1.35173889 9 3 C8.67 3.99 8.34 4.98 8 6 C6.66402348 5.19185349 5.331275 4.37836819 4 3.5625 C3.2575 3.11003906 2.515 2.65757812 1.75 2.19140625 C1.1725 1.79824219 0.595 1.40507812 0 1 C0 0.67 0 0.34 0 0 Z " fill="#02F3E3" transform="translate(66,180)"/>
<path d="M0 0 C0.66 0 1.32 0 2 0 C2 3.96 2 7.92 2 12 C1.67 12 1.34 12 1 12 C0.855625 10.906875 0.71125 9.81375 0.5625 8.6875 C0.11711896 5.06877013 0.11711896 5.06877013 -1 2 C-0.67 1.34 -0.34 0.68 0 0 Z " fill="#0CC9C3" transform="translate(132,290)"/>
<path d="M0 0 C0.99 0.33 1.98 0.66 3 1 C2.34 1 1.68 1 1 1 C1 1.66 1 2.32 1 3 C-1.31 4.32 -3.62 5.64 -6 7 C-4.61990379 3.66476748 -3.15049348 1.81392049 0 0 Z " fill="#01EEE6" transform="translate(101,71)"/>
<path d="M0 0 C-1.28813342 0.83878455 -2.58063256 1.67086783 -3.875 2.5 C-4.59429687 2.9640625 -5.31359375 3.428125 -6.0546875 3.90625 C-8 5 -8 5 -10 5 C-10 4.34 -10 3.68 -10 3 C-3.375 -1.125 -3.375 -1.125 0 0 Z " fill="#02EFE6" transform="translate(123,59)"/>
<path d="M0 0 C3.465 1.485 3.465 1.485 7 3 C7 3.99 7 4.98 7 6 C2.545 4.02 2.545 4.02 -2 2 C-1.34 1.34 -0.68 0.68 0 0 Z " fill="#E1EAEC" transform="translate(309,27)"/>
<path d="M0 0 C0 0.33 0 0.66 0 1 C-3.96 1.66 -7.92 2.32 -12 3 C-12 2.34 -12 1.68 -12 1 C-7.58774263 -0.47075246 -4.51718381 -1.36884358 0 0 Z " fill="#D9E3E6" transform="translate(178,11)"/>
<path d="M0 0 C3 0 3 0 4.5625 1.375 C5.036875 1.91125 5.51125 2.4475 6 3 C6.66 3.66 7.32 4.32 8 5 C2.25 4.125 2.25 4.125 0 3 C0 2.01 0 1.02 0 0 Z " fill="#0CF7F0" transform="translate(358,311)"/>
<path d="M0 0 C3.82097239 0.53069061 6.06171403 1.49701566 9 4 C8.67 4.66 8.34 5.32 8 6 C6.66402348 5.19185349 5.331275 4.37836819 4 3.5625 C3.2575 3.11003906 2.515 2.65757812 1.75 2.19140625 C1.1725 1.79824219 0.595 1.40507812 0 1 C0 0.67 0 0.34 0 0 Z " fill="#05F3EA" transform="translate(275,296)"/>
<path d="M0 0 C0.66 0 1.32 0 2 0 C2.33 2.64 2.66 5.28 3 8 C2.01 8.495 2.01 8.495 1 9 C0.67 6.03 0.34 3.06 0 0 Z " fill="#D9E4E7" transform="translate(4,261)"/>
<path d="M0 0 C3.34373475 0.55728913 6.03312999 1.35173889 9 3 C9 3.66 9 4.32 9 5 C5.12867972 4.42647107 2.91827204 2.51295648 0 0 Z " fill="#05F2EC" transform="translate(287,303)"/>
<path d="M0 0 C0.33 0 0.66 0 1 0 C0.25 6.75 0.25 6.75 -2 9 C-3 6 -3 6 -1.5625 2.8125 C-1.046875 1.884375 -0.53125 0.95625 0 0 Z " fill="#04DED7" transform="translate(188,296)"/>
<path d="M0 0 C0.66 0 1.32 0 2 0 C2.66 2.31 3.32 4.62 4 7 C2.68 6.34 1.36 5.68 0 5 C0 3.35 0 1.7 0 0 Z " fill="#215E6A" transform="translate(31,279)"/>
<path d="M0 0 C5.75 1.875 5.75 1.875 8 3 C8 3.66 8 4.32 8 5 C5.07120629 4.37240135 2.63904371 3.41377341 0 2 C0 1.34 0 0.68 0 0 Z " fill="#273C4E" transform="translate(244,250)"/>
<path d="M0 0 C3.82097239 0.53069061 6.06171403 1.49701566 9 4 C4.73012377 4 3.40274199 3.36301527 0 1 C0 0.67 0 0.34 0 0 Z " fill="#283C4C" transform="translate(64,152)"/>
<path d="M0 0 C0.89332031 0.12761719 1.78664062 0.25523438 2.70703125 0.38671875 C3.60808594 0.50660156 4.50914062 0.62648438 5.4375 0.75 C6.12457031 0.85699219 6.81164062 0.96398438 7.51953125 1.07421875 C7.51953125 1.40421875 7.51953125 1.73421875 7.51953125 2.07421875 C1.08453125 2.56921875 1.08453125 2.56921875 -5.48046875 3.07421875 C-2.48046875 0.07421875 -2.48046875 0.07421875 0 0 Z " fill="#AEC3C9" transform="translate(187.48046875,7.92578125)"/>
</svg>
